<?xml version="1.0" encoding="UTF-8"?>
<svg width="18px" height="18px" viewBox="0 0 18 18" version="1.1" xmlns="http://www.w3.org/2000/svg" xmlns:xlink="http://www.w3.org/1999/xlink">
    <title>授权</title>
    <g id="优化" stroke="none" stroke-width="1" fill="none" fill-rule="evenodd">
        <g id="项目列表" transform="translate(-1831.000000, -219.000000)" fill-rule="nonzero">
            <g id="授权" transform="translate(1831.000000, 219.000000)">
                <rect id="矩形" fill-opacity="0.01" fill="#FFFFFF" x="0" y="0" width="18" height="18"></rect>
                <path d="M13.6361265,5.57142857 L17.5,5.57142857 L17.5,7.09542857 L13.6361265,7.09542857 L13.6361265,5.57142857 Z M12.0910408,9.38114286 L17.5,9.38114286 L17.5,10.9051429 L12.0910408,10.9051429 L12.0910408,9.38114286 Z M14.409249,13.1908571 L17.5,13.1908571 L17.5,14.7148571 L14.409249,14.7148571 L14.409249,13.1908571 Z M0.5,17 C0.5,13.6337143 3.26794054,10.9045714 6.68208161,10.9045714 C10.0962227,10.9045714 12.8641632,13.6337143 12.8641632,17 L12.8641632,17 L11.3184979,17 C11.3184979,14.4754286 9.24254253,12.4285714 6.68208161,12.4285714 C4.1216207,12.4285714 2.04566529,14.4754286 2.04566529,17 L2.04566529,17 L0.5,17 Z M6.68150206,10.1428571 C4.11988204,10.1428571 2.04508574,8.09714286 2.04508574,5.57142857 C2.04508574,3.04571429 4.11988204,1 6.68150206,1 C9.24312208,1 11.3179184,3.04571429 11.3179184,5.57142857 C11.3179184,8.09714286 9.24312208,10.1428571 6.68150206,10.1428571 Z M6.68150206,8.61942857 C8.38944193,8.61942857 9.77225309,7.25542857 9.77225309,5.572 C9.77225309,3.88857143 8.38886237,2.52457143 6.68150206,2.52457143 C4.97414175,2.52457143 3.59075103,3.88857143 3.59075103,5.572 C3.59075103,7.25542857 4.97414175,8.61942857 6.68150206,8.61942857 Z" id="形状" fill="#1E86FF"></path>
            </g>
        </g>
    </g>
</svg>