<svg xml:space="preserve" viewBox="0 0 24 24" xmlns="http://www.w3.org/2000/svg"><path clip-rule="evenodd" fill="none" d="M0 0h24v24H0z"/><path d="M12 2a1 1 0 0 1 .993.883L13 3l.001 1.062A8.005 8.005 0 0 1 19.938 11H21a1 1 0 0 1 .117 1.993L21 13l-1.062.001a8.005 8.005 0 0 1-6.937 6.937L13 21a1 1 0 0 1-1.993.117L11 21v-1.062a8.005 8.005 0 0 1-6.938-6.937L3 13a1 1 0 0 1-.117-1.993L3 11h1.062A8.003 8.003 0 0 1 11 4.062V3a1 1 0 0 1 1-1zm0 4a6 6 0 1 0 0 12 6 6 0 0 0 0-12zm0 3a3 3 0 1 1 0 6 3 3 0 0 1 0-6zm0 2a1 1 0 1 0 0 2 1 1 0 0 0 0-2z"/></svg>