<svg xml:space="preserve" viewBox="0 0 24 24" xmlns="http://www.w3.org/2000/svg"><path clip-rule="evenodd" fill="none" d="M0 0h24v24H0z"/><path d="M10.707 4.293a1 1 0 0 1 .083 1.32l-.083.094-5.292 5.292L21 11a1 1 0 0 1 .117 1.993L21 13l-15.587-.001 5.294 5.294a1 1 0 0 1 .083 1.32l-.083.094a1 1 0 0 1-1.32.083l-.094-.083-7-7-.073-.082-.007-.009.08.09a1.024 1.024 0 0 1-.147-.187c-.007-.012-.015-.024-.021-.037a1.161 1.161 0 0 1-.053-.113l-.022-.06-.014-.046a1.538 1.538 0 0 1-.016-.065l-.009-.052-.007-.058A1.429 1.429 0 0 1 2 12.019v-.038c0-.023.002-.047.004-.07L2 12c0-.051.004-.1.011-.149l.009-.052c.004-.022.01-.044.015-.065a.618.618 0 0 1 .014-.046c.006-.02.014-.039.021-.059a.817.817 0 0 1 .054-.113l.021-.036a.958.958 0 0 1 .05-.074l.013-.018a.99.99 0 0 1 .083-.094l7-7a1 1 0 0 1 1.416-.001z"/></svg>