<?xml version="1.0" encoding="UTF-8"?>
<svg width="24px" height="24px" viewBox="0 0 24 24" version="1.1" xmlns="http://www.w3.org/2000/svg" xmlns:xlink="http://www.w3.org/1999/xlink">
    <title>-mockplus-</title>
    <g id="页面-1" stroke="none" stroke-width="1" fill="none" fill-rule="evenodd">
        <g id="图标库" transform="translate(-407.000000, -264.000000)">
            <g id="01图标-/-01通用图标-/-01单色线性-/-箭头-/-单箭头_左" transform="translate(407.000000, 264.000000)">
                <rect id="背景" fill="#FFFFFF" opacity="0" x="0" y="0" width="24" height="24"></rect>
                <g id="网格" opacity="0" stroke="#979797" stroke-linecap="square" stroke-width="0.1">
                    <g id="竖线" transform="translate(0.500000, 0.000000)">
                        <line x1="0.5" y1="0" x2="0.5" y2="24" id="直线"></line>
                        <line x1="1.5" y1="0" x2="1.5" y2="24" id="直线"></line>
                        <line x1="2.5" y1="0" x2="2.5" y2="24" id="直线备份"></line>
                        <line x1="3.5" y1="0" x2="3.5" y2="24" id="直线备份-2"></line>
                        <line x1="4.5" y1="0" x2="4.5" y2="24" id="直线备份-3"></line>
                        <line x1="5.5" y1="0" x2="5.5" y2="24" id="直线备份-4"></line>
                        <line x1="6.5" y1="0" x2="6.5" y2="24" id="直线备份-5"></line>
                        <line x1="7.5" y1="0" x2="7.5" y2="24" id="直线备份-6"></line>
                        <line x1="8.5" y1="0" x2="8.5" y2="24" id="直线备份-7"></line>
                        <line x1="9.5" y1="0" x2="9.5" y2="24" id="直线备份-8"></line>
                        <line x1="10.5" y1="0" x2="10.5" y2="24" id="直线备份-9"></line>
                        <line x1="11.5" y1="0" x2="11.5" y2="24" id="直线备份-10"></line>
                        <line x1="12.5" y1="0" x2="12.5" y2="24" id="直线备份-11"></line>
                        <line x1="13.5" y1="0" x2="13.5" y2="24" id="直线备份-12"></line>
                        <line x1="14.5" y1="0" x2="14.5" y2="24" id="直线备份-13"></line>
                        <line x1="15.5" y1="0" x2="15.5" y2="24" id="直线备份-14"></line>
                        <line x1="16.5" y1="0" x2="16.5" y2="24" id="直线备份-15"></line>
                        <line x1="17.5" y1="0" x2="17.5" y2="24" id="直线备份-16"></line>
                        <line x1="18.5" y1="0" x2="18.5" y2="24" id="直线备份-17"></line>
                        <line x1="19.5" y1="0" x2="19.5" y2="24" id="直线备份-18"></line>
                        <line x1="20.5" y1="0" x2="20.5" y2="24" id="直线备份-19"></line>
                        <line x1="21.5" y1="0" x2="21.5" y2="24" id="直线备份-20"></line>
                        <line x1="22.5" y1="0" x2="22.5" y2="24" id="直线备份-21"></line>
                    </g>
                    <g id="横线" transform="translate(12.000000, 12.000000) rotate(-270.000000) translate(-12.000000, -12.000000) translate(0.500000, 0.000000)">
                        <line x1="0.5" y1="0" x2="0.5" y2="24" id="直线"></line>
                        <line x1="1.5" y1="0" x2="1.5" y2="24" id="直线"></line>
                        <line x1="2.5" y1="0" x2="2.5" y2="24" id="直线备份"></line>
                        <line x1="3.5" y1="0" x2="3.5" y2="24" id="直线备份-2"></line>
                        <line x1="4.5" y1="0" x2="4.5" y2="24" id="直线备份-3"></line>
                        <line x1="5.5" y1="0" x2="5.5" y2="24" id="直线备份-4"></line>
                        <line x1="6.5" y1="0" x2="6.5" y2="24" id="直线备份-5"></line>
                        <line x1="7.5" y1="0" x2="7.5" y2="24" id="直线备份-6"></line>
                        <line x1="8.5" y1="0" x2="8.5" y2="24" id="直线备份-7"></line>
                        <line x1="9.5" y1="0" x2="9.5" y2="24" id="直线备份-8"></line>
                        <line x1="10.5" y1="0" x2="10.5" y2="24" id="直线备份-9"></line>
                        <line x1="11.5" y1="0" x2="11.5" y2="24" id="直线备份-10"></line>
                        <line x1="12.5" y1="0" x2="12.5" y2="24" id="直线备份-11"></line>
                        <line x1="13.5" y1="0" x2="13.5" y2="24" id="直线备份-12"></line>
                        <line x1="14.5" y1="0" x2="14.5" y2="24" id="直线备份-13"></line>
                        <line x1="15.5" y1="0" x2="15.5" y2="24" id="直线备份-14"></line>
                        <line x1="16.5" y1="0" x2="16.5" y2="24" id="直线备份-15"></line>
                        <line x1="17.5" y1="0" x2="17.5" y2="24" id="直线备份-16"></line>
                        <line x1="18.5" y1="0" x2="18.5" y2="24" id="直线备份-17"></line>
                        <line x1="19.5" y1="0" x2="19.5" y2="24" id="直线备份-18"></line>
                        <line x1="20.5" y1="0" x2="20.5" y2="24" id="直线备份-19"></line>
                        <line x1="21.5" y1="0" x2="21.5" y2="24" id="直线备份-20"></line>
                        <line x1="22.5" y1="0" x2="22.5" y2="24" id="直线备份-21"></line>
                    </g>
                </g>
                <g id="Keyline" opacity="0" transform="translate(1.000000, 2.000000)" stroke="#000000" stroke-opacity="0.05" stroke-width="0.5">
                    <rect id="正方形-大" x="2.25" y="1.25" width="17.5" height="17.5" rx="1"></rect>
                    <rect id="正方形-小" x="5.25" y="4.25" width="11.5" height="11.5" rx="1"></rect>
                    <rect id="矩形-竖" x="3.25" y="0.25" width="15.5" height="19.5" rx="1"></rect>
                    <rect id="矩形-横" x="1.25" y="2.25" width="19.5" height="15.5" rx="1"></rect>
                    <circle id="圆形" cx="11" cy="10" r="9.75"></circle>
                    <path d="M11,0.498965873 L21.5663882,18.75 L0.433611821,18.75 L11,0.498965873 Z" id="三角形"></path>
                </g>
                <g id="icon" transform="translate(9.500000, 7.000000)" stroke="#434B5B" stroke-linecap="round" stroke-linejoin="round" stroke-width="2">
                    <polyline id="路径-2" transform="translate(2.500000, 5.000000) scale(1, -1) rotate(-270.000000) translate(-2.500000, -5.000000) " points="7.5 2.5 2.5 7.5 -2.5 2.5"></polyline>
                </g>
            </g>
        </g>
    </g>
</svg>