<svg viewBox="0 0 24 24" xmlns="http://www.w3.org/2000/svg"><path fill="transparent" d="M0 0h24v24H0z"/><path d="M12 2c.51 0 .94.39.99.88v15.7l5.3-5.29c.36-.36.93-.39 1.32-.08l.09.08c.36.36.39.93.08 1.32l-.08.09-7 7s-.06.06-.09.08l.09-.08s-.07.07-.11.1c-.02.02-.05.03-.07.05l-.04.02-.06.03c-.02 0-.03.02-.05.02-.02 0-.04.02-.06.02h-.05s-.04.02-.07.03h-.28.09-.2c-.02 0-.04 0-.07-.02h-.05s-.04-.03-.06-.04c-.02 0-.04-.01-.05-.02-.02 0-.04-.02-.06-.03l-.04-.02s-.05-.03-.07-.05h-.02s-.07-.07-.09-.1l-7-7a.996.996 0 0 1 0-1.41c.36-.36.93-.39 1.32-.08l.09.08 5.29 5.29V3c0-.55.45-1 1-1Z"/></svg>