<svg xml:space="preserve" viewBox="0 0 24 24" xmlns="http://www.w3.org/2000/svg"><path clip-rule="evenodd" fill="none" d="M0 0h24v24H0z"/><path d="M12 2h.018c.024 0 .047.002.071.004L12 2a1.045 1.045 0 0 1 .201.02c.022.004.044.01.065.015a.618.618 0 0 1 .046.014c.02.006.039.014.059.021a.817.817 0 0 1 .113.054l.036.021c.026.016.05.032.074.05l.018.013.013.01.082.073 7 7a.999.999 0 0 1-1.32 1.497l-.094-.083-5.294-5.294L13 21a1 1 0 0 1-1.993.117L11 21l-.001-15.585-5.292 5.292a1 1 0 0 1-1.32.083l-.094-.083a1 1 0 0 1-.083-1.32l.083-.094 7-7 .082-.073.009-.007-.09.08a1.024 1.024 0 0 1 .187-.147c.012-.007.024-.015.037-.021a1.161 1.161 0 0 1 .113-.053l.06-.022.046-.014.065-.016.052-.009.059-.007.07-.004H12z"/></svg>