<svg viewBox="0 0 24 24" xmlns="http://www.w3.org/2000/svg"><path fill="transparent" d="M0 0h24v24H0z"/><path d="m6.62 5.22.09.08L17 15.59V8.01c0-.51.38-.93.88-.99h.13c.51 0 .93.37.99.87V18.1v-.09.15c0 .02 0 .04-.01.06 0 .02 0 .04-.01.06v.05s-.03.04-.04.06c0 .02-.01.03-.02.05-.01.02-.02.04-.03.07l-.02.03s-.03.05-.05.07l-.02.03s-.05.06-.07.09l-.03.03s-.04.03-.06.05l.09-.08s-.07.07-.11.1c-.02.02-.05.03-.07.05l-.04.02s-.05.02-.07.04h-.03s-.05.03-.08.04h-.05l-.06.03c-.02 0-.04 0-.06.01h-.06s-.05.01-.07.01H8c-.55 0-1-.45-1-1 0-.51.38-.93.87-.99h7.71L5.29 6.71a.996.996 0 0 1 0-1.41c.36-.36.93-.39 1.33-.08Z"/></svg>