<?xml version="1.0" encoding="UTF-8"?>
<svg width="20px" height="20px" viewBox="0 0 20 20" version="1.1" xmlns="http://www.w3.org/2000/svg" xmlns:xlink="http://www.w3.org/1999/xlink">
    <g id="∟-----项目" stroke="none" stroke-width="1" fill="none" fill-rule="evenodd">
        <g id="项目专项计划执行过程中调整节点（以设计为例）-" transform="translate(-1083.000000, -1162.000000)">
            <g id="编组-13备份-3" transform="translate(876.000000, 1148.000000)">
                <g id="01图标-/-01通用图标-/-03实色填充-/-符号-/-叉" transform="translate(208.000000, 15.000000)">
                    <rect id="背景" fill="#A3AFBB" opacity="0" x="0" y="0" width="18" height="18"></rect>
                    <g id="网格" opacity="0" stroke="#A3AFBB" stroke-linecap="square" stroke-width="0.5">
                        <g id="竖线" transform="translate(0.375000, 0.000000)">
                            <line x1="0.375" y1="0" x2="0.375" y2="18" id="直线"></line>
                            <line x1="1.125" y1="0" x2="1.125" y2="18" id="直线"></line>
                            <line x1="1.875" y1="0" x2="1.875" y2="18" id="直线备份"></line>
                            <line x1="2.625" y1="0" x2="2.625" y2="18" id="直线备份-2"></line>
                            <line x1="3.375" y1="0" x2="3.375" y2="18" id="直线备份-3"></line>
                            <line x1="4.125" y1="0" x2="4.125" y2="18" id="直线备份-4"></line>
                            <line x1="4.875" y1="0" x2="4.875" y2="18" id="直线备份-5"></line>
                            <line x1="5.625" y1="0" x2="5.625" y2="18" id="直线备份-6"></line>
                            <line x1="6.375" y1="0" x2="6.375" y2="18" id="直线备份-7"></line>
                            <line x1="7.125" y1="0" x2="7.125" y2="18" id="直线备份-8"></line>
                            <line x1="7.875" y1="0" x2="7.875" y2="18" id="直线备份-9"></line>
                            <line x1="8.625" y1="0" x2="8.625" y2="18" id="直线备份-10"></line>
                            <line x1="9.375" y1="0" x2="9.375" y2="18" id="直线备份-11"></line>
                            <line x1="10.125" y1="0" x2="10.125" y2="18" id="直线备份-12"></line>
                            <line x1="10.875" y1="0" x2="10.875" y2="18" id="直线备份-13"></line>
                            <line x1="11.625" y1="0" x2="11.625" y2="18" id="直线备份-14"></line>
                            <line x1="12.375" y1="0" x2="12.375" y2="18" id="直线备份-15"></line>
                            <line x1="13.125" y1="0" x2="13.125" y2="18" id="直线备份-16"></line>
                            <line x1="13.875" y1="0" x2="13.875" y2="18" id="直线备份-17"></line>
                            <line x1="14.625" y1="0" x2="14.625" y2="18" id="直线备份-18"></line>
                            <line x1="15.375" y1="0" x2="15.375" y2="18" id="直线备份-19"></line>
                            <line x1="16.125" y1="0" x2="16.125" y2="18" id="直线备份-20"></line>
                            <line x1="16.875" y1="0" x2="16.875" y2="18" id="直线备份-21"></line>
                        </g>
                        <g id="横线" transform="translate(9.000000, 9.000000) rotate(-270.000000) translate(-9.000000, -9.000000) translate(0.375000, 0.000000)">
                            <line x1="0.375" y1="0" x2="0.375" y2="18" id="直线"></line>
                            <line x1="1.125" y1="0" x2="1.125" y2="18" id="直线"></line>
                            <line x1="1.875" y1="0" x2="1.875" y2="18" id="直线备份"></line>
                            <line x1="2.625" y1="0" x2="2.625" y2="18" id="直线备份-2"></line>
                            <line x1="3.375" y1="0" x2="3.375" y2="18" id="直线备份-3"></line>
                            <line x1="4.125" y1="0" x2="4.125" y2="18" id="直线备份-4"></line>
                            <line x1="4.875" y1="0" x2="4.875" y2="18" id="直线备份-5"></line>
                            <line x1="5.625" y1="0" x2="5.625" y2="18" id="直线备份-6"></line>
                            <line x1="6.375" y1="0" x2="6.375" y2="18" id="直线备份-7"></line>
                            <line x1="7.125" y1="0" x2="7.125" y2="18" id="直线备份-8"></line>
                            <line x1="7.875" y1="0" x2="7.875" y2="18" id="直线备份-9"></line>
                            <line x1="8.625" y1="0" x2="8.625" y2="18" id="直线备份-10"></line>
                            <line x1="9.375" y1="0" x2="9.375" y2="18" id="直线备份-11"></line>
                            <line x1="10.125" y1="0" x2="10.125" y2="18" id="直线备份-12"></line>
                            <line x1="10.875" y1="0" x2="10.875" y2="18" id="直线备份-13"></line>
                            <line x1="11.625" y1="0" x2="11.625" y2="18" id="直线备份-14"></line>
                            <line x1="12.375" y1="0" x2="12.375" y2="18" id="直线备份-15"></line>
                            <line x1="13.125" y1="0" x2="13.125" y2="18" id="直线备份-16"></line>
                            <line x1="13.875" y1="0" x2="13.875" y2="18" id="直线备份-17"></line>
                            <line x1="14.625" y1="0" x2="14.625" y2="18" id="直线备份-18"></line>
                            <line x1="15.375" y1="0" x2="15.375" y2="18" id="直线备份-19"></line>
                            <line x1="16.125" y1="0" x2="16.125" y2="18" id="直线备份-20"></line>
                            <line x1="16.875" y1="0" x2="16.875" y2="18" id="直线备份-21"></line>
                        </g>
                    </g>
                    <g id="Keyline" opacity="0" transform="translate(0.750000, 1.500000)" stroke="#A3AFBB" stroke-opacity="0.05" stroke-width="0.5">
                        <rect id="正方形-大" x="1.75" y="1" width="13" height="13" rx="0.75"></rect>
                        <rect id="正方形-小" x="4" y="3.25" width="8.5" height="8.5" rx="0.75"></rect>
                        <rect id="矩形-竖" x="2.5" y="0.25" width="11.5" height="14.5" rx="0.75"></rect>
                        <rect id="矩形-横" x="1" y="1.75" width="14.5" height="11.5" rx="0.75"></rect>
                        <circle id="圆形" cx="8.25" cy="7.5" r="7.25"></circle>
                        <path d="M8.25,0.498965873 L16.0663882,14 L0.433611821,14 L8.25,0.498965873 Z" id="三角形"></path>
                    </g>
                    <g id="icon" transform="translate(1.500000, 1.500000)" fill="#A3AFBB" fill-rule="nonzero">
                        <path d="M7.5,0 C11.6421356,0 15,3.35786438 15,7.5 C15,11.6421356 11.6421356,15 7.5,15 C3.35786438,15 0,11.6421356 0,7.5 C0,3.35786438 3.35786438,0 7.5,0 Z M10.2803301,4.71966991 C10.0099671,4.44930694 9.58454382,4.42850979 9.29032542,4.65727846 L9.21966991,4.71966991 L7.5,6.439 L5.78033009,4.71966991 L5.70967458,4.65727846 C5.41545618,4.42850979 4.99003289,4.44930694 4.71966991,4.71966991 C4.4267767,5.01256313 4.4267767,5.48743687 4.71966991,5.78033009 L6.439,7.5 L4.71966991,9.21966991 C4.4267767,9.51256313 4.4267767,9.98743687 4.71966991,10.2803301 C4.99003289,10.5506931 5.41545618,10.5714902 5.70967458,10.3427215 L5.78033009,10.2803301 L7.5,8.561 L9.21966991,10.2803301 L9.29032542,10.3427215 C9.58454382,10.5714902 10.0099671,10.5506931 10.2803301,10.2803301 C10.5732233,9.98743687 10.5732233,9.51256313 10.2803301,9.21966991 L8.561,7.5 L10.2803301,5.78033009 C10.5732233,5.48743687 10.5732233,5.01256313 10.2803301,4.71966991 Z" id="形状结合"></path>
                    </g>
                </g>
            </g>
        </g>
    </g>
</svg>