<svg xml:space="preserve" viewBox="0 0 24 24" xmlns="http://www.w3.org/2000/svg"><path clip-rule="evenodd" fill="none" d="M0 0h24v24H0z"/><path d="M19 5a3 3 0 0 1 3 3v8a3 3 0 0 1-3 3H8.937a3 3 0 0 1-2.305-1.079l-3.333-4a3 3 0 0 1 0-3.841l3.333-4A2.997 2.997 0 0 1 8.937 5H19zm0 2H8.937a1 1 0 0 0-.768.36l-3.333 4a1 1 0 0 0 0 1.28l3.333 4a1 1 0 0 0 .768.36H19a1 1 0 0 0 1-1V8a1 1 0 0 0-1-1zm-6.387 2.21.094.083 1.292 1.292 1.293-1.292a.999.999 0 0 1 1.497 1.32l-.083.094L15.414 12l1.293 1.293a.999.999 0 0 1-1.32 1.497l-.094-.083L14 13.414l-1.292 1.293a.999.999 0 0 1-1.497-1.32l.083-.094L12.585 12l-1.293-1.293a1.001 1.001 0 0 1 1.321-1.497z"/></svg>