<?xml version="1.0" encoding="UTF-8"?>
<svg width="20px" height="20px" viewBox="0 0 20 20" version="1.1" xmlns="http://www.w3.org/2000/svg" xmlns:xlink="http://www.w3.org/1999/xlink">
    <title></title>
    <g id="优化" stroke="none" stroke-width="1" fill="none" fill-rule="evenodd">
        <g id="项目列表" transform="translate(-20.000000, -579.000000)" fill="#FFFFFF" fill-rule="nonzero">
            <g id="编组-49备份" transform="translate(0.000000, 565.000000)">
                <g id="编组-6备份-3" transform="translate(18.000000, 14.000000)">
                    <g id="编组-27" transform="translate(2.000000, 0.000000)">
                        <path d="M9.16666667,2.75 C10.3011373,2.09501309 11.6988627,2.09501309 12.8333333,2.75 L17.2280429,5.28728676 C18.3625135,5.94227367 19.0613762,7.15273941 19.0613762,8.46271324 L19.0613762,13.5372868 C19.0613762,14.8472606 18.3625135,16.0577263 17.2280429,16.7127132 L12.8333333,19.25 C11.6988627,19.9049869 10.3011373,19.9049869 9.16666667,19.25 L4.77195709,16.7127132 C3.63748647,16.0577263 2.93862375,14.8472606 2.93862375,13.5372868 L2.93862375,8.46271324 C2.93862375,7.15273941 3.63748647,5.94227367 4.77195709,5.28728676 Z M11,7.33333333 C8.97495592,7.33333333 7.33333333,8.97495592 7.33333333,11 C7.33333333,13.0250441 8.97495592,14.6666667 11,14.6666667 C13.0250441,14.6666667 14.6666667,13.0250441 14.6666667,11 C14.6666667,8.97495592 13.0250441,7.33333333 11,7.33333333 Z M11,9.16666667 C12.012522,9.16666667 12.8333333,9.98747796 12.8333333,11 C12.8333333,12.012522 12.012522,12.8333333 11,12.8333333 C9.98747796,12.8333333 9.16666667,12.012522 9.16666667,11 C9.16666667,9.98747796 9.98747796,9.16666667 11,9.16666667 Z" id="路径"></path>
                    </g>
                </g>
            </g>
        </g>
    </g>
</svg>