<?xml version="1.0" encoding="UTF-8"?>
<svg width="20px" height="20px" viewBox="0 0 20 20" version="1.1" xmlns="http://www.w3.org/2000/svg" xmlns:xlink="http://www.w3.org/1999/xlink">
    <g id="模板" stroke="none" stroke-width="1" fill="none" fill-rule="evenodd">
        <g id="编辑器组件" transform="translate(-852.000000, -342.000000)">
            <g id="编组-10" transform="translate(184.000000, 328.000000)">
                <g id="编组-4" transform="translate(329.000000, 14.000000)">
                    <g id="快捷键备份-9" transform="translate(339.000000, 0.000000)">
                        <rect id="背景" fill="#434B5B" opacity="0" x="0" y="0" width="20" height="20"></rect>
                        <g id="编组" transform="translate(4.000000, 4.000000)" stroke="#434B5B" stroke-linejoin="round" stroke-width="1.5">
                            <path d="M11.6712329,4.10958904 L4.43835616,4.10958904 C4.25677808,4.10958904 4.10958904,4.25677808 4.10958904,4.43835616 L4.10958904,11.6712329 C4.10958904,11.852811 4.25677808,12 4.43835616,12 L11.6712329,12 C11.852811,12 12,11.852811 12,11.6712329 L12,4.43835616 C12,4.25677808 11.852811,4.10958904 11.6712329,4.10958904 Z" id="路径"></path>
                            <path d="M7.56164384,0 C7.74322192,0 7.89041096,0.147189041 7.89041096,0.328767123 L7.89,4.109 L4.43835616,4.10958904 C4.25677808,4.10958904 4.10958904,4.25677808 4.10958904,4.43835616 L4.109,7.89 L0.328767123,7.89041096 C0.169886301,7.89041096 0.037334589,7.77771935 0.0066791738,7.62790332 L0,7.56164384 L0,0.328767123 C0,0.147189041 0.147189041,0 0.328767123,0 Z" id="形状结合" fill="#434B5B" opacity="0.503624326"></path>
                        </g>
                    </g>
                </g>
            </g>
        </g>
    </g>
</svg>