<?xml version="1.0" encoding="UTF-8"?>
<svg width="20px" height="20px" viewBox="0 0 20 20" version="1.1" xmlns="http://www.w3.org/2000/svg" xmlns:xlink="http://www.w3.org/1999/xlink">
    <g id="模板" stroke="none" stroke-width="1" fill="none" fill-rule="evenodd">
        <g id="编辑器组件" transform="translate(-358.000000, -342.000000)">
            <g id="编组-10" transform="translate(184.000000, 328.000000)">
                <g id="快捷键" transform="translate(174.000000, 14.000000)">
                    <rect id="背景" fill="#434B5B" opacity="0" x="0" y="0" width="20" height="20"></rect>
                    <g id="编组" transform="translate(4.000000, 4.000000)" stroke="#434B5B" stroke-linejoin="round" stroke-width="1.5">
                        <path d="M1.63636909,3.27273 C1.95069488,3.27273 2.49615624,3.27273 3.27273818,3.27273 C3.27273818,2.46999 3.27273818,1.92453 3.27273818,1.636365 C3.27273818,0.732624 2.54010635,0 1.63636909,0 C0.732625832,0 0,0.732624 0,1.636365 C0,2.5401 0.732625832,3.27273 1.63636909,3.27273 Z" id="路径"></path>
                        <path d="M1.63636909,8.72727 L3.27273818,8.72727 L3.27273818,10.36362 C3.27273818,11.26737 2.54010635,12 1.63636909,12 C0.732625832,12 0,11.26737 0,10.36362 C0,9.4599 0.732625832,8.72727 1.63636909,8.72727 Z" id="路径"></path>
                        <rect id="矩形" stroke-linecap="round" x="3.27276818" y="3.27273" width="5.45455364" height="5.45454"></rect>
                        <path d="M10.3636459,3.27273 L8.72726182,3.27273 L8.72726182,1.636365 C8.72726182,0.732624 9.45989365,0 10.3636459,0 C11.2673682,0 12,0.732624 12,1.636365 C12,2.5401 11.2673682,3.27273 10.3636459,3.27273 Z" id="路径"></path>
                        <path d="M10.3636459,8.72727 C11.2673682,8.72727 12,9.4599 12,10.36362 C12,11.26737 11.2673682,12 10.3636459,12 C9.45989365,12 8.72726182,11.26737 8.72726182,10.36362 L8.72726182,8.72727 L10.3636459,8.72727 Z" id="路径"></path>
                    </g>
                </g>
            </g>
        </g>
    </g>
</svg>