<?xml version="1.0" encoding="UTF-8"?>
<svg width="22px" height="22px" viewBox="0 0 22 22" version="1.1" xmlns="http://www.w3.org/2000/svg" xmlns:xlink="http://www.w3.org/1999/xlink">
    <g id="∟-----工作台" stroke="none" stroke-width="1" fill="none" fill-rule="evenodd">
        <g id="工作指引" transform="translate(-91.000000, -87.000000)">
            <g id="01图标-/-01通用图标-/-01单色线性-/-用户-/resume" transform="translate(92.000000, 88.000000)">
                <rect id="背景" fill="#A3AFBB" opacity="0" x="0" y="0" width="20" height="20"></rect>
                <g id="网格" opacity="0" transform="translate(0.000000, 0.000000)" stroke="#A3AFBB" stroke-linecap="square" stroke-width="0.5">
                    <g id="竖线" transform="translate(0.416667, 0.000000)">
                        <line x1="0.416666667" y1="0" x2="0.416666667" y2="20" id="直线"></line>
                        <line x1="1.25" y1="0" x2="1.25" y2="20" id="直线"></line>
                        <line x1="2.08333333" y1="0" x2="2.08333333" y2="20" id="直线备份"></line>
                        <line x1="2.91666667" y1="0" x2="2.91666667" y2="20" id="直线备份-2"></line>
                        <line x1="3.75" y1="0" x2="3.75" y2="20" id="直线备份-3"></line>
                        <line x1="4.58333333" y1="0" x2="4.58333333" y2="20" id="直线备份-4"></line>
                        <line x1="5.41666667" y1="0" x2="5.41666667" y2="20" id="直线备份-5"></line>
                        <line x1="6.25" y1="0" x2="6.25" y2="20" id="直线备份-6"></line>
                        <line x1="7.08333333" y1="0" x2="7.08333333" y2="20" id="直线备份-7"></line>
                        <line x1="7.91666667" y1="0" x2="7.91666667" y2="20" id="直线备份-8"></line>
                        <line x1="8.75" y1="0" x2="8.75" y2="20" id="直线备份-9"></line>
                        <line x1="9.58333333" y1="0" x2="9.58333333" y2="20" id="直线备份-10"></line>
                        <line x1="10.4166667" y1="0" x2="10.4166667" y2="20" id="直线备份-11"></line>
                        <line x1="11.25" y1="0" x2="11.25" y2="20" id="直线备份-12"></line>
                        <line x1="12.0833333" y1="0" x2="12.0833333" y2="20" id="直线备份-13"></line>
                        <line x1="12.9166667" y1="0" x2="12.9166667" y2="20" id="直线备份-14"></line>
                        <line x1="13.75" y1="0" x2="13.75" y2="20" id="直线备份-15"></line>
                        <line x1="14.5833333" y1="0" x2="14.5833333" y2="20" id="直线备份-16"></line>
                        <line x1="15.4166667" y1="0" x2="15.4166667" y2="20" id="直线备份-17"></line>
                        <line x1="16.25" y1="0" x2="16.25" y2="20" id="直线备份-18"></line>
                        <line x1="17.0833333" y1="0" x2="17.0833333" y2="20" id="直线备份-19"></line>
                        <line x1="17.9166667" y1="0" x2="17.9166667" y2="20" id="直线备份-20"></line>
                        <line x1="18.75" y1="0" x2="18.75" y2="20" id="直线备份-21"></line>
                    </g>
                    <g id="横线" transform="translate(10.000000, 10.000000) rotate(-270.000000) translate(-10.000000, -10.000000) translate(0.416667, 0.000000)">
                        <line x1="0.416666667" y1="0" x2="0.416666667" y2="20" id="直线"></line>
                        <line x1="1.25" y1="0" x2="1.25" y2="20" id="直线"></line>
                        <line x1="2.08333333" y1="0" x2="2.08333333" y2="20" id="直线备份"></line>
                        <line x1="2.91666667" y1="0" x2="2.91666667" y2="20" id="直线备份-2"></line>
                        <line x1="3.75" y1="0" x2="3.75" y2="20" id="直线备份-3"></line>
                        <line x1="4.58333333" y1="0" x2="4.58333333" y2="20" id="直线备份-4"></line>
                        <line x1="5.41666667" y1="0" x2="5.41666667" y2="20" id="直线备份-5"></line>
                        <line x1="6.25" y1="0" x2="6.25" y2="20" id="直线备份-6"></line>
                        <line x1="7.08333333" y1="0" x2="7.08333333" y2="20" id="直线备份-7"></line>
                        <line x1="7.91666667" y1="0" x2="7.91666667" y2="20" id="直线备份-8"></line>
                        <line x1="8.75" y1="0" x2="8.75" y2="20" id="直线备份-9"></line>
                        <line x1="9.58333333" y1="0" x2="9.58333333" y2="20" id="直线备份-10"></line>
                        <line x1="10.4166667" y1="0" x2="10.4166667" y2="20" id="直线备份-11"></line>
                        <line x1="11.25" y1="0" x2="11.25" y2="20" id="直线备份-12"></line>
                        <line x1="12.0833333" y1="0" x2="12.0833333" y2="20" id="直线备份-13"></line>
                        <line x1="12.9166667" y1="0" x2="12.9166667" y2="20" id="直线备份-14"></line>
                        <line x1="13.75" y1="0" x2="13.75" y2="20" id="直线备份-15"></line>
                        <line x1="14.5833333" y1="0" x2="14.5833333" y2="20" id="直线备份-16"></line>
                        <line x1="15.4166667" y1="0" x2="15.4166667" y2="20" id="直线备份-17"></line>
                        <line x1="16.25" y1="0" x2="16.25" y2="20" id="直线备份-18"></line>
                        <line x1="17.0833333" y1="0" x2="17.0833333" y2="20" id="直线备份-19"></line>
                        <line x1="17.9166667" y1="0" x2="17.9166667" y2="20" id="直线备份-20"></line>
                        <line x1="18.75" y1="0" x2="18.75" y2="20" id="直线备份-21"></line>
                    </g>
                </g>
                <g id="Keyline" opacity="0" transform="translate(0.833333, 1.666667)" stroke="#A3AFBB" stroke-opacity="0.05" stroke-width="0.5">
                    <rect id="正方形-大" x="1.91666667" y="1.08333333" width="14.5" height="14.5" rx="0.833333333"></rect>
                    <rect id="正方形-小" x="4.41666667" y="3.58333333" width="9.5" height="9.5" rx="0.833333333"></rect>
                    <rect id="矩形-竖" x="2.75" y="0.25" width="12.8333333" height="16.1666667" rx="0.833333333"></rect>
                    <rect id="矩形-横" x="1.08333333" y="1.91666667" width="16.1666667" height="12.8333333" rx="0.833333333"></rect>
                    <circle id="圆形" cx="9.16666667" cy="8.33333333" r="8.08333333"></circle>
                    <path d="M9.16666667,0.498965873 L17.8997215,15.5833333 L0.433611821,15.5833333 L9.16666667,0.498965873 Z" id="三角形"></path>
                </g>
                <g id="icon" transform="translate(2.500000, 4.166667)">
                    <rect id="矩形" stroke="#A3AFBB" stroke-width="1.66666667" stroke-linecap="round" stroke-linejoin="round" x="0" y="0" width="15" height="11.6666667" rx="1.66666667"></rect>
                    <path d="M5,5.83333333 C5.69035594,5.83333333 6.25,5.27368927 6.25,4.58333333 C6.25,3.8929774 5.69035594,3.33333333 5,3.33333333 C4.30964406,3.33333333 3.75,3.8929774 3.75,4.58333333 C3.75,5.27368927 4.30964406,5.83333333 5,5.83333333 Z M6.99939489,8.33333333 L3.00060236,8.33333333 C2.6145612,8.33333333 2.37423374,7.89673773 2.56914251,7.5495244 C3.05461964,6.68468835 3.88897817,6.25 5,6.25 C6.11102257,6.25 6.9453836,6.68469408 7.43085895,7.54953846 C7.62576576,7.8967529 7.38543598,8.33333333 6.99939489,8.33333333 Z" id="形状结合" fill="#A3AFBB"></path>
                    <line x1="9.16666667" y1="5" x2="11.6666667" y2="5" id="路径-57" stroke="#A3AFBB" stroke-width="1.66666667" stroke-linecap="round" stroke-linejoin="round"></line>
                    <line x1="9.16666667" y1="7.5" x2="11.6666667" y2="7.5" id="路径-57备份" stroke="#A3AFBB" stroke-width="1.66666667" stroke-linecap="round" stroke-linejoin="round"></line>
                </g>
            </g>
        </g>
    </g>
</svg>