<?xml version="1.0" encoding="UTF-8"?>
<svg width="18px" height="18px" viewBox="0 0 18 18" version="1.1" xmlns="http://www.w3.org/2000/svg" xmlns:xlink="http://www.w3.org/1999/xlink">
    <g id="页面-1" stroke="none" stroke-width="1" fill="none" fill-rule="evenodd">
        <g id="任务反馈与查询页增加流程图查看" transform="translate(-893.000000, -371.000000)">
            <g id="06反馈-/-01弹出框-/-03表单型备份" transform="translate(498.000000, 284.000000)">
                <g id="编组-32" transform="translate(32.000000, 88.000000)">
                    <g id="24-下载" transform="translate(364.000000, 0.000000)">
                        <rect id="背景" fill="#1E86FF" opacity="0" x="0" y="0" width="16" height="16"></rect>
                        <g id="网格" opacity="0" stroke="#1E86FF" stroke-linecap="square" stroke-width="0.5">
                            <g id="竖线" transform="translate(0.333333, 0.000000)">
                                <line x1="0.333333333" y1="0" x2="0.333333333" y2="16" id="直线"></line>
                                <line x1="1" y1="0" x2="1" y2="16" id="直线"></line>
                                <line x1="1.66666667" y1="0" x2="1.66666667" y2="16" id="直线备份"></line>
                                <line x1="2.33333333" y1="0" x2="2.33333333" y2="16" id="直线备份-2"></line>
                                <line x1="3" y1="0" x2="3" y2="16" id="直线备份-3"></line>
                                <line x1="3.66666667" y1="0" x2="3.66666667" y2="16" id="直线备份-4"></line>
                                <line x1="4.33333333" y1="0" x2="4.33333333" y2="16" id="直线备份-5"></line>
                                <line x1="5" y1="0" x2="5" y2="16" id="直线备份-6"></line>
                                <line x1="5.66666667" y1="0" x2="5.66666667" y2="16" id="直线备份-7"></line>
                                <line x1="6.33333333" y1="0" x2="6.33333333" y2="16" id="直线备份-8"></line>
                                <line x1="7" y1="0" x2="7" y2="16" id="直线备份-9"></line>
                                <line x1="7.66666667" y1="0" x2="7.66666667" y2="16" id="直线备份-10"></line>
                                <line x1="8.33333333" y1="0" x2="8.33333333" y2="16" id="直线备份-11"></line>
                                <line x1="9" y1="0" x2="9" y2="16" id="直线备份-12"></line>
                                <line x1="9.66666667" y1="0" x2="9.66666667" y2="16" id="直线备份-13"></line>
                                <line x1="10.3333333" y1="0" x2="10.3333333" y2="16" id="直线备份-14"></line>
                                <line x1="11" y1="0" x2="11" y2="16" id="直线备份-15"></line>
                                <line x1="11.6666667" y1="0" x2="11.6666667" y2="16" id="直线备份-16"></line>
                                <line x1="12.3333333" y1="0" x2="12.3333333" y2="16" id="直线备份-17"></line>
                                <line x1="13" y1="0" x2="13" y2="16" id="直线备份-18"></line>
                                <line x1="13.6666667" y1="0" x2="13.6666667" y2="16" id="直线备份-19"></line>
                                <line x1="14.3333333" y1="0" x2="14.3333333" y2="16" id="直线备份-20"></line>
                                <line x1="15" y1="0" x2="15" y2="16" id="直线备份-21"></line>
                            </g>
                            <g id="横线" transform="translate(8.000000, 8.000000) rotate(-270.000000) translate(-8.000000, -8.000000) translate(0.333333, 0.000000)">
                                <line x1="0.333333333" y1="0" x2="0.333333333" y2="16" id="直线"></line>
                                <line x1="1" y1="0" x2="1" y2="16" id="直线"></line>
                                <line x1="1.66666667" y1="0" x2="1.66666667" y2="16" id="直线备份"></line>
                                <line x1="2.33333333" y1="0" x2="2.33333333" y2="16" id="直线备份-2"></line>
                                <line x1="3" y1="0" x2="3" y2="16" id="直线备份-3"></line>
                                <line x1="3.66666667" y1="0" x2="3.66666667" y2="16" id="直线备份-4"></line>
                                <line x1="4.33333333" y1="0" x2="4.33333333" y2="16" id="直线备份-5"></line>
                                <line x1="5" y1="0" x2="5" y2="16" id="直线备份-6"></line>
                                <line x1="5.66666667" y1="0" x2="5.66666667" y2="16" id="直线备份-7"></line>
                                <line x1="6.33333333" y1="0" x2="6.33333333" y2="16" id="直线备份-8"></line>
                                <line x1="7" y1="0" x2="7" y2="16" id="直线备份-9"></line>
                                <line x1="7.66666667" y1="0" x2="7.66666667" y2="16" id="直线备份-10"></line>
                                <line x1="8.33333333" y1="0" x2="8.33333333" y2="16" id="直线备份-11"></line>
                                <line x1="9" y1="0" x2="9" y2="16" id="直线备份-12"></line>
                                <line x1="9.66666667" y1="0" x2="9.66666667" y2="16" id="直线备份-13"></line>
                                <line x1="10.3333333" y1="0" x2="10.3333333" y2="16" id="直线备份-14"></line>
                                <line x1="11" y1="0" x2="11" y2="16" id="直线备份-15"></line>
                                <line x1="11.6666667" y1="0" x2="11.6666667" y2="16" id="直线备份-16"></line>
                                <line x1="12.3333333" y1="0" x2="12.3333333" y2="16" id="直线备份-17"></line>
                                <line x1="13" y1="0" x2="13" y2="16" id="直线备份-18"></line>
                                <line x1="13.6666667" y1="0" x2="13.6666667" y2="16" id="直线备份-19"></line>
                                <line x1="14.3333333" y1="0" x2="14.3333333" y2="16" id="直线备份-20"></line>
                                <line x1="15" y1="0" x2="15" y2="16" id="直线备份-21"></line>
                            </g>
                        </g>
                        <g id="Keyline" opacity="0" transform="translate(0.666667, 1.333333)" stroke="#1E86FF" stroke-opacity="0.05" stroke-width="0.5">
                            <rect id="正方形-大" x="1.58333333" y="0.916666667" width="11.5" height="11.5" rx="0.666666667"></rect>
                            <rect id="正方形-小" x="3.58333333" y="2.91666667" width="7.5" height="7.5" rx="0.666666667"></rect>
                            <rect id="矩形-竖" x="2.25" y="0.25" width="10.1666667" height="12.8333333" rx="0.666666667"></rect>
                            <rect id="矩形-横" x="0.916666667" y="1.58333333" width="12.8333333" height="10.1666667" rx="0.666666667"></rect>
                            <circle id="圆形" cx="7.33333333" cy="6.66666667" r="6.41666667"></circle>
                            <path d="M7.33333333,0.498965873 L14.2330548,12.4166667 L0.433611821,12.4166667 L7.33333333,0.498965873 Z" id="三角形"></path>
                        </g>
                        <g id="icon" transform="translate(4.000000, 2.000000)" stroke="#1E86FF" stroke-linecap="round" stroke-linejoin="round" stroke-width="1.33333333">
                            <line x1="4" y1="0" x2="4" y2="9.33333333" id="直线"></line>
                            <polyline id="路径-2" points="8 5.33333333 4 9.33333333 0 5.33333333"></polyline>
                            <line x1="0" y1="12" x2="8" y2="12" id="路径-85"></line>
                        </g>
                    </g>
                </g>
            </g>
        </g>
    </g>
</svg>