<svg xml:space="preserve" viewBox="0 0 24 24" xmlns="http://www.w3.org/2000/svg"><path clip-rule="evenodd" fill="none" d="M0 0h24v24H0z"/><path d="M15 3a1 1 0 0 1 .993.883L16 4h2.5a2.501 2.501 0 0 1 2.495 2.336L21 6.5v5.503a1 1 0 0 1-1.993.117L19 12.003V11H5v7.5a.5.5 0 0 0 .41.492L5.5 19h6.502a1 1 0 0 1 .117 1.993l-.117.007H5.5a2.501 2.501 0 0 1-2.495-2.336L3 18.5v-12a2.501 2.501 0 0 1 2.336-2.495L5.5 4H8a1 1 0 0 1 1.993-.117L10 4h4a1 1 0 0 1 1-1zm1.5 10a3.5 3.5 0 0 1 3.071 5.181.264.264 0 0 1 .042.029l.094.083 1 1a.999.999 0 0 1-1.32 1.497l-.094-.083-1-1a.975.975 0 0 1-.114-.137A3.5 3.5 0 1 1 16.5 13zm0 2a1.5 1.5 0 1 0 .001 3.001A1.5 1.5 0 0 0 16.5 15zM8 6H5.5a.5.5 0 0 0-.492.41L5 6.5V9h14V6.5a.5.5 0 0 0-.41-.492L18.5 6H16v1a1 1 0 0 1-1.993.117L14 7V6h-4v1a1 1 0 0 1-1.993.117L8 7V6z"/></svg>