<svg xml:space="preserve" viewBox="0 0 24 24" xmlns="http://www.w3.org/2000/svg"><path clip-rule="evenodd" fill="none" d="M0 0h24v24H0z"/><path d="m14.063 4.546.092.145 7.377 12.542a2.5 2.5 0 0 1-1.991 3.763l-.164.004H4.623a2.5 2.5 0 0 1-2.237-3.617l.082-.15L9.845 4.691c.18-.305.422-.568.709-.772l.178-.115.15-.082a2.5 2.5 0 0 1 3.181.824zm-2.317.981a.515.515 0 0 0-.129.108l-.049.069-7.376 12.542a.5.5 0 0 0 .342.745l.089.009h14.755a.5.5 0 0 0 .469-.673l-.038-.08-7.378-12.542a.5.5 0 0 0-.685-.178zM12 15.6a1.2 1.2 0 1 1 0 2.4 1.2 1.2 0 0 1 0-2.4zM12 9a1 1 0 0 1 .993.883L13 10v4a1 1 0 0 1-1.993.117L11 14v-4a1 1 0 0 1 1-1z" fill-rule="evenodd" clip-rule="evenodd"/></svg>