<?xml version="1.0" encoding="UTF-8"?>
<svg width="18px" height="18px" viewBox="0 0 18 18" version="1.1" xmlns="http://www.w3.org/2000/svg" xmlns:xlink="http://www.w3.org/1999/xlink">
    <title></title>
    <g id="优化" stroke="none" stroke-width="1" fill="none" fill-rule="evenodd">
        <g id="项目列表" transform="translate(-149.000000, -358.000000)" fill="#1E86FF" fill-rule="nonzero">
            <g id="编组-40备份" transform="translate(126.000000, 259.000000)">
                <path d="M32,100 C36.418278,100 40,103.581722 40,108 C40,112.418278 36.418278,116 32,116 C27.581722,116 24,112.418278 24,108 C24,103.581722 27.581722,100 32,100 Z M35.6571429,103.8 L28.8714286,103.8 L28.8714286,104.798867 L34.2387755,104.798867 L33.8697279,105.107191 C33.2518141,105.608324 32.6197279,106.045753 31.9734694,106.419479 L31.9734694,106.419479 L31.9734694,107.662967 L27.8,107.662967 L27.8,108.702605 L31.9734694,108.702605 L31.9734694,111.434202 L31.9672712,111.520201 C31.9383929,111.707489 31.8089286,111.801133 31.5857143,111.801133 C30.9836735,111.801133 30.4326531,111.79094 29.922449,111.770555 L29.922449,111.770555 L30.2081633,112.8 L32.0244898,112.8 L32.1548239,112.795382 C32.7426757,112.752299 33.044898,112.407928 33.044898,111.770555 L33.044898,111.770555 L33.044898,108.702605 L36.8,108.702605 L36.8,107.662967 L33.044898,107.662967 L33.044898,106.94949 L33.4578806,106.658127 C34.2702207,106.069397 35.0011662,105.445365 35.6571429,104.798867 L35.6571429,104.798867 L35.6571429,103.8 Z" id="形状"></path>
            </g>
        </g>
    </g>
</svg>