<svg xml:space="preserve" viewBox="0 0 24 24" xmlns="http://www.w3.org/2000/svg"><path clip-rule="evenodd" fill="none" d="M0 0h24v24H0z"/><path d="M9.531 4c.466 0 .926.109 1.342.317l1.129.565 1.132-.566a2.992 2.992 0 0 1 1.109-.307L14.475 4H21a1 1 0 0 1 1 1v14a1 1 0 0 1-1 1h-6.527a.998.998 0 0 0-.446.105l-1.561.78a1.019 1.019 0 0 1-.392.113l-.023.001L12 21l-.05-.001-.035-.002L12 21a1.1 1.1 0 0 1-.164-.013l-.052-.01c-.025-.006-.05-.012-.074-.02a.94.94 0 0 1-.159-.063l.118.049-.057-.022-.061-.027-1.573-.788A1.005 1.005 0 0 0 9.529 20H3a1 1 0 0 1-1-1V5a1 1 0 0 1 1-1h6.531zM20 6h-5.525a.982.982 0 0 0-.34.06l-.107.046L13 6.619v11.763l.134-.066c.277-.138.573-.232.878-.28l.23-.027.231-.009H20V6zM9.531 6H4v12h5.529c.467 0 .927.109 1.344.318l.127.063V6.616l-1.021-.51a1.002 1.002 0 0 0-.332-.099L9.531 6zM9 12a1 1 0 0 1 .117 1.993L9 14H6a1 1 0 0 1-.117-1.993L6 12h3zm9 0a1 1 0 0 1 .117 1.993L18 14h-3a1 1 0 0 1-.117-1.993L15 12h3zM9 9a1 1 0 0 1 .117 1.993L9 11H6a1 1 0 0 1-.117-1.993L6 9h3zm9 0a1 1 0 0 1 .117 1.993L18 11h-3a1 1 0 0 1-.117-1.993L15 9h3z"/></svg>