<?xml version="1.0" encoding="UTF-8"?>
<svg width="18px" height="18px" viewBox="0 0 18 18" version="1.1" xmlns="http://www.w3.org/2000/svg" xmlns:xlink="http://www.w3.org/1999/xlink">
    <title></title>
    <g id="优化" stroke="none" stroke-width="1" fill="none" fill-rule="evenodd">
        <g id="项目列表" transform="translate(-1373.000000, -139.000000)" fill="#9EACC4" fill-rule="nonzero">
            <g id="查询备份-4" transform="translate(1351.000000, 130.000000)">
                <g id="编组-5" transform="translate(22.000000, 8.000000)">
                    <path d="M16.5,4 L5.25,4 C4.7325,4 4.3275,4.23333333 4.0575,4.58666667 L0,10 L4.0575,15.4066667 C4.3275,15.76 4.7325,16 5.25,16 L16.5,16 C17.325,16 18,15.4 18,14.6666667 L18,5.33333333 C18,4.6 17.325,4 16.5,4 Z M13.5,12.154 L12.654,13 L10.5,10.846 L8.346,13 L7.5,12.154 L9.654,10 L7.5,7.846 L8.346,7 L10.5,9.154 L12.654,7 L13.5,7.846 L11.346,10 L13.5,12.154 Z" id="形状"></path>
                </g>
            </g>
        </g>
    </g>
</svg>