<svg xml:space="preserve" viewBox="0 0 24 24" xmlns="http://www.w3.org/2000/svg"><path clip-rule="evenodd" fill="none" d="M0 0h24v24H0z"/><path d="m9.613 4.21.094.083 2.292 2.292 2.294-2.292a.999.999 0 0 1 1.414 0l6 6a.999.999 0 0 1 0 1.414l-2.993 2.992-.007.008-6 6a1 1 0 0 1-1.32.083l-.094-.083-9-9a1 1 0 0 1-.083-1.32l.083-.094 6-6a1 1 0 0 1 1.32-.083zM9 6.414 4.415 11 12 18.585l.585-.585-1.292-1.293a.999.999 0 0 1 1.32-1.497l.094.083L14 16.585l.585-.585-1.292-1.293a.999.999 0 0 1 1.32-1.497l.094.083L16 14.585l.584-.585-2.583-2.586-2.294 2.293a.997.997 0 0 1-.491.269c-.964.214-1.809.214-2.533-.028-.84-.28-1.423-.863-1.648-1.684a1 1 0 0 1 .257-.972l3.292-3.294L9 6.414zm6 .001-2.278 2.28-.013.014-.015.011-3.34 3.341.081.024c.249.059.564.066.945.012l.128-.021 2.784-2.783.094-.083a1 1 0 0 1 1.32.083L18 12.586 19.586 11 15 6.415z"/></svg>