<?xml version="1.0" encoding="UTF-8"?>
<svg width="18px" height="18px" viewBox="0 0 18 18" version="1.1" xmlns="http://www.w3.org/2000/svg" xmlns:xlink="http://www.w3.org/1999/xlink">
    <title></title>
    <g id="优化" stroke="none" stroke-width="1" fill="none" fill-rule="evenodd">
        <g id="项目列表" transform="translate(-1868.000000, -854.000000)" fill-rule="nonzero">
            <g id="创建账号" transform="translate(1868.000000, 854.000000)">
                <rect id="矩形" fill-opacity="0.01" fill="#FFFFFF" x="0" y="0" width="18" height="18"></rect>
                <path d="M17.3571429,2 L0.642857143,2 C0.287276786,2 0,2.284375 0,2.63636364 L0,15.3636364 C0,15.715625 0.287276786,16 0.642857143,16 L17.3571429,16 C17.7127232,16 18,15.715625 18,15.3636364 L18,2.63636364 C18,2.284375 17.7127232,2 17.3571429,2 Z M16.5535714,14.5681818 L1.44642857,14.5681818 L1.44642857,3.43181818 L16.5535714,3.43181818 L16.5535714,14.5681818 Z M10.9747768,8.28409091 L13.4537946,8.28409091 C13.4799107,8.28409091 13.5,8.2125 13.5,8.125 L13.5,7.17045455 C13.5,7.08295455 13.4799107,7.01136364 13.4537946,7.01136364 L10.9747768,7.01136364 C10.9486607,7.01136364 10.9285714,7.08295455 10.9285714,7.17045455 L10.9285714,8.125 C10.9285714,8.2125 10.9486607,8.28409091 10.9747768,8.28409091 Z M11.0712054,11.1477273 L14.8017857,11.1477273 C14.8801339,11.1477273 14.9444196,11.0761364 14.9444196,10.9886364 L14.9444196,10.0340909 C14.9444196,9.94659091 14.8801339,9.875 14.8017857,9.875 L11.0712054,9.875 C10.9928571,9.875 10.9285714,9.94659091 10.9285714,10.0340909 L10.9285714,10.9886364 C10.9285714,11.0761364 10.9928571,11.1477273 11.0712054,11.1477273 L11.0712054,11.1477273 Z M3.21428571,12.2017047 L4.09620536,12.2017047 C4.18058036,12.2017047 4.24888393,12.1360795 4.25491071,12.0525568 C4.33125,11.0482955 5.17901786,10.2528409 6.20758929,10.2528409 C7.23616071,10.2528409 8.08392857,11.0482955 8.16026786,12.0525568 C8.16629464,12.1360795 8.23459821,12.2017047 8.31897321,12.2017047 L9.20089286,12.2017047 C9.24494645,12.2017047 9.28709138,12.1839103 9.31747319,12.1523316 C9.34785501,12.120753 9.36380986,12.0782132 9.36160714,12.0346591 C9.30535714,10.9747159 8.71875,10.0519886 7.86294643,9.52698864 C8.24034854,9.11632077 8.44888409,8.58074005 8.44754464,8.02556818 C8.44754464,6.79460227 7.44508929,5.79829545 6.20959821,5.79829545 C4.97410714,5.79829545 3.97165179,6.79460227 3.97165179,8.02556818 C3.97165179,8.60426136 4.19263393,9.12926136 4.55625,9.52698864 C3.67193671,10.0694462 3.11207903,11.0062417 3.05758929,12.0346591 C3.04955357,12.1261364 3.121875,12.2017047 3.21428571,12.2017047 L3.21428571,12.2017047 Z M6.20758929,6.99147727 C6.78013393,6.99147727 7.24620536,7.45482955 7.24620536,8.02556818 C7.24620536,8.59630682 6.78013393,9.05965909 6.20758929,9.05965909 C5.63504464,9.05965909 5.16897321,8.59630682 5.16897321,8.02556818 C5.16897321,7.45482955 5.63504464,6.99147727 6.20758929,6.99147727 Z" id="形状" fill="#1E86FF"></path>
            </g>
        </g>
    </g>
</svg>