<svg xml:space="preserve" viewBox="0 0 24 24" xmlns="http://www.w3.org/2000/svg"><path clip-rule="evenodd" fill="none" d="M0 0h24v24H0z"/><path d="M20 5a1 1 0 0 1 .117 1.993L20 7h-.065l-.813 12.2a3 3 0 0 1-2.819 2.795l-.174.005H7.871a3 3 0 0 1-2.977-2.627l-.016-.173L4.064 7H4a1 1 0 0 1-.117-1.993L4 5h16zm-2.069 2H6.068l.805 12.067a1 1 0 0 0 .886.927l.112.006h8.258a1 1 0 0 0 .984-.823l.014-.111L17.931 7zM10 10a1 1 0 0 1 .993.883L11 11v5a1 1 0 0 1-1.993.117L9 16v-5a1 1 0 0 1 1-1zm4 0a1 1 0 0 1 .993.883L15 11v5a1 1 0 0 1-1.993.117L13 16v-5a1 1 0 0 1 1-1zm0-8a1 1 0 0 1 .117 1.993L14 4h-4a1 1 0 0 1-.117-1.993L10 2h4z"/></svg>