<?xml version="1.0" encoding="UTF-8"?>
<svg width="18px" height="18px" viewBox="0 0 18 18" version="1.1" xmlns="http://www.w3.org/2000/svg" xmlns:xlink="http://www.w3.org/1999/xlink">
    <g id="模板" stroke="none" stroke-width="1" fill="none" fill-rule="evenodd">
        <g id="模板-新建模板（未录入）" transform="translate(-1111.000000, -319.000000)">
            <g id="编组-15备份-2" transform="translate(1080.000000, 304.000000)">
                <g id="01图标-/-01通用图标-/-01单色线性-/-动作-/-新增" transform="translate(32.000000, 16.000000)">
                    <rect id="背景" fill="#8C97A4" opacity="0" x="0" y="0" width="16" height="16"></rect>
                    <g id="网格" opacity="0" transform="translate(0.000000, 0.000000)" stroke="#8C97A4" stroke-linecap="square" stroke-width="0.5">
                        <g id="竖线" transform="translate(0.333333, 0.000000)">
                            <line x1="0.333333333" y1="0" x2="0.333333333" y2="16" id="直线"></line>
                            <line x1="1" y1="0" x2="1" y2="16" id="直线"></line>
                            <line x1="1.66666667" y1="0" x2="1.66666667" y2="16" id="直线备份"></line>
                            <line x1="2.33333333" y1="0" x2="2.33333333" y2="16" id="直线备份-2"></line>
                            <line x1="3" y1="0" x2="3" y2="16" id="直线备份-3"></line>
                            <line x1="3.66666667" y1="0" x2="3.66666667" y2="16" id="直线备份-4"></line>
                            <line x1="4.33333333" y1="0" x2="4.33333333" y2="16" id="直线备份-5"></line>
                            <line x1="5" y1="0" x2="5" y2="16" id="直线备份-6"></line>
                            <line x1="5.66666667" y1="0" x2="5.66666667" y2="16" id="直线备份-7"></line>
                            <line x1="6.33333333" y1="0" x2="6.33333333" y2="16" id="直线备份-8"></line>
                            <line x1="7" y1="0" x2="7" y2="16" id="直线备份-9"></line>
                            <line x1="7.66666667" y1="0" x2="7.66666667" y2="16" id="直线备份-10"></line>
                            <line x1="8.33333333" y1="0" x2="8.33333333" y2="16" id="直线备份-11"></line>
                            <line x1="9" y1="0" x2="9" y2="16" id="直线备份-12"></line>
                            <line x1="9.66666667" y1="0" x2="9.66666667" y2="16" id="直线备份-13"></line>
                            <line x1="10.3333333" y1="0" x2="10.3333333" y2="16" id="直线备份-14"></line>
                            <line x1="11" y1="0" x2="11" y2="16" id="直线备份-15"></line>
                            <line x1="11.6666667" y1="0" x2="11.6666667" y2="16" id="直线备份-16"></line>
                            <line x1="12.3333333" y1="0" x2="12.3333333" y2="16" id="直线备份-17"></line>
                            <line x1="13" y1="0" x2="13" y2="16" id="直线备份-18"></line>
                            <line x1="13.6666667" y1="0" x2="13.6666667" y2="16" id="直线备份-19"></line>
                            <line x1="14.3333333" y1="0" x2="14.3333333" y2="16" id="直线备份-20"></line>
                            <line x1="15" y1="0" x2="15" y2="16" id="直线备份-21"></line>
                        </g>
                        <g id="横线" transform="translate(8.000000, 8.000000) rotate(-270.000000) translate(-8.000000, -8.000000) translate(0.333333, 0.000000)">
                            <line x1="0.333333333" y1="0" x2="0.333333333" y2="16" id="直线"></line>
                            <line x1="1" y1="0" x2="1" y2="16" id="直线"></line>
                            <line x1="1.66666667" y1="0" x2="1.66666667" y2="16" id="直线备份"></line>
                            <line x1="2.33333333" y1="0" x2="2.33333333" y2="16" id="直线备份-2"></line>
                            <line x1="3" y1="0" x2="3" y2="16" id="直线备份-3"></line>
                            <line x1="3.66666667" y1="0" x2="3.66666667" y2="16" id="直线备份-4"></line>
                            <line x1="4.33333333" y1="0" x2="4.33333333" y2="16" id="直线备份-5"></line>
                            <line x1="5" y1="0" x2="5" y2="16" id="直线备份-6"></line>
                            <line x1="5.66666667" y1="0" x2="5.66666667" y2="16" id="直线备份-7"></line>
                            <line x1="6.33333333" y1="0" x2="6.33333333" y2="16" id="直线备份-8"></line>
                            <line x1="7" y1="0" x2="7" y2="16" id="直线备份-9"></line>
                            <line x1="7.66666667" y1="0" x2="7.66666667" y2="16" id="直线备份-10"></line>
                            <line x1="8.33333333" y1="0" x2="8.33333333" y2="16" id="直线备份-11"></line>
                            <line x1="9" y1="0" x2="9" y2="16" id="直线备份-12"></line>
                            <line x1="9.66666667" y1="0" x2="9.66666667" y2="16" id="直线备份-13"></line>
                            <line x1="10.3333333" y1="0" x2="10.3333333" y2="16" id="直线备份-14"></line>
                            <line x1="11" y1="0" x2="11" y2="16" id="直线备份-15"></line>
                            <line x1="11.6666667" y1="0" x2="11.6666667" y2="16" id="直线备份-16"></line>
                            <line x1="12.3333333" y1="0" x2="12.3333333" y2="16" id="直线备份-17"></line>
                            <line x1="13" y1="0" x2="13" y2="16" id="直线备份-18"></line>
                            <line x1="13.6666667" y1="0" x2="13.6666667" y2="16" id="直线备份-19"></line>
                            <line x1="14.3333333" y1="0" x2="14.3333333" y2="16" id="直线备份-20"></line>
                            <line x1="15" y1="0" x2="15" y2="16" id="直线备份-21"></line>
                        </g>
                    </g>
                    <g id="Keyline" opacity="0" transform="translate(0.666667, 1.333333)" stroke="#8C97A4" stroke-opacity="0.05" stroke-width="0.5">
                        <rect id="正方形-大" x="1.58333333" y="0.916666667" width="11.5" height="11.5" rx="0.666666667"></rect>
                        <rect id="正方形-小" x="3.58333333" y="2.91666667" width="7.5" height="7.5" rx="0.666666667"></rect>
                        <rect id="矩形-竖" x="2.25" y="0.25" width="10.1666667" height="12.8333333" rx="0.666666667"></rect>
                        <rect id="矩形-横" x="0.916666667" y="1.58333333" width="12.8333333" height="10.1666667" rx="0.666666667"></rect>
                        <circle id="圆形" cx="7.33333333" cy="6.66666667" r="6.41666667"></circle>
                        <path d="M7.33333333,0.498965873 L14.2330548,12.4166667 L0.433611821,12.4166667 L7.33333333,0.498965873 Z" id="三角形"></path>
                    </g>
                    <g id="icon" transform="translate(8.000000, 8.000000) scale(1, -1) translate(-8.000000, -8.000000) translate(1.333333, 1.333333)" fill="#8C97A4" fill-rule="nonzero">
                        <path d="M6.66666667,0 C10.348565,0 13.3333333,2.98476833 13.3333333,6.66666667 C13.3333333,10.348565 10.348565,13.3333333 6.66666667,13.3333333 C2.98476833,13.3333333 0,10.348565 0,6.66666667 C0,2.98476833 2.98476833,0 6.66666667,0 Z M9.0752663,5.47313641 C8.81373882,5.26978648 8.43558479,5.28827284 8.19526215,5.52859548 L6.66666667,7.05666667 L5.13807119,5.52859548 L5.0752663,5.47313641 C4.81373882,5.26978648 4.43558479,5.28827284 4.19526215,5.52859548 C3.93491262,5.78894501 3.93491262,6.21105499 4.19526215,6.47140452 L6.19526215,8.47140452 L6.25806704,8.52686359 C6.51959451,8.73021352 6.89774855,8.71172716 7.13807119,8.47140452 L9.13807119,6.47140452 L9.19353026,6.40859963 C9.39688019,6.14707216 9.37839383,5.76891812 9.13807119,5.52859548 Z" id="形状结合"></path>
                    </g>
                </g>
            </g>
        </g>
    </g>
</svg>