<svg xml:space="preserve" viewBox="0 0 24 24" xmlns="http://www.w3.org/2000/svg"><path clip-rule="evenodd" fill="none" d="M0 0h24v24H0z"/><path d="M18 20a1 1 0 0 1 .117 1.993L18 22H6a1 1 0 0 1-.117-1.993L6 20h12zM12 2a1 1 0 0 1 .993.883L13 3v11.585l4.293-4.292a1 1 0 0 1 1.32-.083l.094.083a1 1 0 0 1 .083 1.32l-.083.094-6 6a1.142 1.142 0 0 1-.09.08l.09-.08a1.024 1.024 0 0 1-.187.147c-.012.007-.024.015-.037.021a1.161 1.161 0 0 1-.113.053l-.06.022-.046.014a1.538 1.538 0 0 1-.065.016l-.052.009a.607.607 0 0 1-.063.007c-.018.001-.035.003-.053.003L12 18l-.032-.001-.054-.003L12 18c-.051 0-.1-.004-.149-.011l-.052-.009c-.022-.004-.044-.01-.065-.015a.618.618 0 0 1-.046-.014c-.02-.006-.039-.014-.059-.021a.817.817 0 0 1-.113-.054l-.036-.021a.958.958 0 0 1-.074-.05l-.018-.013a.99.99 0 0 1-.094-.083l-6-6a.999.999 0 0 1 1.32-1.497l.094.083L11 14.585V3a1 1 0 0 1 1-1z"/></svg>