<?xml version="1.0" encoding="UTF-8"?>
<svg width="20px" height="20px" viewBox="0 0 20 20" version="1.1" xmlns="http://www.w3.org/2000/svg" xmlns:xlink="http://www.w3.org/1999/xlink">
    <g id="∟-----模版" stroke="none" stroke-width="1" fill="none" fill-rule="evenodd">
        <g id="新建节点" transform="translate(-100.000000, -850.000000)">
            <g id="拖拽" transform="translate(100.000000, 850.000000)">
                <rect id="矩形" x="0" y="0" width="20" height="20"></rect>
                <g id="编组" transform="translate(5.000000, 3.000000)" fill="#A3AFBB">
                    <path d="M3.07692308,1.55555556 C3.07692308,2.41465 2.38811538,3.11111111 1.53846154,3.11111111 C0.688807692,3.11111111 0,2.41465 0,1.55555556 C0,0.696445556 0.688807692,0 1.53846154,0 C2.38811538,0 3.07692308,0.696445556 3.07692308,1.55555556 Z M1.53846154,8.55555556 C2.38811538,8.55555556 3.07692308,7.85909444 3.07692308,7 C3.07692308,6.14090556 2.38811538,5.44444444 1.53846154,5.44444444 C0.688807692,5.44444444 0,6.14090556 0,7 C0,7.85909444 0.688807692,8.55555556 1.53846154,8.55555556 Z M1.53846154,14 C2.38811538,14 3.07692308,13.3035389 3.07692308,12.4444444 C3.07692308,11.58535 2.38811538,10.8888889 1.53846154,10.8888889 C0.688807692,10.8888889 0,11.58535 0,12.4444444 C0,13.3035389 0.688807692,14 1.53846154,14 Z" id="形状"></path>
                    <path d="M10,1.55555556 C10,2.41465 9.31119231,3.11111111 8.46153846,3.11111111 C7.61188462,3.11111111 6.92307692,2.41465 6.92307692,1.55555556 C6.92307692,0.696445556 7.61188462,0 8.46153846,0 C9.31119231,0 10,0.696445556 10,1.55555556 Z M8.46153846,8.55555556 C9.31119231,8.55555556 10,7.85909444 10,7 C10,6.14090556 9.31119231,5.44444444 8.46153846,5.44444444 C7.61188462,5.44444444 6.92307692,6.14090556 6.92307692,7 C6.92307692,7.85909444 7.61188462,8.55555556 8.46153846,8.55555556 Z M8.46153846,14 C9.31119231,14 10,13.3035389 10,12.4444444 C10,11.58535 9.31119231,10.8888889 8.46153846,10.8888889 C7.61188462,10.8888889 6.92307692,11.58535 6.92307692,12.4444444 C6.92307692,13.3035389 7.61188462,14 8.46153846,14 Z" id="形状"></path>
                </g>
            </g>
        </g>
    </g>
</svg>