<?xml version="1.0" encoding="UTF-8"?>
<svg width="18px" height="18px" viewBox="0 0 18 18" version="1.1" xmlns="http://www.w3.org/2000/svg" xmlns:xlink="http://www.w3.org/1999/xlink">
    <g id="页面-1" stroke="none" stroke-width="1" fill="none" fill-rule="evenodd">
        <g id="项目管理" transform="translate(-1338.000000, -298.000000)" fill-rule="nonzero">
            <g id="编组-3备份" transform="translate(90.000000, 232.000000)">
                <g id="编组-19" transform="translate(0.000000, 50.000000)">
                    <g id="编组-2" transform="translate(1180.000000, 16.000000)">
                        <g id="审批默认" transform="translate(68.000000, 0.000000)">
                            <rect id="矩形" fill-opacity="0.01" fill="#FFFFFF" x="0" y="0" width="18" height="18"></rect>
                            <path d="M12.8742777,2 L12.8742777,3.5 L2.45203739,3.5 L2.45203739,14.5 L14.0683365,14.5 L14.0683365,9 L15.5203739,9 L15.5203739,14.5 C15.5203739,15.3284271 14.8702746,16 14.0683365,16 L2.45203739,16 C1.65009928,16 1,15.3284271 1,14.5 L1,3.5 C1,2.67157287 1.65009928,2 2.45203739,2 L12.8742777,2 Z M15.9767976,2.56800001 L17,3.632 L9.20159118,11.631 L9.20449526,11.634 L8.14741204,11.671 L8.17742082,10.563 L8.17935686,10.5655 L15.9767976,2.56800001 L15.9767976,2.56800001 Z" id="形状" fill="#1E86FF"></path>
                        </g>
                    </g>
                </g>
            </g>
        </g>
    </g>
</svg>