<svg xml:space="preserve" viewBox="0 0 24 24" xmlns="http://www.w3.org/2000/svg"><path clip-rule="evenodd" fill="none" d="M0 0h24v24H0z"/><path d="M12 5a7.97 7.97 0 0 1 5.446 2.14l.847-.847a.999.999 0 0 1 1.497 1.32l-.083.094-.972.973a8 8 0 1 1-13.47 0l-.972-.973a.999.999 0 0 1 1.32-1.497l.094.083.847.847A7.97 7.97 0 0 1 12 5zm0 2a6 6 0 1 0 0 12 6 6 0 0 0 0-12zm.555 2.168a1 1 0 0 1 .336 1.286l-.059.101L11.868 12H14a1 1 0 0 1 .889 1.458l-.057.096-2 3a1 1 0 0 1-1.723-1.009l.059-.101L12.13 14H10a1 1 0 0 1-.889-1.458l.057-.096 2-3a1 1 0 0 1 1.387-.278zM15 2a1 1 0 0 1 .117 1.993L15 4H9a1 1 0 0 1-.117-1.993L9 2h6z"/></svg>