<?xml version="1.0" encoding="UTF-8"?>
<svg width="120px" height="120px" viewBox="0 0 120 120" version="1.1" xmlns="http://www.w3.org/2000/svg" xmlns:xlink="http://www.w3.org/1999/xlink">
    <defs>
        <linearGradient x1="100%" y1="0%" x2="0%" y2="0%" id="linearGradient-1">
            <stop stop-color="#BCD5F2" offset="0%"></stop>
            <stop stop-color="#E0EBF8" offset="100%"></stop>
        </linearGradient>
        <linearGradient x1="100%" y1="68.8951615%" x2="0%" y2="31.1048385%" id="linearGradient-2">
            <stop stop-color="#D8E9FF" offset="0%"></stop>
            <stop stop-color="#EDF5FF" offset="99.9525377%"></stop>
        </linearGradient>
        <linearGradient x1="43.7203124%" y1="36.5351848%" x2="18.8439586%" y2="51.6400251%" id="linearGradient-3">
            <stop stop-color="#7BC2E5" stop-opacity="0" offset="0%"></stop>
            <stop stop-color="#7B94E5" offset="100%"></stop>
            <stop stop-color="#7B94E5" offset="100%"></stop>
        </linearGradient>
        <linearGradient x1="37.565998%" y1="0%" x2="69.817276%" y2="100%" id="linearGradient-4">
            <stop stop-color="#E2F3FF" offset="0%"></stop>
            <stop stop-color="#98D1F7" offset="100%"></stop>
        </linearGradient>
        <path d="M5.50909375,5.5906882 L29.1997843,18.9806823 C30.9381698,19.9632189 32.0130667,21.8054576 32.0130667,23.8022956 L32.0130667,69.3611151 C32.0130667,71.4003203 30.3599643,73.0534228 28.320759,73.0534228 C27.6840897,73.0534228 27.0582377,72.8887947 26.503973,72.575524 L2.81328246,59.1855299 C1.07489699,58.2029932 1.13693309e-15,56.3607546 0,54.3639165 L0,8.80509709 C-2.93167649e-15,6.76589186 1.65310246,5.1127894 3.69230769,5.1127894 C4.32897708,5.1127894 4.95482906,5.27741743 5.50909375,5.5906882 Z" id="path-5"></path>
        <filter x="-1.6%" y="-0.7%" width="103.1%" height="101.4%" filterUnits="objectBoundingBox" id="filter-6">
            <feOffset dx="1" dy="1" in="SourceAlpha" result="shadowOffsetInner1"></feOffset>
            <feComposite in="shadowOffsetInner1" in2="SourceAlpha" operator="arithmetic" k2="-1" k3="1" result="shadowInnerInner1"></feComposite>
            <feColorMatrix values="0 0 0 0 0   0 0 0 0 0   0 0 0 0 0  0 0 0 0.0643455665 0" type="matrix" in="shadowInnerInner1"></feColorMatrix>
        </filter>
        <linearGradient x1="30.6168405%" y1="42.2953047%" x2="76.8964802%" y2="4.22266746%" id="linearGradient-7">
            <stop stop-color="#FFEAAA" offset="0%"></stop>
            <stop stop-color="#D8BA5F" offset="100%"></stop>
        </linearGradient>
        <linearGradient x1="50.9865793%" y1="72.0779182%" x2="46.6904675%" y2="-12.4236971%" id="linearGradient-8">
            <stop stop-color="#7BC2E5" stop-opacity="0" offset="0%"></stop>
            <stop stop-color="#7B94E5" offset="100%"></stop>
        </linearGradient>
        <linearGradient x1="0%" y1="77.5777221%" x2="100%" y2="77.5777221%" id="linearGradient-9">
            <stop stop-color="#E5BE85" offset="0%"></stop>
            <stop stop-color="#C68A4D" offset="50.6151319%"></stop>
            <stop stop-color="#C68A4D" offset="100%"></stop>
        </linearGradient>
        <linearGradient x1="2.11657683%" y1="81.3247327%" x2="97.5008128%" y2="81.3247327%" id="linearGradient-10">
            <stop stop-color="#8AE438" offset="0%"></stop>
            <stop stop-color="#07BB0C" offset="51.9562301%"></stop>
            <stop stop-color="#07BB0C" offset="100%"></stop>
        </linearGradient>
        <linearGradient x1="77.029413%" y1="20.1286096%" x2="-6.72246626%" y2="20.1286096%" id="linearGradient-11">
            <stop stop-color="#7BC2E5" stop-opacity="0" offset="0%"></stop>
            <stop stop-color="#7B94E5" offset="100%"></stop>
        </linearGradient>
        <linearGradient x1="50%" y1="0%" x2="50%" y2="100%" id="linearGradient-12">
            <stop stop-color="#90BD4C" offset="0%"></stop>
            <stop stop-color="#519414" offset="100%"></stop>
        </linearGradient>
        <linearGradient x1="50%" y1="0%" x2="50%" y2="100%" id="linearGradient-13">
            <stop stop-color="#AECE90" offset="0%"></stop>
            <stop stop-color="#52C41A" offset="100%"></stop>
        </linearGradient>
    </defs>
    <g id="âˆŸ-----å·¥ä½œå°" stroke="none" stroke-width="1" fill="none" fill-rule="evenodd">
        <g id="å·¥ä½œæŒ‡å¼•-ç¼ºçœçŠ¶æ€" transform="translate(-690.000000, -514.000000)">
            <g id="01å›¾æ ‡-/-04ç¼ºçœé¡µæ’ç”»-/-æš‚æ— å†…å®¹" transform="translate(690.000000, 514.000000)">
                <rect id="çŸ©å½¢" opacity="0" x="0" y="0" width="120" height="120"></rect>
                <g id="æœåŠ¡å™¨å¼‚å¸¸å¤‡ä»½" transform="translate(0.000000, 17.250000)">
                    <g id="åº•åº§" transform="translate(0.000000, 24.831915)" fill-rule="nonzero">
                        <path d="M59.9902311,77.9180849 C93.1219208,77.9180849 119.980462,61.4044211 119.980462,41.0337844 L120,36.8843005 L0,36.8843005 L0,41.0337844 C0,61.4044211 26.8585413,77.9180849 59.9902311,77.9180849 Z" id="æ¤­åœ†å½¢å¤‡ä»½" fill="url(#linearGradient-1)"></path>
                        <ellipse id="æ¤­åœ†å½¢" fill="url(#linearGradient-2)" cx="60" cy="36.8843005" rx="60" ry="36.8843005"></ellipse>
                    </g>
                    <g id="æ–‡ä»¶å¤¹" transform="translate(30.000000, 0.000000)">
                        <polygon id="çŸ©å½¢" fill="url(#linearGradient-3)" fill-rule="nonzero" points="49.6124825 46.5014417 86.8286869 68.1828603 43.1237022 83.9138453 3.69230769 62.9533664"></polygon>
                        <g id="ç¼–ç»„-12å¤‡ä»½">
                            <path d="M58.7004007,47.1703459 L42.2162822,35.8935481 C41.3883146,35.3271348 40.5942584,34.3521604 40.0087969,33.1812334 L37.5016269,28.1397248 C36.9161654,26.9561172 36.1221092,25.9648502 35.2941416,25.3858658 L23.1459337,16.8908193 C20.7611829,15.2232014 18.8100231,16.5689216 18.8100231,19.8813088 L18.8100231,42.4657666 C18.8100231,45.7781537 20.7611829,49.6112612 23.1459337,50.9837833 L58.7004007,71.4468388 C61.0851516,72.8193609 63.0363114,71.5343714 63.0363114,68.5913068 L63.0363114,55.7551237 C63.0363114,52.5445076 61.0851516,48.8017558 58.7004007,47.1703459 Z" id="è·¯å¾„" fill="#D8BA5F"></path>
                            <path d="M57.6152071,47.8930486 L41.1310885,36.6162507 C40.3031209,36.0498375 39.5090648,35.074863 38.9236033,33.903936 L36.4164333,28.8624274 C35.8309718,27.6788198 35.0369156,26.6875528 34.208948,26.1085684 L22.06074,17.6135219 C19.6759892,15.945904 17.7248294,17.2916243 17.7248294,20.6040114 L17.7248294,43.1884693 C17.7248294,46.5008564 19.6759892,50.3339639 22.06074,51.7064859 L57.6152071,72.1695415 C59.999958,73.5420635 61.9511177,72.2570741 61.9511177,69.3140094 L61.9511177,56.4778263 C61.9511177,53.2672103 59.999958,49.5244584 57.6152071,47.8930486 Z" id="è·¯å¾„" fill="url(#linearGradient-4)"></path>
                            <polygon id="è·¯å¾„-5å¤‡ä»½" fill="#FFEAAA" points="31.0209854 35.741505 21.0851886 45.7485043 1.21124567 28.8556765 18.9997618 17.2399508"></polygon>
                            <polygon id="è·¯å¾„-5å¤‡ä»½" fill="#E8AF00" points="33.9148351 35.741505 23.9790383 45.7485043 4.03535686 28.8706375 21.8936115 17.2399508"></polygon>
                            <path d="M57.6152071,47.8930486 L41.1310885,36.6162507 C40.3031209,36.0498375 39.5090648,35.074863 38.9236033,33.903936 L36.4164333,28.8624274 C35.8309718,27.6788198 35.0369156,26.6875528 34.208948,26.1085684 L22.06074,17.6135219 C19.6759892,15.945904 17.7248294,17.2916243 17.7248294,20.6040114 L17.7248294,43.1884693 C17.7248294,46.5008564 19.6759892,50.3339639 22.06074,51.7064859 L57.6152071,72.1695415 C59.999958,73.5420635 61.9511177,72.2570741 61.9511177,69.3140094 L61.9511177,56.4778263 C61.9511177,53.2672103 59.999958,49.5244584 57.6152071,47.8930486 Z" id="è·¯å¾„" fill="#C59400"></path>
                            <g id="ç¼–ç»„-26" transform="translate(13.354246, 0.000000)">
                                <g id="çŸ©å½¢" transform="translate(1.878510, 0.000000)" fill="#D0D3D8">
                                    <path d="M12.8550115,0.478214332 L36.5464256,13.8686174 C38.2835922,14.8504651 39.3575375,16.6900909 39.3575375,18.683941 L39.3575375,65.5434513 C39.3575375,67.580515 37.7044351,69.2318814 35.6652298,69.2318814 C35.0279971,69.2318814 34.4016107,69.0671352 33.8469968,68.753667 L10.1555827,55.363264 C8.41841608,54.3814163 7.34447079,52.5417904 7.34447079,50.5479404 L0,5.58843452 L9.22985318,0.47109672 C9.76398503,0.171103098 10.3803791,0 11.0367785,0 C11.6740113,0 12.3003976,0.164746167 12.8550115,0.478214332 Z" id="è·¯å¾„"></path>
                                </g>
                                <g id="è’™ç‰ˆ">
                                    <use fill="#FFFFFF" fill-rule="evenodd" xlink:href="#path-5"></use>
                                    <use fill="black" fill-opacity="1" filter="url(#filter-6)" xlink:href="#path-5"></use>
                                </g>
                                <path d="M6.80163374,28.0217028 L15.3798779,32.8719973 C16.485148,33.496937 17.1685242,34.6683798 17.1685242,35.9380929 C17.1685242,36.6001013 16.6318603,37.1367651 15.969852,37.1367651 C15.7630965,37.1367651 15.5598561,37.0832856 15.3798779,36.9815226 L6.80163374,32.1312281 C5.69636371,31.5062884 5.01298752,30.3348456 5.01298752,29.0651325 C5.01298752,28.4031242 5.54965133,27.8664603 6.21165969,27.8664603 C6.41841522,27.8664603 6.62165554,27.9199399 6.80163374,28.0217028 Z" id="çŸ©å½¢å¤‡ä»½-30" fill="#E2E4E5"></path>
                                <path d="M6.80204051,18.7071036 L23.3026664,28.0280966 C24.4081181,28.6525521 25.0917194,29.8238392 25.0917194,31.0934724 C25.0917194,31.7557868 24.5548075,32.2926987 23.8924931,32.2926987 C23.6858055,32.2926987 23.4826264,32.239279 23.3026664,32.1376219 L6.80204051,22.816629 C5.69658875,22.1921734 5.01298752,21.0208863 5.01298752,19.7512531 C5.01298752,19.0889387 5.54989942,18.5520268 6.2122138,18.5520268 C6.41890138,18.5520268 6.62208054,18.6054466 6.80204051,18.7071036 Z" id="çŸ©å½¢" fill="#E2E4E5"></path>
                                <path d="M0,29.7352902 L3.58820382,32.0218713 C6.03783708,33.5828988 7.86857041,35.9470024 8.76689987,38.709341 C9.66574626,41.4732691 11.4891916,43.8432405 13.9304136,45.4204717 L29.0580321,55.1941638 C30.900365,56.3844631 32.0130667,58.4280938 32.0130667,60.6214937 L32.0130667,65.2015401 L32.0130667,65.2015401 L0,39.3448892 L0,29.7352902 Z" id="è·¯å¾„-13" fill="#ECEFF4"></path>
                            </g>
                            <path d="M60.3497786,70.3041142 L42.5597311,82.8533999 L42.5597311,82.8533999 L43.7320386,65.7379054 L61.7990492,54.7904313 C61.8772487,55.2584165 61.9257226,55.690936 61.9444708,56.08799 C61.9711035,59.8184066 62.025182,63.394527 62.1067063,66.8163512 C62.1388506,68.1992125 61.4804682,69.5073193 60.3497786,70.3041142 Z" id="è·¯å¾„-5" fill="url(#linearGradient-7)"></path>
                            <path d="M40.9755713,58.7335883 L24.4914527,47.4567905 C23.6634851,46.8903773 22.8694289,45.9154028 22.2839674,44.7444758 L19.7767975,39.7029672 C19.191336,38.5193596 18.3972798,37.5280926 17.5693122,36.9491082 L5.42110424,28.4540617 C3.03635342,26.7864438 1.08519364,28.1321641 1.08519364,31.4445512 L1.08519364,54.029009 C1.08519364,57.3413962 3.03635342,61.1745037 5.42110424,62.5470257 L40.9755713,83.0100813 C43.3603222,84.3826033 45.3114819,83.0976138 45.3114819,80.1545492 L45.3114819,67.3183661 C45.3114819,64.1077501 43.3603222,60.3649982 40.9755713,58.7335883 Z" id="è·¯å¾„" fill="#FFEAAA"></path>
                            <path d="M60.3874508,73.2687323 L42.9214623,83.9374539 L42.9214623,83.9374539 L44.1534141,66.8219594 L63.0313165,55.3920656 L63.0388536,68.5390941 C63.0399606,70.4700441 62.0353029,72.2621775 60.3874508,73.2687323 Z" id="è·¯å¾„-5" fill="#E8AF00"></path>
                            <path d="M39.8903777,59.456291 L23.4062591,48.1794932 C22.5782915,47.6130799 21.7842353,46.6381054 21.1987738,45.4671784 L18.6916038,40.4256698 C18.1061423,39.2420622 17.3120862,38.2507952 16.4841186,37.6718108 L4.3359106,29.1767643 C1.95115978,27.5091464 0,28.8548667 0,32.1672538 L0,59.1580091 C1.21289863e-16,60.148416 0.52893026,61.063422 1.38717584,61.5577097 L39.8903777,83.7327839 L39.8903777,83.7327839 C42.2751285,85.1053059 44.2262883,83.8203165 44.2262883,80.8772518 L44.2262883,68.0410687 C44.2262883,64.8304527 42.2751285,61.0877008 39.8903777,59.456291 Z" id="è·¯å¾„" fill="#FFD75B"></path>
                        </g>
                    </g>
                    <g id="ðŸŒ²" transform="translate(93.230769, 9.156087)">
                        <polygon id="çŸ©å½¢" fill="url(#linearGradient-8)" fill-rule="nonzero" transform="translate(15.394081, 37.658945) rotate(-120.000000) translate(-15.394081, -37.658945) " points="15.778855 30.4975254 17.7207983 29.3727336 14.9862337 44.8508096 13.0673628 45.945156"></polygon>
                        <g id="ç¼–ç»„">
                            <path d="M6.92307692,22.5916341 L9.69230769,22.5916341 L9.69230769,40.0132977 C9.69254408,40.0824502 9.67724079,40.1507725 9.64744274,40.2131761 C9.38717805,40.7602483 8.94059457,41.0337844 8.30769231,41.0337844 C7.67479004,41.0337844 7.22820656,40.7602483 6.96794188,40.2131761 C6.93814382,40.1507725 6.92284053,40.0824502 6.92307692,40.0132977 L6.92307692,22.5916341 L6.92307692,22.5916341 Z" id="çŸ©å½¢" fill="url(#linearGradient-9)"></path>
                            <path d="M7.87842715,9.44247254 L0.548640325,28.9680436 C0.18293173,29.942243 0.394422615,31.0391881 1.09677891,31.8069798 C3.06431507,33.9623836 5.46795287,35.0400855 8.30769231,35.0400855 C11.1441201,35.0400855 13.5710354,33.9648957 15.5884382,31.8145162 C16.3125104,31.0423656 16.533143,29.9250123 16.1568306,28.9356257 L8.74191157,9.44060053 C8.65129362,9.20235123 8.38469403,9.08267237 8.14644473,9.17329033 C8.02261103,9.22039039 7.92498984,9.31843578 7.87842715,9.44247254 Z" id="è·¯å¾„-3" fill="url(#linearGradient-10)"></path>
                            <path d="M14.4885075,24.5483166 C14.4567938,24.4649025 14.5596353,24.7353982 14.7970321,25.3598037 C15.1531273,26.2964119 13.9802836,27.2792534 13.3529564,27.663298 C11.8467961,28.5853571 10.1650414,29.0463867 8.30769231,29.0463867 C6.44918054,29.0463867 4.7774621,28.5847798 3.29253699,27.661566 C2.68157206,27.2817143 1.55378967,26.2894889 1.90358865,25.3583523 C1.96968134,25.1824189 2.06882038,24.9185188 2.20100577,24.566652 C3.94326231,26.0162959 5.97882449,26.7411179 8.30769231,26.7411179 C10.6463582,26.7411179 12.7066299,26.0101841 14.4885075,24.5483166 Z" id="è·¯å¾„" fill-opacity="0.15" fill="#000000"></path>
                            <path d="M7.87842715,1.14350491 L0.548640325,20.6690759 C0.18293173,21.6432754 0.394422615,22.7402204 1.09677891,23.5080122 C3.06431507,25.663416 5.46795287,26.7411179 8.30769231,26.7411179 C11.1441201,26.7411179 13.5710354,25.6659281 15.5884382,23.5155485 C16.3125104,22.743398 16.533143,21.6260447 16.1568306,20.6366581 L8.74191157,1.14163291 C8.65129362,0.903383604 8.38469403,0.783704749 8.14644473,0.874322702 C8.02261103,0.921422763 7.92498984,1.01946815 7.87842715,1.14350491 Z" id="è·¯å¾„-3å¤‡ä»½" fill="url(#linearGradient-10)"></path>
                        </g>
                    </g>
                    <g id="ðŸŒ²" transform="translate(10.615385, 35.436151)">
                        <polygon id="çŸ©å½¢" fill="url(#linearGradient-8)" fill-rule="nonzero" transform="translate(15.394081, 37.658945) rotate(-120.000000) translate(-15.394081, -37.658945) " points="15.778855 30.4975254 17.7207983 29.3727336 14.9862337 44.8508096 13.0673628 45.945156"></polygon>
                        <g id="ç¼–ç»„">
                            <path d="M6.92307692,22.5916341 L9.69230769,22.5916341 L9.69230769,40.0132977 C9.69254408,40.0824502 9.67724079,40.1507725 9.64744274,40.2131761 C9.38717805,40.7602483 8.94059457,41.0337844 8.30769231,41.0337844 C7.67479004,41.0337844 7.22820656,40.7602483 6.96794188,40.2131761 C6.93814382,40.1507725 6.92284053,40.0824502 6.92307692,40.0132977 L6.92307692,22.5916341 L6.92307692,22.5916341 Z" id="çŸ©å½¢" fill="url(#linearGradient-9)"></path>
                            <path d="M7.87842715,9.44247254 L0.548640325,28.9680436 C0.18293173,29.942243 0.394422615,31.0391881 1.09677891,31.8069798 C3.06431507,33.9623836 5.46795287,35.0400855 8.30769231,35.0400855 C11.1441201,35.0400855 13.5710354,33.9648957 15.5884382,31.8145162 C16.3125104,31.0423656 16.533143,29.9250123 16.1568306,28.9356257 L8.74191157,9.44060053 C8.65129362,9.20235123 8.38469403,9.08267237 8.14644473,9.17329033 C8.02261103,9.22039039 7.92498984,9.31843578 7.87842715,9.44247254 Z" id="è·¯å¾„-3" fill="url(#linearGradient-10)"></path>
                            <path d="M14.4885075,24.5483166 C14.4567938,24.4649025 14.5596353,24.7353982 14.7970321,25.3598037 C15.1531273,26.2964119 13.9802836,27.2792534 13.3529564,27.663298 C11.8467961,28.5853571 10.1650414,29.0463867 8.30769231,29.0463867 C6.44918054,29.0463867 4.7774621,28.5847798 3.29253699,27.661566 C2.68157206,27.2817143 1.55378967,26.2894889 1.90358865,25.3583523 C1.96968134,25.1824189 2.06882038,24.9185188 2.20100577,24.566652 C3.94326231,26.0162959 5.97882449,26.7411179 8.30769231,26.7411179 C10.6463582,26.7411179 12.7066299,26.0101841 14.4885075,24.5483166 Z" id="è·¯å¾„" fill-opacity="0.15" fill="#000000"></path>
                            <path d="M7.87842715,1.14350491 L0.548640325,20.6690759 C0.18293173,21.6432754 0.394422615,22.7402204 1.09677891,23.5080122 C3.06431507,25.663416 5.46795287,26.7411179 8.30769231,26.7411179 C11.1441201,26.7411179 13.5710354,25.6659281 15.5884382,23.5155485 C16.3125104,22.743398 16.533143,21.6260447 16.1568306,20.6366581 L8.74191157,1.14163291 C8.65129362,0.903383604 8.38469403,0.783704749 8.14644473,0.874322702 C8.02261103,0.921422763 7.92498984,1.01946815 7.87842715,1.14350491 Z" id="è·¯å¾„-3å¤‡ä»½" fill="url(#linearGradient-10)"></path>
                        </g>
                    </g>
                    <g id="ðŸŒ¿" transform="translate(41.076923, 72.780412)">
                        <polygon id="çŸ©å½¢" fill="url(#linearGradient-11)" fill-rule="nonzero" transform="translate(8.914677, 11.403018) rotate(-60.000000) translate(-8.914677, -11.403018) " points="13.4037064 12.934134 13.4389323 17.4851484 5.86704253 11.1132623 4.3904227 5.32088681"></polygon>
                        <polygon id="è·¯å¾„-15" fill="url(#linearGradient-12)" points="1.84615385 12.4495448 1.84615385 1.84530841 4.73545695 9.91374915 8.3063744 1.84530841 8.3063744 12.4495448"></polygon>
                        <path d="M1.32985276,12.1213142 L0,4.15057719 L0,4.15057719 L2.77385553,9.69470614 L5.07786219,0 L7.38625404,9.69470614 L10.1557244,4.15057719 L8.82351749,12.1213142 C8.77619609,12.4004579 8.66562623,12.6651117 8.49947755,12.8943615 C7.8242395,13.8272937 6.68338801,14.2937598 5.07692308,14.2937598 C3.47045814,14.2937598 2.32946176,13.8272937 1.65393393,12.8943615 C1.48777618,12.6651154 1.37722265,12.4004521 1.32985276,12.1213142 Z" id="è·¯å¾„-14" fill="url(#linearGradient-13)"></path>
                    </g>
                </g>
            </g>
        </g>
    </g>
</svg>