<?xml version="1.0" encoding="UTF-8"?>
<svg width="64px" height="64px" viewBox="0 0 64 64" version="1.1" xmlns="http://www.w3.org/2000/svg" xmlns:xlink="http://www.w3.org/1999/xlink">
    <defs>
        <linearGradient x1="100%" y1="0%" x2="0%" y2="0%" id="linearGradient-1">
            <stop stop-color="#BCD5F2" offset="0%"></stop>
            <stop stop-color="#E0EBF8" offset="100%"></stop>
        </linearGradient>
        <linearGradient x1="100%" y1="68.8010012%" x2="0%" y2="31.1989988%" id="linearGradient-2">
            <stop stop-color="#D8E9FF" offset="0%"></stop>
            <stop stop-color="#EDF5FF" offset="99.9525377%"></stop>
        </linearGradient>
        <linearGradient x1="50.9911173%" y1="72.0779182%" x2="46.6752447%" y2="-12.4236971%" id="linearGradient-3">
            <stop stop-color="#7BC2E5" stop-opacity="0" offset="0%"></stop>
            <stop stop-color="#7B94E5" offset="100%"></stop>
        </linearGradient>
        <linearGradient x1="0%" y1="77.5777221%" x2="100%" y2="77.5777221%" id="linearGradient-4">
            <stop stop-color="#E5BE85" offset="0%"></stop>
            <stop stop-color="#C68A4D" offset="50.6151319%"></stop>
            <stop stop-color="#C68A4D" offset="100%"></stop>
        </linearGradient>
        <linearGradient x1="2.11657683%" y1="81.3247327%" x2="97.5008128%" y2="81.3247327%" id="linearGradient-5">
            <stop stop-color="#8AE438" offset="0%"></stop>
            <stop stop-color="#07BB0C" offset="51.9562301%"></stop>
            <stop stop-color="#07BB0C" offset="100%"></stop>
        </linearGradient>
        <linearGradient x1="43.7203124%" y1="36.1041981%" x2="18.8439586%" y2="51.6925196%" id="linearGradient-6">
            <stop stop-color="#7BC2E5" stop-opacity="0" offset="0%"></stop>
            <stop stop-color="#7B94E5" offset="100%"></stop>
            <stop stop-color="#7B94E5" offset="100%"></stop>
        </linearGradient>
        <linearGradient x1="77.029413%" y1="20.1286096%" x2="-6.72246626%" y2="20.1286096%" id="linearGradient-7">
            <stop stop-color="#7BC2E5" stop-opacity="0" offset="0%"></stop>
            <stop stop-color="#7B94E5" offset="100%"></stop>
        </linearGradient>
        <linearGradient x1="50%" y1="0%" x2="50%" y2="100%" id="linearGradient-8">
            <stop stop-color="#90BD4C" offset="0%"></stop>
            <stop stop-color="#519414" offset="100%"></stop>
        </linearGradient>
        <linearGradient x1="50%" y1="0%" x2="50%" y2="100%" id="linearGradient-9">
            <stop stop-color="#AECE90" offset="0%"></stop>
            <stop stop-color="#52C41A" offset="100%"></stop>
        </linearGradient>
    </defs>
    <g id="å·¥ä½œå°" stroke="none" stroke-width="1" fill="none" fill-rule="evenodd" opacity="0.401529948">
        <g id="å·¥ä½œå°-å·¥ä½œåŠžç†" transform="translate(-1220.000000, -509.000000)">
            <g id="01å›¾æ ‡-/-04ç¼ºçœé¡µæ’ç”»-/-æš‚æ— è®°å½•" transform="translate(1220.000000, 509.000000)" style="mix-blend-mode: luminosity;">
                <rect id="çŸ©å½¢" opacity="0" x="0" y="0" width="64" height="64"></rect>
                <g id="æœåŠ¡å™¨å¼‚å¸¸å¤‡ä»½-3" transform="translate(0.000000, 11.998436)">
                    <g id="åº•åº§" transform="translate(0.000000, 10.548925)" fill-rule="nonzero">
                        <path d="M31.9947899,41.4526388 C49.6650244,41.4526388 63.9895798,32.6673235 63.9895798,21.8300879 L64,19.6225509 L0,19.6225509 L0,21.8300879 C0,32.6673235 14.3245554,41.4526388 31.9947899,41.4526388 Z" id="æ¤­åœ†å½¢å¤‡ä»½" fill="url(#linearGradient-1)"></path>
                        <ellipse id="æ¤­åœ†å½¢" fill="url(#linearGradient-2)" cx="32" cy="19.6225509" rx="32" ry="19.6225509"></ellipse>
                    </g>
                    <g id="ðŸŒ²" transform="translate(49.723077, 2.209341)">
                        <polygon id="çŸ©å½¢" fill="url(#linearGradient-3)" fill-rule="nonzero" transform="translate(8.210176, 20.034664) rotate(-120.000000) translate(-8.210176, -20.034664) " points="8.41913137 16.2174006 9.45354462 15.6167669 7.98892144 23.8681678 6.96680798 24.4525607"></polygon>
                        <g id="ç¼–ç»„">
                            <path d="M3.69230769,12.0188124 L5.16923077,12.0188124 L5.16923077,21.2894617 C5.16914939,21.3261993 5.16084644,21.3624529 5.14443936,21.3953278 C5.00550829,21.6851679 4.76761825,21.8300879 4.43076923,21.8300879 C4.09392021,21.8300879 3.85603017,21.6851679 3.71709911,21.3953278 C3.70069203,21.3624529 3.69238907,21.3261993 3.69230769,21.2894617 L3.69230769,12.0188124 L3.69230769,12.0188124 Z" id="çŸ©å½¢" fill="url(#linearGradient-4)"></path>
                            <path d="M4.20189859,5.0232337 L0.293149038,15.4096429 C0.0975538333,15.9293846 0.210731074,16.5147811 0.586784594,16.9234073 C1.63579643,18.0687514 2.91712464,18.6414234 4.43076923,18.6414234 C5.9408814,18.6414234 7.23335123,18.0714211 8.30817872,16.9314167 C8.69879866,16.5206768 8.81787069,15.922216 8.6164283,15.3923965 L4.66227959,5.02223374 C4.61384447,4.89520764 4.47160504,4.83149706 4.34457894,4.87993218 C4.27868782,4.9050565 4.22673644,4.95723406 4.20189859,5.0232337 Z" id="è·¯å¾„-3" fill="url(#linearGradient-5)"></path>
                            <path d="M7.72720401,13.059773 C7.71029001,13.0153965 7.76513883,13.1593009 7.89175045,13.4914864 C8.08166789,13.9897646 7.45615124,14.512639 7.12157673,14.7169518 C6.31829127,15.2074898 5.42135544,15.4527588 4.43076923,15.4527588 C3.43956295,15.4527588 2.54797979,15.2071827 1.75601973,14.7160303 C1.43017176,14.5139482 0.828687826,13.9860815 1.01524728,13.4907143 C1.05049672,13.3971172 1.10337087,13.2567216 1.17386975,13.0695275 C2.10307323,13.8407421 3.1887064,14.2263494 4.43076923,14.2263494 C5.67805768,14.2263494 6.77686928,13.8374906 7.72720401,13.059773 Z" id="è·¯å¾„" fill-opacity="0.15" fill="#000000"></path>
                            <path d="M4.20189859,0.608159749 L0.293149038,10.9945689 C0.0975538333,11.5143107 0.210731074,12.0997071 0.586784594,12.5083334 C1.63579643,13.6536774 2.91712464,14.2263494 4.43076923,14.2263494 C5.9408814,14.2263494 7.23335123,13.6563472 8.30817872,12.5163428 C8.69879866,12.1056028 8.81787069,11.5071421 8.6164283,10.9773225 L4.66227959,0.607159786 C4.61384447,0.480133686 4.47160504,0.41642311 4.34457894,0.464858231 C4.27868782,0.489982552 4.22673644,0.542160106 4.20189859,0.608159749 Z" id="è·¯å¾„-3å¤‡ä»½" fill="url(#linearGradient-5)"></path>
                        </g>
                    </g>
                    <g id="ç¼–ç»„-9" transform="translate(14.769231, 0.000000)">
                        <polygon id="çŸ©å½¢" fill="url(#linearGradient-6)" fill-rule="nonzero" points="25.5458565 20.8695991 48.348345 34.1211475 25.0390198 42.4900755 1.05509661 29.622069"></polygon>
                        <g id="ç¼–ç»„-26å¤‡ä»½">
                            <path d="M12.4777393,0.183077663 C13.1977815,0.183077663 13.9056419,0.368873108 14.5328669,0.722496665 L33.3609104,11.3375711 C35.2182764,12.3847366 36.3672462,14.3515103 36.3672462,16.4837307 L36.3672462,34.5912723 C36.3672462,36.3054676 35.2721059,37.7638792 33.7433059,38.3050264 L25.8763584,42.169135 L26.496124,35.7670777 L10.4226118,26.7056765 C9.10697756,25.9639343 8.29312396,24.5708029 8.29312396,23.0604801 L8.29312396,4.36769305 C8.29312396,2.05659379 10.1666401,0.183077663 12.4777393,0.183077663 Z" id="çŸ©å½¢å¤‡ä»½-34" fill="#D0D3D8"></path>
                            <path d="M12.2204367,3.37507799e-14 C12.898244,3.37507799e-14 13.5645798,0.174928442 14.154984,0.507863066 L33.3466734,11.3302405 C35.2037787,12.37748 36.3525447,14.3441086 36.3525447,16.4761382 L36.3525447,22.0181347 L36.3386115,22.011 L28.0723004,26.0390024 L26.2576115,16.326 L12.8576115,8.769 L13.5270822,10.8998983 L6.13246146,15.0040335 L2.69861149,4.32160662 L9.97675948,0.701152362 C10.6133926,0.259090216 11.3866578,3.39210081e-14 12.2204367,3.37507799e-14 Z" id="çŸ©å½¢å¤‡ä»½-33" fill="#3A4352"></path>
                            <path d="M6.23974293,4.79776912 L25.0677865,15.4128436 C26.9251525,16.4600091 28.0741223,18.4267827 28.0741223,20.5590032 L28.0741223,38.6665448 C28.0741223,40.841697 26.310813,42.6050063 24.1356607,42.6050063 C23.4579739,42.6050063 22.7917524,42.43014 22.201423,42.0973179 L2.12948783,30.780949 C0.813853602,30.0392067 2.41457575e-15,28.6460754 0,27.1357526 L0,8.4429655 C-1.17120645e-15,6.13186624 1.87351612,4.25835011 4.18461538,4.25835011 C4.90465759,4.25835011 5.61251797,4.44414556 6.23974293,4.79776912 Z" id="çŸ©å½¢" fill="#FFFFFF"></path>
                            <path d="M4.79093158,23.619995 L10.6329321,26.9149272 C11.3835065,27.3382568 11.8477819,28.1331402 11.8477819,28.9948652 C11.8477819,29.4447825 11.4830518,29.8095126 11.0331345,29.8095126 C10.8929135,29.8095126 10.7550665,29.7733191 10.6329321,29.7044344 L4.79093158,26.4095022 C4.04035713,25.9861726 3.57608182,25.1912892 3.57608182,24.3295642 C3.57608182,23.8796469 3.94081188,23.5149168 4.39072922,23.5149168 C4.53095014,23.5149168 4.66879721,23.5511103 4.79093158,23.619995 Z" id="çŸ©å½¢å¤‡ä»½-30" fill="#E2E4E5"></path>
                            <path d="M5.03736066,17.9232509 L16.2704521,24.2528504 C17.0211493,24.6758518 17.4855771,25.4706295 17.4855771,26.3323002 C17.4855771,26.7824252 17.1206787,27.1473235 16.6705538,27.1473235 C16.5303792,27.1473235 16.3925738,27.1111706 16.2704521,27.0423577 L5.03736066,20.7127581 C4.28666345,20.2897567 3.82223566,19.494979 3.82223566,18.6333083 C3.82223566,18.1831834 4.18713401,17.818285 4.63725894,17.818285 C4.77743357,17.818285 4.91523895,17.854438 5.03736066,17.9232509 Z" id="çŸ©å½¢" fill="#E2E4E5"></path>
                            <path d="M5.87269923,4.59083332 L25.0677865,15.4128436 C26.9251525,16.4600091 28.0741223,18.4267827 28.0741223,20.5590032 L28.0741223,26.100642 L28.0741223,26.100642 L0,10.2727151 L0,8.02160638 C1.77709886e-16,5.84645414 1.76330929,4.08314485 3.93846154,4.08314485 C4.61614832,4.08314485 5.28236985,4.25801115 5.87269923,4.59083332 Z" id="çŸ©å½¢" fill="#5B6372"></path>
                            <path d="M5.07661727,10.1737363 C5.72107886,10.5054076 6.24351821,10.2536917 6.24351821,9.61151297 C6.24351821,8.96933428 5.72107886,8.17987286 5.07661727,7.84820153 C4.43215567,7.51653021 3.90971633,7.76824617 3.90971633,8.41042487 C3.90971633,9.05260356 4.43215567,9.84206498 5.07661727,10.1737363 Z" id="æ¤­åœ†å½¢" fill="#FF7777"></path>
                            <path d="M9.6794206,12.6826699 C10.3238822,13.0143412 10.8463215,12.7626252 10.8463215,12.1204465 C10.8463215,11.4782678 10.3238822,10.6888064 9.6794206,10.3571351 C9.03495901,10.0254638 8.51251966,10.2771797 8.51251966,10.9193584 C8.51251966,11.5615371 9.03495901,12.3509986 9.6794206,12.6826699 Z" id="æ¤­åœ†å½¢å¤‡ä»½-10" fill="#FFC036"></path>
                            <path d="M14.2822239,15.019491 C14.9266855,15.3511623 15.4491249,15.0994464 15.4491249,14.4572677 C15.4491249,13.815089 14.9266855,13.0256275 14.2822239,12.6939562 C13.6377623,12.3622849 13.115323,12.6140009 13.115323,13.2561796 C13.115323,13.8983582 13.6377623,14.6878197 14.2822239,15.019491 Z" id="æ¤­åœ†å½¢å¤‡ä»½-11" fill="#52C41A"></path>
                        </g>
                    </g>
                    <g id="ðŸŒ²" transform="translate(5.661538, 16.190409)">
                        <polygon id="çŸ©å½¢" fill="url(#linearGradient-3)" fill-rule="nonzero" transform="translate(8.210176, 20.034664) rotate(-120.000000) translate(-8.210176, -20.034664) " points="8.41913137 16.2174006 9.45354462 15.6167669 7.98892144 23.8681678 6.96680798 24.4525607"></polygon>
                        <g id="ç¼–ç»„">
                            <path d="M3.69230769,12.0188124 L5.16923077,12.0188124 L5.16923077,21.2894617 C5.16914939,21.3261993 5.16084644,21.3624529 5.14443936,21.3953278 C5.00550829,21.6851679 4.76761825,21.8300879 4.43076923,21.8300879 C4.09392021,21.8300879 3.85603017,21.6851679 3.71709911,21.3953278 C3.70069203,21.3624529 3.69238907,21.3261993 3.69230769,21.2894617 L3.69230769,12.0188124 L3.69230769,12.0188124 Z" id="çŸ©å½¢" fill="url(#linearGradient-4)"></path>
                            <path d="M4.20189859,5.0232337 L0.293149038,15.4096429 C0.0975538333,15.9293846 0.210731074,16.5147811 0.586784594,16.9234073 C1.63579643,18.0687514 2.91712464,18.6414234 4.43076923,18.6414234 C5.9408814,18.6414234 7.23335123,18.0714211 8.30817872,16.9314167 C8.69879866,16.5206768 8.81787069,15.922216 8.6164283,15.3923965 L4.66227959,5.02223374 C4.61384447,4.89520764 4.47160504,4.83149706 4.34457894,4.87993218 C4.27868782,4.9050565 4.22673644,4.95723406 4.20189859,5.0232337 Z" id="è·¯å¾„-3" fill="url(#linearGradient-5)"></path>
                            <path d="M7.72720401,13.059773 C7.71029001,13.0153965 7.76513883,13.1593009 7.89175045,13.4914864 C8.08166789,13.9897646 7.45615124,14.512639 7.12157673,14.7169518 C6.31829127,15.2074898 5.42135544,15.4527588 4.43076923,15.4527588 C3.43956295,15.4527588 2.54797979,15.2071827 1.75601973,14.7160303 C1.43017176,14.5139482 0.828687826,13.9860815 1.01524728,13.4907143 C1.05049672,13.3971172 1.10337087,13.2567216 1.17386975,13.0695275 C2.10307323,13.8407421 3.1887064,14.2263494 4.43076923,14.2263494 C5.67805768,14.2263494 6.77686928,13.8374906 7.72720401,13.059773 Z" id="è·¯å¾„" fill-opacity="0.15" fill="#000000"></path>
                            <path d="M4.20189859,0.608159749 L0.293149038,10.9945689 C0.0975538333,11.5143107 0.210731074,12.0997071 0.586784594,12.5083334 C1.63579643,13.6536774 2.91712464,14.2263494 4.43076923,14.2263494 C5.9408814,14.2263494 7.23335123,13.6563472 8.30817872,12.5163428 C8.69879866,12.1056028 8.81787069,11.5071421 8.6164283,10.9773225 L4.66227959,0.607159786 C4.61384447,0.480133686 4.47160504,0.41642311 4.34457894,0.464858231 C4.27868782,0.489982552 4.22673644,0.542160106 4.20189859,0.608159749 Z" id="è·¯å¾„-3å¤‡ä»½" fill="url(#linearGradient-5)"></path>
                        </g>
                    </g>
                    <g id="ðŸŒ¿" transform="translate(21.907692, 36.057660)">
                        <polygon id="çŸ©å½¢" fill="url(#linearGradient-7)" fill-rule="nonzero" transform="translate(4.754495, 6.066437) rotate(-60.000000) translate(-4.754495, -6.066437) " points="7.14504591 6.88510961 7.16641995 9.31082376 3.13196366 5.91024159 2.34256938 2.82205064"></polygon>
                        <polygon id="è·¯å¾„-15" fill="url(#linearGradient-8)" points="0.984615385 6.62319261 0.984615385 0.981709227 2.52557704 5.27414224 4.43006635 0.981709227 4.43006635 6.62319261"></polygon>
                        <path d="M0.708894231,6.44641719 L0,2.20811866 L0,2.20811866 L1.47938962,5.15761074 L2.70819317,0 L3.93933549,5.15761074 L5.41638633,2.20811866 L4.70623721,6.44641719 C4.68063559,6.59555543 4.62129946,6.73691014 4.53305469,6.85983634 C4.17292773,7.35615888 3.56447361,7.60432016 2.70769231,7.60432016 C1.85091101,7.60432016 1.24237961,7.35615888 0.882098098,6.85983634 C0.793848992,6.73691193 0.734521691,6.59555223 0.708894231,6.44641719 Z" id="è·¯å¾„-14" fill="url(#linearGradient-9)"></path>
                    </g>
                </g>
            </g>
        </g>
    </g>
</svg>