<?xml version="1.0" encoding="UTF-8"?>
<svg width="18px" height="18px" viewBox="0 0 18 18" version="1.1" xmlns="http://www.w3.org/2000/svg" xmlns:xlink="http://www.w3.org/1999/xlink">
    <title></title>
    <g id="优化" stroke="none" stroke-width="1" fill="none" fill-rule="evenodd">
        <g id="项目计划备份" transform="translate(-1750.000000, -312.000000)" fill-rule="nonzero">
            <g id="编组-21" transform="translate(110.000000, 247.000000)">
                <g id="编组-7" transform="translate(1640.000000, 65.000000)">
                    <rect id="矩形" fill-opacity="0.01" fill="#FFFFFF" x="0" y="0" width="18" height="18"></rect>
                    <path d="M10.0926563,11.4607188 L10.0926563,13.1106352 C9.61076269,12.9389539 9.05421809,12.8394971 8.47400364,12.8394971 C5.79263605,12.8394971 3.61865264,14.9600571 3.61865264,17.5755328 C3.61865264,17.5761248 3.61865264,17.5761248 3.61865264,17.5767168 L3.61865264,17.5767168 L2,17.5761248 C2,17.5755328 2,17.5749408 2,17.5743488 C2,14.0868505 4.89864455,11.2594372 8.47400364,11.2594372 C9.04936274,11.2594372 9.60651426,11.3328458 10.1375683,11.4695988 L10.0926563,11.4595348 L10.0926563,11.4607188 Z M8.47400364,10.4720713 C5.79142221,10.4720713 3.61865264,8.35269536 3.61865264,5.73603566 C3.61865264,3.11937596 5.79142221,1 8.47400364,1 C11.1565851,1 13.3293546,3.11937596 13.3293546,5.73603566 C13.3293546,8.35269536 11.1565851,10.4720713 8.47400364,10.4720713 Z M8.47400364,8.89378744 C10.2625936,8.89378744 11.710702,7.4806728 11.710702,5.73662766 C11.710702,3.99258253 10.2619866,2.57946789 8.47400364,2.57946789 C6.68602064,2.57946789 5.23730528,3.99258253 5.23730528,5.73662766 C5.23730528,7.4806728 6.68602064,8.89378744 8.47400364,8.89378744 L8.47400364,8.89378744 Z M14.1383775,14.0921786 L15.8547441,12.417398 L17,13.5345104 L15.2830265,15.208699 L17,16.8828876 L15.8547441,18 L14.1383775,16.3252194 L12.4220109,18 L11.276755,16.8828876 L12.9937285,15.208699 L11.276755,13.5345104 L12.4220109,12.417398 L14.1383775,14.0921786 Z" id="形状" fill="#1E86FF"></path>
                </g>
            </g>
        </g>
    </g>
</svg>