<svg xml:space="preserve" viewBox="0 0 24 24" xmlns="http://www.w3.org/2000/svg"><path clip-rule="evenodd" fill="none" d="M0 0h24v24H0z"/><path d="M14.596 2.341a9.983 9.983 0 0 1 5.573 3.876l.114-.427a1 1 0 0 1 1.956.403l-.024.114-.75 2.803a.998.998 0 0 1-1.345.77l.095.029a1.103 1.103 0 0 1-.196-.074l-.044-.024-.035-.021a.993.993 0 0 1-.063-.043l-.035-.028a.493.493 0 0 1-.049-.042l-.019-.02a.986.986 0 0 1-.259-.43l.024.061a8.007 8.007 0 1 0 .079 5.205 1 1 0 1 1 1.902.62c-1.643 5.043-6.958 7.938-12.102 6.559C4.08 20.242.912 14.755 2.342 9.417S9.258.911 14.596 2.341zM10.613 7.21l.094.083 1.292 1.293 1.294-1.293a.999.999 0 0 1 1.497 1.32l-.083.094-.294.293H15a1 1 0 0 1 .117 1.993L15 11h-2.001v1H15a1 1 0 0 1 .117 1.993L15 14h-2.001L13 16a1 1 0 0 1-1.993.117L11 16l-.001-2H9a1 1 0 0 1-.117-1.993L9 12h1.999v-1H9a1 1 0 0 1-.117-1.993L9 9h.585l-.292-.293a.999.999 0 0 1 1.32-1.497z"/></svg>