<?xml version="1.0" encoding="UTF-8"?>
<svg width="20px" height="20px" viewBox="0 0 20 20" version="1.1" xmlns="http://www.w3.org/2000/svg" xmlns:xlink="http://www.w3.org/1999/xlink">
    <title>01图标 / 01通用图标 / 01单色线性 / 动作 /sort备份 3</title>
    <g id="-∟-0526" stroke="none" stroke-width="1" fill="none" fill-rule="evenodd">
        <g id="导出&amp;1366工具栏优化" transform="translate(-238.000000, -214.000000)">
            <g id="编组-7" transform="translate(64.000000, 200.000000)">
                <g id="01图标-/-01通用图标-/-01单色线性-/-动作-/sort备份-3" transform="translate(174.000000, 14.000000)">
                    <rect id="背景" fill="#434B5B" opacity="0" x="0" y="0" width="20" height="20"></rect>
                    <g id="网格" opacity="0" stroke="#434B5B" stroke-linecap="square" stroke-width="0.1">
                        <g id="竖线" transform="translate(0.416667, 0.000000)">
                            <line x1="0.416666667" y1="0" x2="0.416666667" y2="20" id="直线"></line>
                            <line x1="1.25" y1="0" x2="1.25" y2="20" id="直线"></line>
                            <line x1="2.08333333" y1="0" x2="2.08333333" y2="20" id="直线备份"></line>
                            <line x1="2.91666667" y1="0" x2="2.91666667" y2="20" id="直线备份-2"></line>
                            <line x1="3.75" y1="0" x2="3.75" y2="20" id="直线备份-3"></line>
                            <line x1="4.58333333" y1="0" x2="4.58333333" y2="20" id="直线备份-4"></line>
                            <line x1="5.41666667" y1="0" x2="5.41666667" y2="20" id="直线备份-5"></line>
                            <line x1="6.25" y1="0" x2="6.25" y2="20" id="直线备份-6"></line>
                            <line x1="7.08333333" y1="0" x2="7.08333333" y2="20" id="直线备份-7"></line>
                            <line x1="7.91666667" y1="0" x2="7.91666667" y2="20" id="直线备份-8"></line>
                            <line x1="8.75" y1="0" x2="8.75" y2="20" id="直线备份-9"></line>
                            <line x1="9.58333333" y1="0" x2="9.58333333" y2="20" id="直线备份-10"></line>
                            <line x1="10.4166667" y1="0" x2="10.4166667" y2="20" id="直线备份-11"></line>
                            <line x1="11.25" y1="0" x2="11.25" y2="20" id="直线备份-12"></line>
                            <line x1="12.0833333" y1="0" x2="12.0833333" y2="20" id="直线备份-13"></line>
                            <line x1="12.9166667" y1="0" x2="12.9166667" y2="20" id="直线备份-14"></line>
                            <line x1="13.75" y1="0" x2="13.75" y2="20" id="直线备份-15"></line>
                            <line x1="14.5833333" y1="0" x2="14.5833333" y2="20" id="直线备份-16"></line>
                            <line x1="15.4166667" y1="0" x2="15.4166667" y2="20" id="直线备份-17"></line>
                            <line x1="16.25" y1="0" x2="16.25" y2="20" id="直线备份-18"></line>
                            <line x1="17.0833333" y1="0" x2="17.0833333" y2="20" id="直线备份-19"></line>
                            <line x1="17.9166667" y1="0" x2="17.9166667" y2="20" id="直线备份-20"></line>
                            <line x1="18.75" y1="0" x2="18.75" y2="20" id="直线备份-21"></line>
                        </g>
                        <g id="横线" transform="translate(10.000000, 10.000000) rotate(-270.000000) translate(-10.000000, -10.000000) translate(0.416667, 0.000000)">
                            <line x1="0.416666667" y1="0" x2="0.416666667" y2="20" id="直线"></line>
                            <line x1="1.25" y1="0" x2="1.25" y2="20" id="直线"></line>
                            <line x1="2.08333333" y1="0" x2="2.08333333" y2="20" id="直线备份"></line>
                            <line x1="2.91666667" y1="0" x2="2.91666667" y2="20" id="直线备份-2"></line>
                            <line x1="3.75" y1="0" x2="3.75" y2="20" id="直线备份-3"></line>
                            <line x1="4.58333333" y1="0" x2="4.58333333" y2="20" id="直线备份-4"></line>
                            <line x1="5.41666667" y1="0" x2="5.41666667" y2="20" id="直线备份-5"></line>
                            <line x1="6.25" y1="0" x2="6.25" y2="20" id="直线备份-6"></line>
                            <line x1="7.08333333" y1="0" x2="7.08333333" y2="20" id="直线备份-7"></line>
                            <line x1="7.91666667" y1="0" x2="7.91666667" y2="20" id="直线备份-8"></line>
                            <line x1="8.75" y1="0" x2="8.75" y2="20" id="直线备份-9"></line>
                            <line x1="9.58333333" y1="0" x2="9.58333333" y2="20" id="直线备份-10"></line>
                            <line x1="10.4166667" y1="0" x2="10.4166667" y2="20" id="直线备份-11"></line>
                            <line x1="11.25" y1="0" x2="11.25" y2="20" id="直线备份-12"></line>
                            <line x1="12.0833333" y1="0" x2="12.0833333" y2="20" id="直线备份-13"></line>
                            <line x1="12.9166667" y1="0" x2="12.9166667" y2="20" id="直线备份-14"></line>
                            <line x1="13.75" y1="0" x2="13.75" y2="20" id="直线备份-15"></line>
                            <line x1="14.5833333" y1="0" x2="14.5833333" y2="20" id="直线备份-16"></line>
                            <line x1="15.4166667" y1="0" x2="15.4166667" y2="20" id="直线备份-17"></line>
                            <line x1="16.25" y1="0" x2="16.25" y2="20" id="直线备份-18"></line>
                            <line x1="17.0833333" y1="0" x2="17.0833333" y2="20" id="直线备份-19"></line>
                            <line x1="17.9166667" y1="0" x2="17.9166667" y2="20" id="直线备份-20"></line>
                            <line x1="18.75" y1="0" x2="18.75" y2="20" id="直线备份-21"></line>
                        </g>
                    </g>
                    <g id="Keyline" opacity="0" transform="translate(0.833333, 1.666667)" stroke="#434B5B" stroke-opacity="0.05" stroke-width="0.416666667">
                        <rect id="正方形-大" x="1.875" y="1.04166667" width="14.5833333" height="14.5833333" rx="0.833333333"></rect>
                        <rect id="正方形-小" x="4.375" y="3.54166667" width="9.58333333" height="9.58333333" rx="0.833333333"></rect>
                        <rect id="矩形-竖" x="2.70833333" y="0.208333333" width="12.9166667" height="16.25" rx="0.833333333"></rect>
                        <rect id="矩形-横" x="1.04166667" y="1.875" width="16.25" height="12.9166667" rx="0.833333333"></rect>
                        <circle id="圆形" cx="9.16666667" cy="8.33333333" r="8.125"></circle>
                        <path d="M9.16666667,0.415804894 L17.9719901,15.625 L0.361343184,15.625 L9.16666667,0.415804894 Z" id="三角形"></path>
                    </g>
                    <g id="icon" transform="translate(3.500000, 3.500000)" stroke="#434B5B" stroke-linecap="round" stroke-linejoin="round" stroke-width="1.5">
                        <path d="M0.8125,0 L8.94003608,0 L8.94003608,0 L13,4.06023224 L13,12.1875 C13,12.6362314 12.6362314,13 12.1875,13 L0.8125,13 C0.363768641,13 -5.60685602e-17,12.6362314 0,12.1875 L0,0.8125 C5.60685602e-17,0.363768641 0.363768641,1.93452916e-16 0.8125,0 Z" id="矩形"></path>
                        <rect id="矩形" x="4.0625" y="0" width="4.875" height="3.25"></rect>
                        <rect id="矩形备份" x="3.25" y="8.125" width="6.5" height="4.875"></rect>
                        <line x1="5.6875" y1="10.5625" x2="7.3125" y2="10.5625" id="路径-42"></line>
                    </g>
                </g>
            </g>
        </g>
    </g>
</svg>