<?xml version="1.0" encoding="UTF-8"?>
<svg width="18px" height="18px" viewBox="0 0 18 18" version="1.1" xmlns="http://www.w3.org/2000/svg" xmlns:xlink="http://www.w3.org/1999/xlink">
    <title></title>
    <g id="优化" stroke="none" stroke-width="1" fill="none" fill-rule="evenodd">
        <g id="项目列表" transform="translate(-1792.000000, -138.000000)" fill="#1E86FF" fill-rule="nonzero">
            <g id="查询备份" transform="translate(1770.000000, 129.000000)">
                <g id="编组-22" transform="translate(22.000000, 9.000000)">
                    <path d="M11.8522941,2 L16,6.02799999 L16,16 L2,16 L2,2 L11.8522941,2 Z M4.88235294,3.1988 L3.23529412,3.19919999 L3.23529412,14.8 L4.88235294,14.8 L4.88235294,10.4 L13.1176471,10.4 L13.1176471,14.8 L14.7647059,14.8 L14.7647059,6.5256 L11.3404706,3.19959999 L10.6470588,3.19959999 L10.6470588,6.39999999 L4.88235294,6.39999999 L4.88235294,3.19919999 L4.88235294,3.1988 Z M11.8823529,11.5996 L6.11764705,11.5996 L6.11764705,14.7996 L11.8823529,14.7996 L11.8823529,11.5996 Z M10.4502353,12.6 L10.4502353,13.8 L7.43282353,13.8 L7.43282353,12.6 L10.4502353,12.6 Z M9.41176471,3.2 L6.11764705,3.2 L6.11764705,5.2 L9.41176471,5.2 L9.41176471,3.2 L9.41176471,3.2 Z" id="形状"></path>
                </g>
            </g>
        </g>
    </g>
</svg>