<svg xml:space="preserve" viewBox="0 0 24 24" xmlns="http://www.w3.org/2000/svg"><path clip-rule="evenodd" fill="none" d="M0 0h24v24H0z"/><path d="m4.613 3.21.094.083 16 16a.999.999 0 0 1-1.32 1.497l-.094-.083-1.823-1.822-.223.144C15.706 19.98 13.94 20.5 12 20.5c-5.532 0-10-4.84-10-8.5 0-1.573 1.18-3.906 2.956-5.629L3.293 4.707a.999.999 0 0 1 1.32-1.497zM4 12c0 2.59 3.609 6.5 8 6.5a7.875 7.875 0 0 0 4.019-1.066l-1.626-1.627c-.027.02-.054.038-.083.056A4.49 4.49 0 0 1 12 16.5a4.5 4.5 0 0 1-3.81-6.896L6.371 7.785C4.947 9.158 4 11.008 4 12zm8-8.5c5.532 0 10 4.84 10 8.5 0 1.095-.605 2.641-1.594 4.04a1 1 0 1 1-1.633-1.155C19.542 13.797 20 12.628 20 12c0-2.59-3.609-6.5-8-6.5-.916 0-1.777.142-2.585.415a1 1 0 0 1-.639-1.895c1.013-.342 2.09-.52 3.224-.52zM9.5 12a2.5 2.5 0 0 0 3.332 2.359l.08-.032-3.24-3.24A2.485 2.485 0 0 0 9.5 12zm3.369-4.416a4.503 4.503 0 0 1 3.535 3.491 1.001 1.001 0 0 1-1.927.523l-.03-.113a2.504 2.504 0 0 0-1.962-1.938 1 1 0 0 1 .384-1.963z"/></svg>