<?xml version="1.0" encoding="UTF-8"?>
<svg width="20px" height="20px" viewBox="0 0 20 20" version="1.1" xmlns="http://www.w3.org/2000/svg" xmlns:xlink="http://www.w3.org/1999/xlink">
    <g id="∟-----项目" stroke="none" stroke-width="1" fill="none" fill-rule="evenodd">
        <g id="文档库" transform="translate(-167.000000, -660.000000)">
            <g id="01图标-/-01通用图标-/-03实色填充-/-办公-/-首页备份-3" transform="translate(168.000000, 661.000000)">
                <rect id="背景" fill="#86BEFF" opacity="0" x="0" y="0" width="18" height="18"></rect>
                <path d="M12,2.25 C12.7907713,2.25 13.4386238,2.86190834 13.4958857,3.63805324 L13.5,3.75 L13.5,6.75 L15.375,6.75 C15.9597721,6.75 16.4403365,7.19616606 16.4948501,7.76665499 L16.5,7.875 L16.5,13.5 C16.5,14.6982607 15.56331,15.6777457 14.3822046,15.7461805 L14.25,15.75 L4.5,15.75 C3.30173934,15.75 2.32225434,14.81331 2.25381952,13.6322046 L2.25,13.5 L2.25,3.75 C2.25,2.95922865 2.86190834,2.31137616 3.63805324,2.2541143 L3.75,2.25 L12,2.25 Z M15,8.25 L13.5,8.25 L13.5,13.5 C13.5,13.8550402 13.7467002,14.1524605 14.0780319,14.230192 L14.1625342,14.2449542 L14.25,14.25 C14.6346269,14.25 14.9516304,13.9604699 14.9949542,13.5874658 L15,13.5 L15,8.25 Z M9.75,11.25 L6,11.25 L5.91253416,11.2550458 C5.53953014,11.2983696 5.25,11.6153731 5.25,12 C5.25,12.3846269 5.53953014,12.7016304 5.91253416,12.7449542 L6,12.75 L9.75,12.75 L9.83746584,12.7449542 C10.2104699,12.7016304 10.5,12.3846269 10.5,12 C10.5,11.6153731 10.2104699,11.2983696 9.83746584,11.2550458 L9.75,11.25 Z M9.75,9 L6,9 L5.91253416,9.0050458 C5.53953014,9.04836963 5.25,9.36537312 5.25,9.75 C5.25,10.1346269 5.53953014,10.4516304 5.91253416,10.4949542 L6,10.5 L9.75,10.5 L9.83746584,10.4949542 C10.2104699,10.4516304 10.5,10.1346269 10.5,9.75 C10.5,9.36537312 10.2104699,9.04836963 9.83746584,9.0050458 L9.75,9 Z M7.5,5.25 L6,5.25 C5.61537312,5.25 5.29836963,5.53953014 5.2550458,5.91253416 L5.25,6 L5.25,7.5 C5.25,7.88462688 5.53953014,8.20163037 5.91253416,8.2449542 L6,8.25 L7.5,8.25 C7.88462688,8.25 8.20163037,7.96046986 8.2449542,7.58746584 L8.25,7.5 L8.25,6 C8.25,5.61537312 7.96046986,5.29836963 7.58746584,5.2550458 L7.5,5.25 Z" id="形状" fill="#86BEFF" fill-rule="nonzero"></path>
                <g id="网格" opacity="0" stroke="#86BEFF" stroke-linecap="square" stroke-width="0.5">
                    <g id="竖线" transform="translate(0.375000, 0.000000)">
                        <line x1="0.375" y1="0" x2="0.375" y2="18" id="直线"></line>
                        <line x1="1.125" y1="0" x2="1.125" y2="18" id="直线"></line>
                        <line x1="1.875" y1="0" x2="1.875" y2="18" id="直线备份"></line>
                        <line x1="2.625" y1="0" x2="2.625" y2="18" id="直线备份-2"></line>
                        <line x1="3.375" y1="0" x2="3.375" y2="18" id="直线备份-3"></line>
                        <line x1="4.125" y1="0" x2="4.125" y2="18" id="直线备份-4"></line>
                        <line x1="4.875" y1="0" x2="4.875" y2="18" id="直线备份-5"></line>
                        <line x1="5.625" y1="0" x2="5.625" y2="18" id="直线备份-6"></line>
                        <line x1="6.375" y1="0" x2="6.375" y2="18" id="直线备份-7"></line>
                        <line x1="7.125" y1="0" x2="7.125" y2="18" id="直线备份-8"></line>
                        <line x1="7.875" y1="0" x2="7.875" y2="18" id="直线备份-9"></line>
                        <line x1="8.625" y1="0" x2="8.625" y2="18" id="直线备份-10"></line>
                        <line x1="9.375" y1="0" x2="9.375" y2="18" id="直线备份-11"></line>
                        <line x1="10.125" y1="0" x2="10.125" y2="18" id="直线备份-12"></line>
                        <line x1="10.875" y1="0" x2="10.875" y2="18" id="直线备份-13"></line>
                        <line x1="11.625" y1="0" x2="11.625" y2="18" id="直线备份-14"></line>
                        <line x1="12.375" y1="0" x2="12.375" y2="18" id="直线备份-15"></line>
                        <line x1="13.125" y1="0" x2="13.125" y2="18" id="直线备份-16"></line>
                        <line x1="13.875" y1="0" x2="13.875" y2="18" id="直线备份-17"></line>
                        <line x1="14.625" y1="0" x2="14.625" y2="18" id="直线备份-18"></line>
                        <line x1="15.375" y1="0" x2="15.375" y2="18" id="直线备份-19"></line>
                        <line x1="16.125" y1="0" x2="16.125" y2="18" id="直线备份-20"></line>
                        <line x1="16.875" y1="0" x2="16.875" y2="18" id="直线备份-21"></line>
                    </g>
                    <g id="横线" transform="translate(9.000000, 9.000000) rotate(-270.000000) translate(-9.000000, -9.000000) translate(0.375000, 0.000000)">
                        <line x1="0.375" y1="0" x2="0.375" y2="18" id="直线"></line>
                        <line x1="1.125" y1="0" x2="1.125" y2="18" id="直线"></line>
                        <line x1="1.875" y1="0" x2="1.875" y2="18" id="直线备份"></line>
                        <line x1="2.625" y1="0" x2="2.625" y2="18" id="直线备份-2"></line>
                        <line x1="3.375" y1="0" x2="3.375" y2="18" id="直线备份-3"></line>
                        <line x1="4.125" y1="0" x2="4.125" y2="18" id="直线备份-4"></line>
                        <line x1="4.875" y1="0" x2="4.875" y2="18" id="直线备份-5"></line>
                        <line x1="5.625" y1="0" x2="5.625" y2="18" id="直线备份-6"></line>
                        <line x1="6.375" y1="0" x2="6.375" y2="18" id="直线备份-7"></line>
                        <line x1="7.125" y1="0" x2="7.125" y2="18" id="直线备份-8"></line>
                        <line x1="7.875" y1="0" x2="7.875" y2="18" id="直线备份-9"></line>
                        <line x1="8.625" y1="0" x2="8.625" y2="18" id="直线备份-10"></line>
                        <line x1="9.375" y1="0" x2="9.375" y2="18" id="直线备份-11"></line>
                        <line x1="10.125" y1="0" x2="10.125" y2="18" id="直线备份-12"></line>
                        <line x1="10.875" y1="0" x2="10.875" y2="18" id="直线备份-13"></line>
                        <line x1="11.625" y1="0" x2="11.625" y2="18" id="直线备份-14"></line>
                        <line x1="12.375" y1="0" x2="12.375" y2="18" id="直线备份-15"></line>
                        <line x1="13.125" y1="0" x2="13.125" y2="18" id="直线备份-16"></line>
                        <line x1="13.875" y1="0" x2="13.875" y2="18" id="直线备份-17"></line>
                        <line x1="14.625" y1="0" x2="14.625" y2="18" id="直线备份-18"></line>
                        <line x1="15.375" y1="0" x2="15.375" y2="18" id="直线备份-19"></line>
                        <line x1="16.125" y1="0" x2="16.125" y2="18" id="直线备份-20"></line>
                        <line x1="16.875" y1="0" x2="16.875" y2="18" id="直线备份-21"></line>
                    </g>
                </g>
                <g id="Keyline" opacity="0" transform="translate(0.750000, 1.500000)" stroke="#86BEFF" stroke-opacity="0.05" stroke-width="0.5">
                    <rect id="正方形-大" x="1.75" y="1" width="13" height="13" rx="0.75"></rect>
                    <rect id="正方形-小" x="4" y="3.25" width="8.5" height="8.5" rx="0.75"></rect>
                    <rect id="矩形-竖" x="2.5" y="0.25" width="11.5" height="14.5" rx="0.75"></rect>
                    <rect id="矩形-横" x="1" y="1.75" width="14.5" height="11.5" rx="0.75"></rect>
                    <circle id="圆形" cx="8.25" cy="7.5" r="7.25"></circle>
                    <path d="M8.25,0.498965873 L16.0663882,14 L0.433611821,14 L8.25,0.498965873 Z" id="三角形"></path>
                </g>
            </g>
        </g>
    </g>
</svg>