<?xml version="1.0" encoding="UTF-8"?>
<svg width="19px" height="20px" viewBox="0 0 19 20" version="1.1" xmlns="http://www.w3.org/2000/svg" xmlns:xlink="http://www.w3.org/1999/xlink">
    <g id="∟-----项目" stroke="none" stroke-width="1" fill="none" fill-rule="evenodd">
        <g id="文档库" transform="translate(-125.000000, -710.000000)">
            <g id="01图标-/-01通用图标-/-03实色填充-/-办公-/-首页" transform="translate(126.000000, 711.000000)">
                <rect id="背景" fill="#A3AFBB" opacity="0" x="0.72" y="0" width="17.28" height="18"></rect>
                <path d="M8.64,9.75 C9.39914049,9.75 10.0210789,10.3619083 10.0760503,11.1380532 L10.08,11.25 L10.08,12.75 C10.08,13.5407713 9.49256799,14.1886238 8.74746889,14.2458857 L8.64,14.25 L3.6,14.25 C2.84085951,14.25 2.21892111,13.6380917 2.16394973,12.8619468 L2.16,12.75 L2.16,11.25 C2.16,10.4592287 2.74743201,9.81137616 3.49253111,9.7541143 L3.6,9.75 L8.64,9.75 Z M15.6291169,10.3446699 C15.8886653,10.6150329 15.9086306,11.0404562 15.6890127,11.3346746 L15.6291169,11.4053301 L13.4691169,13.6553301 C13.2095684,13.9256931 12.8011621,13.9464902 12.5187124,13.7177215 L12.4508831,13.6553301 L11.0108831,12.1553301 C10.7297056,11.8624369 10.7297056,11.3875631 11.0108831,11.0946699 C11.2704316,10.8243069 11.6788379,10.8035098 11.9612876,11.0322785 L12.0291169,11.0946699 L12.96,12.06375 L14.6108831,10.3446699 C14.8920606,10.0517767 15.3479394,10.0517767 15.6291169,10.3446699 Z M8.64,3.75 C9.39914049,3.75 10.0210789,4.36190834 10.0760503,5.13805324 L10.08,5.25 L10.08,6.75 C10.08,7.54077135 9.49256799,8.18862384 8.74746889,8.2458857 L8.64,8.25 L3.6,8.25 C2.84085951,8.25 2.21892111,7.63809166 2.16394973,6.86194676 L2.16,6.75 L2.16,5.25 C2.16,4.45922865 2.74743201,3.81137616 3.49253111,3.7541143 L3.6,3.75 L8.64,3.75 Z M12.3212876,3.90727846 L12.3891169,3.96966991 L13.32,4.93875 L14.2508831,3.96966991 C14.5320606,3.6767767 14.9879394,3.6767767 15.2691169,3.96966991 C15.5286653,4.24003289 15.5486306,4.66545618 15.3290127,4.95967458 L15.2691169,5.03033009 L14.3388,6 L15.2691169,6.96966991 C15.5502944,7.26256313 15.5502944,7.73743687 15.2691169,8.03033009 C15.0095684,8.30069306 14.6011621,8.32149021 14.3187124,8.09272154 L14.2508831,8.03033009 L13.32,7.06125 L12.3891169,8.03033009 C12.1079394,8.3232233 11.6520606,8.3232233 11.3708831,8.03033009 C11.1113347,7.75996711 11.0913694,7.33454382 11.3109873,7.04032542 L11.3708831,6.96966991 L12.3012,6 L11.3708831,5.03033009 C11.0897056,4.73743687 11.0897056,4.26256313 11.3708831,3.96966991 C11.6304316,3.69930694 12.0388379,3.67850979 12.3212876,3.90727846 Z" id="形状" fill="#A3AFBB" fill-rule="nonzero"></path>
                <g id="网格" opacity="0" stroke="#A3AFBB" stroke-linecap="square" stroke-width="0.5">
                    <g id="竖线" transform="translate(0.360000, 0.000000)">
                        <line x1="0.36" y1="0" x2="0.36" y2="18" id="直线"></line>
                        <line x1="1.08" y1="0" x2="1.08" y2="18" id="直线"></line>
                        <line x1="1.8" y1="0" x2="1.8" y2="18" id="直线备份"></line>
                        <line x1="2.52" y1="0" x2="2.52" y2="18" id="直线备份-2"></line>
                        <line x1="3.24" y1="0" x2="3.24" y2="18" id="直线备份-3"></line>
                        <line x1="3.96" y1="0" x2="3.96" y2="18" id="直线备份-4"></line>
                        <line x1="4.68" y1="0" x2="4.68" y2="18" id="直线备份-5"></line>
                        <line x1="5.4" y1="0" x2="5.4" y2="18" id="直线备份-6"></line>
                        <line x1="6.12" y1="0" x2="6.12" y2="18" id="直线备份-7"></line>
                        <line x1="6.84" y1="0" x2="6.84" y2="18" id="直线备份-8"></line>
                        <line x1="7.56" y1="0" x2="7.56" y2="18" id="直线备份-9"></line>
                        <line x1="8.28" y1="0" x2="8.28" y2="18" id="直线备份-10"></line>
                        <line x1="9" y1="0" x2="9" y2="18" id="直线备份-11"></line>
                        <line x1="9.72" y1="0" x2="9.72" y2="18" id="直线备份-12"></line>
                        <line x1="10.44" y1="0" x2="10.44" y2="18" id="直线备份-13"></line>
                        <line x1="11.16" y1="0" x2="11.16" y2="18" id="直线备份-14"></line>
                        <line x1="11.88" y1="0" x2="11.88" y2="18" id="直线备份-15"></line>
                        <line x1="12.6" y1="0" x2="12.6" y2="18" id="直线备份-16"></line>
                        <line x1="13.32" y1="0" x2="13.32" y2="18" id="直线备份-17"></line>
                        <line x1="14.04" y1="0" x2="14.04" y2="18" id="直线备份-18"></line>
                        <line x1="14.76" y1="0" x2="14.76" y2="18" id="直线备份-19"></line>
                        <line x1="15.48" y1="0" x2="15.48" y2="18" id="直线备份-20"></line>
                        <line x1="16.2" y1="0" x2="16.2" y2="18" id="直线备份-21"></line>
                    </g>
                    <g id="横线" transform="translate(8.640000, 9.000000) rotate(-270.000000) translate(-8.640000, -9.000000) translate(0.360000, 0.000000)">
                        <line x1="0.36" y1="0" x2="0.36" y2="18" id="直线"></line>
                        <line x1="1.08" y1="0" x2="1.08" y2="18" id="直线"></line>
                        <line x1="1.8" y1="0" x2="1.8" y2="18" id="直线备份"></line>
                        <line x1="2.52" y1="0" x2="2.52" y2="18" id="直线备份-2"></line>
                        <line x1="3.24" y1="0" x2="3.24" y2="18" id="直线备份-3"></line>
                        <line x1="3.96" y1="0" x2="3.96" y2="18" id="直线备份-4"></line>
                        <line x1="4.68" y1="0" x2="4.68" y2="18" id="直线备份-5"></line>
                        <line x1="5.4" y1="0" x2="5.4" y2="18" id="直线备份-6"></line>
                        <line x1="6.12" y1="0" x2="6.12" y2="18" id="直线备份-7"></line>
                        <line x1="6.84" y1="0" x2="6.84" y2="18" id="直线备份-8"></line>
                        <line x1="7.56" y1="0" x2="7.56" y2="18" id="直线备份-9"></line>
                        <line x1="8.28" y1="0" x2="8.28" y2="18" id="直线备份-10"></line>
                        <line x1="9" y1="0" x2="9" y2="18" id="直线备份-11"></line>
                        <line x1="9.72" y1="0" x2="9.72" y2="18" id="直线备份-12"></line>
                        <line x1="10.44" y1="0" x2="10.44" y2="18" id="直线备份-13"></line>
                        <line x1="11.16" y1="0" x2="11.16" y2="18" id="直线备份-14"></line>
                        <line x1="11.88" y1="0" x2="11.88" y2="18" id="直线备份-15"></line>
                        <line x1="12.6" y1="0" x2="12.6" y2="18" id="直线备份-16"></line>
                        <line x1="13.32" y1="0" x2="13.32" y2="18" id="直线备份-17"></line>
                        <line x1="14.04" y1="0" x2="14.04" y2="18" id="直线备份-18"></line>
                        <line x1="14.76" y1="0" x2="14.76" y2="18" id="直线备份-19"></line>
                        <line x1="15.48" y1="0" x2="15.48" y2="18" id="直线备份-20"></line>
                        <line x1="16.2" y1="0" x2="16.2" y2="18" id="直线备份-21"></line>
                    </g>
                </g>
                <g id="Keyline" opacity="0" transform="translate(0.720000, 1.500000)" stroke="#A3AFBB" stroke-opacity="0.05" stroke-width="0.5">
                    <rect id="正方形-大" x="1.69" y="1" width="12.46" height="13" rx="0.75"></rect>
                    <rect id="正方形-小" x="3.85" y="3.25" width="8.14" height="8.5" rx="0.75"></rect>
                    <rect id="矩形-竖" x="2.41" y="0.25" width="11.02" height="14.5" rx="0.75"></rect>
                    <rect id="矩形-横" x="0.97" y="1.75" width="13.9" height="11.5" rx="0.75"></rect>
                    <ellipse id="圆形" cx="7.92" cy="7.5" rx="6.95" ry="7.25"></ellipse>
                    <path d="M7.92,0.514615955 L15.4150345,14 L0.424965499,14 L7.92,0.514615955 Z" id="三角形"></path>
                </g>
                <path d="M11.52,7.5" id="路径-41" stroke="#A3AFBB" stroke-width="0.75"></path>
                <g id="编组-3" transform="translate(11.160000, 3.750000)"></g>
            </g>
        </g>
    </g>
</svg>