<?xml version="1.0" encoding="UTF-8"?>
<svg width="20px" height="20px" viewBox="0 0 20 20" version="1.1" xmlns="http://www.w3.org/2000/svg" xmlns:xlink="http://www.w3.org/1999/xlink">
    <g id="∟-----项目" stroke="none" stroke-width="1" fill="none" fill-rule="evenodd">
        <g id="文档库" transform="translate(-125.000000, -510.000000)">
            <g id="01图标-/-01通用图标-/-03实色填充-/-办公-/-首页" transform="translate(126.000000, 511.000000)">
                <rect id="背景" fill="#A3AFBB" opacity="0" x="0" y="0" width="18" height="18"></rect>
                <path d="M12.75,2.25 C13.9926407,2.25 15,3.25735931 15,4.5 L15.0012798,9.89928129 C14.5422171,9.13579151 13.7057594,8.625 12.75,8.625 C12.3819872,8.625 12.0316622,8.70073077 11.7137591,8.83745834 C11.8885634,8.70121233 12,8.48861987 12,8.25 C12,7.83578644 11.6642136,7.5 11.25,7.5 L6.75,7.5 L6.66253416,7.5050458 C6.28953014,7.54836963 6,7.86537312 6,8.25 C6,8.66421356 6.33578644,9 6.75,9 L11.25,9 L11.3374658,8.9949542 C11.3738739,8.99072546 11.4094867,8.98388931 11.4441125,8.97463736 C10.6554013,9.42601603 10.125,10.2760671 10.125,11.25 L10.1298733,11.4032652 L10.1473325,11.5729075 C10.1920923,11.9087269 10.2953881,12.2231598 10.4480043,12.5054876 L10.47075,12.5445 L10.4403905,12.5583185 C9.81017922,12.8604727 9.375,13.5044156 9.375,14.25 L9.375,15 C9.375,15.2671344 9.43086425,15.5212209 9.5315475,15.7512144 L5.25,15.75 C4.00735931,15.75 3,14.7426407 3,13.5 L3,4.5 C3,3.25735931 4.00735931,2.25 5.25,2.25 L12.75,2.25 Z M12.75,9.75 C13.5784271,9.75 14.25,10.4215729 14.25,11.25 C14.25,11.8046249 13.9489883,12.2889448 13.5014212,12.5485036 L13.5,13.5 L14.25,13.5 C14.6642136,13.5 15,13.8357864 15,14.25 L15,15 C15,15.4142136 14.6642136,15.75 14.25,15.75 L11.25,15.75 C10.8357864,15.75 10.5,15.4142136 10.5,15 L10.5,14.25 C10.5,13.8357864 10.8357864,13.5 11.25,13.5 L12,13.5 L11.9995789,12.549083 C11.5514601,12.2896661 11.25,11.8050379 11.25,11.25 C11.25,10.4215729 11.9215729,9.75 12.75,9.75 Z M11.25,5.25 L6.75,5.25 L6.66253416,5.2550458 C6.28953014,5.29836963 6,5.61537312 6,6 C6,6.41421356 6.33578644,6.75 6.75,6.75 L11.25,6.75 L11.3374658,6.7449542 C11.7104699,6.70163037 12,6.38462688 12,6 C12,5.58578644 11.6642136,5.25 11.25,5.25 Z" id="形状结合" fill="#A3AFBB" fill-rule="nonzero"></path>
                <g id="网格" opacity="0" stroke="#A3AFBB" stroke-linecap="square" stroke-width="0.5">
                    <g id="竖线" transform="translate(0.375000, 0.000000)">
                        <line x1="0.375" y1="0" x2="0.375" y2="18" id="直线"></line>
                        <line x1="1.125" y1="0" x2="1.125" y2="18" id="直线"></line>
                        <line x1="1.875" y1="0" x2="1.875" y2="18" id="直线备份"></line>
                        <line x1="2.625" y1="0" x2="2.625" y2="18" id="直线备份-2"></line>
                        <line x1="3.375" y1="0" x2="3.375" y2="18" id="直线备份-3"></line>
                        <line x1="4.125" y1="0" x2="4.125" y2="18" id="直线备份-4"></line>
                        <line x1="4.875" y1="0" x2="4.875" y2="18" id="直线备份-5"></line>
                        <line x1="5.625" y1="0" x2="5.625" y2="18" id="直线备份-6"></line>
                        <line x1="6.375" y1="0" x2="6.375" y2="18" id="直线备份-7"></line>
                        <line x1="7.125" y1="0" x2="7.125" y2="18" id="直线备份-8"></line>
                        <line x1="7.875" y1="0" x2="7.875" y2="18" id="直线备份-9"></line>
                        <line x1="8.625" y1="0" x2="8.625" y2="18" id="直线备份-10"></line>
                        <line x1="9.375" y1="0" x2="9.375" y2="18" id="直线备份-11"></line>
                        <line x1="10.125" y1="0" x2="10.125" y2="18" id="直线备份-12"></line>
                        <line x1="10.875" y1="0" x2="10.875" y2="18" id="直线备份-13"></line>
                        <line x1="11.625" y1="0" x2="11.625" y2="18" id="直线备份-14"></line>
                        <line x1="12.375" y1="0" x2="12.375" y2="18" id="直线备份-15"></line>
                        <line x1="13.125" y1="0" x2="13.125" y2="18" id="直线备份-16"></line>
                        <line x1="13.875" y1="0" x2="13.875" y2="18" id="直线备份-17"></line>
                        <line x1="14.625" y1="0" x2="14.625" y2="18" id="直线备份-18"></line>
                        <line x1="15.375" y1="0" x2="15.375" y2="18" id="直线备份-19"></line>
                        <line x1="16.125" y1="0" x2="16.125" y2="18" id="直线备份-20"></line>
                        <line x1="16.875" y1="0" x2="16.875" y2="18" id="直线备份-21"></line>
                    </g>
                    <g id="横线" transform="translate(9.000000, 9.000000) rotate(-270.000000) translate(-9.000000, -9.000000) translate(0.375000, 0.000000)">
                        <line x1="0.375" y1="0" x2="0.375" y2="18" id="直线"></line>
                        <line x1="1.125" y1="0" x2="1.125" y2="18" id="直线"></line>
                        <line x1="1.875" y1="0" x2="1.875" y2="18" id="直线备份"></line>
                        <line x1="2.625" y1="0" x2="2.625" y2="18" id="直线备份-2"></line>
                        <line x1="3.375" y1="0" x2="3.375" y2="18" id="直线备份-3"></line>
                        <line x1="4.125" y1="0" x2="4.125" y2="18" id="直线备份-4"></line>
                        <line x1="4.875" y1="0" x2="4.875" y2="18" id="直线备份-5"></line>
                        <line x1="5.625" y1="0" x2="5.625" y2="18" id="直线备份-6"></line>
                        <line x1="6.375" y1="0" x2="6.375" y2="18" id="直线备份-7"></line>
                        <line x1="7.125" y1="0" x2="7.125" y2="18" id="直线备份-8"></line>
                        <line x1="7.875" y1="0" x2="7.875" y2="18" id="直线备份-9"></line>
                        <line x1="8.625" y1="0" x2="8.625" y2="18" id="直线备份-10"></line>
                        <line x1="9.375" y1="0" x2="9.375" y2="18" id="直线备份-11"></line>
                        <line x1="10.125" y1="0" x2="10.125" y2="18" id="直线备份-12"></line>
                        <line x1="10.875" y1="0" x2="10.875" y2="18" id="直线备份-13"></line>
                        <line x1="11.625" y1="0" x2="11.625" y2="18" id="直线备份-14"></line>
                        <line x1="12.375" y1="0" x2="12.375" y2="18" id="直线备份-15"></line>
                        <line x1="13.125" y1="0" x2="13.125" y2="18" id="直线备份-16"></line>
                        <line x1="13.875" y1="0" x2="13.875" y2="18" id="直线备份-17"></line>
                        <line x1="14.625" y1="0" x2="14.625" y2="18" id="直线备份-18"></line>
                        <line x1="15.375" y1="0" x2="15.375" y2="18" id="直线备份-19"></line>
                        <line x1="16.125" y1="0" x2="16.125" y2="18" id="直线备份-20"></line>
                        <line x1="16.875" y1="0" x2="16.875" y2="18" id="直线备份-21"></line>
                    </g>
                </g>
                <g id="Keyline" opacity="0" transform="translate(0.750000, 1.500000)" stroke="#A3AFBB" stroke-opacity="0.05" stroke-width="0.5">
                    <rect id="正方形-大" x="1.75" y="1" width="13" height="13" rx="0.75"></rect>
                    <rect id="正方形-小" x="4" y="3.25" width="8.5" height="8.5" rx="0.75"></rect>
                    <rect id="矩形-竖" x="2.5" y="0.25" width="11.5" height="14.5" rx="0.75"></rect>
                    <rect id="矩形-横" x="1" y="1.75" width="14.5" height="11.5" rx="0.75"></rect>
                    <circle id="圆形" cx="8.25" cy="7.5" r="7.25"></circle>
                    <path d="M8.25,0.498965873 L16.0663882,14 L0.433611821,14 L8.25,0.498965873 Z" id="三角形"></path>
                </g>
            </g>
        </g>
    </g>
</svg>