<?xml version="1.0" encoding="UTF-8"?>
<svg width="20px" height="20px" viewBox="0 0 20 20" version="1.1" xmlns="http://www.w3.org/2000/svg" xmlns:xlink="http://www.w3.org/1999/xlink">
    <g id="∟-----项目" stroke="none" stroke-width="1" fill="none" fill-rule="evenodd">
        <g id="文档库" transform="translate(-125.000000, -560.000000)">
            <g id="01图标-/-01通用图标-/-03实色填充-/-办公-/-首页" transform="translate(126.000000, 561.000000)">
                <rect id="背景" fill="#A3AFBB" opacity="0" x="0" y="0" width="18" height="18"></rect>
                <path d="M12.75,2.25 C13.9926407,2.25 15,3.25735931 15,4.5 L15,13.5 C15,14.7426407 13.9926407,15.75 12.75,15.75 L5.25,15.75 C4.00735931,15.75 3,14.7426407 3,13.5 L3,4.5 C3,3.25735931 4.00735931,2.25 5.25,2.25 Z M11.25,10.5 L6.75,10.5 L6.66253416,10.5050458 C6.28953014,10.5483696 6,10.8653731 6,11.25 C6,11.6642136 6.33578644,12 6.75,12 L11.25,12 L11.3374658,11.9949542 C11.7104699,11.9516304 12,11.6346269 12,11.25 C12,10.8357864 11.6642136,10.5 11.25,10.5 Z M11.25,8.25 L6.75,8.25 L6.66253416,8.2550458 C6.28953014,8.29836963 6,8.61537312 6,9 C6,9.41421356 6.33578644,9.75 6.75,9.75 L11.25,9.75 L11.3374658,9.7449542 C11.7104699,9.70163037 12,9.38462688 12,9 C12,8.58578644 11.6642136,8.25 11.25,8.25 Z M7.5,5.25 L6.75,5.25 C6.33578644,5.25 6,5.58578644 6,6 L6,6.75 C6,7.16421356 6.33578644,7.5 6.75,7.5 L7.5,7.5 C7.91421356,7.5 8.25,7.16421356 8.25,6.75 L8.25,6 C8.25,5.58578644 7.91421356,5.25 7.5,5.25 Z M11.25,5.625 L9.75,5.625 L9.66253416,5.6300458 C9.28953014,5.67336963 9,5.99037312 9,6.375 C9,6.78921356 9.33578644,7.125 9.75,7.125 L11.25,7.125 L11.3374658,7.1199542 C11.7104699,7.07663037 12,6.75962688 12,6.375 C12,5.96078644 11.6642136,5.625 11.25,5.625 Z" id="形状结合" fill="#A3AFBB" fill-rule="nonzero"></path>
                <g id="网格" opacity="0" stroke="#A3AFBB" stroke-linecap="square" stroke-width="0.5">
                    <g id="竖线" transform="translate(0.375000, 0.000000)">
                        <line x1="0.375" y1="0" x2="0.375" y2="18" id="直线"></line>
                        <line x1="1.125" y1="0" x2="1.125" y2="18" id="直线"></line>
                        <line x1="1.875" y1="0" x2="1.875" y2="18" id="直线备份"></line>
                        <line x1="2.625" y1="0" x2="2.625" y2="18" id="直线备份-2"></line>
                        <line x1="3.375" y1="0" x2="3.375" y2="18" id="直线备份-3"></line>
                        <line x1="4.125" y1="0" x2="4.125" y2="18" id="直线备份-4"></line>
                        <line x1="4.875" y1="0" x2="4.875" y2="18" id="直线备份-5"></line>
                        <line x1="5.625" y1="0" x2="5.625" y2="18" id="直线备份-6"></line>
                        <line x1="6.375" y1="0" x2="6.375" y2="18" id="直线备份-7"></line>
                        <line x1="7.125" y1="0" x2="7.125" y2="18" id="直线备份-8"></line>
                        <line x1="7.875" y1="0" x2="7.875" y2="18" id="直线备份-9"></line>
                        <line x1="8.625" y1="0" x2="8.625" y2="18" id="直线备份-10"></line>
                        <line x1="9.375" y1="0" x2="9.375" y2="18" id="直线备份-11"></line>
                        <line x1="10.125" y1="0" x2="10.125" y2="18" id="直线备份-12"></line>
                        <line x1="10.875" y1="0" x2="10.875" y2="18" id="直线备份-13"></line>
                        <line x1="11.625" y1="0" x2="11.625" y2="18" id="直线备份-14"></line>
                        <line x1="12.375" y1="0" x2="12.375" y2="18" id="直线备份-15"></line>
                        <line x1="13.125" y1="0" x2="13.125" y2="18" id="直线备份-16"></line>
                        <line x1="13.875" y1="0" x2="13.875" y2="18" id="直线备份-17"></line>
                        <line x1="14.625" y1="0" x2="14.625" y2="18" id="直线备份-18"></line>
                        <line x1="15.375" y1="0" x2="15.375" y2="18" id="直线备份-19"></line>
                        <line x1="16.125" y1="0" x2="16.125" y2="18" id="直线备份-20"></line>
                        <line x1="16.875" y1="0" x2="16.875" y2="18" id="直线备份-21"></line>
                    </g>
                    <g id="横线" transform="translate(9.000000, 9.000000) rotate(-270.000000) translate(-9.000000, -9.000000) translate(0.375000, 0.000000)">
                        <line x1="0.375" y1="0" x2="0.375" y2="18" id="直线"></line>
                        <line x1="1.125" y1="0" x2="1.125" y2="18" id="直线"></line>
                        <line x1="1.875" y1="0" x2="1.875" y2="18" id="直线备份"></line>
                        <line x1="2.625" y1="0" x2="2.625" y2="18" id="直线备份-2"></line>
                        <line x1="3.375" y1="0" x2="3.375" y2="18" id="直线备份-3"></line>
                        <line x1="4.125" y1="0" x2="4.125" y2="18" id="直线备份-4"></line>
                        <line x1="4.875" y1="0" x2="4.875" y2="18" id="直线备份-5"></line>
                        <line x1="5.625" y1="0" x2="5.625" y2="18" id="直线备份-6"></line>
                        <line x1="6.375" y1="0" x2="6.375" y2="18" id="直线备份-7"></line>
                        <line x1="7.125" y1="0" x2="7.125" y2="18" id="直线备份-8"></line>
                        <line x1="7.875" y1="0" x2="7.875" y2="18" id="直线备份-9"></line>
                        <line x1="8.625" y1="0" x2="8.625" y2="18" id="直线备份-10"></line>
                        <line x1="9.375" y1="0" x2="9.375" y2="18" id="直线备份-11"></line>
                        <line x1="10.125" y1="0" x2="10.125" y2="18" id="直线备份-12"></line>
                        <line x1="10.875" y1="0" x2="10.875" y2="18" id="直线备份-13"></line>
                        <line x1="11.625" y1="0" x2="11.625" y2="18" id="直线备份-14"></line>
                        <line x1="12.375" y1="0" x2="12.375" y2="18" id="直线备份-15"></line>
                        <line x1="13.125" y1="0" x2="13.125" y2="18" id="直线备份-16"></line>
                        <line x1="13.875" y1="0" x2="13.875" y2="18" id="直线备份-17"></line>
                        <line x1="14.625" y1="0" x2="14.625" y2="18" id="直线备份-18"></line>
                        <line x1="15.375" y1="0" x2="15.375" y2="18" id="直线备份-19"></line>
                        <line x1="16.125" y1="0" x2="16.125" y2="18" id="直线备份-20"></line>
                        <line x1="16.875" y1="0" x2="16.875" y2="18" id="直线备份-21"></line>
                    </g>
                </g>
                <g id="Keyline" opacity="0" transform="translate(0.750000, 1.500000)" stroke="#A3AFBB" stroke-opacity="0.05" stroke-width="0.5">
                    <rect id="正方形-大" x="1.75" y="1" width="13" height="13" rx="0.75"></rect>
                    <rect id="正方形-小" x="4" y="3.25" width="8.5" height="8.5" rx="0.75"></rect>
                    <rect id="矩形-竖" x="2.5" y="0.25" width="11.5" height="14.5" rx="0.75"></rect>
                    <rect id="矩形-横" x="1" y="1.75" width="14.5" height="11.5" rx="0.75"></rect>
                    <circle id="圆形" cx="8.25" cy="7.5" r="7.25"></circle>
                    <path d="M8.25,0.498965873 L16.0663882,14 L0.433611821,14 L8.25,0.498965873 Z" id="三角形"></path>
                </g>
            </g>
        </g>
    </g>
</svg>