<?xml version="1.0" encoding="UTF-8"?>
<svg width="20px" height="20px" viewBox="0 0 20 20" version="1.1" xmlns="http://www.w3.org/2000/svg" xmlns:xlink="http://www.w3.org/1999/xlink">
    <g id="∟-----项目" stroke="none" stroke-width="1" fill="none" fill-rule="evenodd">
        <g id="文档库" transform="translate(-125.000000, -610.000000)">
            <g id="01图标-/-01通用图标-/-03实色填充-/-办公-/-首页" transform="translate(126.000000, 611.000000)">
                <rect id="背景" fill="#A3AFBB" opacity="0" x="0" y="0" width="18" height="18"></rect>
                <path d="M14.25,7.5 C14.6346269,7.5 14.9516304,7.78953014 14.9949542,8.16253416 L15,8.25 L15,14.25 C15,14.6346269 14.7104699,14.9516304 14.3374658,14.9949542 L14.25,15 L3.75,15 C3.36537312,15 3.04836963,14.7104699 3.0050458,14.3374658 L3,14.25 L3,8.25 C3,7.86537312 3.28953014,7.54836963 3.66253416,7.5050458 L3.75,7.5 L14.25,7.5 Z M10.5,9 L7.5,9 L7.41253416,9.0050458 C7.03953014,9.04836963 6.75,9.36537312 6.75,9.75 C6.75,10.1346269 7.03953014,10.4516304 7.41253416,10.4949542 L7.5,10.5 L10.5,10.5 L10.5874658,10.4949542 C10.9604699,10.4516304 11.25,10.1346269 11.25,9.75 C11.25,9.33578644 10.9142136,9 10.5,9 Z M14.25,2.25 C15.0407713,2.25 15.6886238,2.86190834 15.7458857,3.63805324 L15.75,3.75 L15.75,6 C15.75,6.38462688 15.4604699,6.70163037 15.0874658,6.7449542 L15,6.75 L3,6.75 C2.61537312,6.75 2.29836963,6.46046986 2.2550458,6.08746584 L2.25,6 L2.25,3.75 C2.25,2.95922865 2.86190834,2.31137616 3.63805324,2.2541143 L3.75,2.25 L14.25,2.25 Z" id="形状" fill="#A3AFBB" fill-rule="nonzero"></path>
                <g id="网格" opacity="0" stroke="#A3AFBB" stroke-linecap="square" stroke-width="0.5">
                    <g id="竖线" transform="translate(0.375000, 0.000000)">
                        <line x1="0.375" y1="0" x2="0.375" y2="18" id="直线"></line>
                        <line x1="1.125" y1="0" x2="1.125" y2="18" id="直线"></line>
                        <line x1="1.875" y1="0" x2="1.875" y2="18" id="直线备份"></line>
                        <line x1="2.625" y1="0" x2="2.625" y2="18" id="直线备份-2"></line>
                        <line x1="3.375" y1="0" x2="3.375" y2="18" id="直线备份-3"></line>
                        <line x1="4.125" y1="0" x2="4.125" y2="18" id="直线备份-4"></line>
                        <line x1="4.875" y1="0" x2="4.875" y2="18" id="直线备份-5"></line>
                        <line x1="5.625" y1="0" x2="5.625" y2="18" id="直线备份-6"></line>
                        <line x1="6.375" y1="0" x2="6.375" y2="18" id="直线备份-7"></line>
                        <line x1="7.125" y1="0" x2="7.125" y2="18" id="直线备份-8"></line>
                        <line x1="7.875" y1="0" x2="7.875" y2="18" id="直线备份-9"></line>
                        <line x1="8.625" y1="0" x2="8.625" y2="18" id="直线备份-10"></line>
                        <line x1="9.375" y1="0" x2="9.375" y2="18" id="直线备份-11"></line>
                        <line x1="10.125" y1="0" x2="10.125" y2="18" id="直线备份-12"></line>
                        <line x1="10.875" y1="0" x2="10.875" y2="18" id="直线备份-13"></line>
                        <line x1="11.625" y1="0" x2="11.625" y2="18" id="直线备份-14"></line>
                        <line x1="12.375" y1="0" x2="12.375" y2="18" id="直线备份-15"></line>
                        <line x1="13.125" y1="0" x2="13.125" y2="18" id="直线备份-16"></line>
                        <line x1="13.875" y1="0" x2="13.875" y2="18" id="直线备份-17"></line>
                        <line x1="14.625" y1="0" x2="14.625" y2="18" id="直线备份-18"></line>
                        <line x1="15.375" y1="0" x2="15.375" y2="18" id="直线备份-19"></line>
                        <line x1="16.125" y1="0" x2="16.125" y2="18" id="直线备份-20"></line>
                        <line x1="16.875" y1="0" x2="16.875" y2="18" id="直线备份-21"></line>
                    </g>
                    <g id="横线" transform="translate(9.000000, 9.000000) rotate(-270.000000) translate(-9.000000, -9.000000) translate(0.375000, 0.000000)">
                        <line x1="0.375" y1="0" x2="0.375" y2="18" id="直线"></line>
                        <line x1="1.125" y1="0" x2="1.125" y2="18" id="直线"></line>
                        <line x1="1.875" y1="0" x2="1.875" y2="18" id="直线备份"></line>
                        <line x1="2.625" y1="0" x2="2.625" y2="18" id="直线备份-2"></line>
                        <line x1="3.375" y1="0" x2="3.375" y2="18" id="直线备份-3"></line>
                        <line x1="4.125" y1="0" x2="4.125" y2="18" id="直线备份-4"></line>
                        <line x1="4.875" y1="0" x2="4.875" y2="18" id="直线备份-5"></line>
                        <line x1="5.625" y1="0" x2="5.625" y2="18" id="直线备份-6"></line>
                        <line x1="6.375" y1="0" x2="6.375" y2="18" id="直线备份-7"></line>
                        <line x1="7.125" y1="0" x2="7.125" y2="18" id="直线备份-8"></line>
                        <line x1="7.875" y1="0" x2="7.875" y2="18" id="直线备份-9"></line>
                        <line x1="8.625" y1="0" x2="8.625" y2="18" id="直线备份-10"></line>
                        <line x1="9.375" y1="0" x2="9.375" y2="18" id="直线备份-11"></line>
                        <line x1="10.125" y1="0" x2="10.125" y2="18" id="直线备份-12"></line>
                        <line x1="10.875" y1="0" x2="10.875" y2="18" id="直线备份-13"></line>
                        <line x1="11.625" y1="0" x2="11.625" y2="18" id="直线备份-14"></line>
                        <line x1="12.375" y1="0" x2="12.375" y2="18" id="直线备份-15"></line>
                        <line x1="13.125" y1="0" x2="13.125" y2="18" id="直线备份-16"></line>
                        <line x1="13.875" y1="0" x2="13.875" y2="18" id="直线备份-17"></line>
                        <line x1="14.625" y1="0" x2="14.625" y2="18" id="直线备份-18"></line>
                        <line x1="15.375" y1="0" x2="15.375" y2="18" id="直线备份-19"></line>
                        <line x1="16.125" y1="0" x2="16.125" y2="18" id="直线备份-20"></line>
                        <line x1="16.875" y1="0" x2="16.875" y2="18" id="直线备份-21"></line>
                    </g>
                </g>
                <g id="Keyline" opacity="0" transform="translate(0.750000, 1.500000)" stroke="#A3AFBB" stroke-opacity="0.05" stroke-width="0.5">
                    <rect id="正方形-大" x="1.75" y="1" width="13" height="13" rx="0.75"></rect>
                    <rect id="正方形-小" x="4" y="3.25" width="8.5" height="8.5" rx="0.75"></rect>
                    <rect id="矩形-竖" x="2.5" y="0.25" width="11.5" height="14.5" rx="0.75"></rect>
                    <rect id="矩形-横" x="1" y="1.75" width="14.5" height="11.5" rx="0.75"></rect>
                    <circle id="圆形" cx="8.25" cy="7.5" r="7.25"></circle>
                    <path d="M8.25,0.498965873 L16.0663882,14 L0.433611821,14 L8.25,0.498965873 Z" id="三角形"></path>
                </g>
                <path d="M12,7.5" id="路径-41" stroke="#A3AFBB" stroke-width="0.75"></path>
            </g>
        </g>
    </g>
</svg>