<svg xml:space="preserve" viewBox="0 0 24 24" xmlns="http://www.w3.org/2000/svg"><path clip-rule="evenodd" fill="none" d="M0 0h24v24H0z"/><path d="M12 2c5.523 0 10 4.477 10 10s-4.477 10-10 10S2 17.523 2 12 6.477 2 12 2zm0 2a8 8 0 1 0 0 16 8 8 0 0 0 0-16zm.003 8a4.5 4.5 0 0 1 4.064 2.566 1 1 0 1 1-1.806.86 2.501 2.501 0 0 0-4.518.003l-.056.102a1 1 0 0 1-1.75-.96A4.498 4.498 0 0 1 12.003 12zM9 8a1 1 0 0 1 .993.883L10 9v.5a1 1 0 0 1-1.993.117L8 9.5V9a1 1 0 0 1 1-1zm6 0a1 1 0 0 1 .993.883L16 9v.5a1 1 0 0 1-1.993.117L14 9.5V9a1 1 0 0 1 1-1z"/></svg>