<?xml version="1.0" encoding="UTF-8"?>
<svg width="18px" height="18px" viewBox="0 0 18 18" version="1.1" xmlns="http://www.w3.org/2000/svg" xmlns:xlink="http://www.w3.org/1999/xlink">
    <g id="项目" stroke="none" stroke-width="1" fill="none" fill-rule="evenodd">
        <g id="文档库" transform="translate(-1038.000000, -229.000000)">
            <g id="编组-7备份-6" transform="translate(284.000000, 184.000000)">
                <g id="编组-6" transform="translate(0.000000, 18.000000)">
                    <g id="01图标-/-01通用图标-/-01单色线性-/-动作-/-新增" transform="translate(755.000000, 28.000000)">
                        <rect id="背景" fill="#A3AFBB" opacity="0" x="0" y="0" width="16" height="16"></rect>
                        <g id="编组-12" transform="translate(2.000000, 2.666667)" fill="#A3AFBB" fill-rule="nonzero">
                            <path d="M5.05719096,0 C5.41081294,0 5.7499515,0.140475787 6,0.390524292 L6.94280904,1.33333333 L10.6666667,1.33333333 C11.4030463,1.33333333 12,1.930287 12,2.66666667 L12,9.33333333 C12,10.4379028 11.1045695,11.3333333 10,11.3333333 L2,11.3333333 C0.8954305,11.3333333 0,10.4379028 0,9.33333333 L0,2 C0,0.8954305 0.8954305,0 2,0 Z M6.452,8.488 L6.426,8.512 C6.44096226,8.50012872 6.44917973,8.49275646 6.45720933,8.48518708 L7.80473785,7.13807119 L7.86019693,7.0752663 C8.06354685,6.81373882 8.0450605,6.43558479 7.80473785,6.19526215 L7.74193296,6.13980307 C7.48040549,5.93645315 7.10225145,5.9549395 6.86192881,6.19526215 L6.666,6.39066667 L6.66666667,4 C6.66666667,3.63181017 6.36818983,3.33333333 6,3.33333333 C5.65810944,3.33333333 5.37632856,3.59069346 5.33781849,3.92225258 L5.33333333,4 L5.333,6.39066667 L5.13807119,6.19526215 L5.0752663,6.13980307 C4.81373882,5.93645315 4.43558479,5.9549395 4.19526215,6.19526215 C3.93491262,6.45561167 3.93491262,6.87772166 4.19526215,7.13807119 L5.5458452,8.4880486 C5.55533918,8.49688719 5.56509139,8.50545208 5.57508925,8.51373071 L5.59140037,8.52686359 L5.60978704,8.54065798 C5.62863507,8.55421573 5.64805405,8.56677716 5.66813109,8.57832318 C5.676041,8.58293177 5.68411122,8.58734809 5.69225052,8.59158509 C5.71566595,8.60374748 5.73994516,8.61462532 5.76493939,8.62404463 L5.79008861,8.63291 C5.81026761,8.63963612 5.83086873,8.64538539 5.85184555,8.6501455 C5.86538341,8.65315382 5.8788432,8.65577031 5.8923577,8.65796966 C5.91068411,8.66099909 5.92934956,8.66323636 5.94823532,8.66468672 L5.98687646,8.66653829 L6,8.66666667 L6.091,8.659 L6.16013135,8.64731039 L6.19456245,8.63778173 L6.28652654,8.60212478 C6.29902423,8.59617821 6.31021479,8.59043113 6.32126929,8.58434678 C6.34172718,8.57300788 6.36132026,8.56082717 6.38020203,8.54769508 L6.408,8.526 L6.413,8.522 L6.452,8.488 Z" id="形状结合"></path>
                        </g>
                        <g id="网格" opacity="0" transform="translate(0.000000, 0.000000)" stroke="#A3AFBB" stroke-linecap="square" stroke-width="0.5">
                            <g id="竖线" transform="translate(0.333333, 0.000000)">
                                <line x1="0.333333333" y1="0" x2="0.333333333" y2="16" id="直线"></line>
                                <line x1="1" y1="0" x2="1" y2="16" id="直线"></line>
                                <line x1="1.66666667" y1="0" x2="1.66666667" y2="16" id="直线备份"></line>
                                <line x1="2.33333333" y1="0" x2="2.33333333" y2="16" id="直线备份-2"></line>
                                <line x1="3" y1="0" x2="3" y2="16" id="直线备份-3"></line>
                                <line x1="3.66666667" y1="0" x2="3.66666667" y2="16" id="直线备份-4"></line>
                                <line x1="4.33333333" y1="0" x2="4.33333333" y2="16" id="直线备份-5"></line>
                                <line x1="5" y1="0" x2="5" y2="16" id="直线备份-6"></line>
                                <line x1="5.66666667" y1="0" x2="5.66666667" y2="16" id="直线备份-7"></line>
                                <line x1="6.33333333" y1="0" x2="6.33333333" y2="16" id="直线备份-8"></line>
                                <line x1="7" y1="0" x2="7" y2="16" id="直线备份-9"></line>
                                <line x1="7.66666667" y1="0" x2="7.66666667" y2="16" id="直线备份-10"></line>
                                <line x1="8.33333333" y1="0" x2="8.33333333" y2="16" id="直线备份-11"></line>
                                <line x1="9" y1="0" x2="9" y2="16" id="直线备份-12"></line>
                                <line x1="9.66666667" y1="0" x2="9.66666667" y2="16" id="直线备份-13"></line>
                                <line x1="10.3333333" y1="0" x2="10.3333333" y2="16" id="直线备份-14"></line>
                                <line x1="11" y1="0" x2="11" y2="16" id="直线备份-15"></line>
                                <line x1="11.6666667" y1="0" x2="11.6666667" y2="16" id="直线备份-16"></line>
                                <line x1="12.3333333" y1="0" x2="12.3333333" y2="16" id="直线备份-17"></line>
                                <line x1="13" y1="0" x2="13" y2="16" id="直线备份-18"></line>
                                <line x1="13.6666667" y1="0" x2="13.6666667" y2="16" id="直线备份-19"></line>
                                <line x1="14.3333333" y1="0" x2="14.3333333" y2="16" id="直线备份-20"></line>
                                <line x1="15" y1="0" x2="15" y2="16" id="直线备份-21"></line>
                            </g>
                            <g id="横线" transform="translate(8.000000, 8.000000) rotate(-270.000000) translate(-8.000000, -8.000000) translate(0.333333, 0.000000)">
                                <line x1="0.333333333" y1="0" x2="0.333333333" y2="16" id="直线"></line>
                                <line x1="1" y1="0" x2="1" y2="16" id="直线"></line>
                                <line x1="1.66666667" y1="0" x2="1.66666667" y2="16" id="直线备份"></line>
                                <line x1="2.33333333" y1="0" x2="2.33333333" y2="16" id="直线备份-2"></line>
                                <line x1="3" y1="0" x2="3" y2="16" id="直线备份-3"></line>
                                <line x1="3.66666667" y1="0" x2="3.66666667" y2="16" id="直线备份-4"></line>
                                <line x1="4.33333333" y1="0" x2="4.33333333" y2="16" id="直线备份-5"></line>
                                <line x1="5" y1="0" x2="5" y2="16" id="直线备份-6"></line>
                                <line x1="5.66666667" y1="0" x2="5.66666667" y2="16" id="直线备份-7"></line>
                                <line x1="6.33333333" y1="0" x2="6.33333333" y2="16" id="直线备份-8"></line>
                                <line x1="7" y1="0" x2="7" y2="16" id="直线备份-9"></line>
                                <line x1="7.66666667" y1="0" x2="7.66666667" y2="16" id="直线备份-10"></line>
                                <line x1="8.33333333" y1="0" x2="8.33333333" y2="16" id="直线备份-11"></line>
                                <line x1="9" y1="0" x2="9" y2="16" id="直线备份-12"></line>
                                <line x1="9.66666667" y1="0" x2="9.66666667" y2="16" id="直线备份-13"></line>
                                <line x1="10.3333333" y1="0" x2="10.3333333" y2="16" id="直线备份-14"></line>
                                <line x1="11" y1="0" x2="11" y2="16" id="直线备份-15"></line>
                                <line x1="11.6666667" y1="0" x2="11.6666667" y2="16" id="直线备份-16"></line>
                                <line x1="12.3333333" y1="0" x2="12.3333333" y2="16" id="直线备份-17"></line>
                                <line x1="13" y1="0" x2="13" y2="16" id="直线备份-18"></line>
                                <line x1="13.6666667" y1="0" x2="13.6666667" y2="16" id="直线备份-19"></line>
                                <line x1="14.3333333" y1="0" x2="14.3333333" y2="16" id="直线备份-20"></line>
                                <line x1="15" y1="0" x2="15" y2="16" id="直线备份-21"></line>
                            </g>
                        </g>
                        <g id="Keyline" opacity="0" transform="translate(0.666667, 1.333333)" stroke="#A3AFBB" stroke-opacity="0.05" stroke-width="0.5">
                            <rect id="正方形-大" x="1.58333333" y="0.916666667" width="11.5" height="11.5" rx="0.666666667"></rect>
                            <rect id="正方形-小" x="3.58333333" y="2.91666667" width="7.5" height="7.5" rx="0.666666667"></rect>
                            <rect id="矩形-竖" x="2.25" y="0.25" width="10.1666667" height="12.8333333" rx="0.666666667"></rect>
                            <rect id="矩形-横" x="0.916666667" y="1.58333333" width="12.8333333" height="10.1666667" rx="0.666666667"></rect>
                            <circle id="圆形" cx="7.33333333" cy="6.66666667" r="6.41666667"></circle>
                            <path d="M7.33333333,0.498965873 L14.2330548,12.4166667 L0.433611821,12.4166667 L7.33333333,0.498965873 Z" id="三角形"></path>
                        </g>
                    </g>
                </g>
            </g>
        </g>
    </g>
</svg>