<?xml version="1.0" encoding="UTF-8"?>
<svg width="16px" height="16px" viewBox="0 0 16 16" version="1.1" xmlns="http://www.w3.org/2000/svg" xmlns:xlink="http://www.w3.org/1999/xlink">
    <g id="∟-----工作台" stroke="none" stroke-width="1" fill="none" fill-rule="evenodd">
        <g id="工作台-任务展开" transform="translate(-682.000000, -146.000000)">
            <g id="编组-8" transform="translate(60.000000, 64.000000)">
                <g id="编组-5备份-22" transform="translate(564.000000, 60.000000)">
                    <g id="路径-3" transform="translate(58.000000, 22.000000)">
                        <rect id="矩形" fill="#FFFFFF" opacity="0" x="0" y="0" width="16" height="16"></rect>
                        <path d="M6.57650148,15.7826936 L13.2847792,8.40214475 C13.54822,8.11212488 13.5733774,7.64157969 13.340543,7.35138493 C13.257505,7.2476989 13.1484325,7.17701855 13.0271014,7.1482709 L9.25590649,6.25256791 L10.4595421,0.88902355 C10.5498042,0.486805071 10.3477298,0.095196707 10.0080743,0.0145245606 C9.80236187,-0.0343345557 9.58313649,0.041766114 9.42350873,0.217301854 L2.715231,7.59785071 C2.45179018,7.88787058 2.42668592,8.35817903 2.65926725,8.64856305 C2.74234472,8.75233638 2.85146193,8.82311148 2.97285566,8.8519613 L6.74405059,9.74766429 L5.54046808,15.1109719 C5.45020603,15.5131904 5.65228045,15.9047988 5.99193589,15.9854709 C6.19764834,16.03433 6.41707363,15.9582768 6.57650148,15.7826936 Z" id="路径" fill="#FFC036" fill-rule="nonzero"></path>
                    </g>
                </g>
            </g>
        </g>
    </g>
</svg>