<svg xml:space="preserve" viewBox="0 0 24 24" xmlns="http://www.w3.org/2000/svg"><path clip-rule="evenodd" fill="none" d="M0 0h24v24H0z"/><path d="M19 4a3 3 0 0 1 1.001 5.829L20 15.5a4.5 4.5 0 0 1-8.995.212L11 15.5v-7a2.5 2.5 0 0 0-4.995-.164L6 8.5v8.084l.293-.291a1 1 0 0 1 1.32-.083l.094.083a1 1 0 0 1 .083 1.32l-.083.094-2 2a1.142 1.142 0 0 1-.09.08l.09-.08a1.024 1.024 0 0 1-.187.147l-.036.021a1.205 1.205 0 0 1-.114.054l-.06.022-.046.014a1.538 1.538 0 0 1-.065.016l-.052.009a.607.607 0 0 1-.063.007c-.018.001-.035.003-.053.003H5l-.032-.001-.054-.003L5 20c-.051 0-.1-.004-.149-.011l-.052-.009c-.022-.004-.044-.01-.065-.015a.618.618 0 0 1-.046-.014c-.02-.006-.039-.014-.059-.021a.817.817 0 0 1-.052-.023c-.021-.01-.042-.02-.062-.032a.958.958 0 0 1-.109-.071l-.018-.013a.99.99 0 0 1-.094-.083l-2-2a.999.999 0 0 1 1.32-1.497l.094.083.292.291V8.5a4.5 4.5 0 0 1 8.995-.212L13 8.5v7a2.5 2.5 0 0 0 4.995.164L18 15.5V9.829A3 3 0 0 1 19 4zm0 2a1 1 0 1 0 0 2 1 1 0 0 0 0-2z"/></svg>