<?xml version="1.0" encoding="UTF-8"?>
<svg width="80px" height="20px" viewBox="0 0 80 20" version="1.1" xmlns="http://www.w3.org/2000/svg" xmlns:xlink="http://www.w3.org/1999/xlink">
    <g id="工作台" stroke="none" stroke-width="1" fill="none" fill-rule="evenodd">
        <g id="搜索栏" transform="translate(-712.000000, -258.000000)">
            <g id="展开" transform="translate(712.000000, 259.000000)">
                <path d="M0,0 L14.4852814,14.4852814 C16.7357179,16.7357179 19.7879649,18 22.9705627,18 L57.0294373,18 C60.2120351,18 63.2642821,16.7357179 65.5147186,14.4852814 L80,0 L80,0 L0,0 Z" id="矩形" fill="#FFFFFF"></path>
                <path d="M80,0 L65.5147186,14.4852814 C63.2642821,16.7357179 60.2120351,18 57.0294373,18 L22.9705627,18 C19.7879649,18 16.7357179,16.7357179 14.4852814,14.4852814 L0,0 L1.41418219,0 L2.02490183,1 L15.1923882,13.7781746 C17.1727723,15.7585587 19.8305259,16.9058396 22.6210899,16.9944535 L22.9705627,17 L57.0294373,17 C59.9468186,17 62.7447117,15.8410748 64.8076118,13.7781746 L77.585,1 L78.5904341,0 L80,0 Z" id="路径" fill="#EEF0F2" fill-rule="nonzero"></path>
                <g id="01图标-/-01通用图标-/-01单色线性-/-箭头-/left_double" transform="translate(31.000000, 0.000000)">
                    <rect id="背景" fill="#A3AFBB" opacity="0" x="3.55271368e-15" y="0" width="18" height="18"></rect>
                    <g id="网格" opacity="0" transform="translate(0.000000, 0.000000)" stroke="#A3AFBB" stroke-linecap="square" stroke-width="0.5">
                        <g id="竖线" transform="translate(0.375000, 0.000000)">
                            <line x1="0.375" y1="0" x2="0.375" y2="18" id="直线"></line>
                            <line x1="1.125" y1="0" x2="1.125" y2="18" id="直线"></line>
                            <line x1="1.875" y1="0" x2="1.875" y2="18" id="直线备份"></line>
                            <line x1="2.625" y1="0" x2="2.625" y2="18" id="直线备份-2"></line>
                            <line x1="3.375" y1="0" x2="3.375" y2="18" id="直线备份-3"></line>
                            <line x1="4.125" y1="0" x2="4.125" y2="18" id="直线备份-4"></line>
                            <line x1="4.875" y1="0" x2="4.875" y2="18" id="直线备份-5"></line>
                            <line x1="5.625" y1="0" x2="5.625" y2="18" id="直线备份-6"></line>
                            <line x1="6.375" y1="0" x2="6.375" y2="18" id="直线备份-7"></line>
                            <line x1="7.125" y1="0" x2="7.125" y2="18" id="直线备份-8"></line>
                            <line x1="7.875" y1="0" x2="7.875" y2="18" id="直线备份-9"></line>
                            <line x1="8.625" y1="0" x2="8.625" y2="18" id="直线备份-10"></line>
                            <line x1="9.375" y1="0" x2="9.375" y2="18" id="直线备份-11"></line>
                            <line x1="10.125" y1="0" x2="10.125" y2="18" id="直线备份-12"></line>
                            <line x1="10.875" y1="0" x2="10.875" y2="18" id="直线备份-13"></line>
                            <line x1="11.625" y1="0" x2="11.625" y2="18" id="直线备份-14"></line>
                            <line x1="12.375" y1="0" x2="12.375" y2="18" id="直线备份-15"></line>
                            <line x1="13.125" y1="0" x2="13.125" y2="18" id="直线备份-16"></line>
                            <line x1="13.875" y1="0" x2="13.875" y2="18" id="直线备份-17"></line>
                            <line x1="14.625" y1="0" x2="14.625" y2="18" id="直线备份-18"></line>
                            <line x1="15.375" y1="0" x2="15.375" y2="18" id="直线备份-19"></line>
                            <line x1="16.125" y1="0" x2="16.125" y2="18" id="直线备份-20"></line>
                            <line x1="16.875" y1="0" x2="16.875" y2="18" id="直线备份-21"></line>
                        </g>
                        <g id="横线" transform="translate(9.000000, 9.000000) rotate(-270.000000) translate(-9.000000, -9.000000) translate(0.375000, 0.000000)">
                            <line x1="0.375" y1="0" x2="0.375" y2="18" id="直线"></line>
                            <line x1="1.125" y1="0" x2="1.125" y2="18" id="直线"></line>
                            <line x1="1.875" y1="0" x2="1.875" y2="18" id="直线备份"></line>
                            <line x1="2.625" y1="0" x2="2.625" y2="18" id="直线备份-2"></line>
                            <line x1="3.375" y1="0" x2="3.375" y2="18" id="直线备份-3"></line>
                            <line x1="4.125" y1="0" x2="4.125" y2="18" id="直线备份-4"></line>
                            <line x1="4.875" y1="0" x2="4.875" y2="18" id="直线备份-5"></line>
                            <line x1="5.625" y1="0" x2="5.625" y2="18" id="直线备份-6"></line>
                            <line x1="6.375" y1="0" x2="6.375" y2="18" id="直线备份-7"></line>
                            <line x1="7.125" y1="0" x2="7.125" y2="18" id="直线备份-8"></line>
                            <line x1="7.875" y1="0" x2="7.875" y2="18" id="直线备份-9"></line>
                            <line x1="8.625" y1="0" x2="8.625" y2="18" id="直线备份-10"></line>
                            <line x1="9.375" y1="0" x2="9.375" y2="18" id="直线备份-11"></line>
                            <line x1="10.125" y1="0" x2="10.125" y2="18" id="直线备份-12"></line>
                            <line x1="10.875" y1="0" x2="10.875" y2="18" id="直线备份-13"></line>
                            <line x1="11.625" y1="0" x2="11.625" y2="18" id="直线备份-14"></line>
                            <line x1="12.375" y1="0" x2="12.375" y2="18" id="直线备份-15"></line>
                            <line x1="13.125" y1="0" x2="13.125" y2="18" id="直线备份-16"></line>
                            <line x1="13.875" y1="0" x2="13.875" y2="18" id="直线备份-17"></line>
                            <line x1="14.625" y1="0" x2="14.625" y2="18" id="直线备份-18"></line>
                            <line x1="15.375" y1="0" x2="15.375" y2="18" id="直线备份-19"></line>
                            <line x1="16.125" y1="0" x2="16.125" y2="18" id="直线备份-20"></line>
                            <line x1="16.875" y1="0" x2="16.875" y2="18" id="直线备份-21"></line>
                        </g>
                    </g>
                    <g id="Keyline" opacity="0" transform="translate(0.750000, 1.500000)" stroke="#A3AFBB" stroke-opacity="0.05" stroke-width="0.5">
                        <rect id="正方形-大" x="1.75" y="1" width="13" height="13" rx="0.75"></rect>
                        <rect id="正方形-小" x="4" y="3.25" width="8.5" height="8.5" rx="0.75"></rect>
                        <rect id="矩形-竖" x="2.5" y="0.25" width="11.5" height="14.5" rx="0.75"></rect>
                        <rect id="矩形-横" x="1" y="1.75" width="14.5" height="11.5" rx="0.75"></rect>
                        <circle id="圆形" cx="8.25" cy="7.5" r="7.25"></circle>
                        <path d="M8.25,0.498965873 L16.0663882,14 L0.433611821,14 L8.25,0.498965873 Z" id="三角形"></path>
                    </g>
                    <g id="icon" transform="translate(5.250000, 7.125000)" stroke="#A3AFBB" stroke-linecap="round" stroke-linejoin="round" stroke-width="1.5">
                        <polyline id="路径-2" points="7.5 -6.82058576e-13 3.75 3.75 0 8.5348395e-14"></polyline>
                    </g>
                </g>
            </g>
        </g>
    </g>
</svg>