<?xml version="1.0" encoding="UTF-8"?>
<svg width="16px" height="16px" viewBox="0 0 16 16" version="1.1" xmlns="http://www.w3.org/2000/svg" xmlns:xlink="http://www.w3.org/1999/xlink">
    <g id="工作台" stroke="none" stroke-width="1" fill="none" fill-rule="evenodd">
        <g id="工作台-工作办理" transform="translate(-576.000000, -146.000000)" fill="#FFC036">
            <g id="编组-5备份-25" transform="translate(362.000000, 124.000000)">
                <g id="编组-7" transform="translate(214.000000, 22.000000)">
                    <path d="M8,0 C12.418278,0 16,3.581722 16,8 C16,12.418278 12.418278,16 8,16 C3.581722,16 0,12.418278 0,8 C0,3.581722 3.581722,0 8,0 Z M8.25169865,3.56122372 C8.01309643,3.4222144 7.70698179,3.50295039 7.56797247,3.74155261 L6.49423843,5.58456077 C6.42359332,5.70581939 6.30524104,5.79180736 6.16808669,5.82152388 L4.08347971,6.27318478 C3.99900291,6.29148793 3.92071382,6.33137821 3.85625206,6.38896305 C3.65031419,6.57293101 3.63250406,6.88901212 3.81647201,7.09494999 L5.23747486,8.68565258 C5.33096813,8.79031105 5.37617468,8.9294425 5.36205374,9.06906695 L5.14742981,11.1912169 C5.13873237,11.2772151 5.15247762,11.3639992 5.18732428,11.4431007 C5.2986499,11.6958085 5.59375727,11.8104213 5.84646504,11.6990957 L7.79842714,10.8391958 C7.92685427,10.7826197 8.07314573,10.7826197 8.20157286,10.8391958 L10.153535,11.6990957 C10.2326364,11.7339424 10.3194206,11.7476876 10.4054187,11.7389902 C10.6801596,11.7112042 10.8803562,11.4659578 10.8525702,11.1912169 L10.6379463,9.06906695 C10.6238253,8.9294425 10.6690319,8.79031105 10.7625251,8.68565258 L12.183528,7.09494999 C12.2411128,7.03048822 12.2810031,6.95219913 12.2993063,6.86772234 C12.3577798,6.5978419 12.1864007,6.33165837 11.9165203,6.27318478 L9.83191331,5.82152388 C9.69475896,5.79180736 9.57640668,5.70581939 9.50576157,5.58456077 L8.43202753,3.74155261 C8.38851544,3.66686639 8.32638487,3.60473581 8.25169865,3.56122372 Z" id="形状结合"></path>
                </g>
            </g>
        </g>
    </g>
</svg>