<?xml version="1.0" encoding="UTF-8"?>
<svg width="16px" height="16px" viewBox="0 0 16 16" version="1.1" xmlns="http://www.w3.org/2000/svg" xmlns:xlink="http://www.w3.org/1999/xlink">
    <g id="工作台" stroke="none" stroke-width="1" fill="none" fill-rule="evenodd" opacity="0.800596691">
        <g id="流程图-协同" transform="translate(-299.000000, -200.000000)">
            <g id="编组-5备份-27" transform="translate(96.000000, 124.000000)">
                <g id="小火苗" transform="translate(203.000000, 76.000000)">
                    <rect id="矩形" fill="#FFFFFF" opacity="0" x="0" y="0" width="16" height="16"></rect>
                    <path d="M8.00003,14 C10.4704565,14 12.5,12.04226 12.5,9.52943 C12.5,8.91254 12.4686498,8.25125 12.1267075,7.22348 C11.7847652,6.19574 11.7158848,6.06308 11.3543224,5.42837 C11.1998513,6.72362 10.3733458,7.26344 10.1633744,7.42478 C10.1633744,7.25693 9.66339109,5.40077 8.90531604,4.29017 C8.16113107,3.2 7.14904433,2.484776 6.55561037,2 C6.55561037,2.920931 6.29658864,4.29017 5.92563617,4.98782 C5.5546837,5.68547 5.48502323,5.71088 5.02167014,6.23006 C4.55834706,6.74924 4.34567564,6.90959 3.95822305,7.53953 C3.57078847,8.1695 3.5,9.00854 3.5,9.62543 C3.5,12.13826 5.52960353,14 8.00003,14 Z" id="路径" stroke="#FFFFFF" stroke-width="1.14" stroke-linejoin="round" fill-rule="nonzero"></path>
                </g>
            </g>
        </g>
    </g>
</svg>