<?xml version="1.0" encoding="UTF-8"?>
<svg width="35px" height="35px" viewBox="0 0 35 35" version="1.1" xmlns="http://www.w3.org/2000/svg" xmlns:xlink="http://www.w3.org/1999/xlink">
    <g id="工作台" stroke="none" stroke-width="1" fill="none" fill-rule="evenodd">
        <g id="流程图-协同" transform="translate(-577.000000, -124.000000)">
            <g id="编组-5备份-25" transform="translate(362.000000, 124.000000)">
                <g id="编组-17" transform="translate(215.000000, 0.000000)">
                    <path d="M0,0 L35.0037612,35 L35.0037612,3 C35.0037612,1.34314575 33.6606154,-3.04359188e-16 32.0037612,0 L0,0 L0,0 Z" id="路径-3" fill="#FFC036"></path>
                    <path d="M23.7581126,14.407035 L21.415758,15.4389149 C21.1125087,15.5725056 20.7583799,15.4349702 20.6247891,15.1317208 C20.5829731,15.0367991 20.5664788,14.9326581 20.5769158,14.8294603 L20.8344645,12.2828803 C20.8514096,12.115331 20.7971618,11.9483733 20.6849698,11.8227831 L18.9797664,9.91393998 C18.7590049,9.66681454 18.780377,9.28751721 19.0275025,9.06675567 C19.1048566,8.99765386 19.1988035,8.94978552 19.3001756,8.92782174 L21.801704,8.38582865 C21.9662892,8.35016883 22.108312,8.24698327 22.1930861,8.10147292 L23.481567,5.88986313 C23.6483782,5.60354046 24.0157157,5.50665728 24.3020384,5.67346847 C24.3916618,5.72568297 24.4662185,5.80023966 24.518433,5.88986313 L25.8069139,8.10147292 C25.891688,8.24698327 26.0337108,8.35016883 26.198296,8.38582865 L28.6998244,8.92782174 C29.0236809,8.99799004 29.2293358,9.31741028 29.1591675,9.6412668 C29.1372037,9.74263895 29.0893354,9.83658586 29.0202336,9.91393998 L27.3150302,11.8227831 C27.2028382,11.9483733 27.1485904,12.115331 27.1655355,12.2828803 L27.4230842,14.8294603 C27.4564274,15.1591493 27.2161916,15.4534451 26.8865025,15.4867882 C26.7833047,15.4972252 26.6791637,15.4807309 26.584242,15.4389149 L24.2418874,14.407035 C24.0877749,14.3391436 23.9122251,14.3391436 23.7581126,14.407035 Z" id="星形" fill="#FFFFFF"></path>
                </g>
            </g>
        </g>
    </g>
</svg>