<svg xml:space="preserve" viewBox="0 0 24 24" xmlns="http://www.w3.org/2000/svg"><path clip-rule="evenodd" fill="none" d="M0 0h24v24H0z"/><path d="m18.511 19.86-.029.017-.057.029a.638.638 0 0 1-.046.02l-.054.021-.054.017-.057.015-.045.009a.842.842 0 0 1-.053.008l-.012.001-.06.005L18 20H5a3 3 0 0 1-2.995-2.824L2 17V7a3 3 0 0 1 2.824-2.995L5 4h4.586c.471 0 .926.166 1.284.467l.13.119L12.414 6H18c1.054 0 1.918.816 1.995 1.851L20 8v2.004l-.002.045a2 2 0 0 1 1.481 2.504l-.049.148-2.493 6.649-.017.042-.022.048.038-.09a.984.984 0 0 1-.067.143l-.032.053a.852.852 0 0 1-.1.129l-.043.044-.036.034a1.701 1.701 0 0 1-.086.067l-.037.025-.024.015zM17.306 18l2.251-6H6.689l-2.226 5.844a.998.998 0 0 0 .421.15L5 18h12.306zM9.586 6H5a1 1 0 0 0-.993.883L4 7v6.44l.82-2.152a1.999 1.999 0 0 1 1.704-1.281L6.689 10 18 9.999V8h-5.586c-.471 0-.926-.166-1.284-.467L11 7.414 9.586 6z"/></svg>