<?xml version="1.0" encoding="UTF-8"?>
<svg width="16px" height="16px" viewBox="0 0 16 16" version="1.1" xmlns="http://www.w3.org/2000/svg" xmlns:xlink="http://www.w3.org/1999/xlink">
    <title></title>
    <g id="产品管理" stroke="none" stroke-width="1" fill="none" fill-rule="evenodd">
        <g id="产品列表-输入产品名称" transform="translate(-112.000000, -120.000000)">
            <g id="编组-4" transform="translate(102.000000, 110.000000)">
                <g id="搜索" transform="translate(10.000000, 10.000000)">
                    <rect id="矩形" x="0" y="0" width="16" height="16"></rect>
                    <path d="M7.55175196,1.75 C10.7560054,1.75 13.3533314,4.34764178 13.3533314,7.55233333 C13.3533314,8.81525108 12.9427957,10.0312772 12.1964151,11.0287873 L12.171,11.059 L14.0170493,12.9051385 C14.1124455,12.9993674 14.1811511,13.1155317 14.2182559,13.2418796 L14.2400826,13.3383663 L14.2499927,13.4626667 C14.2499927,13.6721764 14.1661058,13.8729621 14.0178184,14.0194318 C13.870319,14.1663948 13.6708017,14.249246 13.4607772,14.25 C13.294203,14.2493965 13.1331971,14.1962513 12.9997675,14.099602 L12.9052096,14.0190992 L11.06,12.173 L11.0325528,12.1951702 C8.87434286,13.8153134 5.88814238,13.7244495 3.83476413,12.0079372 L3.63902125,11.8367511 L3.44945707,11.6554325 C1.79021099,9.99598266 1.29382654,7.50055961 2.19171239,5.33249318 C3.05863513,3.23919135 5.06053534,1.84896428 7.30979427,1.75507236 L7.55175196,1.75 Z M7.552,3.324 L7.34127002,3.33050083 C5.10569028,3.44376783 3.32788269,5.29013026 3.32422015,7.55266667 C3.32422015,9.887329 5.21711372,11.7803333 7.55175196,11.7803333 C9.88632087,11.7803333 11.7789504,9.88739835 11.7789504,7.55266667 C11.7789504,5.28847563 9.99939867,3.44011636 7.76273775,3.33017374 L7.552,3.324 Z" fill="#454545" fill-rule="nonzero"></path>
                </g>
            </g>
        </g>
    </g>
</svg>