<?xml version="1.0" encoding="UTF-8"?>
<svg width="18px" height="18px" viewBox="0 0 18 18" version="1.1" xmlns="http://www.w3.org/2000/svg" xmlns:xlink="http://www.w3.org/1999/xlink">
    <title></title>
    <g id="优化" stroke="none" stroke-width="1" fill="none" fill-rule="evenodd">
        <g id="项目列表" transform="translate(-708.000000, -139.000000)" fill="#9EACC4" fill-rule="nonzero">
            <g id="编组-7备份" transform="translate(590.000000, 130.000000)">
                <g id="编组-8" transform="translate(118.000000, 9.000000)">
                    <path d="M9.00021402,2.00042592 C10.7955289,2.00000012 12.3830909,3.1592544 12.9202906,4.86293814 C13.4574903,6.56662189 12.8198274,8.41988001 11.3457458,9.43908302 C14.0174264,10.3832284 15.9417897,12.8968348 15.9982879,15.8646355 L16,16.0000001 L14.7159497,16.0000001 C14.7159497,12.8606525 12.1564096,10.3155463 9.00021402,10.3155462 C5.88767618,10.3155462 3.35638511,12.7891392 3.28576232,15.8676152 L3.28405026,15.9995742 L2,15.9995742 C2,12.9730304 3.94234004,10.3977014 6.6546822,9.43865735 C5.18060063,8.41945435 4.54293771,6.56619621 5.08013742,4.86251247 C5.61733713,3.15882872 7.20489915,1.99956166 9.00021402,2.00000012 L9.00021402,2.00042592 Z M9.00021402,3.2774486 C7.44088634,3.2774486 6.1768015,4.53461513 6.1768015,6.08540863 C6.1768015,7.63620214 7.44088634,8.89336867 9.00021402,8.89336867 C10.5595417,8.89336867 11.8236265,7.63620211 11.8236265,6.08540863 C11.8236265,4.53461515 10.5595417,3.2774486 9.00021402,3.2774486 L9.00021402,3.2774486 Z" id="形状"></path>
                </g>
            </g>
        </g>
    </g>
</svg>