<?xml version="1.0" encoding="UTF-8"?>
<svg width="18px" height="18px" viewBox="0 0 18 18" version="1.1" xmlns="http://www.w3.org/2000/svg" xmlns:xlink="http://www.w3.org/1999/xlink">
    <title></title>
    <g id="优化" stroke="none" stroke-width="1" fill="none" fill-rule="evenodd">
        <g id="项目列表" transform="translate(-547.000000, -139.000000)" fill="#9EACC4" fill-rule="nonzero">
            <g id="编组-7" transform="translate(430.000000, 130.000000)">
                <g id="底层架构" transform="translate(117.000000, 9.000000)">
                    <path d="M15.5548793,11.7282073 L16.8203568,12.4461341 L9,17 L1.04407135,12.4461341 L2.31878279,11.7282073 L8.99958028,15.5165989 L15.5548793,11.7282073 Z M15.5548793,8.30134933 L16.8203568,9.01927609 L9,13.573142 L1.04407135,9.01927609 L2.31878279,8.30134933 L8.99958028,12.0897408 L15.5548793,8.30134933 L15.5548793,8.30134933 Z M9,1.00042837 L17,5.59241808 L9,10.1848362 L1,5.59241808 L9,1 L9,1.00042837 Z M9,2.47483402 L3.56831059,5.59241808 L9,8.71000215 L14.4312697,5.59241808 L9,2.47440567 L9,2.47483402 Z" id="形状"></path>
                </g>
            </g>
        </g>
    </g>
</svg>