<?xml version="1.0" encoding="UTF-8"?>
<svg width="20px" height="20px" viewBox="0 0 20 20" version="1.1" xmlns="http://www.w3.org/2000/svg" xmlns:xlink="http://www.w3.org/1999/xlink">
    <g id="2023-02-17" stroke="none" stroke-width="1" fill="none" fill-rule="evenodd">
        <g id="状态标识" transform="translate(-847.000000, -411.000000)">
            <g id="编组-10备份" transform="translate(694.000000, 206.000000)">
                <g id="编组-5" transform="translate(8.000000, 28.000000)">
                    <g id="编组-21" transform="translate(20.000000, 177.000000)">
                        <g id="01图标-/-01通用图标-/-03实色填充-/-办公-/-文件盒" transform="translate(126.000000, 1.000000)">
                            <rect id="背景" fill="#FF7777" opacity="0" x="0" y="0" width="18" height="18"></rect>
                            <g id="网格" opacity="0" transform="translate(0.000000, 0.000000)" stroke="#FF7777" stroke-linecap="square" stroke-width="0.5">
                                <g id="竖线" transform="translate(0.375000, 0.000000)">
                                    <line x1="0.375" y1="0" x2="0.375" y2="18" id="直线"></line>
                                    <line x1="1.125" y1="0" x2="1.125" y2="18" id="直线"></line>
                                    <line x1="1.875" y1="0" x2="1.875" y2="18" id="直线备份"></line>
                                    <line x1="2.625" y1="0" x2="2.625" y2="18" id="直线备份-2"></line>
                                    <line x1="3.375" y1="0" x2="3.375" y2="18" id="直线备份-3"></line>
                                    <line x1="4.125" y1="0" x2="4.125" y2="18" id="直线备份-4"></line>
                                    <line x1="4.875" y1="0" x2="4.875" y2="18" id="直线备份-5"></line>
                                    <line x1="5.625" y1="0" x2="5.625" y2="18" id="直线备份-6"></line>
                                    <line x1="6.375" y1="0" x2="6.375" y2="18" id="直线备份-7"></line>
                                    <line x1="7.125" y1="0" x2="7.125" y2="18" id="直线备份-8"></line>
                                    <line x1="7.875" y1="0" x2="7.875" y2="18" id="直线备份-9"></line>
                                    <line x1="8.625" y1="0" x2="8.625" y2="18" id="直线备份-10"></line>
                                    <line x1="9.375" y1="0" x2="9.375" y2="18" id="直线备份-11"></line>
                                    <line x1="10.125" y1="0" x2="10.125" y2="18" id="直线备份-12"></line>
                                    <line x1="10.875" y1="0" x2="10.875" y2="18" id="直线备份-13"></line>
                                    <line x1="11.625" y1="0" x2="11.625" y2="18" id="直线备份-14"></line>
                                    <line x1="12.375" y1="0" x2="12.375" y2="18" id="直线备份-15"></line>
                                    <line x1="13.125" y1="0" x2="13.125" y2="18" id="直线备份-16"></line>
                                    <line x1="13.875" y1="0" x2="13.875" y2="18" id="直线备份-17"></line>
                                    <line x1="14.625" y1="0" x2="14.625" y2="18" id="直线备份-18"></line>
                                    <line x1="15.375" y1="0" x2="15.375" y2="18" id="直线备份-19"></line>
                                    <line x1="16.125" y1="0" x2="16.125" y2="18" id="直线备份-20"></line>
                                    <line x1="16.875" y1="0" x2="16.875" y2="18" id="直线备份-21"></line>
                                </g>
                                <g id="横线" transform="translate(9.000000, 9.000000) rotate(-270.000000) translate(-9.000000, -9.000000) translate(0.375000, 0.000000)">
                                    <line x1="0.375" y1="0" x2="0.375" y2="18" id="直线"></line>
                                    <line x1="1.125" y1="0" x2="1.125" y2="18" id="直线"></line>
                                    <line x1="1.875" y1="0" x2="1.875" y2="18" id="直线备份"></line>
                                    <line x1="2.625" y1="0" x2="2.625" y2="18" id="直线备份-2"></line>
                                    <line x1="3.375" y1="0" x2="3.375" y2="18" id="直线备份-3"></line>
                                    <line x1="4.125" y1="0" x2="4.125" y2="18" id="直线备份-4"></line>
                                    <line x1="4.875" y1="0" x2="4.875" y2="18" id="直线备份-5"></line>
                                    <line x1="5.625" y1="0" x2="5.625" y2="18" id="直线备份-6"></line>
                                    <line x1="6.375" y1="0" x2="6.375" y2="18" id="直线备份-7"></line>
                                    <line x1="7.125" y1="0" x2="7.125" y2="18" id="直线备份-8"></line>
                                    <line x1="7.875" y1="0" x2="7.875" y2="18" id="直线备份-9"></line>
                                    <line x1="8.625" y1="0" x2="8.625" y2="18" id="直线备份-10"></line>
                                    <line x1="9.375" y1="0" x2="9.375" y2="18" id="直线备份-11"></line>
                                    <line x1="10.125" y1="0" x2="10.125" y2="18" id="直线备份-12"></line>
                                    <line x1="10.875" y1="0" x2="10.875" y2="18" id="直线备份-13"></line>
                                    <line x1="11.625" y1="0" x2="11.625" y2="18" id="直线备份-14"></line>
                                    <line x1="12.375" y1="0" x2="12.375" y2="18" id="直线备份-15"></line>
                                    <line x1="13.125" y1="0" x2="13.125" y2="18" id="直线备份-16"></line>
                                    <line x1="13.875" y1="0" x2="13.875" y2="18" id="直线备份-17"></line>
                                    <line x1="14.625" y1="0" x2="14.625" y2="18" id="直线备份-18"></line>
                                    <line x1="15.375" y1="0" x2="15.375" y2="18" id="直线备份-19"></line>
                                    <line x1="16.125" y1="0" x2="16.125" y2="18" id="直线备份-20"></line>
                                    <line x1="16.875" y1="0" x2="16.875" y2="18" id="直线备份-21"></line>
                                </g>
                            </g>
                            <g id="Keyline" opacity="0" transform="translate(0.750000, 1.500000)" stroke="#FF7777" stroke-opacity="0.05" stroke-width="0.5">
                                <rect id="正方形-大" x="1.75" y="1" width="13" height="13" rx="0.75"></rect>
                                <rect id="正方形-小" x="4" y="3.25" width="8.5" height="8.5" rx="0.75"></rect>
                                <rect id="矩形-竖" x="2.5" y="0.25" width="11.5" height="14.5" rx="0.75"></rect>
                                <rect id="矩形-横" x="1" y="1.75" width="14.5" height="11.5" rx="0.75"></rect>
                                <circle id="圆形" cx="8.25" cy="7.5" r="7.25"></circle>
                                <path d="M8.25,0.498965873 L16.0663882,14 L0.433611821,14 L8.25,0.498965873 Z" id="三角形"></path>
                            </g>
                            <g id="icon" transform="translate(1.591670, 2.593548)" fill="#FF7777" fill-rule="nonzero">
                                <path d="M6.57051048,0.197812372 C7.44491172,-0.240003874 8.5212967,0.0692640288 9.02445671,0.924636046 L14.557488,10.3307892 C14.7269843,10.6189329 14.8163613,10.947153 14.8163613,11.281452 C14.8163613,12.3169859 13.9768952,13.156452 12.9413613,13.156452 L1.87529878,13.156452 C1.54099982,13.156452 1.21277976,13.0670749 0.924636046,12.8975786 C0.0320739411,12.3725421 -0.265864403,11.2233513 0.25917213,10.3307892 L5.79220341,0.924636046 C5.95384348,0.64984792 6.1828792,0.420812203 6.45766732,0.25917213 Z M7.40833006,9.10645195 C6.91127379,9.10645195 6.50833006,9.50939568 6.50833006,10.006452 C6.50833006,10.5035082 6.91127379,10.906452 7.40833006,10.906452 C7.90538633,10.906452 8.30833006,10.5035082 8.30833006,10.006452 C8.30833006,9.50939568 7.90538633,9.10645195 7.40833006,9.10645195 Z M7.40833006,4.15645195 C6.9941165,4.15645195 6.65833006,4.49223839 6.65833006,4.90645195 L6.65833006,7.90645195 L6.66337586,7.9939178 C6.70669969,8.36692181 7.02370318,8.65645195 7.40833006,8.65645195 C7.82254362,8.65645195 8.15833006,8.32066552 8.15833006,7.90645195 L8.15833006,4.90645195 L8.15328426,4.81898611 C8.10996043,4.4459821 7.79295694,4.15645195 7.40833006,4.15645195 Z" id="形状结合"></path>
                            </g>
                        </g>
                    </g>
                </g>
            </g>
        </g>
    </g>
</svg>