<?xml version="1.0" encoding="UTF-8"?>
<svg width="20px" height="20px" viewBox="0 0 20 20" version="1.1" xmlns="http://www.w3.org/2000/svg" xmlns:xlink="http://www.w3.org/1999/xlink">
    <g id="2023-02-17" stroke="none" stroke-width="1" fill="none" fill-rule="evenodd">
        <g id="状态标识" transform="translate(-847.000000, -339.000000)">
            <g id="编组-10备份" transform="translate(694.000000, 206.000000)">
                <g id="编组-5" transform="translate(8.000000, 28.000000)">
                    <g id="编组-17" transform="translate(20.000000, 105.000000)">
                        <g id="01图标-/-01通用图标-/-03实色填充-/-办公-/-文件盒" transform="translate(126.000000, 1.000000)">
                            <rect id="背景" fill="#54A3FF" opacity="0" x="0" y="0" width="18" height="18"></rect>
                            <path d="M11.25,2.25 C12.0407713,2.25 12.6886238,2.86190834 12.7458857,3.63805324 L12.75,3.75 L12.75,4.5 L14.25,4.5 C15.0407713,4.5 15.6886238,5.11190834 15.7458857,5.88805324 L15.75,6 L15.75,13.5 C15.75,14.6982607 14.81331,15.6777457 13.6322046,15.7461805 L13.5,15.75 L4.5,15.75 C3.30173934,15.75 2.32225434,14.81331 2.25381952,13.6322046 L2.25,13.5 L2.25,6 C2.25,5.20922865 2.86190834,4.56137616 3.63805324,4.5041143 L3.75,4.5 L5.25,4.5 L5.25,3.75 C5.25,2.95922865 5.86190834,2.31137616 6.63805324,2.2541143 L6.75,2.25 L11.25,2.25 Z M10.125,7.5 L7.875,7.5 L7.77322944,7.50684662 C7.40715388,7.55650904 7.125,7.87030423 7.125,8.25 L7.125,9 L3.75,9 L3.75,10.5 L7.125,10.5 L7.125,11.25 C7.125,11.6642136 7.46078644,12 7.875,12 L10.125,12 L10.2267706,11.9931534 C10.5928461,11.943491 10.875,11.6296958 10.875,11.25 L10.875,10.5 L14.25,10.5 L14.25,9 L10.875,9 L10.875,8.25 C10.875,7.83578644 10.5392136,7.5 10.125,7.5 Z M9.375,9 L9.375,10.5 L8.625,10.5 L8.625,9 L9.375,9 Z M11.25,3.75 L6.75,3.75 L6.75,4.5 L11.25,4.5 L11.25,3.75 Z" id="形状结合" fill="#54A3FF" fill-rule="nonzero"></path>
                            <g id="网格" opacity="0" transform="translate(0.000000, 0.000000)" stroke="#54A3FF" stroke-linecap="square" stroke-width="0.5">
                                <g id="竖线" transform="translate(0.375000, 0.000000)">
                                    <line x1="0.375" y1="0" x2="0.375" y2="18" id="直线"></line>
                                    <line x1="1.125" y1="0" x2="1.125" y2="18" id="直线"></line>
                                    <line x1="1.875" y1="0" x2="1.875" y2="18" id="直线备份"></line>
                                    <line x1="2.625" y1="0" x2="2.625" y2="18" id="直线备份-2"></line>
                                    <line x1="3.375" y1="0" x2="3.375" y2="18" id="直线备份-3"></line>
                                    <line x1="4.125" y1="0" x2="4.125" y2="18" id="直线备份-4"></line>
                                    <line x1="4.875" y1="0" x2="4.875" y2="18" id="直线备份-5"></line>
                                    <line x1="5.625" y1="0" x2="5.625" y2="18" id="直线备份-6"></line>
                                    <line x1="6.375" y1="0" x2="6.375" y2="18" id="直线备份-7"></line>
                                    <line x1="7.125" y1="0" x2="7.125" y2="18" id="直线备份-8"></line>
                                    <line x1="7.875" y1="0" x2="7.875" y2="18" id="直线备份-9"></line>
                                    <line x1="8.625" y1="0" x2="8.625" y2="18" id="直线备份-10"></line>
                                    <line x1="9.375" y1="0" x2="9.375" y2="18" id="直线备份-11"></line>
                                    <line x1="10.125" y1="0" x2="10.125" y2="18" id="直线备份-12"></line>
                                    <line x1="10.875" y1="0" x2="10.875" y2="18" id="直线备份-13"></line>
                                    <line x1="11.625" y1="0" x2="11.625" y2="18" id="直线备份-14"></line>
                                    <line x1="12.375" y1="0" x2="12.375" y2="18" id="直线备份-15"></line>
                                    <line x1="13.125" y1="0" x2="13.125" y2="18" id="直线备份-16"></line>
                                    <line x1="13.875" y1="0" x2="13.875" y2="18" id="直线备份-17"></line>
                                    <line x1="14.625" y1="0" x2="14.625" y2="18" id="直线备份-18"></line>
                                    <line x1="15.375" y1="0" x2="15.375" y2="18" id="直线备份-19"></line>
                                    <line x1="16.125" y1="0" x2="16.125" y2="18" id="直线备份-20"></line>
                                    <line x1="16.875" y1="0" x2="16.875" y2="18" id="直线备份-21"></line>
                                </g>
                                <g id="横线" transform="translate(9.000000, 9.000000) rotate(-270.000000) translate(-9.000000, -9.000000) translate(0.375000, 0.000000)">
                                    <line x1="0.375" y1="0" x2="0.375" y2="18" id="直线"></line>
                                    <line x1="1.125" y1="0" x2="1.125" y2="18" id="直线"></line>
                                    <line x1="1.875" y1="0" x2="1.875" y2="18" id="直线备份"></line>
                                    <line x1="2.625" y1="0" x2="2.625" y2="18" id="直线备份-2"></line>
                                    <line x1="3.375" y1="0" x2="3.375" y2="18" id="直线备份-3"></line>
                                    <line x1="4.125" y1="0" x2="4.125" y2="18" id="直线备份-4"></line>
                                    <line x1="4.875" y1="0" x2="4.875" y2="18" id="直线备份-5"></line>
                                    <line x1="5.625" y1="0" x2="5.625" y2="18" id="直线备份-6"></line>
                                    <line x1="6.375" y1="0" x2="6.375" y2="18" id="直线备份-7"></line>
                                    <line x1="7.125" y1="0" x2="7.125" y2="18" id="直线备份-8"></line>
                                    <line x1="7.875" y1="0" x2="7.875" y2="18" id="直线备份-9"></line>
                                    <line x1="8.625" y1="0" x2="8.625" y2="18" id="直线备份-10"></line>
                                    <line x1="9.375" y1="0" x2="9.375" y2="18" id="直线备份-11"></line>
                                    <line x1="10.125" y1="0" x2="10.125" y2="18" id="直线备份-12"></line>
                                    <line x1="10.875" y1="0" x2="10.875" y2="18" id="直线备份-13"></line>
                                    <line x1="11.625" y1="0" x2="11.625" y2="18" id="直线备份-14"></line>
                                    <line x1="12.375" y1="0" x2="12.375" y2="18" id="直线备份-15"></line>
                                    <line x1="13.125" y1="0" x2="13.125" y2="18" id="直线备份-16"></line>
                                    <line x1="13.875" y1="0" x2="13.875" y2="18" id="直线备份-17"></line>
                                    <line x1="14.625" y1="0" x2="14.625" y2="18" id="直线备份-18"></line>
                                    <line x1="15.375" y1="0" x2="15.375" y2="18" id="直线备份-19"></line>
                                    <line x1="16.125" y1="0" x2="16.125" y2="18" id="直线备份-20"></line>
                                    <line x1="16.875" y1="0" x2="16.875" y2="18" id="直线备份-21"></line>
                                </g>
                            </g>
                            <g id="Keyline" opacity="0" transform="translate(0.750000, 1.500000)" stroke="#54A3FF" stroke-opacity="0.05" stroke-width="0.5">
                                <rect id="正方形-大" x="1.75" y="1" width="13" height="13" rx="0.75"></rect>
                                <rect id="正方形-小" x="4" y="3.25" width="8.5" height="8.5" rx="0.75"></rect>
                                <rect id="矩形-竖" x="2.5" y="0.25" width="11.5" height="14.5" rx="0.75"></rect>
                                <rect id="矩形-横" x="1" y="1.75" width="14.5" height="11.5" rx="0.75"></rect>
                                <circle id="圆形" cx="8.25" cy="7.5" r="7.25"></circle>
                                <path d="M8.25,0.498965873 L16.0663882,14 L0.433611821,14 L8.25,0.498965873 Z" id="三角形"></path>
                            </g>
                        </g>
                    </g>
                </g>
            </g>
        </g>
    </g>
</svg>