<?xml version="1.0" encoding="UTF-8"?>
<svg width="22px" height="22px" viewBox="0 0 22 22" version="1.1" xmlns="http://www.w3.org/2000/svg" xmlns:xlink="http://www.w3.org/1999/xlink">
    <g id="2023-02-17" stroke="none" stroke-width="1" fill="none" fill-rule="evenodd">
        <g id="状态标识" transform="translate(-1331.000000, -841.000000)">
            <g id="编组-13" transform="translate(1084.000000, 828.000000)">
                <g id="01图标-/-01通用图标-/-01单色线性-/-抽象-/connection备份-3" transform="translate(248.000000, 14.000000)">
                    <rect id="背景" fill="#FFFFFF" opacity="0" x="0" y="0" width="20" height="20"></rect>
                    <g id="网格" opacity="0" transform="translate(0.000000, 0.000000)" stroke="#979797" stroke-linecap="square" stroke-width="0.5">
                        <g id="竖线" transform="translate(0.416667, 0.000000)">
                            <line x1="0.416666667" y1="0" x2="0.416666667" y2="20" id="直线"></line>
                            <line x1="1.25" y1="0" x2="1.25" y2="20" id="直线"></line>
                            <line x1="2.08333333" y1="0" x2="2.08333333" y2="20" id="直线备份"></line>
                            <line x1="2.91666667" y1="0" x2="2.91666667" y2="20" id="直线备份-2"></line>
                            <line x1="3.75" y1="0" x2="3.75" y2="20" id="直线备份-3"></line>
                            <line x1="4.58333333" y1="0" x2="4.58333333" y2="20" id="直线备份-4"></line>
                            <line x1="5.41666667" y1="0" x2="5.41666667" y2="20" id="直线备份-5"></line>
                            <line x1="6.25" y1="0" x2="6.25" y2="20" id="直线备份-6"></line>
                            <line x1="7.08333333" y1="0" x2="7.08333333" y2="20" id="直线备份-7"></line>
                            <line x1="7.91666667" y1="0" x2="7.91666667" y2="20" id="直线备份-8"></line>
                            <line x1="8.75" y1="0" x2="8.75" y2="20" id="直线备份-9"></line>
                            <line x1="9.58333333" y1="0" x2="9.58333333" y2="20" id="直线备份-10"></line>
                            <line x1="10.4166667" y1="0" x2="10.4166667" y2="20" id="直线备份-11"></line>
                            <line x1="11.25" y1="0" x2="11.25" y2="20" id="直线备份-12"></line>
                            <line x1="12.0833333" y1="0" x2="12.0833333" y2="20" id="直线备份-13"></line>
                            <line x1="12.9166667" y1="0" x2="12.9166667" y2="20" id="直线备份-14"></line>
                            <line x1="13.75" y1="0" x2="13.75" y2="20" id="直线备份-15"></line>
                            <line x1="14.5833333" y1="0" x2="14.5833333" y2="20" id="直线备份-16"></line>
                            <line x1="15.4166667" y1="0" x2="15.4166667" y2="20" id="直线备份-17"></line>
                            <line x1="16.25" y1="0" x2="16.25" y2="20" id="直线备份-18"></line>
                            <line x1="17.0833333" y1="0" x2="17.0833333" y2="20" id="直线备份-19"></line>
                            <line x1="17.9166667" y1="0" x2="17.9166667" y2="20" id="直线备份-20"></line>
                            <line x1="18.75" y1="0" x2="18.75" y2="20" id="直线备份-21"></line>
                        </g>
                        <g id="横线" transform="translate(10.000000, 10.000000) rotate(-270.000000) translate(-10.000000, -10.000000) translate(0.416667, 0.000000)">
                            <line x1="0.416666667" y1="0" x2="0.416666667" y2="20" id="直线"></line>
                            <line x1="1.25" y1="0" x2="1.25" y2="20" id="直线"></line>
                            <line x1="2.08333333" y1="0" x2="2.08333333" y2="20" id="直线备份"></line>
                            <line x1="2.91666667" y1="0" x2="2.91666667" y2="20" id="直线备份-2"></line>
                            <line x1="3.75" y1="0" x2="3.75" y2="20" id="直线备份-3"></line>
                            <line x1="4.58333333" y1="0" x2="4.58333333" y2="20" id="直线备份-4"></line>
                            <line x1="5.41666667" y1="0" x2="5.41666667" y2="20" id="直线备份-5"></line>
                            <line x1="6.25" y1="0" x2="6.25" y2="20" id="直线备份-6"></line>
                            <line x1="7.08333333" y1="0" x2="7.08333333" y2="20" id="直线备份-7"></line>
                            <line x1="7.91666667" y1="0" x2="7.91666667" y2="20" id="直线备份-8"></line>
                            <line x1="8.75" y1="0" x2="8.75" y2="20" id="直线备份-9"></line>
                            <line x1="9.58333333" y1="0" x2="9.58333333" y2="20" id="直线备份-10"></line>
                            <line x1="10.4166667" y1="0" x2="10.4166667" y2="20" id="直线备份-11"></line>
                            <line x1="11.25" y1="0" x2="11.25" y2="20" id="直线备份-12"></line>
                            <line x1="12.0833333" y1="0" x2="12.0833333" y2="20" id="直线备份-13"></line>
                            <line x1="12.9166667" y1="0" x2="12.9166667" y2="20" id="直线备份-14"></line>
                            <line x1="13.75" y1="0" x2="13.75" y2="20" id="直线备份-15"></line>
                            <line x1="14.5833333" y1="0" x2="14.5833333" y2="20" id="直线备份-16"></line>
                            <line x1="15.4166667" y1="0" x2="15.4166667" y2="20" id="直线备份-17"></line>
                            <line x1="16.25" y1="0" x2="16.25" y2="20" id="直线备份-18"></line>
                            <line x1="17.0833333" y1="0" x2="17.0833333" y2="20" id="直线备份-19"></line>
                            <line x1="17.9166667" y1="0" x2="17.9166667" y2="20" id="直线备份-20"></line>
                            <line x1="18.75" y1="0" x2="18.75" y2="20" id="直线备份-21"></line>
                        </g>
                    </g>
                    <g id="Keyline" opacity="0" transform="translate(0.833333, 1.666667)" stroke="#000000" stroke-opacity="0.05" stroke-width="0.5">
                        <rect id="正方形-大" x="1.91666667" y="1.08333333" width="14.5" height="14.5" rx="0.833333333"></rect>
                        <rect id="正方形-小" x="4.41666667" y="3.58333333" width="9.5" height="9.5" rx="0.833333333"></rect>
                        <rect id="矩形-竖" x="2.75" y="0.25" width="12.8333333" height="16.1666667" rx="0.833333333"></rect>
                        <rect id="矩形-横" x="1.08333333" y="1.91666667" width="16.1666667" height="12.8333333" rx="0.833333333"></rect>
                        <circle id="圆形" cx="9.16666667" cy="8.33333333" r="8.08333333"></circle>
                        <path d="M9.16666667,0.498965873 L17.8997215,15.5833333 L0.433611821,15.5833333 L9.16666667,0.498965873 Z" id="三角形"></path>
                    </g>
                    <g id="icon" transform="translate(3.333333, 3.333333)" stroke="#434B5B" stroke-linecap="round" stroke-linejoin="round" stroke-width="1.66666667">
                        <polygon id="路径-86" points="2.35922393e-14 -3.78956126e-13 13.3333333 -3.78956126e-13 8.33333333 5.83333333 8.33333333 13.3333333 5 10.8333333 5 5.83333333"></polygon>
                    </g>
                </g>
            </g>
        </g>
    </g>
</svg>