<?xml version="1.0" encoding="UTF-8"?>
<svg width="18px" height="18px" viewBox="0 0 18 18" version="1.1" xmlns="http://www.w3.org/2000/svg" xmlns:xlink="http://www.w3.org/1999/xlink">
    <g id="2023-02-08" stroke="none" stroke-width="1" fill="none" fill-rule="evenodd">
        <g id="项目节点数据统计" transform="translate(-1026.000000, -105.000000)">
            <g id="编组-5" transform="translate(944.000000, 104.000000)">
                <g id="编组-2" transform="translate(48.000000, 0.000000)">
                    <g id="-mockplus-" transform="translate(35.000000, 2.000000)">
                        <g id="01图标-/-01通用图标-/-03实色填充-/-符号-/-惊叹号备份" transform="translate(8.000000, 8.000000) scale(1, -1) translate(-8.000000, -8.000000) ">
                            <rect id="背景" fill="#1E86FF" opacity="0" x="0" y="0" width="16" height="16"></rect>
                            <g id="网格" opacity="0" transform="translate(0.000000, 0.000000)" stroke="#1E86FF" stroke-linecap="square" stroke-width="0.5">
                                <g id="竖线" transform="translate(0.333333, 0.000000)">
                                    <line x1="0.333333333" y1="0" x2="0.333333333" y2="16" id="直线"></line>
                                    <line x1="1" y1="0" x2="1" y2="16" id="直线"></line>
                                    <line x1="1.66666667" y1="0" x2="1.66666667" y2="16" id="直线备份"></line>
                                    <line x1="2.33333333" y1="0" x2="2.33333333" y2="16" id="直线备份-2"></line>
                                    <line x1="3" y1="0" x2="3" y2="16" id="直线备份-3"></line>
                                    <line x1="3.66666667" y1="0" x2="3.66666667" y2="16" id="直线备份-4"></line>
                                    <line x1="4.33333333" y1="0" x2="4.33333333" y2="16" id="直线备份-5"></line>
                                    <line x1="5" y1="0" x2="5" y2="16" id="直线备份-6"></line>
                                    <line x1="5.66666667" y1="0" x2="5.66666667" y2="16" id="直线备份-7"></line>
                                    <line x1="6.33333333" y1="0" x2="6.33333333" y2="16" id="直线备份-8"></line>
                                    <line x1="7" y1="0" x2="7" y2="16" id="直线备份-9"></line>
                                    <line x1="7.66666667" y1="0" x2="7.66666667" y2="16" id="直线备份-10"></line>
                                    <line x1="8.33333333" y1="0" x2="8.33333333" y2="16" id="直线备份-11"></line>
                                    <line x1="9" y1="0" x2="9" y2="16" id="直线备份-12"></line>
                                    <line x1="9.66666667" y1="0" x2="9.66666667" y2="16" id="直线备份-13"></line>
                                    <line x1="10.3333333" y1="0" x2="10.3333333" y2="16" id="直线备份-14"></line>
                                    <line x1="11" y1="0" x2="11" y2="16" id="直线备份-15"></line>
                                    <line x1="11.6666667" y1="0" x2="11.6666667" y2="16" id="直线备份-16"></line>
                                    <line x1="12.3333333" y1="0" x2="12.3333333" y2="16" id="直线备份-17"></line>
                                    <line x1="13" y1="0" x2="13" y2="16" id="直线备份-18"></line>
                                    <line x1="13.6666667" y1="0" x2="13.6666667" y2="16" id="直线备份-19"></line>
                                    <line x1="14.3333333" y1="0" x2="14.3333333" y2="16" id="直线备份-20"></line>
                                    <line x1="15" y1="0" x2="15" y2="16" id="直线备份-21"></line>
                                </g>
                                <g id="横线" transform="translate(8.000000, 8.000000) rotate(-270.000000) translate(-8.000000, -8.000000) translate(0.333333, 0.000000)">
                                    <line x1="0.333333333" y1="0" x2="0.333333333" y2="16" id="直线"></line>
                                    <line x1="1" y1="0" x2="1" y2="16" id="直线"></line>
                                    <line x1="1.66666667" y1="0" x2="1.66666667" y2="16" id="直线备份"></line>
                                    <line x1="2.33333333" y1="0" x2="2.33333333" y2="16" id="直线备份-2"></line>
                                    <line x1="3" y1="0" x2="3" y2="16" id="直线备份-3"></line>
                                    <line x1="3.66666667" y1="0" x2="3.66666667" y2="16" id="直线备份-4"></line>
                                    <line x1="4.33333333" y1="0" x2="4.33333333" y2="16" id="直线备份-5"></line>
                                    <line x1="5" y1="0" x2="5" y2="16" id="直线备份-6"></line>
                                    <line x1="5.66666667" y1="0" x2="5.66666667" y2="16" id="直线备份-7"></line>
                                    <line x1="6.33333333" y1="0" x2="6.33333333" y2="16" id="直线备份-8"></line>
                                    <line x1="7" y1="0" x2="7" y2="16" id="直线备份-9"></line>
                                    <line x1="7.66666667" y1="0" x2="7.66666667" y2="16" id="直线备份-10"></line>
                                    <line x1="8.33333333" y1="0" x2="8.33333333" y2="16" id="直线备份-11"></line>
                                    <line x1="9" y1="0" x2="9" y2="16" id="直线备份-12"></line>
                                    <line x1="9.66666667" y1="0" x2="9.66666667" y2="16" id="直线备份-13"></line>
                                    <line x1="10.3333333" y1="0" x2="10.3333333" y2="16" id="直线备份-14"></line>
                                    <line x1="11" y1="0" x2="11" y2="16" id="直线备份-15"></line>
                                    <line x1="11.6666667" y1="0" x2="11.6666667" y2="16" id="直线备份-16"></line>
                                    <line x1="12.3333333" y1="0" x2="12.3333333" y2="16" id="直线备份-17"></line>
                                    <line x1="13" y1="0" x2="13" y2="16" id="直线备份-18"></line>
                                    <line x1="13.6666667" y1="0" x2="13.6666667" y2="16" id="直线备份-19"></line>
                                    <line x1="14.3333333" y1="0" x2="14.3333333" y2="16" id="直线备份-20"></line>
                                    <line x1="15" y1="0" x2="15" y2="16" id="直线备份-21"></line>
                                </g>
                            </g>
                            <g id="Keyline" opacity="0" transform="translate(0.666667, 1.333333)" stroke="#1E86FF" stroke-opacity="0.05" stroke-width="0.5">
                                <rect id="正方形-大" x="1.58333333" y="0.916666667" width="11.5" height="11.5" rx="0.666666667"></rect>
                                <rect id="正方形-小" x="3.58333333" y="2.91666667" width="7.5" height="7.5" rx="0.666666667"></rect>
                                <rect id="矩形-竖" x="2.25" y="0.25" width="10.1666667" height="12.8333333" rx="0.666666667"></rect>
                                <rect id="矩形-横" x="0.916666667" y="1.58333333" width="12.8333333" height="10.1666667" rx="0.666666667"></rect>
                                <circle id="圆形" cx="7.33333333" cy="6.66666667" r="6.41666667"></circle>
                                <path d="M7.33333333,0.498965873 L14.2330548,12.4166667 L0.433611821,12.4166667 L7.33333333,0.498965873 Z" id="三角形"></path>
                            </g>
                            <g id="icon" transform="translate(1.333333, 1.333333)" fill="#1E86FF" fill-rule="nonzero">
                                <path d="M6.66666667,0 C10.348565,0 13.3333333,2.98476833 13.3333333,6.66666667 C13.3333333,10.348565 10.348565,13.3333333 6.66666667,13.3333333 C2.98476833,13.3333333 0,10.348565 0,6.66666667 C0,2.98476833 2.98476833,0 6.66666667,0 Z M6.66666667,8.4 C6.22483887,8.4 5.86666667,8.7581722 5.86666667,9.2 C5.86666667,9.6418278 6.22483887,10 6.66666667,10 C7.10849447,10 7.46666667,9.6418278 7.46666667,9.2 C7.46666667,8.7581722 7.10849447,8.4 6.66666667,8.4 Z M6.66666667,3.33333333 C6.29847683,3.33333333 6,3.63181017 6,4 L6,7.33333333 L6.00448515,7.41108075 C6.04299523,7.74263987 6.32477611,8 6.66666667,8 C7.0348565,8 7.33333333,7.70152317 7.33333333,7.33333333 L7.33333333,4 L7.32884818,3.92225258 C7.29033811,3.59069346 7.00855723,3.33333333 6.66666667,3.33333333 Z" id="形状结合"></path>
                            </g>
                        </g>
                    </g>
                </g>
            </g>
        </g>
    </g>
</svg>