<?xml version="1.0" encoding="UTF-8"?>
<svg width="20px" height="20px" viewBox="0 0 20 20" version="1.1" xmlns="http://www.w3.org/2000/svg" xmlns:xlink="http://www.w3.org/1999/xlink">
    <g id="2023-02-17" stroke="none" stroke-width="1" fill="none" fill-rule="evenodd">
        <g id="状态标识" transform="translate(-847.000000, -375.000000)">
            <g id="编组-10备份" transform="translate(694.000000, 206.000000)">
                <g id="编组-5" transform="translate(8.000000, 28.000000)">
                    <g id="编组-20" transform="translate(20.000000, 141.000000)">
                        <g id="01图标-/-01通用图标-/-03实色填充-/-办公-/-文件盒" transform="translate(126.000000, 1.000000)">
                            <rect id="背景" fill="#FFCF66" opacity="0" x="0" y="0" width="18" height="18"></rect>
                            <g id="网格" opacity="0" transform="translate(0.000000, 0.000000)" stroke="#FFCF66" stroke-linecap="square" stroke-width="0.5">
                                <g id="竖线" transform="translate(0.375000, 0.000000)">
                                    <line x1="0.375" y1="0" x2="0.375" y2="18" id="直线"></line>
                                    <line x1="1.125" y1="0" x2="1.125" y2="18" id="直线"></line>
                                    <line x1="1.875" y1="0" x2="1.875" y2="18" id="直线备份"></line>
                                    <line x1="2.625" y1="0" x2="2.625" y2="18" id="直线备份-2"></line>
                                    <line x1="3.375" y1="0" x2="3.375" y2="18" id="直线备份-3"></line>
                                    <line x1="4.125" y1="0" x2="4.125" y2="18" id="直线备份-4"></line>
                                    <line x1="4.875" y1="0" x2="4.875" y2="18" id="直线备份-5"></line>
                                    <line x1="5.625" y1="0" x2="5.625" y2="18" id="直线备份-6"></line>
                                    <line x1="6.375" y1="0" x2="6.375" y2="18" id="直线备份-7"></line>
                                    <line x1="7.125" y1="0" x2="7.125" y2="18" id="直线备份-8"></line>
                                    <line x1="7.875" y1="0" x2="7.875" y2="18" id="直线备份-9"></line>
                                    <line x1="8.625" y1="0" x2="8.625" y2="18" id="直线备份-10"></line>
                                    <line x1="9.375" y1="0" x2="9.375" y2="18" id="直线备份-11"></line>
                                    <line x1="10.125" y1="0" x2="10.125" y2="18" id="直线备份-12"></line>
                                    <line x1="10.875" y1="0" x2="10.875" y2="18" id="直线备份-13"></line>
                                    <line x1="11.625" y1="0" x2="11.625" y2="18" id="直线备份-14"></line>
                                    <line x1="12.375" y1="0" x2="12.375" y2="18" id="直线备份-15"></line>
                                    <line x1="13.125" y1="0" x2="13.125" y2="18" id="直线备份-16"></line>
                                    <line x1="13.875" y1="0" x2="13.875" y2="18" id="直线备份-17"></line>
                                    <line x1="14.625" y1="0" x2="14.625" y2="18" id="直线备份-18"></line>
                                    <line x1="15.375" y1="0" x2="15.375" y2="18" id="直线备份-19"></line>
                                    <line x1="16.125" y1="0" x2="16.125" y2="18" id="直线备份-20"></line>
                                    <line x1="16.875" y1="0" x2="16.875" y2="18" id="直线备份-21"></line>
                                </g>
                                <g id="横线" transform="translate(9.000000, 9.000000) rotate(-270.000000) translate(-9.000000, -9.000000) translate(0.375000, 0.000000)">
                                    <line x1="0.375" y1="0" x2="0.375" y2="18" id="直线"></line>
                                    <line x1="1.125" y1="0" x2="1.125" y2="18" id="直线"></line>
                                    <line x1="1.875" y1="0" x2="1.875" y2="18" id="直线备份"></line>
                                    <line x1="2.625" y1="0" x2="2.625" y2="18" id="直线备份-2"></line>
                                    <line x1="3.375" y1="0" x2="3.375" y2="18" id="直线备份-3"></line>
                                    <line x1="4.125" y1="0" x2="4.125" y2="18" id="直线备份-4"></line>
                                    <line x1="4.875" y1="0" x2="4.875" y2="18" id="直线备份-5"></line>
                                    <line x1="5.625" y1="0" x2="5.625" y2="18" id="直线备份-6"></line>
                                    <line x1="6.375" y1="0" x2="6.375" y2="18" id="直线备份-7"></line>
                                    <line x1="7.125" y1="0" x2="7.125" y2="18" id="直线备份-8"></line>
                                    <line x1="7.875" y1="0" x2="7.875" y2="18" id="直线备份-9"></line>
                                    <line x1="8.625" y1="0" x2="8.625" y2="18" id="直线备份-10"></line>
                                    <line x1="9.375" y1="0" x2="9.375" y2="18" id="直线备份-11"></line>
                                    <line x1="10.125" y1="0" x2="10.125" y2="18" id="直线备份-12"></line>
                                    <line x1="10.875" y1="0" x2="10.875" y2="18" id="直线备份-13"></line>
                                    <line x1="11.625" y1="0" x2="11.625" y2="18" id="直线备份-14"></line>
                                    <line x1="12.375" y1="0" x2="12.375" y2="18" id="直线备份-15"></line>
                                    <line x1="13.125" y1="0" x2="13.125" y2="18" id="直线备份-16"></line>
                                    <line x1="13.875" y1="0" x2="13.875" y2="18" id="直线备份-17"></line>
                                    <line x1="14.625" y1="0" x2="14.625" y2="18" id="直线备份-18"></line>
                                    <line x1="15.375" y1="0" x2="15.375" y2="18" id="直线备份-19"></line>
                                    <line x1="16.125" y1="0" x2="16.125" y2="18" id="直线备份-20"></line>
                                    <line x1="16.875" y1="0" x2="16.875" y2="18" id="直线备份-21"></line>
                                </g>
                            </g>
                            <g id="Keyline" opacity="0" transform="translate(0.750000, 1.500000)" stroke="#FFCF66" stroke-opacity="0.05" stroke-width="0.5">
                                <rect id="正方形-大" x="1.75" y="1" width="13" height="13" rx="0.75"></rect>
                                <rect id="正方形-小" x="4" y="3.25" width="8.5" height="8.5" rx="0.75"></rect>
                                <rect id="矩形-竖" x="2.5" y="0.25" width="11.5" height="14.5" rx="0.75"></rect>
                                <rect id="矩形-横" x="1" y="1.75" width="14.5" height="11.5" rx="0.75"></rect>
                                <circle id="圆形" cx="8.25" cy="7.5" r="7.25"></circle>
                                <path d="M8.25,0.498965873 L16.0663882,14 L0.433611821,14 L8.25,0.498965873 Z" id="三角形"></path>
                            </g>
                            <path d="M9,3 C9.71496716,3 10.3621407,3.40968395 10.6710167,4.04591171 L10.7249005,4.16781451 L14.75775,14.25 L15,14.25 C15.4142136,14.25 15.75,14.5857864 15.75,15 C15.75,15.3846269 15.4604699,15.7016304 15.0874658,15.7449542 L15,15.75 L3,15.75 C2.58578644,15.75 2.25,15.4142136 2.25,15 C2.25,14.6153731 2.53953014,14.2983696 2.91253416,14.2550458 L3,14.25 L3.2415,14.25 L7.27509947,4.16781451 C7.55722737,3.46249477 8.24034739,3 9,3 Z M11.643023,10.5 L6.35825372,10.5 L5.76722002,12 L12.2410841,12 L11.643023,10.5 Z M10.4425979,7.5 L7.55517197,7.5 L6.95769846,9 L11.0433648,9 L10.4425979,7.5 Z" id="形状结合" fill="#FFCF66" fill-rule="nonzero"></path>
                        </g>
                    </g>
                </g>
            </g>
        </g>
    </g>
</svg>