<svg xml:space="preserve" viewBox="0 0 24 24" xmlns="http://www.w3.org/2000/svg"><path clip-rule="evenodd" fill="none" d="M0 0h24v24H0z"/><path d="M11.257 2.331a1.001 1.001 0 0 1 1.487 0l9 10c.578.644.122 1.669-.744 1.669h-2v6a1 1 0 0 1-.883.993L18 21H6a1 1 0 0 1-1-1v-5.996l-2.005.001c-.828 0-1.282-.938-.813-1.583l.07-.086 9.005-10.005zm.742 2.163-6.759 7.51.76.001a1 1 0 0 1 .993.883l.007.117V19h10v-6a1 1 0 0 1 .883-.993L18 12h.755l-6.756-7.506zm3.52 9.952a1 1 0 0 1 .341 1.373A4.49 4.49 0 0 1 12.003 18a4.486 4.486 0 0 1-3.146-1.283 4.546 4.546 0 0 1-.712-.899 1 1 0 0 1 1.648-1.127l.066.096A2.491 2.491 0 0 0 12.003 16a2.488 2.488 0 0 0 2.027-1.036l.117-.177a1 1 0 0 1 1.372-.341z"/></svg>