<svg t="1629859503074" class="icon" viewBox="0 0 1024 1024" version="1.1" xmlns="http://www.w3.org/2000/svg" p-id="1295" width="200" height="200"><path d="M848.77687082 90.53748005a85.65116198 85.65116198 0 0 1 32.54744119 6.22618038c10.21225397 4.15078693 19.15291735 10.0541283 26.808814 17.71002494a86.62626755 86.62626755 0 0 1 18.1909888 26.80881399c4.46703743 10.21225397 6.70055659 21.37984799 6.70055657 33.50936975v674.00875688c0 24.25245584-7.82060998 44.36071326-23.45524146 60.31818376-15.63463147 15.95747047-35.26192419 23.93620532-58.88187899 23.93620532H175.72345316c-25.53063491 0-46.1198562-8.30157385-61.75448768-24.89813388-15.63463147-16.58997153-23.45524146-37.33731766-23.45524063-62.22886304V173.82994055c0-22.33518723 7.66248431-41.8043551 22.98086527-58.39432663C128.81297107 98.82587689 149.23747901 90.53748005 174.7681131 90.53748005h674.00875772zM626.65705401 808.5907005c11.49043305 0 19.78541839-2.71448301 24.89154538-8.13686051 5.10612698-5.42896599 7.66248431-12.61048645 7.66248516-21.54456133 0-8.30157385-2.55635815-15.31838095-7.66248516-21.06359748-5.10612698-5.74521653-13.40111233-8.61123587-24.89154537-8.61123587H568.25613889c0.63908954-1.27817908 0.95534006-3.19544688 0.95534005-5.74521652V268.61283411h59.36284369c11.48384454 0 19.46257938-2.87260784 23.93620532-8.61782438 4.46703743-5.74521653 6.70055659-12.7686113 6.7005566-21.06359747 0-8.30157385-2.24010764-15.31838095-6.7005566-21.06359747-4.47362595-5.74521653-12.4523616-8.61782437-23.93620532-8.61782437H394.96407278c-11.48384454 0-19.46257938 2.87260784-23.92961682 8.61782437-4.46703743 5.74521653-6.70714507 12.7686113-6.70714425 21.06359747 0 8.30157385 2.24010764 15.31838095 6.70714425 21.06359747 4.46703743 5.74521653 12.44577228 8.61782437 23.92961682 8.61782438h53.617628v474.86980618c0 1.27159058 0.15812485 2.23351913 0.48096387 2.87260785 0.31625051 0.63250105 0.47437537 1.59442959 0.47437536 2.87260868H396.88792991c-11.49043305 0-19.78541839 2.86601935-24.89154538 8.61123586-5.10612698 5.74521653-7.66248431 12.7686113-7.66248432 21.06359747 0 8.9340749 2.55635815 16.11559534 7.66248432 21.54456134 5.10612698 5.42237751 13.40111233 8.1368605 24.89154538 8.13686051h229.77571261z" p-id="1296"></path></svg>
