<svg xml:space="preserve" viewBox="0 0 24 24" xmlns="http://www.w3.org/2000/svg"><path clip-rule="evenodd" fill="none" d="M0 0h24v24H0z"/><path d="M20 11a1 1 0 0 1 .993.883L21 12v6a3 3 0 0 1-2.824 2.995L18 21H6a3 3 0 0 1-2.995-2.824L3 18v-6a1 1 0 0 1 1.993-.117L5 12v6a1 1 0 0 0 .883.993L6 19h12a1 1 0 0 0 .993-.883L19 18v-6a1 1 0 0 1 1-1zm-8-8a1 1 0 0 1 .993.883L13 4v9.585l2.293-2.292a1 1 0 0 1 1.32-.083l.094.083a1 1 0 0 1 .083 1.32l-.083.094-4 4a1.142 1.142 0 0 1-.09.08l.09-.08a1.024 1.024 0 0 1-.187.147c-.012.007-.024.015-.037.021a1.161 1.161 0 0 1-.113.053l-.06.022-.046.014a1.538 1.538 0 0 1-.065.016l-.052.009a.607.607 0 0 1-.063.007c-.018.001-.035.003-.053.003L12 17l-.032-.001-.054-.003L12 17c-.051 0-.1-.004-.149-.011l-.052-.009c-.022-.004-.044-.01-.065-.015a.618.618 0 0 1-.046-.014c-.02-.006-.039-.014-.059-.021a.817.817 0 0 1-.113-.054l-.036-.021a.958.958 0 0 1-.074-.05l-.018-.013a.99.99 0 0 1-.094-.083l-4-4a.999.999 0 0 1 1.32-1.497l.094.083L11 13.585V4a1 1 0 0 1 1-1z"/></svg>