<?xml version="1.0" encoding="UTF-8"?>
<svg width="36px" height="20px" viewBox="0 0 36 20" version="1.1" xmlns="http://www.w3.org/2000/svg" xmlns:xlink="http://www.w3.org/1999/xlink">
    <g id="工作台" stroke="none" stroke-width="1" fill="none" fill-rule="evenodd">
        <g id="流程图-输入" transform="translate(-726.000000, -670.000000)">
            <g id="矩形备份-6" transform="translate(96.000000, 380.000000)">
                <g id="编组-6" transform="translate(36.000000, 92.000000)">
                    <g id="编组-7" transform="translate(596.000000, 200.000000)">
                        <rect id="矩形" stroke="#F8F9FA" stroke-width="2" fill="#FFC036" x="-1" y="-1" width="34" height="18" rx="8"></rect>
                        <g id="KCP" transform="translate(6.000000, 4.000000)" fill="#FFFFFF" fill-rule="nonzero">
                            <polygon id="路径" points="4.54831933 7.79624665 1.78571429 4.3002681 1.76470588 4.3002681 1.76470588 7.79624665 0 7.79624665 0 0.203753351 1.76470588 0.203753351 1.76470588 3.2922252 1.79621849 3.2922252 4.45378151 0.203753351 6.70168067 0.203753351 3.49789916 3.6997319 6.8907563 7.79624665"></polygon>
                            <path d="M13.592437,6.74530831 C13.2633053,7.13136729 12.8571429,7.43699732 12.3739496,7.66219839 C11.8907563,7.88739946 11.3340336,8 10.7037815,8 C10.1295518,8 9.59908964,7.90348525 9.11239496,7.71045576 C8.62570028,7.51742627 8.20378151,7.24396783 7.84663866,6.89008043 C7.4894958,6.53619303 7.20938375,6.11260054 7.00630252,5.61930295 C6.80322129,5.12600536 6.70168067,4.58266309 6.70168067,3.98927614 C6.70168067,3.38159071 6.80497199,2.8310992 7.01155462,2.33780161 C7.21813725,1.84450402 7.5035014,1.42448615 7.86764706,1.07774799 C8.23179272,0.73100983 8.65896359,0.464700626 9.14915966,0.278820375 C9.63935574,0.0929401251 10.1680672,0 10.7352941,0 C11.2605042,0 11.7769608,0.0947274352 12.2846639,0.284182306 C12.7923669,0.473637176 13.2037815,0.750670241 13.5189076,1.1152815 L12.3004202,2.35924933 C12.1323529,2.1233244 11.9117647,1.94816801 11.6386555,1.83378016 C11.3655462,1.71939231 11.0854342,1.66219839 10.7983193,1.66219839 C10.4831933,1.66219839 10.1943277,1.72117962 9.93172269,1.83914209 C9.66911765,1.95710456 9.44327731,2.11974978 9.25420168,2.32707775 C9.06512605,2.53440572 8.91806723,2.7792672 8.81302521,3.0616622 C8.70798319,3.34405719 8.65546218,3.65326184 8.65546218,3.98927614 C8.65546218,4.33243968 8.70798319,4.64700626 8.81302521,4.93297587 C8.91806723,5.21894549 9.06337535,5.46380697 9.24894958,5.66756032 C9.43452381,5.87131367 9.65686275,6.03038427 9.91596639,6.14477212 C10.17507,6.25915996 10.4586835,6.31635389 10.7668067,6.31635389 C11.1239496,6.31635389 11.4355742,6.24486148 11.7016807,6.10187668 C11.9677871,5.95889187 12.1813725,5.77301162 12.342437,5.54423592 L13.592437,6.74530831 Z" id="路径"></path>
                            <path d="M20,2.54155496 C20,2.98480786 19.9194678,3.35835567 19.7584034,3.66219839 C19.5973389,3.96604111 19.3802521,4.21090259 19.1071429,4.39678284 C18.8340336,4.58266309 18.5189076,4.71849866 18.1617647,4.80428954 C17.8046218,4.89008043 17.4334734,4.93297587 17.0483193,4.93297587 L16.1554622,4.93297587 L16.1554622,7.79624665 L14.3592437,7.79624665 L14.3592437,0.203753351 L17.0903361,0.203753351 C17.4964986,0.203753351 17.8764006,0.244861483 18.230042,0.327077748 C18.5836835,0.409294013 18.8918067,0.54155496 19.1544118,0.72386059 C19.4170168,0.90616622 19.6235994,1.14566577 19.7741597,1.44235925 C19.9247199,1.73905273 20,2.1054513 20,2.54155496 Z M18.2037815,2.55227882 C18.2037815,2.37354781 18.1687675,2.22698838 18.0987395,2.11260054 C18.0287115,1.99821269 17.9341737,1.90884718 17.8151261,1.84450402 C17.6960784,1.78016086 17.5612745,1.73726542 17.4107143,1.71581769 C17.2601541,1.69436997 17.1043417,1.68364611 16.9432773,1.68364611 L16.1554622,1.68364611 L16.1554622,3.47453083 L16.9117647,3.47453083 C17.0798319,3.47453083 17.2408964,3.46023235 17.394958,3.43163539 C17.5490196,3.40303843 17.6873249,3.35299374 17.8098739,3.28150134 C17.932423,3.21000894 18.0287115,3.1152815 18.0987395,2.99731903 C18.1687675,2.87935657 18.2037815,2.73100983 18.2037815,2.55227882 Z" id="形状"></path>
                        </g>
                    </g>
                </g>
            </g>
        </g>
    </g>
</svg>