<svg xml:space="preserve" viewBox="0 0 24 24" xmlns="http://www.w3.org/2000/svg"><path clip-rule="evenodd" fill="none" d="M0 0h24v24H0z"/><path d="M12.707 6.293a1 1 0 0 1 .083 1.32l-.083.094L8.415 12l4.292 4.293a1 1 0 0 1 .083 1.32l-.083.094a1 1 0 0 1-1.32.083l-.094-.083-5-5a1 1 0 0 1-.083-1.32l.083-.094 5-5a.999.999 0 0 1 1.414 0zm5 0a1 1 0 0 1 .083 1.32l-.083.094L13.415 12l4.292 4.293a1 1 0 0 1 .083 1.32l-.083.094a1 1 0 0 1-1.32.083l-.094-.083-5-5a1 1 0 0 1-.083-1.32l.083-.094 5-5a.999.999 0 0 1 1.414 0z"/></svg>