<?xml version="1.0" encoding="UTF-8"?>
<svg width="36px" height="36px" viewBox="0 0 36 36" version="1.1" xmlns="http://www.w3.org/2000/svg" xmlns:xlink="http://www.w3.org/1999/xlink">
    <title></title>
    <g id="页面-1" stroke="none" stroke-width="1" fill="none" fill-rule="evenodd">
        <g id="编组" transform="translate(-2.000000, -2.000000)" fill="#FFFFFF">
            <g id="编组-2" transform="translate(2.000000, 2.000000)">
                <path d="M34.9203322,0 C35.5155337,0 35.9972316,0.491863678 35.9972316,1.09149524 L35.9972316,1.09149524 L36,16.0159656 C36,16.6100706 35.5127653,17.099171 34.9203322,17.099171 C34.3223624,17.099171 33.8351277,16.6100706 33.8351277,16.0159656 C32.8551215,8.405895 26.3549677,2.52840037 18.4844663,2.52840037 C9.93017533,2.52840037 3.00369117,9.45870433 3.00369117,18.0055266 C3.00369117,26.5551121 9.93017533,33.485416 18.4844663,33.485416 C26.3660412,33.485416 32.8772685,27.6051581 33.8351277,19.9812711 C33.8351277,19.3871661 34.3223624,18.8980657 34.9203322,18.8980657 C35.5127653,18.8980657 36,19.3871661 36,19.9812711 L36,19.9812711 L35.9972316,34.911268 C35.9972316,35.5136629 35.5099969,36 34.9147954,36 L34.9147954,36 L1.08520455,35.9889469 C0.484466318,35.9889469 0,35.5219527 0,34.9195579 L0,34.9195579 L0,1.0832054 C0,0.483573841 0.490003076,0 1.09074131,0 L1.09074131,0 Z M18.5,4 C26.2319865,4 32.5,10.2680135 32.5,18 C32.5,25.7319865 26.2319865,32 18.5,32 C10.7680135,32 4.5,25.7319865 4.5,18 C4.5,10.2680135 10.7680135,4 18.5,4 Z M18.5,5.6 C11.6516691,5.6 6.1,11.1516691 6.1,18 C6.1,24.8483309 11.6516691,30.4 18.5,30.4 C25.3483309,30.4 30.9,24.8483309 30.9,18 C30.9,11.1516691 25.3483309,5.6 18.5,5.6 Z M23.5305603,7.35251799 L25.5971223,9.05508163 L25.5971223,16.5594583 L24.2194143,17.9398445 L25.5971223,19.3123728 L25.5971223,26.8010335 L23.5305603,28.5035971 L12.5035971,28.5035971 L12.5035971,7.35251799 L23.5305603,7.35251799 Z M21.1169218,20.3129563 L16.9811482,20.3129563 L16.9811482,24.0690737 L21.1169218,24.0690737 L21.1169218,20.3129563 Z M21.1169218,11.7844221 L16.9811482,11.7844221 L16.9811482,15.5431588 L21.1169218,15.5431588 L21.1169218,11.7844221 Z" id="形状结合"></path>
            </g>
        </g>
    </g>
</svg>
