
<?xml version="1.0" encoding="utf-8"?>
<!-- Generator: Adobe Illustrator 27.1.1, SVG Export Plug-In . SVG Version: 6.00 Build 0)  -->
<svg version="1.1" id="图层_1" xmlns="http://www.w3.org/2000/svg" xmlns:xlink="http://www.w3.org/1999/xlink" x="0px" y="0px"
	 viewBox="0 0 24 24" style="enable-background:new 0 0 24 24;" xml:space="preserve">
<style type="text/css">
	.st0{fill-rule:evenodd;clip-rule:evenodd;fill:#FFFFFF;fill-opacity:0;}
</style>
<rect id="背景" class="st0" width="24" height="24"/>
<path id="icon" d="M9,21c-0.6,0-1-0.4-1-1c0-0.5,0.4-0.9,0.9-1H9h2v-2H6c-1.6,0-2.9-1.2-3-2.8V14V6c0-1.7,1.3-3,3-3h12
	c1.7,0,3,1.3,3,3v8c0,1.7-1.3,3-3,3h-5v2h2c0.6,0,1,0.4,1,1c0,0.5-0.4,0.9-0.9,1H15H9z"/>
</svg>
