<?xml version="1.0" encoding="UTF-8"?>
<svg width="18px" height="18px" viewBox="0 0 18 18" version="1.1" xmlns="http://www.w3.org/2000/svg" xmlns:xlink="http://www.w3.org/1999/xlink">
    <g id="页面-1" stroke="none" stroke-width="1" fill="none" fill-rule="evenodd">
        <g id="项目管理" transform="translate(-1338.000000, -298.000000)" fill-rule="nonzero">
            <g id="编组-3备份" transform="translate(90.000000, 232.000000)">
                <g id="编组-19" transform="translate(0.000000, 50.000000)">
                    <g id="编组-2" transform="translate(1180.000000, 16.000000)">
                        <g id="审批默认" transform="translate(68.000000, 0.000000)">
                            <rect id="矩形" fill-opacity="0.01" fill="#FFFFFF" x="0" y="0" width="18" height="18"></rect>
                            <path d="M9.35340473,11.2278311 L9.35340473,12.9198779 C8.87980316,12.7438127 8.3328351,12.6418164 7.76260449,12.6418164 C5.1273756,12.6418164 2.99080024,14.8165244 2.99080024,17.4987858 C2.99080024,17.4993929 2.99080024,17.4993929 2.99080024,17.5 L2.99080024,17.5 L1.4,17.4993929 C1.4,17.4987858 1.4,17.4981786 1.4,17.4975715 C1.4,13.9210207 4.24876714,11.0214099 7.76260449,11.0214099 C8.3280633,11.0214099 8.87562783,11.096693 9.39754392,11.236938 L9.35340473,11.2266169 L9.35340473,11.2278311 Z M7.76260449,10.2139388 C5.12618264,10.2139388 2.99080024,8.04044498 2.99080024,5.35696939 C2.99080024,2.6734938 5.12618264,0.5 7.76260449,0.5 C10.3990263,0.5 12.5344087,2.6734938 12.5344087,5.35696939 C12.5344087,8.04044498 10.3990263,10.2139388 7.76260449,10.2139388 Z M7.76260449,8.59535374 C9.52041788,8.59535374 10.9436085,7.14615549 10.9436085,5.35757652 C10.9436085,3.56899754 9.51982141,2.11979929 7.76260449,2.11979929 C6.00538758,2.11979929 4.58160048,3.56899754 4.58160048,5.35757652 C4.58160048,7.14615549 6.00538758,8.59535374 7.76260449,8.59535374 L7.76260449,8.59535374 Z M12.5344087,13.4523231 L12.5344087,11.0238384 L14.125209,11.0238384 L14.125209,13.4523231 L16.5111111,13.4523231 L16.5111111,15.0715153 L14.125209,15.0715153 L14.125209,17.5 L12.5344087,17.5 L12.5344087,15.0715153 L10.1485066,15.0715153 L10.1485066,13.4523231 L12.5344087,13.4523231 Z" id="形状" fill="#1E86FF"></path>
                        </g>
                    </g>
                </g>
            </g>
        </g>
    </g>
</svg>