<?xml version="1.0" encoding="UTF-8"?>
<svg width="20px" height="20px" viewBox="0 0 20 20" version="1.1" xmlns="http://www.w3.org/2000/svg" xmlns:xlink="http://www.w3.org/1999/xlink">
    <title></title>
    <g id="优化" stroke="none" stroke-width="1" fill="none" fill-rule="evenodd">
        <g id="项目列表" transform="translate(-20.000000, -372.000000)" fill="#FFFFFF" fill-rule="nonzero">
            <g id="编组-47" transform="translate(0.000000, 358.000000)">
                <g id="编组-6" transform="translate(18.000000, 14.000000)">
                    <g id="编组-38" transform="translate(2.000000, 0.000000)">
                        <path d="M2.79982,3 L17.20018,3 C17.641791,3 18,3.34826451 18,3.77761573 L18,3.77761573 L18,16.2223843 C18,16.6517355 17.641791,17 17.20018,17 L17.20018,17 L2.79982,17 C2.35820896,17 2,16.6517355 2,16.2223843 L2,16.2223843 L2,3.77761573 C2,3.34826451 2.35820896,3 2.79982,3 L2.79982,3 Z M12.2344559,8.28347014 L10.2742069,10.1892996 L8.57736443,8.53898079 L5.18307958,11.839035 L6.31410785,12.9386641 L8.57736443,10.7388225 L10.2742069,12.3885579 L13.3654841,9.3830993 L14.80012,10.7779074 L14.80012,6.88866203 L10.79982,6.88866203 L12.2344559,8.28347014 L12.2344559,8.28347014 Z" id="形状"></path>
                    </g>
                </g>
            </g>
        </g>
    </g>
</svg>