<?xml version="1.0" encoding="UTF-8"?>
<svg width="20px" height="20px" viewBox="0 0 20 20" version="1.1" xmlns="http://www.w3.org/2000/svg" xmlns:xlink="http://www.w3.org/1999/xlink">
    <title></title>
    <g id="优化" stroke="none" stroke-width="1" fill="none" fill-rule="evenodd">
        <g id="项目列表" transform="translate(-20.000000, -96.000000)" fill="#FFFFFF" fill-rule="nonzero">
            <g id="编组-19备份" transform="translate(0.000000, 82.000000)">
                <g id="编组-10" transform="translate(18.000000, 14.000000)">
                    <path d="M18.5459566,18.1349773 C18.5459566,18.6125892 18.1795991,19 17.7279422,19 L17.7279422,19 L6.27267149,19 C5.82101459,19 5.45465703,18.6125892 5.45465703,18.1349773 L5.45465703,18.1349773 L5.45465703,10.3478261 L3,10.3478261 L11.4495432,2.22517846 C11.5943679,2.08565866 11.7876722,2 12,2 C12.2123278,2 12.4056321,2.08565866 12.5510705,2.22582738 L12.5504568,2.22517846 L21,10.3478261 L18.545343,10.3478261 L18.545343,18.1349773 L18.5459566,18.1349773 Z M8.72732851,13.8085659 L8.72732851,15.5392602 L15.2732851,15.5392602 L15.2732851,13.8085659 L8.72732851,13.8085659 Z" id="形状"></path>
                </g>
            </g>
        </g>
    </g>
</svg>