<?xml version="1.0" encoding="UTF-8"?>
<svg width="20px" height="20px" viewBox="0 0 20 20" version="1.1" xmlns="http://www.w3.org/2000/svg" xmlns:xlink="http://www.w3.org/1999/xlink">
    <title></title>
    <g id="优化" stroke="none" stroke-width="1" fill="none" fill-rule="evenodd">
        <g id="项目列表" transform="translate(-20.000000, -441.000000)" fill="#FFFFFF" fill-rule="nonzero">
            <g id="编组-48" transform="translate(0.000000, 427.000000)">
                <g id="编组-6备份-2" transform="translate(18.000000, 14.000000)">
                    <g id="编组-26" transform="translate(2.000000, 0.000000)">
                        <path d="M5.006,5.2585899 C6.35733333,4.20744339 8.09533333,3.57161226 9.98733333,3.57161226 C9.992,3.57161226 9.996,3.57161226 10.0006667,3.57161226 L10,3.57161226 C11.8886667,3.57161226 13.6246667,4.20230016 14.994,5.2585899 L16.2853333,4.01328666 L17.542,5.22515894 L16.2506667,6.47046218 C17.3406667,7.77748411 18,9.45738981 18,11.2851632 C18,15.5456818 14.418,19 10,19 C5.582,19 2,15.5456818 2,11.2851632 C2,9.45674691 2.65933333,7.77748411 3.76133333,6.4550325 L3.74933333,6.46981927 L2.458,5.22515894 L3.71466667,4.01328666 L5.006,5.2585899 Z M10.8886667,10.4294592 L10.8886667,6.56754054 L6.444,12.1434388 L9.11066667,12.1434388 L9.11066667,16.0008572 L13.5553333,10.4288163 L10.8886667,10.4288163 L10.8886667,10.4294592 Z M6.44466667,1 L13.556,1 L13.556,2.71462247 L6.44466667,2.71462247 L6.44466667,1 Z" id="形状"></path>
                    </g>
                </g>
            </g>
        </g>
    </g>
</svg>