
<?xml version="1.0" encoding="utf-8"?>
<!-- Generator: Adobe Illustrator 27.1.1, SVG Export Plug-In . SVG Version: 6.00 Build 0)  -->
<svg version="1.1" id="图层_1" xmlns="http://www.w3.org/2000/svg" xmlns:xlink="http://www.w3.org/1999/xlink" x="0px" y="0px"
	 viewBox="0 0 24 24" style="enable-background:new 0 0 24 24;" xml:space="preserve">
<style type="text/css">
	.st0{fill-rule:evenodd;clip-rule:evenodd;fill:#FFFFFF;fill-opacity:0;}
</style>
<rect id="背景" class="st0" width="24" height="24"/>
<path id="icon" d="M17,3c1.7,0,3,1.3,3,3v12c0,1.7-1.3,3-3,3H7c-1.7,0-3-1.3-3-3V6c0-1.7,1.3-3,3-3H17z M15,14H9l-0.1,0
	C8.4,14.1,8,14.5,8,15c0,0.6,0.4,1,1,1h6l0.1,0c0.5-0.1,0.9-0.5,0.9-1C16,14.4,15.6,14,15,14z M15,11H9l-0.1,0C8.4,11.1,8,11.5,8,12
	c0,0.6,0.4,1,1,1h6l0.1,0c0.5-0.1,0.9-0.5,0.9-1C16,11.4,15.6,11,15,11z M10,7H9C8.4,7,8,7.4,8,8v1c0,0.6,0.4,1,1,1h1
	c0.6,0,1-0.4,1-1V8C11,7.4,10.6,7,10,7z M15,7.5h-2l-0.1,0C12.4,7.6,12,8,12,8.5c0,0.6,0.4,1,1,1h2l0.1,0C15.6,9.4,16,9,16,8.5
	C16,7.9,15.6,7.5,15,7.5z"/>
</svg>
