<?xml version="1.0" encoding="UTF-8"?>
<svg width="20px" height="20px" viewBox="0 0 20 20" version="1.1" xmlns="http://www.w3.org/2000/svg" xmlns:xlink="http://www.w3.org/1999/xlink">
    <title></title>
    <g id="优化" stroke="none" stroke-width="1" fill="none" fill-rule="evenodd">
        <g id="项目列表" transform="translate(-20.000000, -165.000000)" fill="#FFFFFF" fill-rule="nonzero">
            <g id="编组-19" transform="translate(0.000000, 151.000000)">
                <g id="编组-10" transform="translate(18.000000, 14.000000)">
                    <g id="任务" transform="translate(2.000000, 0.000000)">
                        <path d="M7.60033,11.6 L7.60033,14.00015 L12.40027,14.00015 L12.40027,11.6 L18,11.6 L18,17.20015 C18,17.6417776 17.6418045,18 17.20021,18 L17.20021,18 L2.80039,18 C2.35879552,18 2.00059999,17.6417776 2.00059999,17.20015 L2.00059999,17.20015 L2.00059999,11.6 L7.60033,11.6 Z M9.20050999,10.0003 L10.80069,10.0003 L10.80069,12.40045 L9.20050999,12.40045 L9.20050999,10.0003 L9.20050999,10.0003 Z M6.00015,5.2 L6.00015,2.79984999 C6.00015,2.35822239 6.35834552,2 6.79994,2 L6.79994,2 L13.20006,2 C13.6416545,2 13.99985,2.35822239 13.99985,2.79984999 L13.99985,2.79984999 L13.99985,5.2 L17.19961,5.2 C17.6412045,5.2 17.9994,5.55822239 17.9994,5.99984999 L17.9994,5.99984999 L17.9994,10.0003 L12.39967,10.0003 L12.39967,8.4 L7.59973,8.4 L7.59973,10.0003 L2,10.0003 L2,5.99984999 C2,5.55822239 2.35819552,5.2 2.79979,5.2 L2.79979,5.2 L5.99955001,5.2 L6.00015,5.2 Z M7.60033,3.59969998 L7.60033,5.2 L12.40027,5.2 L12.40027,3.59969998 L7.60033,3.59969998 Z" id="形状"></path>
                    </g>
                </g>
            </g>
        </g>
    </g>
</svg>