<?xml version="1.0" encoding="UTF-8"?>
<svg width="20px" height="20px" viewBox="0 0 20 20" version="1.1" xmlns="http://www.w3.org/2000/svg" xmlns:xlink="http://www.w3.org/1999/xlink">
    <title></title>
    <g id="优化" stroke="none" stroke-width="1" fill="none" fill-rule="evenodd">
        <g id="项目列表" transform="translate(-20.000000, -510.000000)" fill="#FFFFFF" fill-rule="nonzero">
            <g id="编组-49" transform="translate(0.000000, 496.000000)">
                <g id="编组-6备份-3" transform="translate(18.000000, 14.000000)">
                    <g id="编组-27" transform="translate(2.000000, 0.000000)">
                        <path d="M11.778,17.2998088 L10,19 L8.222,17.2998088 L3.77333333,17.2998088 C2.794,17.2998088 2,16.5405557 2,15.6040799 L2,15.6040799 L2,3.6957288 C2,2.75925301 2.794,2 3.77333333,2 L16.2266667,2 C17.206,2 18,2.75925301 18,3.6957288 L18,15.6040799 C18,16.5405557 17.206,17.2998088 16.2266667,17.2998088 L16.2266667,17.2998088 L11.778,17.2998088 Z M4.984,14.7498406 L15.1973333,14.7498406 C14.06,13.2000975 12.1993333,12.1998725 10.0946667,12.1998725 C10.0933333,12.1998725 10.092,12.1998725 10.0906667,12.1998725 L10.0906667,12.1998725 C10.0893333,12.1998725 10.088,12.1998725 10.0866667,12.1998725 C7.982,12.1998725 6.12133333,13.2000975 4.99733333,14.7307159 L4.984,14.7498406 Z M10,10.4996813 C11.718,10.4996813 13.1113333,9.1679604 13.1113333,7.52450594 C13.1113333,5.88105149 11.7186667,4.54933063 10,4.54933063 L10,4.54933063 C8.282,4.54933063 6.88866667,5.88105149 6.88866667,7.52450594 C6.88866667,9.1679604 8.28133333,10.4996813 10,10.4996813 L10,10.4996813 Z" id="形状"></path>
                    </g>
                </g>
            </g>
        </g>
    </g>
</svg>