<?xml version="1.0" encoding="UTF-8"?>
<svg width="20px" height="20px" viewBox="0 0 20 20" version="1.1" xmlns="http://www.w3.org/2000/svg" xmlns:xlink="http://www.w3.org/1999/xlink">
    <title></title>
    <g id="优化" stroke="none" stroke-width="1" fill="none" fill-rule="evenodd">
        <g id="项目列表" transform="translate(-20.000000, -303.000000)" fill="#FFFFFF" fill-rule="nonzero">
            <g id="编组-46" transform="translate(0.000000, 289.000000)">
                <g id="编组-12" transform="translate(18.000000, 14.000000)">
                    <g id="编组-37" transform="translate(2.000000, 0.000000)">
                        <path d="M16.2223843,18 L3.77761573,18 C3.34826451,18 3,17.641791 3,17.20018 L3,17.20018 L3,2.79982 C3,2.35820896 3.34826451,2 3.77761573,2 L3.77761573,2 L16.2223843,2 C16.6517355,2 17,2.35820896 17,2.79982 L17,2.79982 L17,17.20018 C17,17.641791 16.6517355,18 16.2223843,18 L16.2223843,18 Z M6.11046294,5.19988 L6.11046294,8.39975999 L9.22150923,8.39975999 L9.22150923,5.19988 L6.11046294,5.19988 Z M6.11046294,10 L6.11046294,11.60024 L13.8883703,11.60024 L13.8883703,10 L6.11046294,10 Z M6.11046294,13.19988 L6.11046294,14.80012 L13.8883703,14.80012 L13.8883703,13.19988 L6.11046294,13.19988 Z M10.7773241,5.99969999 L10.7773241,7.59994 L13.8883703,7.59994 L13.8883703,5.99969999 L10.7773241,5.99969999 Z" id="形状"></path>
                    </g>
                </g>
            </g>
        </g>
    </g>
</svg>