<svg xml:space="preserve" viewBox="0 0 24 24" xmlns="http://www.w3.org/2000/svg"><path clip-rule="evenodd" fill="none" d="M0 0h24v24H0z"/><path d="M16 3c1.054 0 1.918.816 1.995 1.851L18 5v6.002a1 1 0 0 1-1.993.117L16 11.002V5H5v13a1 1 0 0 0 .883.993L6 19h7a1 1 0 0 1 .117 1.993L13 21H6a3 3 0 0 1-2.995-2.824L3 18V5c0-1.054.816-1.918 1.851-1.995L5 3h11zm1 10.6a.9.9 0 0 1 .893.787l.007.113-.001 1.6H19.5a.9.9 0 0 1 .113 1.793l-.113.007-1.601-.001.001 1.601a.9.9 0 0 1-1.793.113L16.1 19.5v-1.601l-1.6.001a.9.9 0 0 1-.113-1.793l.113-.007h1.6v-1.6a.9.9 0 0 1 .9-.9zM11 15a1 1 0 0 1 .117 1.993L11 17H8a1 1 0 0 1-.117-1.993L8 15h3zm1-3a1 1 0 0 1 .117 1.993L12 14H8a1 1 0 0 1-.117-1.993L8 12h4zm-2-5a1 1 0 0 1 1 1v2a1 1 0 0 1-1 1H8a1 1 0 0 1-1-1V8a1 1 0 0 1 1-1h2z"/></svg>