<svg xml:space="preserve" viewBox="0 0 24 24" xmlns="http://www.w3.org/2000/svg"><path clip-rule="evenodd" fill="none" d="M0 0h24v24H0z"/><path d="M16 3c1.054 0 1.918.816 1.995 1.851L18 5v4h2.5a1.5 1.5 0 0 1 1.493 1.356L22 10.5V18a3 3 0 0 1-3 3H6a3 3 0 0 1-2.995-2.824L3 18V5c0-1.054.816-1.918 1.851-1.995L5 3h11zm0 2H5v13a1 1 0 0 0 .883.993L6 19l10.171.001A2.99 2.99 0 0 1 16 18V5zm4 6h-2v7a1 1 0 0 0 .883.993L19 19a1 1 0 0 0 1-1v-7zm-7 4a1 1 0 0 1 .117 1.993L13 17H8a1 1 0 0 1-.117-1.993L8 15h5zm0-3a1 1 0 0 1 .117 1.993L13 14H8a1 1 0 0 1-.117-1.993L8 12h5zm-3-5a1 1 0 0 1 1 1v2a1 1 0 0 1-1 1H8a1 1 0 0 1-1-1V8a1 1 0 0 1 1-1h2z"/></svg>