<svg xml:space="preserve" viewBox="0 0 24 24" xmlns="http://www.w3.org/2000/svg"><path clip-rule="evenodd" fill="none" d="M0 0h24v24H0z"/><path d="M14.899 2c.796 0 1.559.316 2.121.879l4.101 4.101c.563.562.879 1.325.879 2.121V14.9c0 .796-.316 1.559-.879 2.121l-4.101 4.101a3 3 0 0 1-2.121.878H9.101a2.996 2.996 0 0 1-2.121-.879L2.879 17.02A2.996 2.996 0 0 1 2 14.899V9.101c0-.796.316-1.559.879-2.121L6.98 2.879A2.996 2.996 0 0 1 9.101 2h5.798zm0 2H9.101a.997.997 0 0 0-.707.293l-4.101 4.1A1 1 0 0 0 4 9.101V14.9c0 .265.105.52.293.707l4.101 4.101a.999.999 0 0 0 .707.292H14.9c.265 0 .52-.105.707-.293l4.101-4.101a.999.999 0 0 0 .292-.707V9.101a.997.997 0 0 0-.293-.707l-4.101-4.101A.996.996 0 0 0 14.899 4zM16 11a1 1 0 0 1 .117 1.993L16 13H8a1 1 0 0 1-.117-1.993L8 11h8z"/></svg>