<svg t="1666261687395" class="icon" viewBox="0 0 1024 1024" version="1.1" xmlns="http://www.w3.org/2000/svg" p-id="26650" width="200" height="200"><path d="M936.5 213.1H360.1c-12.7 0-23-10.3-23-23s10.3-23 23-23h576.5c12.7 0 23 10.3 23 23s-10.3 23-23.1 23zM163.1 270c-6.1 0-12-2.4-16.3-6.7L73.5 190c-9-9-9-23.5 0-32.5s23.5-9 32.5 0l57 57 109.7-109.7c9-9 23.5-9 32.5 0s9 23.5 0 32.5L179.3 263.2c-4.3 4.3-10.1 6.8-16.2 6.8zM360.1 535.3c-12.7 0-23-10.3-23-23s10.3-23 23-23l576.5-0.5c12.7 0 23 10.3 23 23s-10.3 23-23 23l-576.5 0.5zM163.1 592.4c-6.1 0-11.9-2.4-16.3-6.7l-73.3-73.2c-9-9-9-23.5 0-32.5s23.5-9 32.5 0l57.1 57 109.6-109.8c9-9 23.5-9 32.5 0s9 23.5 0 32.5l-125.8 126c-4.3 4.2-10.2 6.7-16.3 6.7z" p-id="26651"></path><path d="M936.5 868H360.1c-12.7 0-23-10.3-23-23s10.3-23 23-23h576.5c12.7 0 23 10.3 23 23s-10.3 23-23.1 23zM163.1 924.9c-6.1 0-12-2.4-16.3-6.7l-73.3-73.3c-9-9-9-23.5 0-32.5s23.5-9 32.5 0l57 57 109.7-109.7c9-9 23.5-9 32.5 0s9 23.5 0 32.5L179.3 918.1c-4.3 4.4-10.1 6.8-16.2 6.8z" p-id="26652"></path></svg>