<?xml version="1.0" encoding="UTF-8"?>
<svg width="20px" height="20px" viewBox="0 0 20 20" version="1.1" xmlns="http://www.w3.org/2000/svg" xmlns:xlink="http://www.w3.org/1999/xlink">
    <title></title>
    <g id="页面-1" stroke="none" stroke-width="1" fill="none" fill-rule="evenodd">
        <g id="项目管理-二级导航" transform="translate(-1191.000000, -30.000000)">
            <g id="编组-8" transform="translate(1191.000000, 30.000000)">
                <rect id="矩形" stroke="#979797" fill="#D8D8D8" opacity="0" x="0.5" y="0.5" width="19" height="19"></rect>
                <path d="M11.7307755,17.2329972 C11.7316774,18.1884265 10.9871374,18.9711886 10.0507907,18.9992258 C9.11444388,19.0272631 8.32616326,18.2903986 8.27210994,17.3365608 L8.26922531,17.2329972 L11.7307755,17.2329972 Z M10,1 C12.9365477,1 15.4150171,3.00595525 15.4150171,5.63682234 L15.4150171,11.2316075 L17.1965612,14.5079815 C17.8917557,15.3282518 17.3154077,16.59514 16.2480966,16.59514 L3.75190336,16.59514 C2.68459229,16.59514 2.10824432,15.3282518 2.80343883,14.5079815 L4.5849829,11.2316075 L4.5849829,5.63623392 C4.5849829,3.00654367 7.06345226,1 10,1 Z M10,2.7652877 C7.90576262,2.7652877 6.3157576,4.10337578 6.3157576,5.63682234 L6.3157576,11.6882286 L4.60748297,14.8304407 L15.392517,14.8304407 L13.6842424,11.6882286 L13.6842424,5.63682234 C13.6842424,4.10337578 12.0936605,2.7652877 10,2.7652877 Z" id="形状" fill="#454545" fill-rule="nonzero"></path>
            </g>
        </g>
    </g>
</svg>