<svg xml:space="preserve" viewBox="0 0 24 24" xmlns="http://www.w3.org/2000/svg"><path clip-rule="evenodd" fill="none" d="M0 0h24v24H0z"/><path d="M5.559 9.001 4 9a1 1 0 0 1-.117-1.993L4 7l1.312-.001 5.098-3.185a3 3 0 0 1 2.995-.107l.185.107 5.097 3.185L20 7a1 1 0 0 1 .117 1.993L20 9l-1.543.001A1.11 1.11 0 0 1 18.328 9l-12.694.002-.075-.001zm6.022-3.551-.111.06-2.383 1.489h5.825L12.53 5.51a1 1 0 0 0-.949-.06zM20 10a1 1 0 0 1 .117 1.993L20 12l-1-.001v7L20 19a1 1 0 0 1 .117 1.993L20 21H4a1 1 0 0 1-.117-1.993L4 19l1-.001v-7L4 12a1 1 0 0 1-.117-1.993L4 10h16zM9 11.999H7v7h2v-7zm4 0h-2v7h2v-7zm4 0h-2v7h2v-7z"/></svg>