<?xml version="1.0" encoding="UTF-8"?>
<svg width="22px" height="22px" viewBox="0 0 22 22" version="1.1" xmlns="http://www.w3.org/2000/svg" xmlns:xlink="http://www.w3.org/1999/xlink">
    <defs>
        <path d="M0.833333333,0 L9.65816215,0 C9.87940177,1.35156017e-15 10.0915609,0.0879764125 10.2478785,0.24453876 L13.0897164,3.09082568 C13.2457148,3.24706836 13.3333333,3.45883237 13.3333333,3.67962026 L13.3333333,15.8333333 C13.3333333,16.2935706 12.9602373,16.6666667 12.5,16.6666667 L0.833333333,16.6666667 C0.373096042,16.6666667 -2.76704095e-16,16.2935706 0,15.8333333 L0,0.833333333 C5.46594899e-17,0.373096042 0.373096042,-1.37500386e-16 0.833333333,0 Z" id="path-1"></path>
    </defs>
    <g id="项目" stroke="none" stroke-width="1" fill="none" fill-rule="evenodd">
        <g id="节点反馈-浮窗" transform="translate(-688.000000, -477.000000)">
            <g id="编组-10备份-2" transform="translate(665.000000, 382.000000)">
                <g id="编组-5" transform="translate(0.000000, 22.000000)">
                    <g id="01图标-/-02文件格式-/-pdf" transform="translate(24.000000, 74.000000)">
                        <rect id="背景" fill="#FFFFFF" opacity="0" x="0" y="0" width="20" height="20"></rect>
                        <g id="编组-12" transform="translate(3.333333, 1.666667)">
                            <mask id="mask-2" fill="white">
                                <use xlink:href="#path-1"></use>
                            </mask>
                            <use id="矩形" fill="#FF4C4C" xlink:href="#path-1"></use>
                            <path d="M5.34886823,11.0095568 C4.91338621,11.7867737 4.51891295,12.2494349 4.16544844,12.3975406 C3.63525167,12.619699 3.23272235,12.4605736 3.35555392,12.1126342 C3.47838549,11.7646947 4.85251138,11.037956 6.57016875,10.6129657 C8.28782611,10.1879755 8.96258138,10.3160409 9.39271724,10.4300037 C9.82285309,10.5439666 10,10.8196232 10,10.91459 C10,11.0095568 9.92398986,11.2243609 8.97488906,11.0705893 C8.02578825,10.9168176 6.74062288,9.33409775 6.22663727,8.60046534 C5.71265166,7.86683292 5.82757192,6.92040598 6.22663727,6.70192773 C6.62570262,6.48344947 6.83514115,7.30012004 6.57016875,8.60046534 C6.39352048,9.4673622 5.98642031,10.2703927 5.34886823,11.0095568 Z" id="路径-105" stroke="#FFFFFF" stroke-width="0.833333333" mask="url(#mask-2)"></path>
                            <path d="M9.58333333,-1.00592232 L14.3392557,3.75 L9.58333333,3.75 L9.58333333,-1.00592232 Z" id="路径-99" stroke-opacity="0.101786153" stroke="#000000" stroke-width="0.833333333" fill="#FF9F9F" mask="url(#mask-2)"></path>
                        </g>
                        <g id="网格" opacity="0" transform="translate(0.000000, 0.000000)" stroke="#979797" stroke-linecap="square" stroke-width="0.5">
                            <g id="竖线" transform="translate(0.416667, 0.000000)">
                                <line x1="0.416666667" y1="0" x2="0.416666667" y2="20" id="直线"></line>
                                <line x1="1.25" y1="0" x2="1.25" y2="20" id="直线"></line>
                                <line x1="2.08333333" y1="0" x2="2.08333333" y2="20" id="直线备份"></line>
                                <line x1="2.91666667" y1="0" x2="2.91666667" y2="20" id="直线备份-2"></line>
                                <line x1="3.75" y1="0" x2="3.75" y2="20" id="直线备份-3"></line>
                                <line x1="4.58333333" y1="0" x2="4.58333333" y2="20" id="直线备份-4"></line>
                                <line x1="5.41666667" y1="0" x2="5.41666667" y2="20" id="直线备份-5"></line>
                                <line x1="6.25" y1="0" x2="6.25" y2="20" id="直线备份-6"></line>
                                <line x1="7.08333333" y1="0" x2="7.08333333" y2="20" id="直线备份-7"></line>
                                <line x1="7.91666667" y1="0" x2="7.91666667" y2="20" id="直线备份-8"></line>
                                <line x1="8.75" y1="0" x2="8.75" y2="20" id="直线备份-9"></line>
                                <line x1="9.58333333" y1="0" x2="9.58333333" y2="20" id="直线备份-10"></line>
                                <line x1="10.4166667" y1="0" x2="10.4166667" y2="20" id="直线备份-11"></line>
                                <line x1="11.25" y1="0" x2="11.25" y2="20" id="直线备份-12"></line>
                                <line x1="12.0833333" y1="0" x2="12.0833333" y2="20" id="直线备份-13"></line>
                                <line x1="12.9166667" y1="0" x2="12.9166667" y2="20" id="直线备份-14"></line>
                                <line x1="13.75" y1="0" x2="13.75" y2="20" id="直线备份-15"></line>
                                <line x1="14.5833333" y1="0" x2="14.5833333" y2="20" id="直线备份-16"></line>
                                <line x1="15.4166667" y1="0" x2="15.4166667" y2="20" id="直线备份-17"></line>
                                <line x1="16.25" y1="0" x2="16.25" y2="20" id="直线备份-18"></line>
                                <line x1="17.0833333" y1="0" x2="17.0833333" y2="20" id="直线备份-19"></line>
                                <line x1="17.9166667" y1="0" x2="17.9166667" y2="20" id="直线备份-20"></line>
                                <line x1="18.75" y1="0" x2="18.75" y2="20" id="直线备份-21"></line>
                            </g>
                            <g id="横线" transform="translate(10.000000, 10.000000) rotate(-270.000000) translate(-10.000000, -10.000000) translate(0.416667, 0.000000)">
                                <line x1="0.416666667" y1="0" x2="0.416666667" y2="20" id="直线"></line>
                                <line x1="1.25" y1="0" x2="1.25" y2="20" id="直线"></line>
                                <line x1="2.08333333" y1="0" x2="2.08333333" y2="20" id="直线备份"></line>
                                <line x1="2.91666667" y1="0" x2="2.91666667" y2="20" id="直线备份-2"></line>
                                <line x1="3.75" y1="0" x2="3.75" y2="20" id="直线备份-3"></line>
                                <line x1="4.58333333" y1="0" x2="4.58333333" y2="20" id="直线备份-4"></line>
                                <line x1="5.41666667" y1="0" x2="5.41666667" y2="20" id="直线备份-5"></line>
                                <line x1="6.25" y1="0" x2="6.25" y2="20" id="直线备份-6"></line>
                                <line x1="7.08333333" y1="0" x2="7.08333333" y2="20" id="直线备份-7"></line>
                                <line x1="7.91666667" y1="0" x2="7.91666667" y2="20" id="直线备份-8"></line>
                                <line x1="8.75" y1="0" x2="8.75" y2="20" id="直线备份-9"></line>
                                <line x1="9.58333333" y1="0" x2="9.58333333" y2="20" id="直线备份-10"></line>
                                <line x1="10.4166667" y1="0" x2="10.4166667" y2="20" id="直线备份-11"></line>
                                <line x1="11.25" y1="0" x2="11.25" y2="20" id="直线备份-12"></line>
                                <line x1="12.0833333" y1="0" x2="12.0833333" y2="20" id="直线备份-13"></line>
                                <line x1="12.9166667" y1="0" x2="12.9166667" y2="20" id="直线备份-14"></line>
                                <line x1="13.75" y1="0" x2="13.75" y2="20" id="直线备份-15"></line>
                                <line x1="14.5833333" y1="0" x2="14.5833333" y2="20" id="直线备份-16"></line>
                                <line x1="15.4166667" y1="0" x2="15.4166667" y2="20" id="直线备份-17"></line>
                                <line x1="16.25" y1="0" x2="16.25" y2="20" id="直线备份-18"></line>
                                <line x1="17.0833333" y1="0" x2="17.0833333" y2="20" id="直线备份-19"></line>
                                <line x1="17.9166667" y1="0" x2="17.9166667" y2="20" id="直线备份-20"></line>
                                <line x1="18.75" y1="0" x2="18.75" y2="20" id="直线备份-21"></line>
                            </g>
                        </g>
                        <g id="Keyline" opacity="0" transform="translate(0.833333, 1.666667)" stroke="#000000" stroke-opacity="0.05" stroke-width="0.5">
                            <rect id="正方形-大" x="1.91666667" y="1.08333333" width="14.5" height="14.5" rx="0.833333333"></rect>
                            <rect id="正方形-小" x="4.41666667" y="3.58333333" width="9.5" height="9.5" rx="0.833333333"></rect>
                            <rect id="矩形-竖" x="2.75" y="0.25" width="12.8333333" height="16.1666667" rx="0.833333333"></rect>
                            <rect id="矩形-横" x="1.08333333" y="1.91666667" width="16.1666667" height="12.8333333" rx="0.833333333"></rect>
                            <circle id="圆形" cx="9.16666667" cy="8.33333333" r="8.08333333"></circle>
                            <path d="M9.16666667,0.498965873 L17.8997215,15.5833333 L0.433611821,15.5833333 L9.16666667,0.498965873 Z" id="三角形"></path>
                        </g>
                    </g>
                </g>
            </g>
        </g>
    </g>
</svg>