<svg xml:space="preserve" viewBox="0 0 24 24" xmlns="http://www.w3.org/2000/svg"><path clip-rule="evenodd" fill="none" d="M0 0h24v24H0z"/><path d="M15 2a1 1 0 0 1 .993.883L16 3h1.5A2.5 2.5 0 0 1 20 5.5v13a2.5 2.5 0 0 1-2.5 2.5h-11A2.5 2.5 0 0 1 4 18.5v-13A2.5 2.5 0 0 1 6.5 3H8a1 1 0 0 1 1.993-.117L10 3h4a1 1 0 0 1 1-1zM8 5H6.5a.5.5 0 0 0-.5.5v13a.5.5 0 0 0 .5.5h11a.5.5 0 0 0 .5-.5v-13a.5.5 0 0 0-.5-.5H16v1a1 1 0 0 1-1.993.117L14 6V5h-4v1a1 1 0 0 1-1.993.117L8 6V5zm7.207 5.293a1 1 0 0 1 .083 1.32l-.083.094-3 3a1 1 0 0 1-1.32.083l-.094-.083-2-2a.999.999 0 0 1 1.32-1.497l.094.083 1.293 1.292 2.293-2.292a.999.999 0 0 1 1.414 0z"/></svg>