<?xml version="1.0" standalone="no"?><!DOCTYPE svg PUBLIC "-//W3C//DTD SVG 1.1//EN" "http://www.w3.org/Graphics/SVG/1.1/DTD/svg11.dtd"><svg t="1627462667116" class="icon" viewBox="0 0 1024 1024" version="1.1" xmlns="http://www.w3.org/2000/svg" p-id="6598" width="32" height="32" xmlns:xlink="http://www.w3.org/1999/xlink"><defs><style type="text/css">@font-face { font-family: feedback-iconfont; src: url("//at.alicdn.com/t/font_1031158_1uhr8ri0pk5.eot?#iefix") format("embedded-opentype"), url("//at.alicdn.com/t/font_1031158_1uhr8ri0pk5.woff2") format("woff2"), url("//at.alicdn.com/t/font_1031158_1uhr8ri0pk5.woff") format("woff"), url("//at.alicdn.com/t/font_1031158_1uhr8ri0pk5.ttf") format("truetype"), url("//at.alicdn.com/t/font_1031158_1uhr8ri0pk5.svg#iconfont") format("svg"); }
</style></defs><path d="M277.333333 298.666667v490.666666h437.333334v64h-405.333334a96 96 0 0 1-95.893333-91.477333L213.333333 757.333333V298.666667h64z m472.789334-127.786667a64 64 0 0 1 64 64v451.242667a64 64 0 0 1-64 64H319.786667V234.88a64 64 0 0 1 64-64h366.336z m0 64H383.786667v451.242667h366.336V234.88z m-89.962667 126.378667l45.013333 45.482666-170.112 168.405334-88.341333-88.32 45.226667-45.248 43.328 43.306666 124.885333-123.626666z" p-id="6599" fill="#1E86FF"></path></svg>