<?xml version="1.0" encoding="UTF-8"?>
<svg width="18px" height="18px" viewBox="0 0 18 18" version="1.1" xmlns="http://www.w3.org/2000/svg" xmlns:xlink="http://www.w3.org/1999/xlink">
    <title></title>
    <g id="优化" stroke="none" stroke-width="1" fill="none" fill-rule="evenodd">
        <g id="项目计划备份" transform="translate(-1778.000000, -312.000000)" fill-rule="nonzero">
            <g id="编组-21" transform="translate(110.000000, 247.000000)">
                <g id="编组-20" transform="translate(1668.000000, 65.000000)">
                    <rect id="矩形" fill-opacity="0.01" fill="#FFFFFF" x="0" y="0" width="18" height="18"></rect>
                    <path d="M9.89492382,11.4785991 L9.89492382,13.1313357 C9.42480461,12.9593609 8.88185837,12.8597342 8.31582064,12.8597342 C5.69996842,12.8597342 3.57910318,14.9839188 3.57910318,17.6038651 C3.57910318,17.6044581 3.57910318,17.6044581 3.57910318,17.6050511 L3.57910318,17.6050511 L2,17.6044581 C2,17.6038651 2,17.6032721 2,17.602679 C2,14.1092197 4.82782032,11.2769735 8.31582064,11.2769735 C8.87712165,11.2769735 9.42065998,11.3505076 9.93873845,11.4874943 L9.89492382,11.4774131 L9.89492382,11.4785991 Z M8.31582064,10.4882618 C5.69878424,10.4882618 3.57910318,8.36526319 3.57910318,5.74413088 C3.57910318,3.12299857 5.69878424,1 8.31582064,1 C10.932857,1 13.0525381,3.12299857 13.0525381,5.74413088 C13.0525381,8.36526319 10.932857,10.4882618 8.31582064,10.4882618 Z M8.31582064,8.90728015 C10.0607089,8.90728015 11.4734349,7.4917501 11.4734349,5.7447239 C11.4734349,3.9976977 10.0601168,2.58216765 8.31582064,2.58216765 C6.57152443,2.58216765 5.15820636,3.9976977 5.15820636,5.7447239 C5.15820636,7.4917501 6.57152443,8.90728015 8.31582064,8.90728015 L8.31582064,8.90728015 Z M13.0525381,13.651411 L13.0525381,10.8838037 L17,14.4419018 L13.0525381,18 L13.0525381,15.2323926 L10.6841794,15.2323926 L10.6841794,13.650818 L13.0525381,13.650818 L13.0525381,13.651411 Z" id="形状" fill="#1E86FF"></path>
                </g>
            </g>
        </g>
    </g>
</svg>