<svg xml:space="preserve" viewBox="0 0 24 24" xmlns="http://www.w3.org/2000/svg"><path clip-rule="evenodd" fill="none" d="M0 0h24v24H0z"/><path d="M7 11h.019c.023 0 .047.002.07.004L7 11a1.045 1.045 0 0 1 .201.02c.022.004.044.01.065.015a.618.618 0 0 1 .046.014c.02.006.039.014.059.021a.817.817 0 0 1 .113.054l.036.021c.026.016.05.032.074.05l.018.013.013.01.082.073 3 3a.999.999 0 0 1-1.32 1.497l-.094-.083L8 14.414V17c0 1.054.816 1.918 1.851 1.995L10 19h5a1 1 0 0 1 .117 1.993L15 21h-5a4 4 0 0 1-3.995-3.8L6 17v-2.586l-1.293 1.293a1 1 0 0 1-1.32.083l-.094-.083a1 1 0 0 1-.083-1.32l.083-.094 3-3 .082-.073.009-.007-.09.08a1.024 1.024 0 0 1 .187-.147c.012-.007.024-.015.037-.021a1.161 1.161 0 0 1 .113-.053l.06-.022.046-.014.065-.016.052-.009.058-.007.07-.004H7zm12-8c1.054 0 1.918.816 1.995 1.851L21 5v7a2.001 2.001 0 0 1-1.851 1.995L19 14h-6a2.001 2.001 0 0 1-1.995-1.851L11 12V5c0-1.054.816-1.918 1.851-1.995L13 3h6zm0 2h-6v7h6V5zm-2 4a1 1 0 0 1 .117 1.993L17 11h-2a1 1 0 0 1-.117-1.993L15 9h2zm0-3a1 1 0 0 1 .117 1.993L17 8h-2a1 1 0 0 1-.117-1.993L15 6h2z"/></svg>