<?xml version="1.0" encoding="UTF-8"?>
<svg width="22px" height="22px" viewBox="0 0 22 22" version="1.1" xmlns="http://www.w3.org/2000/svg" xmlns:xlink="http://www.w3.org/1999/xlink">
    <g id="∟-----项目" stroke="none" stroke-width="1" fill="none" fill-rule="evenodd">
        <g id="项目专项计划执行过程中调整节点（以设计为例）-" transform="translate(-91.000000, -21.000000)">
            <g id="头" transform="translate(60.000000, 0.000000)">
                <g id="编组-12" transform="translate(32.000000, 21.000000)">
                    <g id="01图标-/-01通用图标-/-03实色填充-/-办公-/-项目" transform="translate(0.000000, 1.000000)">
                        <rect id="背景" fill="#A3AFBB" opacity="0" x="0" y="0" width="20" height="20"></rect>
                        <g id="网格" opacity="0" transform="translate(0.000000, 0.000000)" stroke="#A3AFBB" stroke-linecap="square" stroke-width="0.5">
                            <g id="竖线" transform="translate(0.416667, 0.000000)">
                                <line x1="0.416666667" y1="0" x2="0.416666667" y2="20" id="直线"></line>
                                <line x1="1.25" y1="0" x2="1.25" y2="20" id="直线"></line>
                                <line x1="2.08333333" y1="0" x2="2.08333333" y2="20" id="直线备份"></line>
                                <line x1="2.91666667" y1="0" x2="2.91666667" y2="20" id="直线备份-2"></line>
                                <line x1="3.75" y1="0" x2="3.75" y2="20" id="直线备份-3"></line>
                                <line x1="4.58333333" y1="0" x2="4.58333333" y2="20" id="直线备份-4"></line>
                                <line x1="5.41666667" y1="0" x2="5.41666667" y2="20" id="直线备份-5"></line>
                                <line x1="6.25" y1="0" x2="6.25" y2="20" id="直线备份-6"></line>
                                <line x1="7.08333333" y1="0" x2="7.08333333" y2="20" id="直线备份-7"></line>
                                <line x1="7.91666667" y1="0" x2="7.91666667" y2="20" id="直线备份-8"></line>
                                <line x1="8.75" y1="0" x2="8.75" y2="20" id="直线备份-9"></line>
                                <line x1="9.58333333" y1="0" x2="9.58333333" y2="20" id="直线备份-10"></line>
                                <line x1="10.4166667" y1="0" x2="10.4166667" y2="20" id="直线备份-11"></line>
                                <line x1="11.25" y1="0" x2="11.25" y2="20" id="直线备份-12"></line>
                                <line x1="12.0833333" y1="0" x2="12.0833333" y2="20" id="直线备份-13"></line>
                                <line x1="12.9166667" y1="0" x2="12.9166667" y2="20" id="直线备份-14"></line>
                                <line x1="13.75" y1="0" x2="13.75" y2="20" id="直线备份-15"></line>
                                <line x1="14.5833333" y1="0" x2="14.5833333" y2="20" id="直线备份-16"></line>
                                <line x1="15.4166667" y1="0" x2="15.4166667" y2="20" id="直线备份-17"></line>
                                <line x1="16.25" y1="0" x2="16.25" y2="20" id="直线备份-18"></line>
                                <line x1="17.0833333" y1="0" x2="17.0833333" y2="20" id="直线备份-19"></line>
                                <line x1="17.9166667" y1="0" x2="17.9166667" y2="20" id="直线备份-20"></line>
                                <line x1="18.75" y1="0" x2="18.75" y2="20" id="直线备份-21"></line>
                            </g>
                            <g id="横线" transform="translate(10.000000, 10.000000) rotate(-270.000000) translate(-10.000000, -10.000000) translate(0.416667, 0.000000)">
                                <line x1="0.416666667" y1="0" x2="0.416666667" y2="20" id="直线"></line>
                                <line x1="1.25" y1="0" x2="1.25" y2="20" id="直线"></line>
                                <line x1="2.08333333" y1="0" x2="2.08333333" y2="20" id="直线备份"></line>
                                <line x1="2.91666667" y1="0" x2="2.91666667" y2="20" id="直线备份-2"></line>
                                <line x1="3.75" y1="0" x2="3.75" y2="20" id="直线备份-3"></line>
                                <line x1="4.58333333" y1="0" x2="4.58333333" y2="20" id="直线备份-4"></line>
                                <line x1="5.41666667" y1="0" x2="5.41666667" y2="20" id="直线备份-5"></line>
                                <line x1="6.25" y1="0" x2="6.25" y2="20" id="直线备份-6"></line>
                                <line x1="7.08333333" y1="0" x2="7.08333333" y2="20" id="直线备份-7"></line>
                                <line x1="7.91666667" y1="0" x2="7.91666667" y2="20" id="直线备份-8"></line>
                                <line x1="8.75" y1="0" x2="8.75" y2="20" id="直线备份-9"></line>
                                <line x1="9.58333333" y1="0" x2="9.58333333" y2="20" id="直线备份-10"></line>
                                <line x1="10.4166667" y1="0" x2="10.4166667" y2="20" id="直线备份-11"></line>
                                <line x1="11.25" y1="0" x2="11.25" y2="20" id="直线备份-12"></line>
                                <line x1="12.0833333" y1="0" x2="12.0833333" y2="20" id="直线备份-13"></line>
                                <line x1="12.9166667" y1="0" x2="12.9166667" y2="20" id="直线备份-14"></line>
                                <line x1="13.75" y1="0" x2="13.75" y2="20" id="直线备份-15"></line>
                                <line x1="14.5833333" y1="0" x2="14.5833333" y2="20" id="直线备份-16"></line>
                                <line x1="15.4166667" y1="0" x2="15.4166667" y2="20" id="直线备份-17"></line>
                                <line x1="16.25" y1="0" x2="16.25" y2="20" id="直线备份-18"></line>
                                <line x1="17.0833333" y1="0" x2="17.0833333" y2="20" id="直线备份-19"></line>
                                <line x1="17.9166667" y1="0" x2="17.9166667" y2="20" id="直线备份-20"></line>
                                <line x1="18.75" y1="0" x2="18.75" y2="20" id="直线备份-21"></line>
                            </g>
                        </g>
                        <g id="Keyline" opacity="0" transform="translate(0.833333, 1.666667)" stroke="#A3AFBB" stroke-opacity="0.05" stroke-width="0.5">
                            <rect id="正方形-大" x="1.91666667" y="1.08333333" width="14.5" height="14.5" rx="0.833333333"></rect>
                            <rect id="正方形-小" x="4.41666667" y="3.58333333" width="9.5" height="9.5" rx="0.833333333"></rect>
                            <rect id="矩形-竖" x="2.75" y="0.25" width="12.8333333" height="16.1666667" rx="0.833333333"></rect>
                            <rect id="矩形-横" x="1.08333333" y="1.91666667" width="16.1666667" height="12.8333333" rx="0.833333333"></rect>
                            <circle id="圆形" cx="9.16666667" cy="8.33333333" r="8.08333333"></circle>
                            <path d="M9.16666667,0.498965873 L17.8997215,15.5833333 L0.433611821,15.5833333 L9.16666667,0.498965873 Z" id="三角形"></path>
                        </g>
                        <path d="M13.3333333,8.33333333" id="路径-41" stroke="#A3AFBB" stroke-width="0.833333333"></path>
                        <path d="M3.6164736,12.5494914 L3.70591034,12.5879269 L10.0016667,15.7341667 L16.2938876,12.5880279 C16.7055085,12.3821477 17.206092,12.5489335 17.4119721,12.9605543 C17.6031466,13.3427736 17.4729917,13.8017006 17.1238561,14.0301507 L17.0394457,14.0786388 L10.3750379,17.4119721 C10.1739604,17.5125449 9.9423541,17.52694 9.7325341,17.4551502 L9.62968182,17.4120731 L2.96075633,14.0787398 C2.5490797,13.8729712 2.38215826,13.372433 2.58792685,12.9607563 C2.77899769,12.5784852 3.22423217,12.4072529 3.6164736,12.5494914 Z M3.6164736,9.21615806 L3.70591034,9.25459352 L10.0016667,12.4008333 L16.2938876,9.25469454 C16.7055085,9.04881436 17.206092,9.21560012 17.4119721,9.62722096 C17.6031466,10.0094403 17.4729917,10.4683673 17.1238561,10.6968173 L17.0394457,10.7453055 L10.3750379,14.0786388 C10.1739604,14.1792116 9.9423541,14.1936066 9.7325341,14.1218168 L9.62968182,14.0787398 L2.96075633,10.7454065 C2.5490797,10.5396379 2.38215826,10.0390996 2.58792685,9.627423 C2.77899769,9.24515184 3.22423217,9.07391959 3.6164736,9.21615806 Z M10.372678,2.58797734 L17.0393447,5.92131067 C17.6535518,6.22841423 17.6535518,7.1049191 17.0393447,7.41202266 L10.372678,10.745356 C10.1380718,10.8626591 9.86192825,10.8626591 9.627322,10.745356 L2.96065534,7.41202266 C2.34644822,7.1049191 2.34644822,6.22841423 2.96065534,5.92131067 L9.627322,2.58797734 C9.86192825,2.47067422 10.1380718,2.47067422 10.372678,2.58797734 Z" id="形状结合" fill="#A3AFBB" fill-rule="nonzero"></path>
                    </g>
                </g>
            </g>
        </g>
    </g>
</svg>