<?xml version="1.0" encoding="UTF-8"?>
<svg width="24px" height="24px" viewBox="0 0 24 24" version="1.1" xmlns="http://www.w3.org/2000/svg" xmlns:xlink="http://www.w3.org/1999/xlink">
    <g id="∟-----工作台" stroke="none" stroke-width="1" fill="none" fill-rule="evenodd">
        <g id="工作台-任务展开" transform="translate(-18.000000, -160.000000)">
            <g id="03导航/01导航菜单/01侧边导航/精简版/导航组件" transform="translate(0.000000, 71.000000)">
                <g id="03导航-/-01导航菜单-/-01侧边导航-/-精简版-/-导航栏-/-按钮-/-常规" transform="translate(0.000000, 74.000000)">
                    <g id="编组-14" transform="translate(18.000000, 16.000000)">
                        <g id="01图标-/-01通用图标-/-03实色填充-/-办公-/-首页" transform="translate(1.000000, 0.000000)">
                            <rect id="背景" fill="#B2D5FF" opacity="0" x="0" y="0" width="22" height="22"></rect>
                            <g id="网格" opacity="0" transform="translate(0.000000, 0.000000)" stroke="#B2D5FF" stroke-linecap="square" stroke-width="0.5">
                                <g id="竖线" transform="translate(0.458333, 0.000000)">
                                    <line x1="0.458333333" y1="0" x2="0.458333333" y2="22" id="直线"></line>
                                    <line x1="1.375" y1="0" x2="1.375" y2="22" id="直线"></line>
                                    <line x1="2.29166667" y1="0" x2="2.29166667" y2="22" id="直线备份"></line>
                                    <line x1="3.20833333" y1="0" x2="3.20833333" y2="22" id="直线备份-2"></line>
                                    <line x1="4.125" y1="0" x2="4.125" y2="22" id="直线备份-3"></line>
                                    <line x1="5.04166667" y1="0" x2="5.04166667" y2="22" id="直线备份-4"></line>
                                    <line x1="5.95833333" y1="0" x2="5.95833333" y2="22" id="直线备份-5"></line>
                                    <line x1="6.875" y1="0" x2="6.875" y2="22" id="直线备份-6"></line>
                                    <line x1="7.79166667" y1="0" x2="7.79166667" y2="22" id="直线备份-7"></line>
                                    <line x1="8.70833333" y1="0" x2="8.70833333" y2="22" id="直线备份-8"></line>
                                    <line x1="9.625" y1="0" x2="9.625" y2="22" id="直线备份-9"></line>
                                    <line x1="10.5416667" y1="0" x2="10.5416667" y2="22" id="直线备份-10"></line>
                                    <line x1="11.4583333" y1="0" x2="11.4583333" y2="22" id="直线备份-11"></line>
                                    <line x1="12.375" y1="0" x2="12.375" y2="22" id="直线备份-12"></line>
                                    <line x1="13.2916667" y1="0" x2="13.2916667" y2="22" id="直线备份-13"></line>
                                    <line x1="14.2083333" y1="0" x2="14.2083333" y2="22" id="直线备份-14"></line>
                                    <line x1="15.125" y1="0" x2="15.125" y2="22" id="直线备份-15"></line>
                                    <line x1="16.0416667" y1="0" x2="16.0416667" y2="22" id="直线备份-16"></line>
                                    <line x1="16.9583333" y1="0" x2="16.9583333" y2="22" id="直线备份-17"></line>
                                    <line x1="17.875" y1="0" x2="17.875" y2="22" id="直线备份-18"></line>
                                    <line x1="18.7916667" y1="0" x2="18.7916667" y2="22" id="直线备份-19"></line>
                                    <line x1="19.7083333" y1="0" x2="19.7083333" y2="22" id="直线备份-20"></line>
                                    <line x1="20.625" y1="0" x2="20.625" y2="22" id="直线备份-21"></line>
                                </g>
                                <g id="横线" transform="translate(11.000000, 11.000000) rotate(-270.000000) translate(-11.000000, -11.000000) translate(0.458333, 0.000000)">
                                    <line x1="0.458333333" y1="0" x2="0.458333333" y2="22" id="直线"></line>
                                    <line x1="1.375" y1="0" x2="1.375" y2="22" id="直线"></line>
                                    <line x1="2.29166667" y1="0" x2="2.29166667" y2="22" id="直线备份"></line>
                                    <line x1="3.20833333" y1="0" x2="3.20833333" y2="22" id="直线备份-2"></line>
                                    <line x1="4.125" y1="0" x2="4.125" y2="22" id="直线备份-3"></line>
                                    <line x1="5.04166667" y1="0" x2="5.04166667" y2="22" id="直线备份-4"></line>
                                    <line x1="5.95833333" y1="0" x2="5.95833333" y2="22" id="直线备份-5"></line>
                                    <line x1="6.875" y1="0" x2="6.875" y2="22" id="直线备份-6"></line>
                                    <line x1="7.79166667" y1="0" x2="7.79166667" y2="22" id="直线备份-7"></line>
                                    <line x1="8.70833333" y1="0" x2="8.70833333" y2="22" id="直线备份-8"></line>
                                    <line x1="9.625" y1="0" x2="9.625" y2="22" id="直线备份-9"></line>
                                    <line x1="10.5416667" y1="0" x2="10.5416667" y2="22" id="直线备份-10"></line>
                                    <line x1="11.4583333" y1="0" x2="11.4583333" y2="22" id="直线备份-11"></line>
                                    <line x1="12.375" y1="0" x2="12.375" y2="22" id="直线备份-12"></line>
                                    <line x1="13.2916667" y1="0" x2="13.2916667" y2="22" id="直线备份-13"></line>
                                    <line x1="14.2083333" y1="0" x2="14.2083333" y2="22" id="直线备份-14"></line>
                                    <line x1="15.125" y1="0" x2="15.125" y2="22" id="直线备份-15"></line>
                                    <line x1="16.0416667" y1="0" x2="16.0416667" y2="22" id="直线备份-16"></line>
                                    <line x1="16.9583333" y1="0" x2="16.9583333" y2="22" id="直线备份-17"></line>
                                    <line x1="17.875" y1="0" x2="17.875" y2="22" id="直线备份-18"></line>
                                    <line x1="18.7916667" y1="0" x2="18.7916667" y2="22" id="直线备份-19"></line>
                                    <line x1="19.7083333" y1="0" x2="19.7083333" y2="22" id="直线备份-20"></line>
                                    <line x1="20.625" y1="0" x2="20.625" y2="22" id="直线备份-21"></line>
                                </g>
                            </g>
                            <g id="Keyline" opacity="0" transform="translate(0.916667, 1.833333)" stroke="#B2D5FF" stroke-opacity="0.05" stroke-width="0.5">
                                <rect id="正方形-大" x="2.08333333" y="1.16666667" width="16" height="16" rx="0.916666667"></rect>
                                <rect id="正方形-小" x="4.83333333" y="3.91666667" width="10.5" height="10.5" rx="0.916666667"></rect>
                                <rect id="矩形-竖" x="3" y="0.25" width="14.1666667" height="17.8333333" rx="0.916666667"></rect>
                                <rect id="矩形-横" x="1.16666667" y="2.08333333" width="17.8333333" height="14.1666667" rx="0.916666667"></rect>
                                <circle id="圆形" cx="10.0833333" cy="9.16666667" r="8.91666667"></circle>
                                <path d="M10.0833333,0.498965873 L19.7330548,17.1666667 L0.433611821,17.1666667 L10.0833333,0.498965873 Z" id="三角形"></path>
                            </g>
                            <path d="M14.6666667,9.16666667" id="路径-41" stroke="#B2D5FF" stroke-width="0.916666667"></path>
                            <path d="M3.97812095,13.8044405 L4.07650137,13.8467195 L11.0018333,17.3075833 L17.9232764,13.8468307 C18.3760593,13.6203625 18.9267011,13.8038268 19.1531693,14.2566097 C19.3634612,14.677051 19.2202909,15.1818706 18.8362417,15.4331657 L18.7433903,15.4865027 L11.4125416,19.1531693 C11.1913565,19.2637994 10.9365895,19.279634 10.7057875,19.2006652 L10.59265,19.1532805 L3.25683196,15.4866138 C2.80398767,15.2602683 2.62037408,14.7096763 2.84671954,14.256832 C3.05689746,13.8363337 3.54665538,13.6479782 3.97812095,13.8044405 Z M19.1531693,10.5899431 C19.3634612,11.0103843 19.2202909,11.515204 18.8362417,11.7664991 L18.7433903,11.819836 L11.4125416,15.4865027 C11.1913565,15.5971328 10.9365895,15.6129673 10.7057875,15.5339985 L10.59265,15.4866138 L3.25683196,11.8199471 C2.80398767,11.5936017 2.62037408,11.0430096 2.84671954,10.5901653 C3.05689746,10.169667 3.54665538,9.98131155 3.97812095,10.1377739 L4.07650137,10.1800529 L11.0018333,13.6409167 L17.9232764,10.180164 C18.3760593,9.9536958 18.9267011,10.1371601 19.1531693,10.5899431 Z M11.4099458,2.84677507 L18.7432791,6.51344174 C19.418907,6.85125566 19.418907,7.81541101 18.7432791,8.15322493 L11.4099458,11.8198916 C11.1518789,11.948925 10.8481211,11.948925 10.5900542,11.8198916 L3.25672087,8.15322493 C2.58109304,7.81541101 2.58109304,6.85125566 3.25672087,6.51344174 L10.5900542,2.84677507 C10.8481211,2.71774164 11.1518789,2.71774164 11.4099458,2.84677507 Z" id="形状结合" fill="#B2D5FF" fill-rule="nonzero"></path>
                        </g>
                    </g>
                </g>
            </g>
        </g>
    </g>
</svg>