<?xml version="1.0" encoding="UTF-8"?>
<svg width="18px" height="18px" viewBox="0 0 18 18" version="1.1" xmlns="http://www.w3.org/2000/svg" xmlns:xlink="http://www.w3.org/1999/xlink">
    <g id="页面-1" stroke="none" stroke-width="1" fill="none" fill-rule="evenodd">
        <g id="项目管理" transform="translate(-1270.000000, -298.000000)" fill-rule="nonzero">
            <g id="编组-3备份" transform="translate(90.000000, 232.000000)">
                <g id="编组-19" transform="translate(0.000000, 50.000000)">
                    <g id="审批默认" transform="translate(1180.000000, 16.000000)">
                        <rect id="矩形" fill-opacity="0.01" fill="#FFFFFF" x="0" y="0" width="18" height="18"></rect>
                        <path d="M9,2.67805678 C13.4182857,2.67805678 17,6.10798321 17,10.3390284 C17,14.5700736 13.4182857,18 9,18 C4.58171427,18 1,14.5700736 1,10.3390284 C1,6.10798323 4.58171427,2.67805678 9,2.67805678 Z M9,4.31969356 C5.52857143,4.31969356 2.71428571,7.01471394 2.71428571,10.3390284 C2.71428571,13.6633429 5.52857143,16.3583632 9,16.3583632 C12.4714286,16.3583632 15.2857143,13.6633428 15.2857143,10.3390284 C15.2857143,7.01471396 12.4714286,4.31969356 9,4.31969356 Z M9.73599999,5.83711314 L9.73599999,9.07879857 L11.6062857,7.28777284 L12.8177143,8.44895725 L9.48514286,11.6408464 C8.94514286,12.1579619 8.02171428,11.7918769 8.02171428,11.0608014 L8.02171428,5.83711314 L9.73599999,5.83711314 Z M11.9085714,0 L11.9085714,1.74122939 L5.84857144,1.74122939 L5.84857144,0 L11.9085714,0 Z" id="形状" fill="#1E86FF"></path>
                    </g>
                </g>
            </g>
        </g>
    </g>
</svg>