<?xml version="1.0" encoding="UTF-8"?>
<svg width="18px" height="18px" viewBox="0 0 18 18" version="1.1" xmlns="http://www.w3.org/2000/svg" xmlns:xlink="http://www.w3.org/1999/xlink">
    <title></title>
    <g id="优化" stroke="none" stroke-width="1" fill="none" fill-rule="evenodd">
        <g id="项目列表" transform="translate(-1730.000000, -308.000000)" fill-rule="nonzero">
            <g id="编组-25备份" transform="translate(1710.000000, 242.000000)">
                <g id="审批默认" transform="translate(20.000000, 66.000000)">
                    <rect id="矩形" fill-opacity="0.01" fill="#FFFFFF" x="0" y="0" width="18" height="18"></rect>
                    <g id="riLine-calendar-check-line" transform="translate(1.000000, 1.000000)" fill="#1E86FF">
                        <path d="M5.59994,0 L5.59994,1.60024001 L10.40006,1.60024001 L10.40006,0 L12.0003,0 L12.0003,1.60024001 L15.20018,1.60024001 C15.641791,1.60024001 16,1.95844896 16,2.40006 L16,2.40006 L16,15.20018 C16,15.641791 15.641791,16 15.20018,16 L15.20018,16 L0.799819995,16 C0.358208955,16 0,15.641791 0,15.20018 L0,15.20018 L0,2.40006 C0,1.95844896 0.358208955,1.60024001 0.799819995,1.60024001 L0.799819995,1.60024001 L3.99969999,1.60024001 L3.99969999,0 L5.59994,0 Z M14.40036,7.20018 L1.60024001,7.20018 L1.60024001,14.40036 L14.40036,14.40036 L14.40036,7.20018 Z M10.4288607,8.10920273 L11.559889,9.24023101 L7.59978999,13.20033 L4.77071927,10.3712593 L5.90354759,9.24023101 L7.60039001,10.9376734 L10.4294607,8.10860272 L10.4288607,8.10920273 Z M3.99969999,3.20048001 L1.59963999,3.20048001 L1.59963999,5.60054001 L14.39976,5.60054001 L14.39976,3.20048001 L11.9997,3.20048001 L11.9997,4.00030001 L10.39946,4.00030001 L10.39946,3.20048001 L5.59933998,3.20048001 L5.59933998,4.00030001 L3.99909998,4.00030001 L3.99909998,3.20048001 L3.99969999,3.20048001 Z" id="形状"></path>
                    </g>
                </g>
            </g>
        </g>
    </g>
</svg>