<?xml version="1.0" encoding="UTF-8"?>
<svg width="16px" height="16px" viewBox="0 0 16 16" version="1.1" xmlns="http://www.w3.org/2000/svg" xmlns:xlink="http://www.w3.org/1999/xlink">
    <title></title>
    <g id="项目管理" stroke="none" stroke-width="1" fill="none" fill-rule="evenodd">
        <g id="项目管理-列表" transform="translate(-1084.000000, -184.000000)">
            <g id="编组-18" transform="translate(1084.000000, 184.000000)">
                <rect id="矩形" fill="#D8D8D8" opacity="0" x="0" y="0" width="16" height="16"></rect>
                <path d="M8,0 C12.418278,0 16,3.581722 16,8 C16,12.418278 12.418278,16 8,16 C3.581722,16 0,12.418278 0,8 C0,3.581722 3.581722,0 8,0 Z M8,1.5 C4.41014913,1.5 1.5,4.41014913 1.5,8 C1.5,11.5898509 4.41014913,14.5 8,14.5 C11.5898509,14.5 14.5,11.5898509 14.5,8 C14.5,4.41014913 11.5898509,1.5 8,1.5 Z M8.19429112,3.54073773 C8.60850468,3.54073773 8.94429112,3.87652416 8.94429112,4.29073773 L8.94453141,7.28957758 L11.9442911,7.29073773 C12.3585047,7.29073773 12.6942911,7.62652416 12.6942911,8.04073773 C12.6942911,8.45495129 12.3585047,8.79073773 11.9442911,8.79073773 L8.94453141,8.79005817 L8.94429112,11.7907377 C8.94429112,12.2049513 8.60850468,12.5407377 8.19429112,12.5407377 C7.78007755,12.5407377 7.44429112,12.2049513 7.44429112,11.7907377 L7.44405082,8.79005817 L4.44429112,8.79073773 C4.03007755,8.79073773 3.69429112,8.45495129 3.69429112,8.04073773 C3.69429112,7.62652416 4.03007755,7.29073773 4.44429112,7.29073773 L7.44405082,7.28957758 L7.44429112,4.29073773 C7.44429112,3.87652416 7.78007755,3.54073773 8.19429112,3.54073773 Z" id="形状结合" fill="#1E86FF" fill-rule="nonzero"></path>
            </g>
        </g>
    </g>
</svg>