<?xml version="1.0" standalone="no"?><!DOCTYPE svg PUBLIC "-//W3C//DTD SVG 1.1//EN" "http://www.w3.org/Graphics/SVG/1.1/DTD/svg11.dtd"><svg t="1666583277079" class="icon" viewBox="0 0 1024 1024" version="1.1" xmlns="http://www.w3.org/2000/svg" p-id="2536" xmlns:xlink="http://www.w3.org/1999/xlink" width="200" height="200"><path d="M511.514 63.894c-114.532 0-229.062 43.51-316.72 131.168-174.677 174.676-174.677 458.764 0 633.44 87.658 87.659 202.188 131.168 316.72 131.168s229.063-43.51 316.72-131.168c174.677-174.676 174.677-458.764 0-633.44-87.657-87.659-202.189-131.168-316.72-131.168z m0 44.79c52.467 0 103.654 10.236 151.642 29.432 49.907 20.475 94.695 49.907 133.086 88.937 39.03 38.39 68.463 83.18 88.937 133.086 19.195 47.988 29.433 99.175 29.433 151.642s-10.238 103.654-29.433 151.642c-20.474 49.907-49.907 94.695-88.937 133.086-38.39 39.03-83.18 68.463-133.086 88.937-47.988 19.196-99.175 29.433-151.642 29.433s-103.654-10.237-151.642-29.433c-49.907-20.475-94.696-49.907-133.086-88.937-39.03-38.39-68.463-83.18-88.937-133.086-19.196-47.988-29.433-99.175-29.433-151.642s10.237-103.654 29.433-151.642c20.475-49.907 49.907-94.695 88.937-133.086 38.39-39.03 83.18-68.463 133.086-88.937 47.988-19.196 99.175-29.433 151.642-29.433z" p-id="2537"></path><path d="M511.514 674.3c-18.556 0-34.551 15.356-34.551 34.551 0 18.556 15.996 33.912 34.55 33.912 19.196 0 34.552-15.356 34.552-33.912 0-19.194-15.356-34.55-34.551-34.55z m0.64-393.5c-42.23 0-76.14 10.877-101.734 33.91-25.593 22.395-41.589 55.027-46.707 97.896l58.225 7.039c4.479-31.992 15.356-55.666 31.352-70.382 15.996-15.356 35.83-22.394 59.505-22.394 24.953 0 46.068 8.317 63.344 24.953 16.636 15.996 24.953 35.191 24.953 57.585 0 11.518-2.56 23.035-8.317 33.272-5.758 10.237-18.556 23.674-37.751 40.95-19.835 17.275-33.272 30.073-40.95 39.03-9.597 12.157-17.275 24.314-21.754 36.47-6.399 15.997-9.598 35.192-9.598 56.946l0.64 17.276h53.746c0.64-22.394 1.92-39.03 4.479-48.628 3.199-10.237 7.038-19.195 12.796-26.873 5.758-7.678 17.276-19.834 35.831-35.83 26.873-24.315 45.429-44.79 55.027-61.426 8.958-16.636 14.076-35.191 14.076-55.026 0-34.55-13.437-63.984-40.31-88.298-26.233-24.314-62.064-36.47-106.852-36.47z" p-id="2538"></path></svg>