<svg xml:space="preserve" viewBox="0 0 24 24" xmlns="http://www.w3.org/2000/svg"><path clip-rule="evenodd" fill="none" d="M0 0h24v24H0z"/><path d="M18 4a3 3 0 0 1 3 3v10a3 3 0 0 1-3 3H6a3 3 0 0 1-3-3V7a3 3 0 0 1 3-3h12zm0 2H6a1 1 0 0 0-1 1v10a1 1 0 0 0 1 1h12a1 1 0 0 0 1-1V7a1 1 0 0 0-1-1zM8 12a1 1 0 0 1 .993.883L9 13v2a1 1 0 0 1-1.993.117L7 15v-2a1 1 0 0 1 1-1zm4-4a1 1 0 0 1 .993.883L13 9v6a1 1 0 0 1-1.993.117L11 15V9a1 1 0 0 1 1-1zm4 2a1 1 0 0 1 .993.883L17 11v4a1 1 0 0 1-1.993.117L15 15v-4a1 1 0 0 1 1-1z"/></svg>