<?xml version="1.0" encoding="UTF-8"?>
<svg width="16px" height="16px" viewBox="0 0 16 16" version="1.1" xmlns="http://www.w3.org/2000/svg" xmlns:xlink="http://www.w3.org/1999/xlink">
    <defs>
        <path d="M21.1277704,18 L26.8722296,18 C28.6552671,18 29.3018396,18.1856512 29.9536914,18.5342654 C30.6055433,18.8828796 31.1171204,19.3944567 31.4657346,20.0463086 C31.8143488,20.6981604 32,21.3447329 32,23.1277704 L32,28.8722296 C32,30.6552671 31.8143488,31.3018396 31.4657346,31.9536914 C31.1171204,32.6055433 30.6055433,33.1171204 29.9536914,33.4657346 C29.3018396,33.8143488 28.6552671,34 26.8722296,34 L21.1277704,34 C19.3447329,34 18.6981604,33.8143488 18.0463086,33.4657346 C17.3944567,33.1171204 16.8828796,32.6055433 16.5342654,31.9536914 C16.1856512,31.3018396 16,30.6552671 16,28.8722296 L16,23.1277704 C16,21.3447329 16.1856512,20.6981604 16.5342654,20.0463086 C16.8828796,19.3944567 17.3944567,18.8828796 18.0463086,18.5342654 C18.6981604,18.1856512 19.3447329,18 21.1277704,18 Z" id="path-1"></path>
        <mask id="mask-2" maskContentUnits="userSpaceOnUse" maskUnits="objectBoundingBox" x="0" y="0" width="16" height="16" fill="white">
            <use xlink:href="#path-1"></use>
        </mask>
    </defs>
    <g id="∟-----项目" stroke="none" stroke-width="1" fill="none" fill-rule="evenodd" stroke-dasharray="2">
        <g id="[节点重叠]效果示例" transform="translate(-722.000000, -653.000000)" stroke="#A3AFBB" stroke-width="2">
            <g id="编组-21" transform="translate(706.000000, 503.000000)">
                <g id="03导航-/-01导航菜单-/-03弹出框-/-弹出框组件" transform="translate(0.000000, 28.000000)">
                    <g id="03导航-/-01导航菜单-/-01侧边导航-/-精简版-/-弹出框-/-按钮-/-悬停" transform="translate(0.000000, 104.000000)">
                        <use id="矩形" mask="url(#mask-2)" xlink:href="#path-1"></use>
                    </g>
                </g>
            </g>
        </g>
    </g>
</svg>
