<?xml version="1.0" encoding="UTF-8"?>
<svg width="16px" height="16px" viewBox="0 0 16 16" version="1.1" xmlns="http://www.w3.org/2000/svg" xmlns:xlink="http://www.w3.org/1999/xlink">
    <g id="∟-----项目" stroke="none" stroke-width="1" fill="none" fill-rule="evenodd">
        <g id="[节点重叠]效果示例" transform="translate(-722.000000, -549.000000)" stroke="#A3AFBB">
            <g id="编组-21" transform="translate(706.000000, 503.000000)">
                <g id="03导航-/-01导航菜单-/-01侧边导航-/-精简版-/-弹出框-/-按钮-/-选中" transform="translate(0.000000, 28.000000)">
                    <path d="M26.8722296,18.5 C28.5136685,18.5 29.1159211,18.6532345 29.717892,18.975172 C30.2813208,19.276497 30.723503,19.7186792 31.024828,20.282108 C31.3467655,20.8840789 31.5,21.4863315 31.5,23.1277704 L31.5,28.8722296 C31.5,30.5136685 31.3467655,31.1159211 31.024828,31.717892 C30.723503,32.2813208 30.2813208,32.723503 29.717892,33.024828 C29.1159211,33.3467655 28.5136685,33.5 26.8722296,33.5 L21.1277704,33.5 C19.4863315,33.5 18.8840789,33.3467655 18.282108,33.024828 C17.7186792,32.723503 17.276497,32.2813208 16.975172,31.717892 C16.6532345,31.1159211 16.5,30.5136685 16.5,28.8722296 L16.5,23.1277704 C16.5,21.4863315 16.6532345,20.8840789 16.975172,20.282108 C17.276497,19.7186792 17.7186792,19.276497 18.282108,18.975172 C18.8840789,18.6532345 19.4863315,18.5 21.1277704,18.5 Z" id="矩形"></path>
                </g>
            </g>
        </g>
    </g>
</svg>
