<?xml version="1.0" encoding="UTF-8"?>
<svg width="16px" height="16px" viewBox="0 0 16 16" version="1.1" xmlns="http://www.w3.org/2000/svg" xmlns:xlink="http://www.w3.org/1999/xlink">
    <title></title>
    <g id="项目管理" stroke="none" stroke-width="1" fill="none" fill-rule="evenodd">
        <g id="项目管理-列表" transform="translate(-1108.000000, -184.000000)">
            <g id="编组-20" transform="translate(1108.000000, 184.000000)">
                <rect id="矩形备份-7" fill="#D8D8D8" opacity="0" x="0" y="0" width="16" height="16"></rect>
                <path d="M13.6568542,2.34314575 C16.7810486,5.46734008 16.7810486,10.5326599 13.6568542,13.6568542 C10.5326599,16.7810486 5.46734008,16.7810486 2.34314575,13.6568542 C-0.781048583,10.5326599 -0.781048583,5.46734008 2.34314575,2.34314575 C5.46734008,-0.781048583 10.5326599,-0.781048583 13.6568542,2.34314575 Z M3.40380592,3.40380592 C0.865398026,5.94221382 0.865398026,10.0577862 3.40380592,12.5961941 C5.94221382,15.134602 10.0577862,15.134602 12.5961941,12.5961941 C15.134602,10.0577862 15.134602,5.94221382 12.5961941,3.40380592 C10.0577862,0.865398026 5.94221382,0.865398026 3.40380592,3.40380592 Z M11.8585786,7.41619049 C12.2727922,7.41619049 12.6085786,7.75197693 12.6085786,8.16619049 C12.6085786,8.58040405 12.2727922,8.91619049 11.8585786,8.91619049 L4.35857864,8.91619049 C3.94436508,8.91619049 3.60857864,8.58040405 3.60857864,8.16619049 C3.60857864,7.75197693 3.94436508,7.41619049 4.35857864,7.41619049 L11.8585786,7.41619049 Z" id="形状结合" fill="#1E86FF" fill-rule="nonzero"></path>
            </g>
        </g>
    </g>
</svg>