<svg xml:space="preserve" viewBox="0 0 24 24" xmlns="http://www.w3.org/2000/svg"><path clip-rule="evenodd" fill="none" d="M0 0h24v24H0z"/><path d="M17 3a3 3 0 0 1 3 3v12a3 3 0 0 1-3 3H7a3 3 0 0 1-3-3V6a3 3 0 0 1 3-3h10zm0 2H7a1 1 0 0 0-1 1v12a1 1 0 0 0 1 1h10a1 1 0 0 0 1-1V6a1 1 0 0 0-1-1zm-2 9a1 1 0 0 1 .117 1.993L15 16H9a1 1 0 0 1-.117-1.993L9 14h6zm0-3a1 1 0 0 1 .117 1.993L15 13H9a1 1 0 0 1-.117-1.993L9 11h6zm-5-4a1 1 0 0 1 1 1v1a1 1 0 0 1-1 1H9a1 1 0 0 1-1-1V8a1 1 0 0 1 1-1h1zm5 .5a1 1 0 0 1 .117 1.993L15 9.5h-2a1 1 0 0 1-.117-1.993L13 7.5h2z"/></svg>