<svg xml:space="preserve" viewBox="0 0 24 24" xmlns="http://www.w3.org/2000/svg"><path clip-rule="evenodd" fill="none" d="M0 0h24v24H0z"/><path d="M19 4a3 3 0 0 1 3 3v10a3 3 0 0 1-3 3H5a3 3 0 0 1-3-3V7a3 3 0 0 1 3-3h14zm0 2H5a1 1 0 0 0-1 1v10a1 1 0 0 0 1 1h14a1 1 0 0 0 1-1V7a1 1 0 0 0-1-1zM9 12.5c1.333 0 2.334.522 2.917 1.559.234.417-.054.941-.518.941H6.601c-.463 0-.752-.524-.518-.941C6.666 13.022 7.667 12.5 9 12.5zm8 .5a1 1 0 0 1 .117 1.993L17 15h-3a1 1 0 0 1-.117-1.993L14 13h3zM9 9a1.5 1.5 0 1 1-.001 3.001A1.5 1.5 0 0 1 9 9zm8 1a1 1 0 0 1 .117 1.993L17 12h-3a1 1 0 0 1-.117-1.993L14 10h3z"/></svg>