<svg xml:space="preserve" viewBox="0 0 24 24" xmlns="http://www.w3.org/2000/svg"><path clip-rule="evenodd" fill="none" d="M0 0h24v24H0z"/><path d="M11.293 6.293a.999.999 0 0 1 1.414 0l5 5 .083.094a1 1 0 0 1-.083 1.32l-5 5-.094.083a1 1 0 0 1-1.32-.083l-.083-.094a1 1 0 0 1 .083-1.32L15.585 12l-4.292-4.293-.083-.094a1 1 0 0 1 .083-1.32zm-5 0a.999.999 0 0 1 1.414 0l5 5 .083.094a1 1 0 0 1-.083 1.32l-5 5-.094.083a1 1 0 0 1-1.32-.083l-.083-.094a1 1 0 0 1 .083-1.32L10.585 12 6.293 7.707l-.083-.094a1 1 0 0 1 .083-1.32z"/></svg>