<?xml version="1.0" encoding="UTF-8"?>
<svg width="16px" height="16px" viewBox="0 0 16 16" version="1.1" xmlns="http://www.w3.org/2000/svg" xmlns:xlink="http://www.w3.org/1999/xlink">
    <g id="模版" stroke="none" stroke-width="1" fill="none" fill-rule="evenodd">
        <g id="专项计划模板管理（总部人力、运营、各职能线）" transform="translate(-437.000000, -164.000000)">
            <g id="编组-5备份-13" transform="translate(76.000000, 136.000000)">
                <g id="编组-17" transform="translate(354.000000, 24.000000)">
                    <g id="-mockplus-" transform="translate(8.000000, 5.000000)">
                        <g id="01图标-/-01通用图标-/-01单色线性-/-动作-/check备份-2" transform="translate(-0.000000, 0.000000)">
                            <rect id="背景" fill="#FFFFFF" opacity="0" x="8.8817842e-16" y="0" width="14" height="14"></rect>
                            <path d="M4.79708004,1.77246369 C6.23562026,1.36126456 7.76055933,1.36108074 9.19919864,1.77193306 L10.3972259,2.11407044 C11.1486046,2.32865216 11.6666667,3.01537647 11.6666667,3.79679526 L11.6666667,7.83250355 C11.6666667,8.96251712 11.1210895,10.0230095 10.2017273,10.6800513 L8.019207,12.2398359 C7.41062552,12.6747717 6.59288909,12.6748071 5.98426988,12.2399242 L3.79851973,10.6781178 C2.87901338,10.0210935 2.33333333,8.9605142 2.33333333,7.83039347 L2.33333333,3.79657462 C2.33333333,3.01531222 2.85119183,2.32868557 3.60236845,2.1139657 Z M9.45414562,5.12918771 C9.22633979,4.90138187 8.85699355,4.90138187 8.62918771,5.12918771 L6.70833333,7.04958333 L5.95414562,6.29585438 L5.89919134,6.24732769 C5.6703548,6.0693965 5.33947002,6.08557207 5.12918771,6.29585438 C4.90138187,6.52366021 4.90138187,6.89300645 5.12918771,7.12081229 L6.29585438,8.28747896 L6.35080866,8.33600564 C6.5796452,8.51393683 6.91052998,8.49776127 7.12081229,8.28747896 L9.45414562,5.95414562 L9.50267231,5.89919134 C9.6806035,5.6703548 9.66442793,5.33947002 9.45414562,5.12918771 Z" id="形状结合" fill="#FFFFFF" fill-rule="nonzero"></path>
                            <g id="网格" opacity="0" transform="translate(0.000000, 0.000000)" stroke="#FFFFFF" stroke-linecap="square" stroke-width="0.5">
                                <g id="竖线" transform="translate(0.291667, 0.000000)">
                                    <line x1="0.291666667" y1="0" x2="0.291666667" y2="14" id="直线"></line>
                                    <line x1="0.875" y1="0" x2="0.875" y2="14" id="直线"></line>
                                    <line x1="1.45833333" y1="0" x2="1.45833333" y2="14" id="直线备份"></line>
                                    <line x1="2.04166667" y1="0" x2="2.04166667" y2="14" id="直线备份-2"></line>
                                    <line x1="2.625" y1="0" x2="2.625" y2="14" id="直线备份-3"></line>
                                    <line x1="3.20833333" y1="0" x2="3.20833333" y2="14" id="直线备份-4"></line>
                                    <line x1="3.79166667" y1="0" x2="3.79166667" y2="14" id="直线备份-5"></line>
                                    <line x1="4.375" y1="0" x2="4.375" y2="14" id="直线备份-6"></line>
                                    <line x1="4.95833333" y1="0" x2="4.95833333" y2="14" id="直线备份-7"></line>
                                    <line x1="5.54166667" y1="0" x2="5.54166667" y2="14" id="直线备份-8"></line>
                                    <line x1="6.125" y1="0" x2="6.125" y2="14" id="直线备份-9"></line>
                                    <line x1="6.70833333" y1="0" x2="6.70833333" y2="14" id="直线备份-10"></line>
                                    <line x1="7.29166667" y1="0" x2="7.29166667" y2="14" id="直线备份-11"></line>
                                    <line x1="7.875" y1="0" x2="7.875" y2="14" id="直线备份-12"></line>
                                    <line x1="8.45833333" y1="0" x2="8.45833333" y2="14" id="直线备份-13"></line>
                                    <line x1="9.04166667" y1="0" x2="9.04166667" y2="14" id="直线备份-14"></line>
                                    <line x1="9.625" y1="0" x2="9.625" y2="14" id="直线备份-15"></line>
                                    <line x1="10.2083333" y1="0" x2="10.2083333" y2="14" id="直线备份-16"></line>
                                    <line x1="10.7916667" y1="0" x2="10.7916667" y2="14" id="直线备份-17"></line>
                                    <line x1="11.375" y1="0" x2="11.375" y2="14" id="直线备份-18"></line>
                                    <line x1="11.9583333" y1="0" x2="11.9583333" y2="14" id="直线备份-19"></line>
                                    <line x1="12.5416667" y1="0" x2="12.5416667" y2="14" id="直线备份-20"></line>
                                    <line x1="13.125" y1="0" x2="13.125" y2="14" id="直线备份-21"></line>
                                </g>
                                <g id="横线" transform="translate(7.000000, 7.000000) rotate(-270.000000) translate(-7.000000, -7.000000) translate(0.291667, 0.000000)">
                                    <line x1="0.291666667" y1="0" x2="0.291666667" y2="14" id="直线"></line>
                                    <line x1="0.875" y1="0" x2="0.875" y2="14" id="直线"></line>
                                    <line x1="1.45833333" y1="0" x2="1.45833333" y2="14" id="直线备份"></line>
                                    <line x1="2.04166667" y1="0" x2="2.04166667" y2="14" id="直线备份-2"></line>
                                    <line x1="2.625" y1="0" x2="2.625" y2="14" id="直线备份-3"></line>
                                    <line x1="3.20833333" y1="0" x2="3.20833333" y2="14" id="直线备份-4"></line>
                                    <line x1="3.79166667" y1="0" x2="3.79166667" y2="14" id="直线备份-5"></line>
                                    <line x1="4.375" y1="0" x2="4.375" y2="14" id="直线备份-6"></line>
                                    <line x1="4.95833333" y1="0" x2="4.95833333" y2="14" id="直线备份-7"></line>
                                    <line x1="5.54166667" y1="0" x2="5.54166667" y2="14" id="直线备份-8"></line>
                                    <line x1="6.125" y1="0" x2="6.125" y2="14" id="直线备份-9"></line>
                                    <line x1="6.70833333" y1="0" x2="6.70833333" y2="14" id="直线备份-10"></line>
                                    <line x1="7.29166667" y1="0" x2="7.29166667" y2="14" id="直线备份-11"></line>
                                    <line x1="7.875" y1="0" x2="7.875" y2="14" id="直线备份-12"></line>
                                    <line x1="8.45833333" y1="0" x2="8.45833333" y2="14" id="直线备份-13"></line>
                                    <line x1="9.04166667" y1="0" x2="9.04166667" y2="14" id="直线备份-14"></line>
                                    <line x1="9.625" y1="0" x2="9.625" y2="14" id="直线备份-15"></line>
                                    <line x1="10.2083333" y1="0" x2="10.2083333" y2="14" id="直线备份-16"></line>
                                    <line x1="10.7916667" y1="0" x2="10.7916667" y2="14" id="直线备份-17"></line>
                                    <line x1="11.375" y1="0" x2="11.375" y2="14" id="直线备份-18"></line>
                                    <line x1="11.9583333" y1="0" x2="11.9583333" y2="14" id="直线备份-19"></line>
                                    <line x1="12.5416667" y1="0" x2="12.5416667" y2="14" id="直线备份-20"></line>
                                    <line x1="13.125" y1="0" x2="13.125" y2="14" id="直线备份-21"></line>
                                </g>
                            </g>
                            <g id="Keyline" opacity="0" transform="translate(0.583333, 1.166667)" stroke="#FFFFFF" stroke-opacity="0.05" stroke-width="0.5">
                                <rect id="正方形-大" x="1.41666667" y="0.833333333" width="10" height="10" rx="0.583333333"></rect>
                                <rect id="正方形-小" x="3.16666667" y="2.58333333" width="6.5" height="6.5" rx="0.583333333"></rect>
                                <rect id="矩形-竖" x="2" y="0.25" width="8.83333333" height="11.1666667" rx="0.583333333"></rect>
                                <rect id="矩形-横" x="0.833333333" y="1.41666667" width="11.1666667" height="8.83333333" rx="0.583333333"></rect>
                                <circle id="圆形" cx="6.41666667" cy="5.83333333" r="5.58333333"></circle>
                                <path d="M6.41666667,0.498965873 L12.3997215,10.8333333 L0.433611821,10.8333333 L6.41666667,0.498965873 Z" id="三角形"></path>
                            </g>
                            <path d="M9.33333333,5.83333333" id="路径-41" stroke="#FFFFFF" stroke-width="0.583333333"></path>
                        </g>
                    </g>
                </g>
            </g>
        </g>
    </g>
</svg>