<svg xml:space="preserve" viewBox="0 0 24 24" xmlns="http://www.w3.org/2000/svg"><path clip-rule="evenodd" fill="none" d="M0 0h24v24H0z"/><path d="M15.003 3h.017a.893.893 0 0 1 .223.03c.02.004.039.01.059.016l.055.02a.824.824 0 0 1 .173.084l.022.016a.95.95 0 0 1 .158.126l4.997 4.997c.188.189.293.443.293.708V19a2 2 0 0 1-2 2H5a2 2 0 0 1-2-2V5a2 2 0 0 1 2-2h10.003zM8 5H5v14h2v-5a1 1 0 0 1 .883-.993L8 13h8a1 1 0 0 1 1 1v5h2V9.412l-3-3V8a1 1 0 0 1-.883.993L15 9H9a1 1 0 0 1-1-1V5zm7 10H9v4h6v-4zm-2 1a1 1 0 0 1 .117 1.993L13 18h-2a1 1 0 0 1-.117-1.993L11 16h2zm1-11h-4v2h4V5z"/></svg>