<svg xml:space="preserve" viewBox="0 0 24 24" xmlns="http://www.w3.org/2000/svg"><path clip-rule="evenodd" fill="none" d="M0 0h24v24H0z"/><path d="M15 3a1 1 0 0 1 .993.883L16 4h2.5A2.5 2.5 0 0 1 21 6.5v12a2.5 2.5 0 0 1-2.5 2.5h-13A2.5 2.5 0 0 1 3 18.5v-12A2.5 2.5 0 0 1 5.5 4H8a1 1 0 0 1 1.993-.117L10 4h4a1 1 0 0 1 1-1zm4 8H5v7.5a.5.5 0 0 0 .41.492L5.5 19h13a.5.5 0 0 0 .5-.5V11zm-3.793 1.793a1 1 0 0 1 .083 1.32l-.083.094-3 3a1 1 0 0 1-1.32.083l-.094-.083-2-2a.999.999 0 0 1 1.32-1.497l.094.083 1.293 1.292 2.293-2.292a.999.999 0 0 1 1.414 0zM8 6H5.5a.5.5 0 0 0-.5.5V9h14V6.5a.5.5 0 0 0-.41-.492L18.5 6H16v1a1 1 0 0 1-1.993.117L14 7V6h-4v1a1 1 0 0 1-1.993.117L8 7V6z"/></svg>