<?xml version="1.0" encoding="UTF-8"?>
<svg width="18px" height="18px" viewBox="0 0 18 18" version="1.1" xmlns="http://www.w3.org/2000/svg" xmlns:xlink="http://www.w3.org/1999/xlink">
    <title></title>
    <g id="优化" stroke="none" stroke-width="1" fill="none" fill-rule="evenodd">
        <g id="项目列表" transform="translate(-1263.000000, -139.000000)" fill="#9EACC4" fill-rule="nonzero">
            <g id="查询备份-5" transform="translate(1241.000000, 130.000000)">
                <g id="编组-5" transform="translate(22.000000, 8.000000)">
                    <path d="M13.6263245,13.5129587 L17,16.8853282 L15.8852871,18 L12.5127931,14.6264491 C11.3153775,15.5928524 9.7753369,16.1770656 8.09883699,16.1770656 C8.0952926,16.1770656 8.0917482,16.1770656 8.0882038,16.1770656 L8.08879454,16.1770656 C4.17577995,16.1770656 1,13.0014029 1,9.08853282 C1,5.1756627 4.17577995,2 8.08879454,2 C12.0018091,2 15.1775891,5.1756627 15.1775891,9.08853282 C15.1775891,9.09148638 15.1775891,9.09503064 15.1775891,9.09857491 C15.1775891,10.7750129 14.5927635,12.3155874 13.6162821,13.5259544 L13.6269153,13.512368 L13.6263245,13.5129587 Z M12.0467048,12.9287455 C13.0090087,11.9398951 13.6021045,10.5883482 13.6021045,9.0979842 C13.6021045,9.09503064 13.6021045,9.09207709 13.6021045,9.08912353 L13.6021045,9.08971424 C13.6021045,6.04341726 11.1346133,3.57660784 8.08879454,3.57660784 C5.04238508,3.57660784 2.57548459,6.04341726 2.57548459,9.08971424 C2.57548459,12.1354205 5.04238508,14.6028206 8.08879454,14.6028206 C8.09115747,14.6028206 8.09411113,14.6028206 8.09765553,14.6028206 C9.58807458,14.6028206 10.9402621,14.009156 11.9297397,13.046297 L11.9285582,13.0474784 L12.0467048,12.9293362 L12.0467048,12.9287455 Z" id="形状"></path>
                </g>
            </g>
        </g>
    </g>
</svg>