<svg xml:space="preserve" viewBox="0 0 24 24" xmlns="http://www.w3.org/2000/svg"><path clip-rule="evenodd" fill="none" d="M0 0h24v24H0z"/><path d="M11.5 5h-7a2 2 0 0 0-2 2v2a2 2 0 0 0 2 2h7a2 2 0 0 0 2-2V7a2 2 0 0 0-2-2zm-7 2h7v2h-7V7zm7 6h-7a2 2 0 0 0-2 2v2a2 2 0 0 0 2 2h7a2 2 0 0 0 2-2v-2a2 2 0 0 0-2-2zm-7 2h7v2h-7v-2zm15.293-1.207a.999.999 0 0 1 1.497 1.32l-.083.094-3 3a1 1 0 0 1-1.32.083l-.094-.083-2-2a.999.999 0 0 1 1.32-1.497l.094.083 1.293 1.292 2.293-2.292zm-3.18-8.583.094.083L18 6.585l1.293-1.292a.999.999 0 0 1 1.497 1.32l-.083.094L19.415 8l1.292 1.293a.999.999 0 0 1-1.32 1.497l-.094-.083L18 9.415l-1.293 1.292a.999.999 0 0 1-1.497-1.32l.083-.094L16.585 8l-1.292-1.293a.999.999 0 0 1 1.32-1.497z"/></svg>