
<?xml version="1.0" encoding="utf-8"?>
<!-- Generator: Adobe Illustrator 27.1.1, SVG Export Plug-In . SVG Version: 6.00 Build 0)  -->
<svg version="1.1" id="图层_1" xmlns="http://www.w3.org/2000/svg" xmlns:xlink="http://www.w3.org/1999/xlink" x="0px" y="0px"
	 viewBox="0 0 24 24" style="enable-background:new 0 0 24 24;" xml:space="preserve">
<style type="text/css">
	.st0{fill-rule:evenodd;clip-rule:evenodd;fill:#FFFFFF;fill-opacity:0;}
</style>
<rect id="背景" class="st0" width="24" height="24"/>
<path id="icon" d="M10,3c1.2-0.7,2.8-0.7,4,0l4.8,2.8c1.2,0.7,2,2,2,3.5v5.5c0,1.4-0.8,2.7-2,3.5L14,21c-1.2,0.7-2.8,0.7-4,0
	l-4.8-2.8c-1.2-0.7-2-2-2-3.5V9.2c0-1.4,0.8-2.7,2-3.5L10,3z M12,8c-2.2,0-4,1.8-4,4s1.8,4,4,4s4-1.8,4-4S14.2,8,12,8z M12,10
	c1.1,0,2,0.9,2,2s-0.9,2-2,2s-2-0.9-2-2S10.9,10,12,10z"/>
</svg>
