<svg xml:space="preserve" viewBox="0 0 24 24" xmlns="http://www.w3.org/2000/svg"><path clip-rule="evenodd" fill="none" d="M0 0h24v24H0z"/><path d="M10 3a3.998 3.998 0 0 1 4 0l4.794 2.768a4 4 0 0 1 2 3.464v5.536c0 1.429-.762 2.75-2 3.464L14 21a3.998 3.998 0 0 1-4 0l-4.794-2.768a4 4 0 0 1-2-3.464V9.232c0-1.429.762-2.75 2-3.464L10 3zm3 1.732a2.001 2.001 0 0 0-2 0L6.206 7.5a2 2 0 0 0-1 1.732v5.536c0 .715.381 1.375 1 1.732L11 19.268a2.001 2.001 0 0 0 2 0l4.794-2.768a2 2 0 0 0 1-1.732V9.232c0-.715-.381-1.375-1-1.732L13 4.732zM12 8a4 4 0 1 1 0 8 4 4 0 0 1 0-8zm0 2a2 2 0 1 0-.001 3.999A2 2 0 0 0 12 10z"/></svg>