<?xml version="1.0" encoding="UTF-8"?>
<svg width="24px" height="24px" viewBox="0 0 24 24" version="1.1" xmlns="http://www.w3.org/2000/svg" xmlns:xlink="http://www.w3.org/1999/xlink">
    <g id="∟-----工作台" stroke="none" stroke-width="1" fill="none" fill-rule="evenodd">
        <g id="工作台-任务展开" transform="translate(-18.000000, -308.000000)">
            <g id="03导航/01导航菜单/01侧边导航/精简版/导航组件" transform="translate(0.000000, 71.000000)">
                <g id="03导航-/-01导航菜单-/-01侧边导航-/-精简版-/-导航栏-/-按钮-/-常规备份-7" transform="translate(0.000000, 222.000000)">
                    <g id="编组-14" transform="translate(18.000000, 16.000000)">
                        <g id="01图标-/-01通用图标-/-03实色填充-/-办公-/-首页" transform="translate(1.000000, 0.000000)">
                            <rect id="背景" fill="#B2D5FF" opacity="0" x="0" y="0" width="22" height="22"></rect>
                            <path d="M9.16666667,2.75 C10.3011373,2.09501309 11.6988627,2.09501309 12.8333333,2.75 L17.2280429,5.28728676 C18.3625135,5.94227367 19.0613762,7.15273941 19.0613762,8.46271324 L19.0613762,13.5372868 C19.0613762,14.8472606 18.3625135,16.0577263 17.2280429,16.7127132 L12.8333333,19.25 C11.6988627,19.9049869 10.3011373,19.9049869 9.16666667,19.25 L4.77195709,16.7127132 C3.63748647,16.0577263 2.93862375,14.8472606 2.93862375,13.5372868 L2.93862375,8.46271324 C2.93862375,7.15273941 3.63748647,5.94227367 4.77195709,5.28728676 Z M11,7.33333333 C8.97495592,7.33333333 7.33333333,8.97495592 7.33333333,11 C7.33333333,13.0250441 8.97495592,14.6666667 11,14.6666667 C13.0250441,14.6666667 14.6666667,13.0250441 14.6666667,11 C14.6666667,8.97495592 13.0250441,7.33333333 11,7.33333333 Z M11,9.16666667 C12.012522,9.16666667 12.8333333,9.98747796 12.8333333,11 C12.8333333,12.012522 12.012522,12.8333333 11,12.8333333 C9.98747796,12.8333333 9.16666667,12.012522 9.16666667,11 C9.16666667,9.98747796 9.98747796,9.16666667 11,9.16666667 Z" id="形状结合" fill="#B2D5FF" fill-rule="nonzero"></path>
                            <g id="网格" opacity="0" transform="translate(0.000000, 0.000000)" stroke="#B2D5FF" stroke-linecap="square" stroke-width="0.5">
                                <g id="竖线" transform="translate(0.458333, 0.000000)">
                                    <line x1="0.458333333" y1="0" x2="0.458333333" y2="22" id="直线"></line>
                                    <line x1="1.375" y1="0" x2="1.375" y2="22" id="直线"></line>
                                    <line x1="2.29166667" y1="0" x2="2.29166667" y2="22" id="直线备份"></line>
                                    <line x1="3.20833333" y1="0" x2="3.20833333" y2="22" id="直线备份-2"></line>
                                    <line x1="4.125" y1="0" x2="4.125" y2="22" id="直线备份-3"></line>
                                    <line x1="5.04166667" y1="0" x2="5.04166667" y2="22" id="直线备份-4"></line>
                                    <line x1="5.95833333" y1="0" x2="5.95833333" y2="22" id="直线备份-5"></line>
                                    <line x1="6.875" y1="0" x2="6.875" y2="22" id="直线备份-6"></line>
                                    <line x1="7.79166667" y1="0" x2="7.79166667" y2="22" id="直线备份-7"></line>
                                    <line x1="8.70833333" y1="0" x2="8.70833333" y2="22" id="直线备份-8"></line>
                                    <line x1="9.625" y1="0" x2="9.625" y2="22" id="直线备份-9"></line>
                                    <line x1="10.5416667" y1="0" x2="10.5416667" y2="22" id="直线备份-10"></line>
                                    <line x1="11.4583333" y1="0" x2="11.4583333" y2="22" id="直线备份-11"></line>
                                    <line x1="12.375" y1="0" x2="12.375" y2="22" id="直线备份-12"></line>
                                    <line x1="13.2916667" y1="0" x2="13.2916667" y2="22" id="直线备份-13"></line>
                                    <line x1="14.2083333" y1="0" x2="14.2083333" y2="22" id="直线备份-14"></line>
                                    <line x1="15.125" y1="0" x2="15.125" y2="22" id="直线备份-15"></line>
                                    <line x1="16.0416667" y1="0" x2="16.0416667" y2="22" id="直线备份-16"></line>
                                    <line x1="16.9583333" y1="0" x2="16.9583333" y2="22" id="直线备份-17"></line>
                                    <line x1="17.875" y1="0" x2="17.875" y2="22" id="直线备份-18"></line>
                                    <line x1="18.7916667" y1="0" x2="18.7916667" y2="22" id="直线备份-19"></line>
                                    <line x1="19.7083333" y1="0" x2="19.7083333" y2="22" id="直线备份-20"></line>
                                    <line x1="20.625" y1="0" x2="20.625" y2="22" id="直线备份-21"></line>
                                </g>
                                <g id="横线" transform="translate(11.000000, 11.000000) rotate(-270.000000) translate(-11.000000, -11.000000) translate(0.458333, 0.000000)">
                                    <line x1="0.458333333" y1="0" x2="0.458333333" y2="22" id="直线"></line>
                                    <line x1="1.375" y1="0" x2="1.375" y2="22" id="直线"></line>
                                    <line x1="2.29166667" y1="0" x2="2.29166667" y2="22" id="直线备份"></line>
                                    <line x1="3.20833333" y1="0" x2="3.20833333" y2="22" id="直线备份-2"></line>
                                    <line x1="4.125" y1="0" x2="4.125" y2="22" id="直线备份-3"></line>
                                    <line x1="5.04166667" y1="0" x2="5.04166667" y2="22" id="直线备份-4"></line>
                                    <line x1="5.95833333" y1="0" x2="5.95833333" y2="22" id="直线备份-5"></line>
                                    <line x1="6.875" y1="0" x2="6.875" y2="22" id="直线备份-6"></line>
                                    <line x1="7.79166667" y1="0" x2="7.79166667" y2="22" id="直线备份-7"></line>
                                    <line x1="8.70833333" y1="0" x2="8.70833333" y2="22" id="直线备份-8"></line>
                                    <line x1="9.625" y1="0" x2="9.625" y2="22" id="直线备份-9"></line>
                                    <line x1="10.5416667" y1="0" x2="10.5416667" y2="22" id="直线备份-10"></line>
                                    <line x1="11.4583333" y1="0" x2="11.4583333" y2="22" id="直线备份-11"></line>
                                    <line x1="12.375" y1="0" x2="12.375" y2="22" id="直线备份-12"></line>
                                    <line x1="13.2916667" y1="0" x2="13.2916667" y2="22" id="直线备份-13"></line>
                                    <line x1="14.2083333" y1="0" x2="14.2083333" y2="22" id="直线备份-14"></line>
                                    <line x1="15.125" y1="0" x2="15.125" y2="22" id="直线备份-15"></line>
                                    <line x1="16.0416667" y1="0" x2="16.0416667" y2="22" id="直线备份-16"></line>
                                    <line x1="16.9583333" y1="0" x2="16.9583333" y2="22" id="直线备份-17"></line>
                                    <line x1="17.875" y1="0" x2="17.875" y2="22" id="直线备份-18"></line>
                                    <line x1="18.7916667" y1="0" x2="18.7916667" y2="22" id="直线备份-19"></line>
                                    <line x1="19.7083333" y1="0" x2="19.7083333" y2="22" id="直线备份-20"></line>
                                    <line x1="20.625" y1="0" x2="20.625" y2="22" id="直线备份-21"></line>
                                </g>
                            </g>
                            <g id="Keyline" opacity="0" transform="translate(0.916667, 1.833333)" stroke="#B2D5FF" stroke-opacity="0.05" stroke-width="0.5">
                                <rect id="正方形-大" x="2.08333333" y="1.16666667" width="16" height="16" rx="0.916666667"></rect>
                                <rect id="正方形-小" x="4.83333333" y="3.91666667" width="10.5" height="10.5" rx="0.916666667"></rect>
                                <rect id="矩形-竖" x="3" y="0.25" width="14.1666667" height="17.8333333" rx="0.916666667"></rect>
                                <rect id="矩形-横" x="1.16666667" y="2.08333333" width="17.8333333" height="14.1666667" rx="0.916666667"></rect>
                                <circle id="圆形" cx="10.0833333" cy="9.16666667" r="8.91666667"></circle>
                                <path d="M10.0833333,0.498965873 L19.7330548,17.1666667 L0.433611821,17.1666667 L10.0833333,0.498965873 Z" id="三角形"></path>
                            </g>
                            <path d="M14.6666667,9.16666667" id="路径-41" stroke="#B2D5FF" stroke-width="0.916666667"></path>
                        </g>
                    </g>
                </g>
            </g>
        </g>
    </g>
</svg>