<?xml version="1.0" encoding="UTF-8"?>
<svg width="20px" height="20px" viewBox="0 0 20 20" version="1.1" xmlns="http://www.w3.org/2000/svg" xmlns:xlink="http://www.w3.org/1999/xlink">
    <g id="模板" stroke="none" stroke-width="1" fill="none" fill-rule="evenodd">
        <g id="模板-新建/编辑（知识）" transform="translate(-88.000000, -856.000000)">
            <g id="编组-7备份-4" transform="translate(80.000000, 848.000000)">
                <g id="显示小地图" transform="translate(8.000000, 8.000000)">
                    <rect id="背景" fill="#434B5B" opacity="0" x="0" y="0" width="20" height="20"></rect>
                    <g id="编组" transform="translate(3.000000, 4.000000)">
                        <polyline id="路径" stroke="#434B5B" stroke-width="1.67" stroke-linecap="round" stroke-linejoin="round" points="14 6 14 2.16666667 9.45 0 4.55 2.16666667 0 0 0 10.8333333 4.55 13 6.00330434 12.3573824"></polyline>
                        <line x1="9.45" y1="0" x2="9.45" y2="6.83333333" id="路径" stroke="#434B5B" stroke-width="1.67" stroke-linecap="round" stroke-linejoin="round"></line>
                        <line x1="4.55" y1="2.16666667" x2="4.55" y2="13" id="路径" stroke="#434B5B" stroke-width="1.67" stroke-linecap="round" stroke-linejoin="round"></line>
                        <path d="M11.75,13.6666667 C13.3608305,13.6666667 14.6666667,12 14.6666667,11.1666667 C14.6666667,10.3333333 13.3608305,8.66666667 11.75,8.66666667 C10.1391695,8.66666667 8.83333333,10.3333333 8.83333333,11.1666667 C8.83333333,12 10.1391695,13.6666667 11.75,13.6666667 Z" id="椭圆形" stroke="#434B5B" stroke-width="1.66666667" stroke-linecap="round" stroke-linejoin="round"></path>
                        <circle id="椭圆形" fill="#434B5B" cx="11.75" cy="11.1666667" r="1"></circle>
                    </g>
                </g>
            </g>
        </g>
    </g>
</svg>