<svg xml:space="preserve" viewBox="0 0 24 24" xmlns="http://www.w3.org/2000/svg"><path clip-rule="evenodd" fill="none" d="M0 0h24v24H0z"/><path d="M11.5 2.134a.998.998 0 0 1 1 0l7.794 4.5c.309.179.5.509.5.866v9c0 .357-.191.687-.5.866l-7.794 4.5a.998.998 0 0 1-1 0l-7.794-4.5a1.002 1.002 0 0 1-.5-.866v-9c0-.357.191-.687.5-.866l7.794-4.5zm.5 2.021L5.205 8.077v7.845L12 19.844l6.794-3.922V8.077L12 4.155zm4.861 4.929a1 1 0 0 1-.246 1.306l-.097.066L13 12.565V17a1 1 0 0 1-1.993.117L11 17v-4.434l-3.512-2.107a1 1 0 0 1 .925-1.769l.103.054L12 10.833l3.489-2.092a1 1 0 0 1 1.372.343z"/></svg>