<svg xml:space="preserve" viewBox="0 0 24 24" xmlns="http://www.w3.org/2000/svg"><path clip-rule="evenodd" fill="none" d="M0 0h24v24H0z"/><path d="M8.293 9.707a1 1 0 0 0 1.32.083l.094-.083L12 7.415l2.293 2.292a1 1 0 0 0 1.32.083l.094-.083a1 1 0 0 0 .083-1.32l-.083-.094-3-3a1 1 0 0 0-1.32-.083l-.094.083-3 3a.999.999 0 0 0 0 1.414zm0 4.586a1 1 0 0 1 1.32-.083l.094.083L12 16.585l2.293-2.292a1 1 0 0 1 1.32-.083l.094.083a1 1 0 0 1 .083 1.32l-.083.094-3 3a1 1 0 0 1-1.32.083l-.094-.083-3-3a.999.999 0 0 1 0-1.414z"/></svg>