<svg xml:space="preserve" viewBox="0 0 24 24" xmlns="http://www.w3.org/2000/svg"><path clip-rule="evenodd" fill="none" d="M0 0h24v24H0z"/><path d="M11.02 3.219a9.012 9.012 0 0 0-5.677 4.048l-.137.23H4.005c-1.106 0-2 .897-2 2.005l.027 5.008.006.149A2.001 2.001 0 0 0 4.032 16.5l1.172-.001.138.231a9.013 9.013 0 0 0 5.975 4.113 1 1 0 0 0 1.186-.982V4.14a1 1 0 0 0-1.186-.983l-.297.062zm-.517 2.24-.001 13.08-.124-.046a7.026 7.026 0 0 1-3.675-3.431.999.999 0 0 0-.899-.562H4.032l-.027-5.003h1.8a1 1 0 0 0 .899-.562 7.026 7.026 0 0 1 3.675-3.429l.124-.047zm6.864-1.33A8.995 8.995 0 0 1 22 12a8.998 8.998 0 0 1-4.643 7.877 1 1 0 1 1-.969-1.749A7 7 0 0 0 20 12a6.997 6.997 0 0 0-3.604-6.123 1 1 0 1 1 .971-1.748zm-1.054 4.126A4.987 4.987 0 0 1 18 12a4.99 4.99 0 0 1-1.698 3.755 1 1 0 0 1-1.321-1.501A2.993 2.993 0 0 0 16 12c0-.872-.372-1.681-1.013-2.248a1 1 0 1 1 1.326-1.497z"/></svg>