<?xml version="1.0" encoding="UTF-8"?>
<svg width="16px" height="16px" viewBox="0 0 16 16" version="1.1" xmlns="http://www.w3.org/2000/svg" xmlns:xlink="http://www.w3.org/1999/xlink">
    <title>编组</title>
    <g id="2023-03-06" stroke="none" stroke-width="1" fill="none" fill-rule="evenodd">
        <g id="状态配色-场景4" transform="translate(-1305.000000, -760.000000)">
            <g id="编组-40" transform="translate(1274.000000, 532.000000)">
                <g id="编组-23" transform="translate(24.000000, 224.000000)">
                    <g id="01图标-/-01通用图标-/-01单色线性-/-动作-/check" transform="translate(8.000000, 5.000000)">
                        <rect id="背景" fill="#8E74FF" opacity="0" x="0" y="0" width="14" height="14"></rect>
                        <path d="M9.91666667,1.75 C10.883165,1.75 11.6666667,2.53350169 11.6666667,3.5 L11.6676888,7.69948538 C11.3106457,7.10563542 10.6600536,6.70833333 9.91666667,6.70833333 C9.62841278,6.70833333 9.35411116,6.76807004 9.10546608,6.87583916 C9.24465116,6.77141815 9.33333333,6.60439883 9.33333333,6.41666667 C9.33333333,6.09450056 9.0721661,5.83333333 8.75,5.83333333 L5.25,5.83333333 L5.18197101,5.83725784 C4.89185678,5.87095416 4.66666667,6.11751243 4.66666667,6.41666667 C4.66666667,6.73883277 4.9278339,7 5.25,7 L8.75,7 L8.81802899,6.99607549 C8.84649173,6.99276959 8.87432956,6.98741482 8.90139113,6.98016253 C8.28759019,7.33125628 7.875,7.99244534 7.875,8.75 L7.87879036,8.86920628 L7.89236974,9.00115029 C7.92718287,9.26234318 8.00752404,9.50690206 8.12622558,9.72649033 L8.14391667,9.75683333 L8.12030376,9.76758109 C7.6301394,10.0025899 7.29166667,10.5034343 7.29166667,11.0833333 L7.29166667,11.6666667 C7.29166667,11.8744281 7.33511256,12.0720422 7.4134148,12.2509193 L4.08333333,12.25 C3.11683502,12.25 2.33333333,11.4664983 2.33333333,10.5 L2.33333333,3.5 C2.33333333,2.53350169 3.11683502,1.75 4.08333333,1.75 L9.91666667,1.75 Z M9.91666667,7.58333333 C10.5609989,7.58333333 11.0833333,8.10566779 11.0833333,8.75 C11.0833333,9.18156207 10.84901,9.558395 10.5006523,9.76020983 L10.4996667,10.4993333 L11.0833333,10.5 C11.4054994,10.5 11.6666667,10.7611672 11.6666667,11.0833333 L11.6666667,11.6666667 C11.6666667,11.9888328 11.4054994,12.25 11.0833333,12.25 L8.75,12.25 C8.4278339,12.25 8.16666667,11.9888328 8.16666667,11.6666667 L8.16666667,11.0833333 C8.16666667,10.7611672 8.4278339,10.5 8.75,10.5 L9.33266667,10.4993333 L9.33268105,9.76020983 C8.98432333,9.558395 8.75,9.18156207 8.75,8.75 C8.75,8.10566779 9.27233446,7.58333333 9.91666667,7.58333333 Z M8.75,4.08333333 L5.25,4.08333333 L5.18197101,4.08725784 C4.89185678,4.12095416 4.66666667,4.36751243 4.66666667,4.66666667 C4.66666667,4.98883277 4.9278339,5.25 5.25,5.25 L8.75,5.25 L8.81802899,5.24607549 C9.10814322,5.21237918 9.33333333,4.96582091 9.33333333,4.66666667 C9.33333333,4.34450056 9.0721661,4.08333333 8.75,4.08333333 Z" id="形状结合" fill="#8E74FF" fill-rule="nonzero"></path>
                        <g id="网格" opacity="0" stroke="#8E74FF" stroke-linecap="square" stroke-width="0.5">
                            <g id="竖线" transform="translate(0.291667, 0.000000)">
                                <line x1="0.291666667" y1="0" x2="0.291666667" y2="14" id="直线"></line>
                                <line x1="0.875" y1="0" x2="0.875" y2="14" id="直线"></line>
                                <line x1="1.45833333" y1="0" x2="1.45833333" y2="14" id="直线备份"></line>
                                <line x1="2.04166667" y1="0" x2="2.04166667" y2="14" id="直线备份-2"></line>
                                <line x1="2.625" y1="0" x2="2.625" y2="14" id="直线备份-3"></line>
                                <line x1="3.20833333" y1="0" x2="3.20833333" y2="14" id="直线备份-4"></line>
                                <line x1="3.79166667" y1="0" x2="3.79166667" y2="14" id="直线备份-5"></line>
                                <line x1="4.375" y1="0" x2="4.375" y2="14" id="直线备份-6"></line>
                                <line x1="4.95833333" y1="0" x2="4.95833333" y2="14" id="直线备份-7"></line>
                                <line x1="5.54166667" y1="0" x2="5.54166667" y2="14" id="直线备份-8"></line>
                                <line x1="6.125" y1="0" x2="6.125" y2="14" id="直线备份-9"></line>
                                <line x1="6.70833333" y1="0" x2="6.70833333" y2="14" id="直线备份-10"></line>
                                <line x1="7.29166667" y1="0" x2="7.29166667" y2="14" id="直线备份-11"></line>
                                <line x1="7.875" y1="0" x2="7.875" y2="14" id="直线备份-12"></line>
                                <line x1="8.45833333" y1="0" x2="8.45833333" y2="14" id="直线备份-13"></line>
                                <line x1="9.04166667" y1="0" x2="9.04166667" y2="14" id="直线备份-14"></line>
                                <line x1="9.625" y1="0" x2="9.625" y2="14" id="直线备份-15"></line>
                                <line x1="10.2083333" y1="0" x2="10.2083333" y2="14" id="直线备份-16"></line>
                                <line x1="10.7916667" y1="0" x2="10.7916667" y2="14" id="直线备份-17"></line>
                                <line x1="11.375" y1="0" x2="11.375" y2="14" id="直线备份-18"></line>
                                <line x1="11.9583333" y1="0" x2="11.9583333" y2="14" id="直线备份-19"></line>
                                <line x1="12.5416667" y1="0" x2="12.5416667" y2="14" id="直线备份-20"></line>
                                <line x1="13.125" y1="0" x2="13.125" y2="14" id="直线备份-21"></line>
                            </g>
                            <g id="横线" transform="translate(7.000000, 7.000000) rotate(-270.000000) translate(-7.000000, -7.000000) translate(0.291667, 0.000000)">
                                <line x1="0.291666667" y1="0" x2="0.291666667" y2="14" id="直线"></line>
                                <line x1="0.875" y1="0" x2="0.875" y2="14" id="直线"></line>
                                <line x1="1.45833333" y1="0" x2="1.45833333" y2="14" id="直线备份"></line>
                                <line x1="2.04166667" y1="0" x2="2.04166667" y2="14" id="直线备份-2"></line>
                                <line x1="2.625" y1="0" x2="2.625" y2="14" id="直线备份-3"></line>
                                <line x1="3.20833333" y1="0" x2="3.20833333" y2="14" id="直线备份-4"></line>
                                <line x1="3.79166667" y1="0" x2="3.79166667" y2="14" id="直线备份-5"></line>
                                <line x1="4.375" y1="0" x2="4.375" y2="14" id="直线备份-6"></line>
                                <line x1="4.95833333" y1="0" x2="4.95833333" y2="14" id="直线备份-7"></line>
                                <line x1="5.54166667" y1="0" x2="5.54166667" y2="14" id="直线备份-8"></line>
                                <line x1="6.125" y1="0" x2="6.125" y2="14" id="直线备份-9"></line>
                                <line x1="6.70833333" y1="0" x2="6.70833333" y2="14" id="直线备份-10"></line>
                                <line x1="7.29166667" y1="0" x2="7.29166667" y2="14" id="直线备份-11"></line>
                                <line x1="7.875" y1="0" x2="7.875" y2="14" id="直线备份-12"></line>
                                <line x1="8.45833333" y1="0" x2="8.45833333" y2="14" id="直线备份-13"></line>
                                <line x1="9.04166667" y1="0" x2="9.04166667" y2="14" id="直线备份-14"></line>
                                <line x1="9.625" y1="0" x2="9.625" y2="14" id="直线备份-15"></line>
                                <line x1="10.2083333" y1="0" x2="10.2083333" y2="14" id="直线备份-16"></line>
                                <line x1="10.7916667" y1="0" x2="10.7916667" y2="14" id="直线备份-17"></line>
                                <line x1="11.375" y1="0" x2="11.375" y2="14" id="直线备份-18"></line>
                                <line x1="11.9583333" y1="0" x2="11.9583333" y2="14" id="直线备份-19"></line>
                                <line x1="12.5416667" y1="0" x2="12.5416667" y2="14" id="直线备份-20"></line>
                                <line x1="13.125" y1="0" x2="13.125" y2="14" id="直线备份-21"></line>
                            </g>
                        </g>
                        <g id="Keyline" opacity="0" transform="translate(0.583333, 1.166667)" stroke="#8E74FF" stroke-opacity="0.05" stroke-width="0.5">
                            <rect id="正方形-大" x="1.41666667" y="0.833333333" width="10" height="10" rx="0.583333333"></rect>
                            <rect id="正方形-小" x="3.16666667" y="2.58333333" width="6.5" height="6.5" rx="0.583333333"></rect>
                            <rect id="矩形-竖" x="2" y="0.25" width="8.83333333" height="11.1666667" rx="0.583333333"></rect>
                            <rect id="矩形-横" x="0.833333333" y="1.41666667" width="11.1666667" height="8.83333333" rx="0.583333333"></rect>
                            <circle id="圆形" cx="6.41666667" cy="5.83333333" r="5.58333333"></circle>
                            <path d="M6.41666667,0.498965873 L12.3997215,10.8333333 L0.433611821,10.8333333 L6.41666667,0.498965873 Z" id="三角形"></path>
                        </g>
                    </g>
                </g>
            </g>
        </g>
    </g>
</svg>