<?xml version="1.0" encoding="UTF-8"?>
<svg width="16px" height="16px" viewBox="0 0 16 16" version="1.1" xmlns="http://www.w3.org/2000/svg" xmlns:xlink="http://www.w3.org/1999/xlink">
    <title>编组</title>
    <g id="2023-03-06" stroke="none" stroke-width="1" fill="none" fill-rule="evenodd">
        <g id="状态配色-场景4" transform="translate(-1305.000000, -840.000000)">
            <g id="编组-40" transform="translate(1274.000000, 532.000000)">
                <g id="编组-31" transform="translate(24.000000, 304.000000)">
                    <g id="01图标-/-01通用图标-/-01单色线性-/-动作-/check" transform="translate(8.000000, 5.000000)">
                        <rect id="背景" fill="#FEA873" opacity="0" x="0" y="0" width="14" height="14"></rect>
                        <g id="网格" opacity="0" transform="translate(0.000000, 0.000000)" stroke="#FEA873" stroke-linecap="square" stroke-width="0.5">
                            <g id="竖线" transform="translate(0.291667, 0.000000)">
                                <line x1="0.291666667" y1="0" x2="0.291666667" y2="14" id="直线"></line>
                                <line x1="0.875" y1="0" x2="0.875" y2="14" id="直线"></line>
                                <line x1="1.45833333" y1="0" x2="1.45833333" y2="14" id="直线备份"></line>
                                <line x1="2.04166667" y1="0" x2="2.04166667" y2="14" id="直线备份-2"></line>
                                <line x1="2.625" y1="0" x2="2.625" y2="14" id="直线备份-3"></line>
                                <line x1="3.20833333" y1="0" x2="3.20833333" y2="14" id="直线备份-4"></line>
                                <line x1="3.79166667" y1="0" x2="3.79166667" y2="14" id="直线备份-5"></line>
                                <line x1="4.375" y1="0" x2="4.375" y2="14" id="直线备份-6"></line>
                                <line x1="4.95833333" y1="0" x2="4.95833333" y2="14" id="直线备份-7"></line>
                                <line x1="5.54166667" y1="0" x2="5.54166667" y2="14" id="直线备份-8"></line>
                                <line x1="6.125" y1="0" x2="6.125" y2="14" id="直线备份-9"></line>
                                <line x1="6.70833333" y1="0" x2="6.70833333" y2="14" id="直线备份-10"></line>
                                <line x1="7.29166667" y1="0" x2="7.29166667" y2="14" id="直线备份-11"></line>
                                <line x1="7.875" y1="0" x2="7.875" y2="14" id="直线备份-12"></line>
                                <line x1="8.45833333" y1="0" x2="8.45833333" y2="14" id="直线备份-13"></line>
                                <line x1="9.04166667" y1="0" x2="9.04166667" y2="14" id="直线备份-14"></line>
                                <line x1="9.625" y1="0" x2="9.625" y2="14" id="直线备份-15"></line>
                                <line x1="10.2083333" y1="0" x2="10.2083333" y2="14" id="直线备份-16"></line>
                                <line x1="10.7916667" y1="0" x2="10.7916667" y2="14" id="直线备份-17"></line>
                                <line x1="11.375" y1="0" x2="11.375" y2="14" id="直线备份-18"></line>
                                <line x1="11.9583333" y1="0" x2="11.9583333" y2="14" id="直线备份-19"></line>
                                <line x1="12.5416667" y1="0" x2="12.5416667" y2="14" id="直线备份-20"></line>
                                <line x1="13.125" y1="0" x2="13.125" y2="14" id="直线备份-21"></line>
                            </g>
                            <g id="横线" transform="translate(7.000000, 7.000000) rotate(-270.000000) translate(-7.000000, -7.000000) translate(0.291667, 0.000000)">
                                <line x1="0.291666667" y1="1.42108547e-14" x2="0.291666667" y2="14" id="直线"></line>
                                <line x1="0.875" y1="1.42108547e-14" x2="0.875" y2="14" id="直线"></line>
                                <line x1="1.45833333" y1="1.42108547e-14" x2="1.45833333" y2="14" id="直线备份"></line>
                                <line x1="2.04166667" y1="1.42108547e-14" x2="2.04166667" y2="14" id="直线备份-2"></line>
                                <line x1="2.625" y1="1.42108547e-14" x2="2.625" y2="14" id="直线备份-3"></line>
                                <line x1="3.20833333" y1="1.42108547e-14" x2="3.20833333" y2="14" id="直线备份-4"></line>
                                <line x1="3.79166667" y1="1.42108547e-14" x2="3.79166667" y2="14" id="直线备份-5"></line>
                                <line x1="4.375" y1="0" x2="4.375" y2="14" id="直线备份-6"></line>
                                <line x1="4.95833333" y1="0" x2="4.95833333" y2="14" id="直线备份-7"></line>
                                <line x1="5.54166667" y1="0" x2="5.54166667" y2="14" id="直线备份-8"></line>
                                <line x1="6.125" y1="0" x2="6.125" y2="14" id="直线备份-9"></line>
                                <line x1="6.70833333" y1="0" x2="6.70833333" y2="14" id="直线备份-10"></line>
                                <line x1="7.29166667" y1="0" x2="7.29166667" y2="14" id="直线备份-11"></line>
                                <line x1="7.875" y1="0" x2="7.875" y2="14" id="直线备份-12"></line>
                                <line x1="8.45833333" y1="0" x2="8.45833333" y2="14" id="直线备份-13"></line>
                                <line x1="9.04166667" y1="0" x2="9.04166667" y2="14" id="直线备份-14"></line>
                                <line x1="9.625" y1="0" x2="9.625" y2="14" id="直线备份-15"></line>
                                <line x1="10.2083333" y1="0" x2="10.2083333" y2="14" id="直线备份-16"></line>
                                <line x1="10.7916667" y1="0" x2="10.7916667" y2="14" id="直线备份-17"></line>
                                <line x1="11.375" y1="0" x2="11.375" y2="14" id="直线备份-18"></line>
                                <line x1="11.9583333" y1="0" x2="11.9583333" y2="14" id="直线备份-19"></line>
                                <line x1="12.5416667" y1="0" x2="12.5416667" y2="14" id="直线备份-20"></line>
                                <line x1="13.125" y1="0" x2="13.125" y2="14" id="直线备份-21"></line>
                            </g>
                        </g>
                        <g id="Keyline" opacity="0" transform="translate(0.583333, 1.166667)" stroke="#FEA873" stroke-opacity="0.05" stroke-width="0.5">
                            <rect id="正方形-大" x="1.41666667" y="0.833333333" width="10" height="10" rx="0.583333333"></rect>
                            <rect id="正方形-小" x="3.16666667" y="2.58333333" width="6.5" height="6.5" rx="0.583333333"></rect>
                            <rect id="矩形-竖" x="2" y="0.25" width="8.83333333" height="11.1666667" rx="0.583333333"></rect>
                            <rect id="矩形-横" x="0.833333333" y="1.41666667" width="11.1666667" height="8.83333333" rx="0.583333333"></rect>
                            <circle id="圆形" cx="6.41666667" cy="5.83333333" r="5.58333333"></circle>
                            <path d="M6.41666667,0.498965873 L12.3997215,10.8333333 L0.433611821,10.8333333 L6.41666667,0.498965873 Z" id="三角形"></path>
                        </g>
                        <g id="icon" transform="translate(1.166667, 1.166667)" fill="#FEA873" fill-rule="nonzero">
                            <path d="M5.83333333,0 C9.05499437,0 11.6666667,2.61167229 11.6666667,5.83333333 C11.6666667,9.05499437 9.05499437,11.6666667 5.83333333,11.6666667 C2.61167229,11.6666667 0,9.05499437 0,5.83333333 C0,2.61167229 2.61167229,0 5.83333333,0 Z M7.99581229,3.67085438 C7.78552998,3.46057207 7.4546452,3.4443965 7.22580866,3.62232769 L7.17085438,3.67085438 L5.833,5.008 L4.49581229,3.67085438 L4.44085801,3.62232769 C4.21202147,3.4443965 3.88113669,3.46057207 3.67085438,3.67085438 C3.44304854,3.89866021 3.44304854,4.26800645 3.67085438,4.49581229 L5.008,5.833 L3.67085438,7.17085438 C3.44304854,7.39866021 3.44304854,7.76800645 3.67085438,7.99581229 C3.88113669,8.2060946 4.21202147,8.22227016 4.44085801,8.04433898 L4.49581229,7.99581229 L5.833,6.658 L7.17085438,7.99581229 L7.22580866,8.04433898 C7.4546452,8.22227016 7.78552998,8.2060946 7.99581229,7.99581229 C8.22361813,7.76800645 8.22361813,7.39866021 7.99581229,7.17085438 L6.658,5.833 L7.99581229,4.49581229 C8.22361813,4.26800645 8.22361813,3.89866021 7.99581229,3.67085438 Z" id="形状结合"></path>
                        </g>
                    </g>
                </g>
            </g>
        </g>
    </g>
</svg>