<?xml version="1.0" encoding="UTF-8"?>
<svg width="16px" height="16px" viewBox="0 0 16 16" version="1.1" xmlns="http://www.w3.org/2000/svg" xmlns:xlink="http://www.w3.org/1999/xlink">
    <title>编组</title>
    <g id="2023-03-06" stroke="none" stroke-width="1" fill="none" fill-rule="evenodd">
        <g id="状态配色-场景4" transform="translate(-1305.000000, -560.000000)">
            <g id="编组-40" transform="translate(1274.000000, 532.000000)">
                <g id="编组-6" transform="translate(24.000000, 24.000000)">
                    <g id="01图标-/-01通用图标-/-01单色线性-/-动作-/check" transform="translate(8.000000, 5.000000)">
                        <rect id="背景" fill="#B9C2CB" opacity="0" x="0" y="0" width="14" height="14"></rect>
                        <path d="M11.0833333,5.83333333 C11.3824876,5.83333333 11.6290458,6.05852344 11.6627422,6.34863768 L11.6666667,6.41666667 L11.6666667,11.0833333 C11.6666667,11.3824876 11.4414766,11.6290458 11.1513623,11.6627422 L11.0833333,11.6666667 L2.91666667,11.6666667 C2.61751243,11.6666667 2.37095416,11.4414766 2.33725784,11.1513623 L2.33333333,11.0833333 L2.33333333,6.41666667 C2.33333333,6.11751243 2.55852344,5.87095416 2.84863768,5.83725784 L2.91666667,5.83333333 L11.0833333,5.83333333 Z M8.16666667,7 L5.83333333,7 L5.76530434,7.00392451 C5.47519011,7.03762082 5.25,7.28417909 5.25,7.58333333 C5.25,7.88248757 5.47519011,8.12904584 5.76530434,8.16274216 L5.83333333,8.16666667 L8.16666667,8.16666667 L8.23469566,8.16274216 C8.52480989,8.12904584 8.75,7.88248757 8.75,7.58333333 C8.75,7.26116723 8.48883277,7 8.16666667,7 Z M11.0833333,1.75 C11.6983777,1.75 12.202263,2.22592871 12.2468,2.82959697 L12.25,2.91666667 L12.25,4.66666667 C12.25,4.96582091 12.0248099,5.21237918 11.7346957,5.24607549 L11.6666667,5.25 L2.33333333,5.25 C2.03417909,5.25 1.78762082,5.02480989 1.75392451,4.73469566 L1.75,4.66666667 L1.75,2.91666667 C1.75,2.30162229 2.22592871,1.79773701 2.82959697,1.75320001 L2.91666667,1.75 L11.0833333,1.75 Z" id="形状" fill="#B9C2CB" fill-rule="nonzero"></path>
                        <g id="网格" opacity="0" stroke="#B9C2CB" stroke-linecap="square" stroke-width="0.5">
                            <g id="竖线" transform="translate(0.291667, 0.000000)">
                                <line x1="0.291666667" y1="0" x2="0.291666667" y2="14" id="直线"></line>
                                <line x1="0.875" y1="0" x2="0.875" y2="14" id="直线"></line>
                                <line x1="1.45833333" y1="0" x2="1.45833333" y2="14" id="直线备份"></line>
                                <line x1="2.04166667" y1="0" x2="2.04166667" y2="14" id="直线备份-2"></line>
                                <line x1="2.625" y1="0" x2="2.625" y2="14" id="直线备份-3"></line>
                                <line x1="3.20833333" y1="0" x2="3.20833333" y2="14" id="直线备份-4"></line>
                                <line x1="3.79166667" y1="0" x2="3.79166667" y2="14" id="直线备份-5"></line>
                                <line x1="4.375" y1="0" x2="4.375" y2="14" id="直线备份-6"></line>
                                <line x1="4.95833333" y1="0" x2="4.95833333" y2="14" id="直线备份-7"></line>
                                <line x1="5.54166667" y1="0" x2="5.54166667" y2="14" id="直线备份-8"></line>
                                <line x1="6.125" y1="0" x2="6.125" y2="14" id="直线备份-9"></line>
                                <line x1="6.70833333" y1="0" x2="6.70833333" y2="14" id="直线备份-10"></line>
                                <line x1="7.29166667" y1="0" x2="7.29166667" y2="14" id="直线备份-11"></line>
                                <line x1="7.875" y1="0" x2="7.875" y2="14" id="直线备份-12"></line>
                                <line x1="8.45833333" y1="0" x2="8.45833333" y2="14" id="直线备份-13"></line>
                                <line x1="9.04166667" y1="0" x2="9.04166667" y2="14" id="直线备份-14"></line>
                                <line x1="9.625" y1="0" x2="9.625" y2="14" id="直线备份-15"></line>
                                <line x1="10.2083333" y1="0" x2="10.2083333" y2="14" id="直线备份-16"></line>
                                <line x1="10.7916667" y1="0" x2="10.7916667" y2="14" id="直线备份-17"></line>
                                <line x1="11.375" y1="0" x2="11.375" y2="14" id="直线备份-18"></line>
                                <line x1="11.9583333" y1="0" x2="11.9583333" y2="14" id="直线备份-19"></line>
                                <line x1="12.5416667" y1="0" x2="12.5416667" y2="14" id="直线备份-20"></line>
                                <line x1="13.125" y1="0" x2="13.125" y2="14" id="直线备份-21"></line>
                            </g>
                            <g id="横线" transform="translate(7.000000, 7.000000) rotate(-270.000000) translate(-7.000000, -7.000000) translate(0.291667, 0.000000)">
                                <line x1="0.291666667" y1="0" x2="0.291666667" y2="14" id="直线"></line>
                                <line x1="0.875" y1="0" x2="0.875" y2="14" id="直线"></line>
                                <line x1="1.45833333" y1="0" x2="1.45833333" y2="14" id="直线备份"></line>
                                <line x1="2.04166667" y1="0" x2="2.04166667" y2="14" id="直线备份-2"></line>
                                <line x1="2.625" y1="0" x2="2.625" y2="14" id="直线备份-3"></line>
                                <line x1="3.20833333" y1="0" x2="3.20833333" y2="14" id="直线备份-4"></line>
                                <line x1="3.79166667" y1="0" x2="3.79166667" y2="14" id="直线备份-5"></line>
                                <line x1="4.375" y1="0" x2="4.375" y2="14" id="直线备份-6"></line>
                                <line x1="4.95833333" y1="0" x2="4.95833333" y2="14" id="直线备份-7"></line>
                                <line x1="5.54166667" y1="0" x2="5.54166667" y2="14" id="直线备份-8"></line>
                                <line x1="6.125" y1="0" x2="6.125" y2="14" id="直线备份-9"></line>
                                <line x1="6.70833333" y1="0" x2="6.70833333" y2="14" id="直线备份-10"></line>
                                <line x1="7.29166667" y1="0" x2="7.29166667" y2="14" id="直线备份-11"></line>
                                <line x1="7.875" y1="0" x2="7.875" y2="14" id="直线备份-12"></line>
                                <line x1="8.45833333" y1="0" x2="8.45833333" y2="14" id="直线备份-13"></line>
                                <line x1="9.04166667" y1="0" x2="9.04166667" y2="14" id="直线备份-14"></line>
                                <line x1="9.625" y1="0" x2="9.625" y2="14" id="直线备份-15"></line>
                                <line x1="10.2083333" y1="0" x2="10.2083333" y2="14" id="直线备份-16"></line>
                                <line x1="10.7916667" y1="0" x2="10.7916667" y2="14" id="直线备份-17"></line>
                                <line x1="11.375" y1="0" x2="11.375" y2="14" id="直线备份-18"></line>
                                <line x1="11.9583333" y1="0" x2="11.9583333" y2="14" id="直线备份-19"></line>
                                <line x1="12.5416667" y1="0" x2="12.5416667" y2="14" id="直线备份-20"></line>
                                <line x1="13.125" y1="0" x2="13.125" y2="14" id="直线备份-21"></line>
                            </g>
                        </g>
                        <g id="Keyline" opacity="0" transform="translate(0.583333, 1.166667)" stroke="#B9C2CB" stroke-opacity="0.05" stroke-width="0.5">
                            <rect id="正方形-大" x="1.41666667" y="0.833333333" width="10" height="10" rx="0.583333333"></rect>
                            <rect id="正方形-小" x="3.16666667" y="2.58333333" width="6.5" height="6.5" rx="0.583333333"></rect>
                            <rect id="矩形-竖" x="2" y="0.25" width="8.83333333" height="11.1666667" rx="0.583333333"></rect>
                            <rect id="矩形-横" x="0.833333333" y="1.41666667" width="11.1666667" height="8.83333333" rx="0.583333333"></rect>
                            <circle id="圆形" cx="6.41666667" cy="5.83333333" r="5.58333333"></circle>
                            <path d="M6.41666667,0.498965873 L12.3997215,10.8333333 L0.433611821,10.8333333 L6.41666667,0.498965873 Z" id="三角形"></path>
                        </g>
                        <path d="M9.33333333,5.83333333" id="路径-41" stroke="#B9C2CB" stroke-width="0.583333333"></path>
                    </g>
                </g>
            </g>
        </g>
    </g>
</svg>