<?xml version="1.0" encoding="UTF-8"?>
<svg width="16px" height="16px" viewBox="0 0 16 16" version="1.1" xmlns="http://www.w3.org/2000/svg" xmlns:xlink="http://www.w3.org/1999/xlink">
    <title>编组</title>
    <g id="2023-03-06" stroke="none" stroke-width="1" fill="none" fill-rule="evenodd">
        <g id="状态配色-场景3" transform="translate(-563.000000, -260.000000)">
            <g id="编组-5备份-18" transform="translate(532.000000, 196.000000)">
                <g id="编组-14" transform="translate(24.000000, 60.000000)">
                    <g id="01图标-/-01通用图标-/-01单色线性-/-动作-/check" transform="translate(8.000000, 5.000000)">
                        <rect id="背景" fill="#FFFFFF" opacity="0" x="0" y="0" width="14" height="14"></rect>
                        <path d="M8.75,1.75 C9.36504438,1.75 9.86892965,2.22592871 9.91346665,2.82959697 L9.91666667,2.91666667 L9.91666667,3.5 L11.0833333,3.5 C11.6983777,3.5 12.202263,3.97592871 12.2468,4.57959697 L12.25,4.66666667 L12.25,10.5 C12.25,11.4319805 11.5214634,12.1938022 10.6028258,12.2470293 L10.5,12.25 L3.5,12.25 C2.56801948,12.25 1.80619782,11.5214634 1.75297074,10.6028258 L1.75,10.5 L1.75,4.66666667 C1.75,4.05162229 2.22592871,3.54773701 2.82959697,3.50320001 L2.91666667,3.5 L4.08333333,3.5 L4.08333333,2.91666667 C4.08333333,2.30162229 4.55926204,1.79773701 5.1629303,1.75320001 L5.25,1.75 L8.75,1.75 Z M7.875,5.83333333 L6.125,5.83333333 L6.0303803,5.84096818 C5.75321212,5.88617677 5.54166667,6.12671717 5.54166667,6.41666667 L5.54166667,6.99933333 L2.91666667,7 L2.91666667,8.16666667 L5.54166667,8.16633333 L5.54166667,8.75 C5.54166667,9.0721661 5.8028339,9.33333333 6.125,9.33333333 L7.875,9.33333333 L7.9696197,9.32569848 C8.24678788,9.2804899 8.45833333,9.03994949 8.45833333,8.75 L8.45766667,8.16633333 L11.0833333,8.16666667 L11.0833333,7 L8.45766667,6.99933333 L8.45833333,6.41666667 C8.45833333,6.09450056 8.1971661,5.83333333 7.875,5.83333333 Z M7.29166667,7 L7.29166667,8.16666667 L6.70833333,8.16666667 L6.70833333,7 L7.29166667,7 Z M8.75,2.91666667 L5.25,2.91666667 L5.25,3.5 L8.75,3.5 L8.75,2.91666667 Z" id="形状结合" fill="#FFFFFF" fill-rule="nonzero"></path>
                        <g id="网格" opacity="0" transform="translate(0.000000, 0.000000)" stroke="#FFFFFF" stroke-linecap="square" stroke-width="0.5">
                            <g id="竖线" transform="translate(0.291667, 0.000000)">
                                <line x1="0.291666667" y1="0" x2="0.291666667" y2="14" id="直线"></line>
                                <line x1="0.875" y1="0" x2="0.875" y2="14" id="直线"></line>
                                <line x1="1.45833333" y1="0" x2="1.45833333" y2="14" id="直线备份"></line>
                                <line x1="2.04166667" y1="0" x2="2.04166667" y2="14" id="直线备份-2"></line>
                                <line x1="2.625" y1="0" x2="2.625" y2="14" id="直线备份-3"></line>
                                <line x1="3.20833333" y1="0" x2="3.20833333" y2="14" id="直线备份-4"></line>
                                <line x1="3.79166667" y1="0" x2="3.79166667" y2="14" id="直线备份-5"></line>
                                <line x1="4.375" y1="0" x2="4.375" y2="14" id="直线备份-6"></line>
                                <line x1="4.95833333" y1="0" x2="4.95833333" y2="14" id="直线备份-7"></line>
                                <line x1="5.54166667" y1="0" x2="5.54166667" y2="14" id="直线备份-8"></line>
                                <line x1="6.125" y1="0" x2="6.125" y2="14" id="直线备份-9"></line>
                                <line x1="6.70833333" y1="0" x2="6.70833333" y2="14" id="直线备份-10"></line>
                                <line x1="7.29166667" y1="0" x2="7.29166667" y2="14" id="直线备份-11"></line>
                                <line x1="7.875" y1="0" x2="7.875" y2="14" id="直线备份-12"></line>
                                <line x1="8.45833333" y1="0" x2="8.45833333" y2="14" id="直线备份-13"></line>
                                <line x1="9.04166667" y1="0" x2="9.04166667" y2="14" id="直线备份-14"></line>
                                <line x1="9.625" y1="0" x2="9.625" y2="14" id="直线备份-15"></line>
                                <line x1="10.2083333" y1="0" x2="10.2083333" y2="14" id="直线备份-16"></line>
                                <line x1="10.7916667" y1="0" x2="10.7916667" y2="14" id="直线备份-17"></line>
                                <line x1="11.375" y1="0" x2="11.375" y2="14" id="直线备份-18"></line>
                                <line x1="11.9583333" y1="0" x2="11.9583333" y2="14" id="直线备份-19"></line>
                                <line x1="12.5416667" y1="0" x2="12.5416667" y2="14" id="直线备份-20"></line>
                                <line x1="13.125" y1="0" x2="13.125" y2="14" id="直线备份-21"></line>
                            </g>
                            <g id="横线" transform="translate(7.000000, 7.000000) rotate(-270.000000) translate(-7.000000, -7.000000) translate(0.291667, 0.000000)">
                                <line x1="0.291666667" y1="1.42108547e-14" x2="0.291666667" y2="14" id="直线"></line>
                                <line x1="0.875" y1="1.42108547e-14" x2="0.875" y2="14" id="直线"></line>
                                <line x1="1.45833333" y1="1.42108547e-14" x2="1.45833333" y2="14" id="直线备份"></line>
                                <line x1="2.04166667" y1="1.42108547e-14" x2="2.04166667" y2="14" id="直线备份-2"></line>
                                <line x1="2.625" y1="1.42108547e-14" x2="2.625" y2="14" id="直线备份-3"></line>
                                <line x1="3.20833333" y1="1.42108547e-14" x2="3.20833333" y2="14" id="直线备份-4"></line>
                                <line x1="3.79166667" y1="1.42108547e-14" x2="3.79166667" y2="14" id="直线备份-5"></line>
                                <line x1="4.375" y1="1.42108547e-14" x2="4.375" y2="14" id="直线备份-6"></line>
                                <line x1="4.95833333" y1="1.42108547e-14" x2="4.95833333" y2="14" id="直线备份-7"></line>
                                <line x1="5.54166667" y1="1.42108547e-14" x2="5.54166667" y2="14" id="直线备份-8"></line>
                                <line x1="6.125" y1="1.42108547e-14" x2="6.125" y2="14" id="直线备份-9"></line>
                                <line x1="6.70833333" y1="1.42108547e-14" x2="6.70833333" y2="14" id="直线备份-10"></line>
                                <line x1="7.29166667" y1="1.42108547e-14" x2="7.29166667" y2="14" id="直线备份-11"></line>
                                <line x1="7.875" y1="1.42108547e-14" x2="7.875" y2="14" id="直线备份-12"></line>
                                <line x1="8.45833333" y1="1.42108547e-14" x2="8.45833333" y2="14" id="直线备份-13"></line>
                                <line x1="9.04166667" y1="0" x2="9.04166667" y2="14" id="直线备份-14"></line>
                                <line x1="9.625" y1="0" x2="9.625" y2="14" id="直线备份-15"></line>
                                <line x1="10.2083333" y1="0" x2="10.2083333" y2="14" id="直线备份-16"></line>
                                <line x1="10.7916667" y1="0" x2="10.7916667" y2="14" id="直线备份-17"></line>
                                <line x1="11.375" y1="0" x2="11.375" y2="14" id="直线备份-18"></line>
                                <line x1="11.9583333" y1="0" x2="11.9583333" y2="14" id="直线备份-19"></line>
                                <line x1="12.5416667" y1="0" x2="12.5416667" y2="14" id="直线备份-20"></line>
                                <line x1="13.125" y1="0" x2="13.125" y2="14" id="直线备份-21"></line>
                            </g>
                        </g>
                        <g id="Keyline" opacity="0" transform="translate(0.583333, 1.166667)" stroke="#FFFFFF" stroke-opacity="0.05" stroke-width="0.5">
                            <rect id="正方形-大" x="1.41666667" y="0.833333333" width="10" height="10" rx="0.583333333"></rect>
                            <rect id="正方形-小" x="3.16666667" y="2.58333333" width="6.5" height="6.5" rx="0.583333333"></rect>
                            <rect id="矩形-竖" x="2" y="0.25" width="8.83333333" height="11.1666667" rx="0.583333333"></rect>
                            <rect id="矩形-横" x="0.833333333" y="1.41666667" width="11.1666667" height="8.83333333" rx="0.583333333"></rect>
                            <circle id="圆形" cx="6.41666667" cy="5.83333333" r="5.58333333"></circle>
                            <path d="M6.41666667,0.498965873 L12.3997215,10.8333333 L0.433611821,10.8333333 L6.41666667,0.498965873 Z" id="三角形"></path>
                        </g>
                    </g>
                </g>
            </g>
        </g>
    </g>
</svg>