<?xml version="1.0" encoding="UTF-8"?>
<svg width="16px" height="16px" viewBox="0 0 16 16" version="1.1" xmlns="http://www.w3.org/2000/svg" xmlns:xlink="http://www.w3.org/1999/xlink">
    <title>编组</title>
    <g id="2023-03-06" stroke="none" stroke-width="1" fill="none" fill-rule="evenodd">
        <g id="状态配色-场景3" transform="translate(-563.000000, -556.000000)">
            <g id="编组-5备份-16" transform="translate(532.000000, 492.000000)">
                <g id="编组-16" transform="translate(24.000000, 60.000000)">
                    <g id="01图标-/-01通用图标-/-01单色线性-/-动作-/check" transform="translate(8.000000, 5.000000)">
                        <rect id="背景" fill="#FFFFFF" opacity="0" x="0" y="0" width="14" height="14"></rect>
                        <g id="网格" opacity="0" stroke="#FFFFFF" stroke-linecap="square" stroke-width="0.5">
                            <g id="竖线" transform="translate(0.291667, 0.000000)">
                                <line x1="0.291666667" y1="0" x2="0.291666667" y2="14" id="直线"></line>
                                <line x1="0.875" y1="0" x2="0.875" y2="14" id="直线"></line>
                                <line x1="1.45833333" y1="0" x2="1.45833333" y2="14" id="直线备份"></line>
                                <line x1="2.04166667" y1="0" x2="2.04166667" y2="14" id="直线备份-2"></line>
                                <line x1="2.625" y1="0" x2="2.625" y2="14" id="直线备份-3"></line>
                                <line x1="3.20833333" y1="0" x2="3.20833333" y2="14" id="直线备份-4"></line>
                                <line x1="3.79166667" y1="0" x2="3.79166667" y2="14" id="直线备份-5"></line>
                                <line x1="4.375" y1="0" x2="4.375" y2="14" id="直线备份-6"></line>
                                <line x1="4.95833333" y1="0" x2="4.95833333" y2="14" id="直线备份-7"></line>
                                <line x1="5.54166667" y1="0" x2="5.54166667" y2="14" id="直线备份-8"></line>
                                <line x1="6.125" y1="0" x2="6.125" y2="14" id="直线备份-9"></line>
                                <line x1="6.70833333" y1="0" x2="6.70833333" y2="14" id="直线备份-10"></line>
                                <line x1="7.29166667" y1="0" x2="7.29166667" y2="14" id="直线备份-11"></line>
                                <line x1="7.875" y1="0" x2="7.875" y2="14" id="直线备份-12"></line>
                                <line x1="8.45833333" y1="0" x2="8.45833333" y2="14" id="直线备份-13"></line>
                                <line x1="9.04166667" y1="0" x2="9.04166667" y2="14" id="直线备份-14"></line>
                                <line x1="9.625" y1="0" x2="9.625" y2="14" id="直线备份-15"></line>
                                <line x1="10.2083333" y1="0" x2="10.2083333" y2="14" id="直线备份-16"></line>
                                <line x1="10.7916667" y1="0" x2="10.7916667" y2="14" id="直线备份-17"></line>
                                <line x1="11.375" y1="0" x2="11.375" y2="14" id="直线备份-18"></line>
                                <line x1="11.9583333" y1="0" x2="11.9583333" y2="14" id="直线备份-19"></line>
                                <line x1="12.5416667" y1="0" x2="12.5416667" y2="14" id="直线备份-20"></line>
                                <line x1="13.125" y1="0" x2="13.125" y2="14" id="直线备份-21"></line>
                            </g>
                            <g id="横线" transform="translate(7.000000, 7.000000) rotate(-270.000000) translate(-7.000000, -7.000000) translate(0.291667, 0.000000)">
                                <line x1="0.291666667" y1="0" x2="0.291666667" y2="14" id="直线"></line>
                                <line x1="0.875" y1="0" x2="0.875" y2="14" id="直线"></line>
                                <line x1="1.45833333" y1="0" x2="1.45833333" y2="14" id="直线备份"></line>
                                <line x1="2.04166667" y1="0" x2="2.04166667" y2="14" id="直线备份-2"></line>
                                <line x1="2.625" y1="0" x2="2.625" y2="14" id="直线备份-3"></line>
                                <line x1="3.20833333" y1="0" x2="3.20833333" y2="14" id="直线备份-4"></line>
                                <line x1="3.79166667" y1="0" x2="3.79166667" y2="14" id="直线备份-5"></line>
                                <line x1="4.375" y1="0" x2="4.375" y2="14" id="直线备份-6"></line>
                                <line x1="4.95833333" y1="0" x2="4.95833333" y2="14" id="直线备份-7"></line>
                                <line x1="5.54166667" y1="0" x2="5.54166667" y2="14" id="直线备份-8"></line>
                                <line x1="6.125" y1="0" x2="6.125" y2="14" id="直线备份-9"></line>
                                <line x1="6.70833333" y1="0" x2="6.70833333" y2="14" id="直线备份-10"></line>
                                <line x1="7.29166667" y1="0" x2="7.29166667" y2="14" id="直线备份-11"></line>
                                <line x1="7.875" y1="0" x2="7.875" y2="14" id="直线备份-12"></line>
                                <line x1="8.45833333" y1="0" x2="8.45833333" y2="14" id="直线备份-13"></line>
                                <line x1="9.04166667" y1="0" x2="9.04166667" y2="14" id="直线备份-14"></line>
                                <line x1="9.625" y1="0" x2="9.625" y2="14" id="直线备份-15"></line>
                                <line x1="10.2083333" y1="0" x2="10.2083333" y2="14" id="直线备份-16"></line>
                                <line x1="10.7916667" y1="0" x2="10.7916667" y2="14" id="直线备份-17"></line>
                                <line x1="11.375" y1="0" x2="11.375" y2="14" id="直线备份-18"></line>
                                <line x1="11.9583333" y1="0" x2="11.9583333" y2="14" id="直线备份-19"></line>
                                <line x1="12.5416667" y1="0" x2="12.5416667" y2="14" id="直线备份-20"></line>
                                <line x1="13.125" y1="0" x2="13.125" y2="14" id="直线备份-21"></line>
                            </g>
                        </g>
                        <g id="Keyline" opacity="0" transform="translate(0.583333, 1.166667)" stroke="#FFFFFF" stroke-opacity="0.05" stroke-width="0.5">
                            <rect id="正方形-大" x="1.41666667" y="0.833333333" width="10" height="10" rx="0.583333333"></rect>
                            <rect id="正方形-小" x="3.16666667" y="2.58333333" width="6.5" height="6.5" rx="0.583333333"></rect>
                            <rect id="矩形-竖" x="2" y="0.25" width="8.83333333" height="11.1666667" rx="0.583333333"></rect>
                            <rect id="矩形-横" x="0.833333333" y="1.41666667" width="11.1666667" height="8.83333333" rx="0.583333333"></rect>
                            <circle id="圆形" cx="6.41666667" cy="5.83333333" r="5.58333333"></circle>
                            <path d="M6.41666667,0.498965873 L12.3997215,10.8333333 L0.433611821,10.8333333 L6.41666667,0.498965873 Z" id="三角形"></path>
                        </g>
                        <path d="M7,2.33333333 C7.55608557,2.33333333 8.05944281,2.65197641 8.29967969,3.14682022 L8.3415893,3.24163351 L11.47825,11.0833333 L11.6666667,11.0833333 C11.9888328,11.0833333 12.25,11.3445006 12.25,11.6666667 C12.25,11.9658209 12.0248099,12.2123792 11.7346957,12.2460755 L11.6666667,12.25 L2.33333333,12.25 C2.01116723,12.25 1.75,11.9888328 1.75,11.6666667 C1.75,11.3675124 1.97519011,11.1209542 2.26530434,11.0872578 L2.33333333,11.0833333 L2.52116667,11.0833333 L5.6584107,3.24163351 C5.87784351,2.69305149 6.40915908,2.33333333 7,2.33333333 Z M9.05568457,8.16666667 L4.94530845,8.16666667 L4.48561557,9.33333333 L9.52084319,9.33333333 L9.05568457,8.16666667 Z M8.12202056,5.83333333 L5.87624486,5.83333333 L5.41154325,7 L8.5892837,7 L8.12202056,5.83333333 Z" id="形状结合" fill="#FFFFFF" fill-rule="nonzero"></path>
                    </g>
                </g>
            </g>
        </g>
    </g>
</svg>