<?xml version="1.0" encoding="UTF-8"?>
<svg width="16px" height="16px" viewBox="0 0 16 16" version="1.1" xmlns="http://www.w3.org/2000/svg" xmlns:xlink="http://www.w3.org/1999/xlink">
    <title>编组</title>
    <g id="2023-03-06" stroke="none" stroke-width="1" fill="none" fill-rule="evenodd">
        <g id="状态配色-场景3" transform="translate(-563.000000, -408.000000)">
            <g id="编组-5备份-15" transform="translate(532.000000, 344.000000)">
                <g id="编组-15" transform="translate(24.000000, 60.000000)">
                    <g id="01图标-/-01通用图标-/-01单色线性-/-动作-/check" transform="translate(8.000000, 5.000000)">
                        <rect id="背景" fill="#FFFFFF" opacity="0" x="0" y="0" width="14" height="14"></rect>
                        <g id="网格" opacity="0" stroke="#FFFFFF" stroke-linecap="square" stroke-width="0.5">
                            <g id="竖线" transform="translate(0.291667, 0.000000)">
                                <line x1="0.291666667" y1="0" x2="0.291666667" y2="14" id="直线"></line>
                                <line x1="0.875" y1="0" x2="0.875" y2="14" id="直线"></line>
                                <line x1="1.45833333" y1="0" x2="1.45833333" y2="14" id="直线备份"></line>
                                <line x1="2.04166667" y1="0" x2="2.04166667" y2="14" id="直线备份-2"></line>
                                <line x1="2.625" y1="0" x2="2.625" y2="14" id="直线备份-3"></line>
                                <line x1="3.20833333" y1="0" x2="3.20833333" y2="14" id="直线备份-4"></line>
                                <line x1="3.79166667" y1="0" x2="3.79166667" y2="14" id="直线备份-5"></line>
                                <line x1="4.375" y1="0" x2="4.375" y2="14" id="直线备份-6"></line>
                                <line x1="4.95833333" y1="0" x2="4.95833333" y2="14" id="直线备份-7"></line>
                                <line x1="5.54166667" y1="0" x2="5.54166667" y2="14" id="直线备份-8"></line>
                                <line x1="6.125" y1="0" x2="6.125" y2="14" id="直线备份-9"></line>
                                <line x1="6.70833333" y1="0" x2="6.70833333" y2="14" id="直线备份-10"></line>
                                <line x1="7.29166667" y1="0" x2="7.29166667" y2="14" id="直线备份-11"></line>
                                <line x1="7.875" y1="0" x2="7.875" y2="14" id="直线备份-12"></line>
                                <line x1="8.45833333" y1="0" x2="8.45833333" y2="14" id="直线备份-13"></line>
                                <line x1="9.04166667" y1="0" x2="9.04166667" y2="14" id="直线备份-14"></line>
                                <line x1="9.625" y1="0" x2="9.625" y2="14" id="直线备份-15"></line>
                                <line x1="10.2083333" y1="0" x2="10.2083333" y2="14" id="直线备份-16"></line>
                                <line x1="10.7916667" y1="0" x2="10.7916667" y2="14" id="直线备份-17"></line>
                                <line x1="11.375" y1="0" x2="11.375" y2="14" id="直线备份-18"></line>
                                <line x1="11.9583333" y1="0" x2="11.9583333" y2="14" id="直线备份-19"></line>
                                <line x1="12.5416667" y1="0" x2="12.5416667" y2="14" id="直线备份-20"></line>
                                <line x1="13.125" y1="0" x2="13.125" y2="14" id="直线备份-21"></line>
                            </g>
                            <g id="横线" transform="translate(7.000000, 7.000000) rotate(-270.000000) translate(-7.000000, -7.000000) translate(0.291667, 0.000000)">
                                <line x1="0.291666667" y1="0" x2="0.291666667" y2="14" id="直线"></line>
                                <line x1="0.875" y1="0" x2="0.875" y2="14" id="直线"></line>
                                <line x1="1.45833333" y1="0" x2="1.45833333" y2="14" id="直线备份"></line>
                                <line x1="2.04166667" y1="0" x2="2.04166667" y2="14" id="直线备份-2"></line>
                                <line x1="2.625" y1="0" x2="2.625" y2="14" id="直线备份-3"></line>
                                <line x1="3.20833333" y1="0" x2="3.20833333" y2="14" id="直线备份-4"></line>
                                <line x1="3.79166667" y1="0" x2="3.79166667" y2="14" id="直线备份-5"></line>
                                <line x1="4.375" y1="0" x2="4.375" y2="14" id="直线备份-6"></line>
                                <line x1="4.95833333" y1="0" x2="4.95833333" y2="14" id="直线备份-7"></line>
                                <line x1="5.54166667" y1="0" x2="5.54166667" y2="14" id="直线备份-8"></line>
                                <line x1="6.125" y1="0" x2="6.125" y2="14" id="直线备份-9"></line>
                                <line x1="6.70833333" y1="0" x2="6.70833333" y2="14" id="直线备份-10"></line>
                                <line x1="7.29166667" y1="0" x2="7.29166667" y2="14" id="直线备份-11"></line>
                                <line x1="7.875" y1="0" x2="7.875" y2="14" id="直线备份-12"></line>
                                <line x1="8.45833333" y1="0" x2="8.45833333" y2="14" id="直线备份-13"></line>
                                <line x1="9.04166667" y1="0" x2="9.04166667" y2="14" id="直线备份-14"></line>
                                <line x1="9.625" y1="0" x2="9.625" y2="14" id="直线备份-15"></line>
                                <line x1="10.2083333" y1="0" x2="10.2083333" y2="14" id="直线备份-16"></line>
                                <line x1="10.7916667" y1="0" x2="10.7916667" y2="14" id="直线备份-17"></line>
                                <line x1="11.375" y1="0" x2="11.375" y2="14" id="直线备份-18"></line>
                                <line x1="11.9583333" y1="0" x2="11.9583333" y2="14" id="直线备份-19"></line>
                                <line x1="12.5416667" y1="0" x2="12.5416667" y2="14" id="直线备份-20"></line>
                                <line x1="13.125" y1="0" x2="13.125" y2="14" id="直线备份-21"></line>
                            </g>
                        </g>
                        <g id="Keyline" opacity="0" transform="translate(0.583333, 1.166667)" stroke="#FFFFFF" stroke-opacity="0.05" stroke-width="0.5">
                            <rect id="正方形-大" x="1.41666667" y="0.833333333" width="10" height="10" rx="0.583333333"></rect>
                            <rect id="正方形-小" x="3.16666667" y="2.58333333" width="6.5" height="6.5" rx="0.583333333"></rect>
                            <rect id="矩形-竖" x="2" y="0.25" width="8.83333333" height="11.1666667" rx="0.583333333"></rect>
                            <rect id="矩形-横" x="0.833333333" y="1.41666667" width="11.1666667" height="8.83333333" rx="0.583333333"></rect>
                            <circle id="圆形" cx="6.41666667" cy="5.83333333" r="5.58333333"></circle>
                            <path d="M6.41666667,0.498965873 L12.3997215,10.8333333 L0.433611821,10.8333333 L6.41666667,0.498965873 Z" id="三角形"></path>
                        </g>
                        <g id="icon" transform="translate(1.237966, 2.017204)" fill="#FFFFFF" fill-rule="nonzero">
                            <path d="M5.11039704,0.153854067 C5.7904869,-0.18666968 6.62767521,0.0538720224 7.01902189,0.719161369 L11.3224907,8.03505828 C11.4543211,8.25917006 11.5238366,8.51445233 11.5238366,8.77446263 C11.5238366,9.57987789 10.8709185,10.232796 10.0655033,10.232796 L1.45856572,10.232796 C1.19855542,10.232796 0.943273144,10.1632805 0.719161369,10.03145 C0.0249463987,9.62308828 -0.206783424,8.72927325 0.201578323,8.03505828 L4.50504709,0.719161369 C4.63076715,0.505437271 4.80890604,0.32729838 5.02263014,0.201578323 Z M5.76203449,7.08279596 C5.37543517,7.08279596 5.06203449,7.39619664 5.06203449,7.78279596 C5.06203449,8.16939529 5.37543517,8.48279596 5.76203449,8.48279596 C6.14863382,8.48279596 6.46203449,8.16939529 6.46203449,7.78279596 C6.46203449,7.39619664 6.14863382,7.08279596 5.76203449,7.08279596 Z M5.76203449,3.23279596 C5.43986839,3.23279596 5.17870116,3.49396319 5.17870116,3.8161293 L5.17870116,6.14946263 L5.18262567,6.21749162 C5.21632198,6.50760585 5.46288025,6.73279596 5.76203449,6.73279596 C6.0842006,6.73279596 6.34536782,6.47162873 6.34536782,6.14946263 L6.34536782,3.8161293 L6.34144331,3.74810031 C6.307747,3.45798608 6.06118873,3.23279596 5.76203449,3.23279596 Z" id="形状结合"></path>
                        </g>
                    </g>
                </g>
            </g>
        </g>
    </g>
</svg>