<svg xml:space="preserve" viewBox="0 0 24 24" xmlns="http://www.w3.org/2000/svg"><path clip-rule="evenodd" fill="none" d="M0 0h24v24H0z"/><path d="M11.176 2.433a1 1 0 0 1 1.648 0l2.98 4.332 5.04 1.495a1 1 0 0 1 .577 1.466l-.068.101-3.199 4.172.136 5.256a1 1 0 0 1-1.223 1.001l-.11-.032L12 18.471l-4.957 1.753a1 1 0 0 1-1.33-.854l-.003-.115.135-5.256-3.198-4.172a.999.999 0 0 1 .395-1.525l.114-.042 5.039-1.495 2.981-4.332zM12 4.763 9.644 8.19a.999.999 0 0 1-.539.392L5.118 9.763l2.53 3.3c.111.145.18.318.2.498l.006.136-.107 4.155 3.92-1.385c.173-.061.358-.073.535-.037l.131.037 3.919 1.385-.106-4.155a.992.992 0 0 1 .131-.52l.075-.114 2.529-3.3-3.985-1.181a1.008 1.008 0 0 1-.455-.285l-.085-.107L12 4.763zm2.507 7.191a.9.9 0 0 1 .237 1.251 3.037 3.037 0 0 1-.521.584 3.39 3.39 0 0 1-2.222.809c-.833 0-1.622-.29-2.219-.807a3.075 3.075 0 0 1-.525-.587.899.899 0 0 1 1.418-1.102l.069.089c.058.086.13.166.214.238.269.232.639.369 1.042.369.404 0 .775-.137 1.044-.37.055-.048.106-.1.15-.154l.062-.083a.9.9 0 0 1 1.251-.237z"/></svg>