<?xml version="1.0" encoding="UTF-8"?>
<svg width="20px" height="20px" viewBox="0 0 20 20" version="1.1" xmlns="http://www.w3.org/2000/svg" xmlns:xlink="http://www.w3.org/1999/xlink">
    <g id="工作台" stroke="none" stroke-width="1" fill="none" fill-rule="evenodd">
        <g id="流程图-输入" transform="translate(-472.000000, -756.000000)">
            <g id="矩形备份-6" transform="translate(96.000000, 380.000000)">
                <g id="编组-6" transform="translate(36.000000, 92.000000)">
                    <g id="编组-2备份-12" transform="translate(200.000000, 212.000000)">
                        <g id="重叠" transform="translate(140.000000, 72.000000)">
                            <path d="M10.2555408,-4.14336123e-16 L20,0 L20,0 L20,9.7444592 C20,13.3105342 19.6286976,14.6036791 18.9314692,15.9073828 C18.2342408,17.2110865 17.2110865,18.2342408 15.9073828,18.9314692 C14.6036791,19.6286976 13.3105342,20 9.7444592,20 L0,20 L0,20 L2.76224082e-16,10.2555408 C-1.60494146e-16,6.68946584 0.371302445,5.39632089 1.06853082,4.09261719 C1.76575919,2.78891348 2.78891348,1.76575919 4.09261719,1.06853082 C5.39632089,0.371302445 6.68946584,2.4074122e-16 10.2555408,-4.14336123e-16 Z" id="矩形" fill="#A3AFBB"></path>
                            <g id="01图标-/-01通用图标-/-01单色线性-/-箭头-/down" transform="translate(3.000000, 3.000000)">
                                <rect id="背景" fill="#FFFFFF" opacity="0" x="0" y="0" width="14" height="14"></rect>
                                <g id="网格" opacity="0" transform="translate(0.000000, 0.000000)" stroke="#FFFFFF" stroke-linecap="square" stroke-width="0.5">
                                    <g id="竖线" transform="translate(0.291667, 0.000000)">
                                        <line x1="0.291666667" y1="0" x2="0.291666667" y2="14" id="直线"></line>
                                        <line x1="0.875" y1="0" x2="0.875" y2="14" id="直线"></line>
                                        <line x1="1.45833333" y1="0" x2="1.45833333" y2="14" id="直线备份"></line>
                                        <line x1="2.04166667" y1="0" x2="2.04166667" y2="14" id="直线备份-2"></line>
                                        <line x1="2.625" y1="0" x2="2.625" y2="14" id="直线备份-3"></line>
                                        <line x1="3.20833333" y1="0" x2="3.20833333" y2="14" id="直线备份-4"></line>
                                        <line x1="3.79166667" y1="0" x2="3.79166667" y2="14" id="直线备份-5"></line>
                                        <line x1="4.375" y1="0" x2="4.375" y2="14" id="直线备份-6"></line>
                                        <line x1="4.95833333" y1="0" x2="4.95833333" y2="14" id="直线备份-7"></line>
                                        <line x1="5.54166667" y1="0" x2="5.54166667" y2="14" id="直线备份-8"></line>
                                        <line x1="6.125" y1="0" x2="6.125" y2="14" id="直线备份-9"></line>
                                        <line x1="6.70833333" y1="0" x2="6.70833333" y2="14" id="直线备份-10"></line>
                                        <line x1="7.29166667" y1="0" x2="7.29166667" y2="14" id="直线备份-11"></line>
                                        <line x1="7.875" y1="0" x2="7.875" y2="14" id="直线备份-12"></line>
                                        <line x1="8.45833333" y1="0" x2="8.45833333" y2="14" id="直线备份-13"></line>
                                        <line x1="9.04166667" y1="0" x2="9.04166667" y2="14" id="直线备份-14"></line>
                                        <line x1="9.625" y1="0" x2="9.625" y2="14" id="直线备份-15"></line>
                                        <line x1="10.2083333" y1="0" x2="10.2083333" y2="14" id="直线备份-16"></line>
                                        <line x1="10.7916667" y1="0" x2="10.7916667" y2="14" id="直线备份-17"></line>
                                        <line x1="11.375" y1="0" x2="11.375" y2="14" id="直线备份-18"></line>
                                        <line x1="11.9583333" y1="0" x2="11.9583333" y2="14" id="直线备份-19"></line>
                                        <line x1="12.5416667" y1="0" x2="12.5416667" y2="14" id="直线备份-20"></line>
                                        <line x1="13.125" y1="0" x2="13.125" y2="14" id="直线备份-21"></line>
                                    </g>
                                    <g id="横线" transform="translate(7.000000, 7.000000) rotate(-270.000000) translate(-7.000000, -7.000000) translate(0.291667, 0.000000)">
                                        <line x1="0.291666667" y1="0" x2="0.291666667" y2="14" id="直线"></line>
                                        <line x1="0.875" y1="0" x2="0.875" y2="14" id="直线"></line>
                                        <line x1="1.45833333" y1="0" x2="1.45833333" y2="14" id="直线备份"></line>
                                        <line x1="2.04166667" y1="0" x2="2.04166667" y2="14" id="直线备份-2"></line>
                                        <line x1="2.625" y1="0" x2="2.625" y2="14" id="直线备份-3"></line>
                                        <line x1="3.20833333" y1="0" x2="3.20833333" y2="14" id="直线备份-4"></line>
                                        <line x1="3.79166667" y1="0" x2="3.79166667" y2="14" id="直线备份-5"></line>
                                        <line x1="4.375" y1="0" x2="4.375" y2="14" id="直线备份-6"></line>
                                        <line x1="4.95833333" y1="0" x2="4.95833333" y2="14" id="直线备份-7"></line>
                                        <line x1="5.54166667" y1="0" x2="5.54166667" y2="14" id="直线备份-8"></line>
                                        <line x1="6.125" y1="0" x2="6.125" y2="14" id="直线备份-9"></line>
                                        <line x1="6.70833333" y1="0" x2="6.70833333" y2="14" id="直线备份-10"></line>
                                        <line x1="7.29166667" y1="0" x2="7.29166667" y2="14" id="直线备份-11"></line>
                                        <line x1="7.875" y1="0" x2="7.875" y2="14" id="直线备份-12"></line>
                                        <line x1="8.45833333" y1="0" x2="8.45833333" y2="14" id="直线备份-13"></line>
                                        <line x1="9.04166667" y1="0" x2="9.04166667" y2="14" id="直线备份-14"></line>
                                        <line x1="9.625" y1="0" x2="9.625" y2="14" id="直线备份-15"></line>
                                        <line x1="10.2083333" y1="0" x2="10.2083333" y2="14" id="直线备份-16"></line>
                                        <line x1="10.7916667" y1="0" x2="10.7916667" y2="14" id="直线备份-17"></line>
                                        <line x1="11.375" y1="0" x2="11.375" y2="14" id="直线备份-18"></line>
                                        <line x1="11.9583333" y1="0" x2="11.9583333" y2="14" id="直线备份-19"></line>
                                        <line x1="12.5416667" y1="0" x2="12.5416667" y2="14" id="直线备份-20"></line>
                                        <line x1="13.125" y1="0" x2="13.125" y2="14" id="直线备份-21"></line>
                                    </g>
                                </g>
                                <g id="Keyline" opacity="0" transform="translate(0.583333, 1.166667)" stroke="#FFFFFF" stroke-opacity="0.05" stroke-width="0.5">
                                    <rect id="正方形-大" x="1.41666667" y="0.833333333" width="10" height="10" rx="0.583333333"></rect>
                                    <rect id="正方形-小" x="3.16666667" y="2.58333333" width="6.5" height="6.5" rx="0.583333333"></rect>
                                    <rect id="矩形-竖" x="2" y="0.25" width="8.83333333" height="11.1666667" rx="0.583333333"></rect>
                                    <rect id="矩形-横" x="0.833333333" y="1.41666667" width="11.1666667" height="8.83333333" rx="0.583333333"></rect>
                                    <circle id="圆形" cx="6.41666667" cy="5.83333333" r="5.58333333"></circle>
                                    <path d="M6.41666667,0.498965873 L12.3997215,10.8333333 L0.433611821,10.8333333 L6.41666667,0.498965873 Z" id="三角形"></path>
                                </g>
                                <g id="icon" transform="translate(1.750000, 2.916667)" stroke="#FFFFFF" stroke-linecap="round" stroke-linejoin="round" stroke-width="1.16666667">
                                    <path d="M1.16666667,8.16666667 L1.16666667,2.04166667 C1.16666667,0.914085302 2.08075197,2.07133336e-16 3.20833333,0 C4.3359147,-2.07133336e-16 5.25,0.914085302 5.25,2.04166667 L5.25,6.125 C5.25,7.25258136 6.1640853,8.16666667 7.29166667,8.16666667 C8.41924803,8.16666667 9.33333333,7.25258136 9.33333333,6.125 L9.33333333,2.33333333 L9.33333333,2.33333333" id="路径-74"></path>
                                    <circle id="椭圆形" cx="9.33333333" cy="1.16666667" r="1.16666667"></circle>
                                    <polyline id="路径-78" points="0 7 1.16666667 8.16666667 2.33333333 7"></polyline>
                                </g>
                            </g>
                        </g>
                    </g>
                </g>
            </g>
        </g>
    </g>
</svg>