<?xml version="1.0" encoding="UTF-8"?>
<svg width="22px" height="22px" viewBox="0 0 22 22" version="1.1" xmlns="http://www.w3.org/2000/svg" xmlns:xlink="http://www.w3.org/1999/xlink">
    <g id="∟-----后台" stroke="none" stroke-width="1" fill="none" fill-rule="evenodd">
        <g id="计划生成管理" transform="translate(-91.000000, -21.000000)">
            <g id="头" transform="translate(60.000000, 0.000000)">
                <g id="编组-12" transform="translate(32.000000, 21.000000)">
                    <g id="01图标-/-01通用图标-/-03实色填充-/-办公-/-项目" transform="translate(0.000000, 1.000000)">
                        <rect id="背景" fill="#A3AFBB" opacity="0" x="0" y="0" width="20" height="20"></rect>
                        <path d="M8.33333333,2.5 C9.36467026,1.90455735 10.6353297,1.90455735 11.6666667,2.5 L15.6618572,4.80662433 C16.6931941,5.40206698 17.3285239,6.50249037 17.3285239,7.69337567 L17.3285239,12.3066243 C17.3285239,13.4975096 16.6931941,14.597933 15.6618572,15.1933757 L11.6666667,17.5 C10.6353297,18.0954426 9.36467026,18.0954426 8.33333333,17.5 L4.3381428,15.1933757 C3.30680588,14.597933 2.67147614,13.4975096 2.67147614,12.3066243 L2.67147614,7.69337567 C2.67147614,6.50249037 3.30680588,5.40206698 4.3381428,4.80662433 Z M10,6.66666667 C8.15905083,6.66666667 6.66666667,8.15905083 6.66666667,10 C6.66666667,11.8409492 8.15905083,13.3333333 10,13.3333333 C11.8409492,13.3333333 13.3333333,11.8409492 13.3333333,10 C13.3333333,8.15905083 11.8409492,6.66666667 10,6.66666667 Z M10,8.33333333 C10.9204746,8.33333333 11.6666667,9.07952542 11.6666667,10 C11.6666667,10.9204746 10.9204746,11.6666667 10,11.6666667 C9.07952542,11.6666667 8.33333333,10.9204746 8.33333333,10 C8.33333333,9.07952542 9.07952542,8.33333333 10,8.33333333 Z" id="形状结合" fill="#A3AFBB" fill-rule="nonzero"></path>
                        <g id="网格" opacity="0" transform="translate(0.000000, 0.000000)" stroke="#A3AFBB" stroke-linecap="square" stroke-width="0.5">
                            <g id="竖线" transform="translate(0.416667, 0.000000)">
                                <line x1="0.416666667" y1="0" x2="0.416666667" y2="20" id="直线"></line>
                                <line x1="1.25" y1="0" x2="1.25" y2="20" id="直线"></line>
                                <line x1="2.08333333" y1="0" x2="2.08333333" y2="20" id="直线备份"></line>
                                <line x1="2.91666667" y1="0" x2="2.91666667" y2="20" id="直线备份-2"></line>
                                <line x1="3.75" y1="0" x2="3.75" y2="20" id="直线备份-3"></line>
                                <line x1="4.58333333" y1="0" x2="4.58333333" y2="20" id="直线备份-4"></line>
                                <line x1="5.41666667" y1="0" x2="5.41666667" y2="20" id="直线备份-5"></line>
                                <line x1="6.25" y1="0" x2="6.25" y2="20" id="直线备份-6"></line>
                                <line x1="7.08333333" y1="0" x2="7.08333333" y2="20" id="直线备份-7"></line>
                                <line x1="7.91666667" y1="0" x2="7.91666667" y2="20" id="直线备份-8"></line>
                                <line x1="8.75" y1="0" x2="8.75" y2="20" id="直线备份-9"></line>
                                <line x1="9.58333333" y1="0" x2="9.58333333" y2="20" id="直线备份-10"></line>
                                <line x1="10.4166667" y1="0" x2="10.4166667" y2="20" id="直线备份-11"></line>
                                <line x1="11.25" y1="0" x2="11.25" y2="20" id="直线备份-12"></line>
                                <line x1="12.0833333" y1="0" x2="12.0833333" y2="20" id="直线备份-13"></line>
                                <line x1="12.9166667" y1="0" x2="12.9166667" y2="20" id="直线备份-14"></line>
                                <line x1="13.75" y1="0" x2="13.75" y2="20" id="直线备份-15"></line>
                                <line x1="14.5833333" y1="0" x2="14.5833333" y2="20" id="直线备份-16"></line>
                                <line x1="15.4166667" y1="0" x2="15.4166667" y2="20" id="直线备份-17"></line>
                                <line x1="16.25" y1="0" x2="16.25" y2="20" id="直线备份-18"></line>
                                <line x1="17.0833333" y1="0" x2="17.0833333" y2="20" id="直线备份-19"></line>
                                <line x1="17.9166667" y1="0" x2="17.9166667" y2="20" id="直线备份-20"></line>
                                <line x1="18.75" y1="0" x2="18.75" y2="20" id="直线备份-21"></line>
                            </g>
                            <g id="横线" transform="translate(10.000000, 10.000000) rotate(-270.000000) translate(-10.000000, -10.000000) translate(0.416667, 0.000000)">
                                <line x1="0.416666667" y1="0" x2="0.416666667" y2="20" id="直线"></line>
                                <line x1="1.25" y1="0" x2="1.25" y2="20" id="直线"></line>
                                <line x1="2.08333333" y1="0" x2="2.08333333" y2="20" id="直线备份"></line>
                                <line x1="2.91666667" y1="0" x2="2.91666667" y2="20" id="直线备份-2"></line>
                                <line x1="3.75" y1="0" x2="3.75" y2="20" id="直线备份-3"></line>
                                <line x1="4.58333333" y1="0" x2="4.58333333" y2="20" id="直线备份-4"></line>
                                <line x1="5.41666667" y1="0" x2="5.41666667" y2="20" id="直线备份-5"></line>
                                <line x1="6.25" y1="0" x2="6.25" y2="20" id="直线备份-6"></line>
                                <line x1="7.08333333" y1="0" x2="7.08333333" y2="20" id="直线备份-7"></line>
                                <line x1="7.91666667" y1="0" x2="7.91666667" y2="20" id="直线备份-8"></line>
                                <line x1="8.75" y1="0" x2="8.75" y2="20" id="直线备份-9"></line>
                                <line x1="9.58333333" y1="0" x2="9.58333333" y2="20" id="直线备份-10"></line>
                                <line x1="10.4166667" y1="0" x2="10.4166667" y2="20" id="直线备份-11"></line>
                                <line x1="11.25" y1="0" x2="11.25" y2="20" id="直线备份-12"></line>
                                <line x1="12.0833333" y1="0" x2="12.0833333" y2="20" id="直线备份-13"></line>
                                <line x1="12.9166667" y1="0" x2="12.9166667" y2="20" id="直线备份-14"></line>
                                <line x1="13.75" y1="0" x2="13.75" y2="20" id="直线备份-15"></line>
                                <line x1="14.5833333" y1="0" x2="14.5833333" y2="20" id="直线备份-16"></line>
                                <line x1="15.4166667" y1="0" x2="15.4166667" y2="20" id="直线备份-17"></line>
                                <line x1="16.25" y1="0" x2="16.25" y2="20" id="直线备份-18"></line>
                                <line x1="17.0833333" y1="0" x2="17.0833333" y2="20" id="直线备份-19"></line>
                                <line x1="17.9166667" y1="0" x2="17.9166667" y2="20" id="直线备份-20"></line>
                                <line x1="18.75" y1="0" x2="18.75" y2="20" id="直线备份-21"></line>
                            </g>
                        </g>
                        <g id="Keyline" opacity="0" transform="translate(0.833333, 1.666667)" stroke="#A3AFBB" stroke-opacity="0.05" stroke-width="0.5">
                            <rect id="正方形-大" x="1.91666667" y="1.08333333" width="14.5" height="14.5" rx="0.833333333"></rect>
                            <rect id="正方形-小" x="4.41666667" y="3.58333333" width="9.5" height="9.5" rx="0.833333333"></rect>
                            <rect id="矩形-竖" x="2.75" y="0.25" width="12.8333333" height="16.1666667" rx="0.833333333"></rect>
                            <rect id="矩形-横" x="1.08333333" y="1.91666667" width="16.1666667" height="12.8333333" rx="0.833333333"></rect>
                            <circle id="圆形" cx="9.16666667" cy="8.33333333" r="8.08333333"></circle>
                            <path d="M9.16666667,0.498965873 L17.8997215,15.5833333 L0.433611821,15.5833333 L9.16666667,0.498965873 Z" id="三角形"></path>
                        </g>
                        <path d="M13.3333333,8.33333333" id="路径-41" stroke="#A3AFBB" stroke-width="0.833333333"></path>
                    </g>
                </g>
            </g>
        </g>
    </g>
</svg>