<svg xml:space="preserve" viewBox="0 0 24 24" xmlns="http://www.w3.org/2000/svg"><path clip-rule="evenodd" fill="none" d="M0 0h24v24H0z"/><path d="M18 3a3 3 0 0 1 3 3v10a3 3 0 0 1-3 3h-3.588l-1.708 1.707a1 1 0 0 1-1.321.082l-.094-.083L9.586 19H6a3 3 0 0 1-2.995-2.824L3 16V6a3 3 0 0 1 3-3h12zm0 2H6a1 1 0 0 0-1 1v10a1 1 0 0 0 1 1h4.002a1 1 0 0 1 .708.294l1.288 1.29 1.294-1.291c.156-.156.359-.255.576-.284l.131-.009H18a1 1 0 0 0 1-1V6a1 1 0 0 0-1-1zm-6 7.743c2.028 0 3.549.526 4.495 1.645a.999.999 0 1 1-1.527 1.291l-.101-.11c-.531-.533-1.468-.826-2.867-.826-1.492 0-2.458.334-2.968.936l-.087.091a1 1 0 0 1-1.44-1.382c.946-1.119 2.467-1.645 4.495-1.645zM12 6a3 3 0 1 1 0 6 3 3 0 0 1 0-6zm0 2a1 1 0 1 0 0 2 1 1 0 0 0 0-2z"/></svg>