<?xml version="1.0" encoding="UTF-8"?>
<svg width="40px" height="40px" viewBox="0 0 40 40" version="1.1" xmlns="http://www.w3.org/2000/svg" xmlns:xlink="http://www.w3.org/1999/xlink">
    <g id="∟-----工作台" stroke="none" stroke-width="1" fill="none" fill-rule="evenodd">
        <g id="工作台-暂无任务" transform="translate(-492.000000, -566.000000)">
            <g id="04数据录入-/-07上传-/-01文件上传-/-上传组件_未传_大" transform="translate(92.000000, 328.000000)">
                <g id="编组-5" transform="translate(400.000000, 238.000000)">
                    <rect id="矩形" fill-opacity="0" fill="#D8D8D8" x="0" y="0" width="40" height="40"></rect>
                    <g id="编组" transform="translate(2.000000, 3.000000)" stroke="#B9C2CB">
                        <polygon id="路径" stroke-width="0.666666667" fill="#B9C2CB" fill-rule="nonzero" points="34 24 30 20.6666667 30 23.3333333 24.6666667 23.3333333 24.6666667 18 27.3333333 18 24 14 20.6666667 18 23.3333333 18 23.3333333 23.3333333 18 23.3333333 18 20.6666667 14 24 18 27.3333333 18 24.6666667 23.3333333 24.6666667 23.3333333 30 20.6666667 30 24 34 27.3333333 30 24.6666667 30 24.6666667 24.6666667 30 24.6666667 30 27.3333333"></polygon>
                        <path d="M32,14.2222222 L32,1.77777778 C32,0.795937778 31.2040889,0 30.2222222,0 L1.77777778,0 C0.795937778,0 0,0.795937778 0,1.77777778 L0,30.2222222 C0,31.2040889 0.795937778,32 1.77777778,32 L13.3333333,32" id="路径" stroke-width="3" stroke-linecap="round" stroke-linejoin="round"></path>
                    </g>
                </g>
            </g>
        </g>
    </g>
</svg>