<?xml version="1.0" encoding="UTF-8"?>
<svg width="18px" height="18px" viewBox="0 0 18 18" version="1.1" xmlns="http://www.w3.org/2000/svg" xmlns:xlink="http://www.w3.org/1999/xlink">
    <title></title>
    <g id="页面-1" stroke="none" stroke-width="1" fill="none" fill-rule="evenodd">
        <g id="项目管理" transform="translate(-1304.000000, -298.000000)" fill-rule="nonzero">
            <g id="编组-3备份" transform="translate(90.000000, 232.000000)">
                <g id="编组-19" transform="translate(0.000000, 50.000000)">
                    <g id="编组-2" transform="translate(1180.000000, 16.000000)">
                        <g id="审批默认备份" transform="translate(34.000000, 0.000000)">
                            <rect id="矩形" fill-opacity="0.01" fill="#FFFFFF" x="0" y="0" width="18" height="18"></rect>
                            <g id="账户操作" transform="translate(1.000000, 1.000000)" fill="#1E86FF">
                                <path d="M13.5450657,10.960028 C14.0970881,10.9598636 14.6072416,11.2447451 14.8832528,11.7073027 L15.7930553,13.2327393 C16.0689816,13.6951545 16.0689816,14.2648734 15.7930553,14.7272886 L14.8832528,16.2527252 C14.6072416,16.7152828 14.0970881,17.0001643 13.5450657,16.9999999 L11.7249458,16.9999999 C11.1729234,17.0001643 10.6627699,16.7152828 10.3867587,16.2527252 L9.47695618,14.7272886 C9.20102993,14.2648734 9.20102993,13.6951545 9.47695618,13.2327393 L10.3867587,11.7073027 C10.6627699,11.2447451 11.1729234,10.9598636 11.7249458,10.960028 L13.5450657,10.960028 L13.5450657,10.960028 Z M4.24932475,10.0941858 C4.70654298,10.3632047 5.20237762,10.5759289 5.72704584,10.7233911 L1.54463177,15.4436759 L8.12126293,15.4436759 L8.13876902,15.4745632 L9.01201467,16.9382252 L1.54463177,16.9382252 C0.941452073,16.9382252 0.393461027,16.5984783 0.141381543,16.0682745 C-0.110697941,15.5380707 -0.0207460759,14.914397 0.371722852,14.4712225 L4.24932475,10.0941858 L4.24932475,10.0941858 Z M13.5450657,12.4545773 L11.7249458,12.4545773 L10.8146284,13.9800139 L11.7249458,15.5054506 L13.5450657,15.5054506 L14.4553831,13.9800139 L13.5450657,12.4545773 Z M12.6028254,13.2148047 C13.0293704,13.2148047 13.3751535,13.549371 13.3751535,13.9620794 C13.3751535,14.3747877 13.0293704,14.709354 12.6028254,14.709354 C12.1762804,14.709354 11.8304973,14.3747877 11.8304973,13.9620794 C11.8304973,13.549371 12.1762804,13.2148047 12.6028254,13.2148047 Z M7.45397145,0 C10.2976835,0 12.6028254,2.2303657 12.6028254,4.98183094 C12.6028254,7.73329618 10.2976835,9.96366186 7.45397145,9.96366186 C4.61025942,9.96366186 2.30511752,7.73329616 2.30511752,4.98183094 C2.30511752,2.23036572 4.61025942,0 7.45397145,0 Z M7.45397145,1.49454928 C5.46342799,1.49454928 3.84977369,3.05585845 3.84977369,4.98183093 C3.84977369,6.9078034 5.46342799,8.46911258 7.45397145,8.46911258 C9.44451492,8.46911258 11.0581692,6.9078034 11.0581692,4.98183093 C11.0581692,3.05585845 9.44451492,1.49454928 7.45397145,1.49454928 Z" id="形状"></path>
                            </g>
                        </g>
                    </g>
                </g>
            </g>
        </g>
    </g>
</svg>