<?xml version="1.0" encoding="UTF-8"?>
<svg width="22px" height="22px" viewBox="0 0 22 22" version="1.1" xmlns="http://www.w3.org/2000/svg" xmlns:xlink="http://www.w3.org/1999/xlink">
    <g id="模版" stroke="none" stroke-width="1" fill="none" fill-rule="evenodd">
        <g id="专项计划模板管理（总部人力、运营、各职能线）" transform="translate(-91.000000, -21.000000)">
            <g id="编组-4" transform="translate(60.000000, 0.000000)">
                <g id="编组-12" transform="translate(32.000000, 21.000000)">
                    <g id="01图标-/-01通用图标-/-03实色填充-/-办公-/-项目" transform="translate(0.000000, 1.000000)">
                        <rect id="背景" fill="#A3AFBB" opacity="0" x="0" y="0" width="20" height="20"></rect>
                        <path d="M14.1666667,2.5 C15.5473785,2.5 16.6666667,3.61928813 16.6666667,5 L16.6666667,15 C16.6666667,16.3807119 15.5473785,17.5 14.1666667,17.5 L5.83333333,17.5 C4.45262146,17.5 3.33333333,16.3807119 3.33333333,15 L3.33333333,5 C3.33333333,3.61928813 4.45262146,2.5 5.83333333,2.5 Z M12.5,11.6666667 L7.5,11.6666667 L7.40281573,11.6722731 C6.98836683,11.7204107 6.66666667,12.0726368 6.66666667,12.5 C6.66666667,12.9602373 7.03976271,13.3333333 7.5,13.3333333 L12.5,13.3333333 L12.5971843,13.3277269 C13.0116332,13.2795893 13.3333333,12.9273632 13.3333333,12.5 C13.3333333,12.0397627 12.9602373,11.6666667 12.5,11.6666667 Z M12.5,9.16666667 L7.5,9.16666667 L7.40281573,9.17227311 C6.98836683,9.2204107 6.66666667,9.5726368 6.66666667,10 C6.66666667,10.4602373 7.03976271,10.8333333 7.5,10.8333333 L12.5,10.8333333 L12.5971843,10.8277269 C13.0116332,10.7795893 13.3333333,10.4273632 13.3333333,10 C13.3333333,9.53976271 12.9602373,9.16666667 12.5,9.16666667 Z M8.33333333,5.83333333 L7.5,5.83333333 C7.03976271,5.83333333 6.66666667,6.20642938 6.66666667,6.66666667 L6.66666667,7.5 C6.66666667,7.96023729 7.03976271,8.33333333 7.5,8.33333333 L8.33333333,8.33333333 C8.79357062,8.33333333 9.16666667,7.96023729 9.16666667,7.5 L9.16666667,6.66666667 C9.16666667,6.20642938 8.79357062,5.83333333 8.33333333,5.83333333 Z M12.5,6.25 L10.8333333,6.25 L10.7361491,6.25560644 C10.3217002,6.30374403 10,6.65597013 10,7.08333333 C10,7.54357062 10.373096,7.91666667 10.8333333,7.91666667 L12.5,7.91666667 L12.5971843,7.91106022 C13.0116332,7.86292263 13.3333333,7.51069653 13.3333333,7.08333333 C13.3333333,6.62309604 12.9602373,6.25 12.5,6.25 Z" id="形状结合" fill="#A3AFBB" fill-rule="nonzero"></path>
                        <g id="网格" opacity="0" transform="translate(0.000000, 0.000000)" stroke="#A3AFBB" stroke-linecap="square" stroke-width="0.5">
                            <g id="竖线" transform="translate(0.416667, 0.000000)">
                                <line x1="0.416666667" y1="0" x2="0.416666667" y2="20" id="直线"></line>
                                <line x1="1.25" y1="0" x2="1.25" y2="20" id="直线"></line>
                                <line x1="2.08333333" y1="0" x2="2.08333333" y2="20" id="直线备份"></line>
                                <line x1="2.91666667" y1="0" x2="2.91666667" y2="20" id="直线备份-2"></line>
                                <line x1="3.75" y1="0" x2="3.75" y2="20" id="直线备份-3"></line>
                                <line x1="4.58333333" y1="0" x2="4.58333333" y2="20" id="直线备份-4"></line>
                                <line x1="5.41666667" y1="0" x2="5.41666667" y2="20" id="直线备份-5"></line>
                                <line x1="6.25" y1="0" x2="6.25" y2="20" id="直线备份-6"></line>
                                <line x1="7.08333333" y1="0" x2="7.08333333" y2="20" id="直线备份-7"></line>
                                <line x1="7.91666667" y1="0" x2="7.91666667" y2="20" id="直线备份-8"></line>
                                <line x1="8.75" y1="0" x2="8.75" y2="20" id="直线备份-9"></line>
                                <line x1="9.58333333" y1="0" x2="9.58333333" y2="20" id="直线备份-10"></line>
                                <line x1="10.4166667" y1="0" x2="10.4166667" y2="20" id="直线备份-11"></line>
                                <line x1="11.25" y1="0" x2="11.25" y2="20" id="直线备份-12"></line>
                                <line x1="12.0833333" y1="0" x2="12.0833333" y2="20" id="直线备份-13"></line>
                                <line x1="12.9166667" y1="0" x2="12.9166667" y2="20" id="直线备份-14"></line>
                                <line x1="13.75" y1="0" x2="13.75" y2="20" id="直线备份-15"></line>
                                <line x1="14.5833333" y1="0" x2="14.5833333" y2="20" id="直线备份-16"></line>
                                <line x1="15.4166667" y1="0" x2="15.4166667" y2="20" id="直线备份-17"></line>
                                <line x1="16.25" y1="0" x2="16.25" y2="20" id="直线备份-18"></line>
                                <line x1="17.0833333" y1="0" x2="17.0833333" y2="20" id="直线备份-19"></line>
                                <line x1="17.9166667" y1="0" x2="17.9166667" y2="20" id="直线备份-20"></line>
                                <line x1="18.75" y1="0" x2="18.75" y2="20" id="直线备份-21"></line>
                            </g>
                            <g id="横线" transform="translate(10.000000, 10.000000) rotate(-270.000000) translate(-10.000000, -10.000000) translate(0.416667, 0.000000)">
                                <line x1="0.416666667" y1="0" x2="0.416666667" y2="20" id="直线"></line>
                                <line x1="1.25" y1="0" x2="1.25" y2="20" id="直线"></line>
                                <line x1="2.08333333" y1="0" x2="2.08333333" y2="20" id="直线备份"></line>
                                <line x1="2.91666667" y1="0" x2="2.91666667" y2="20" id="直线备份-2"></line>
                                <line x1="3.75" y1="0" x2="3.75" y2="20" id="直线备份-3"></line>
                                <line x1="4.58333333" y1="0" x2="4.58333333" y2="20" id="直线备份-4"></line>
                                <line x1="5.41666667" y1="0" x2="5.41666667" y2="20" id="直线备份-5"></line>
                                <line x1="6.25" y1="0" x2="6.25" y2="20" id="直线备份-6"></line>
                                <line x1="7.08333333" y1="0" x2="7.08333333" y2="20" id="直线备份-7"></line>
                                <line x1="7.91666667" y1="0" x2="7.91666667" y2="20" id="直线备份-8"></line>
                                <line x1="8.75" y1="0" x2="8.75" y2="20" id="直线备份-9"></line>
                                <line x1="9.58333333" y1="0" x2="9.58333333" y2="20" id="直线备份-10"></line>
                                <line x1="10.4166667" y1="0" x2="10.4166667" y2="20" id="直线备份-11"></line>
                                <line x1="11.25" y1="0" x2="11.25" y2="20" id="直线备份-12"></line>
                                <line x1="12.0833333" y1="0" x2="12.0833333" y2="20" id="直线备份-13"></line>
                                <line x1="12.9166667" y1="0" x2="12.9166667" y2="20" id="直线备份-14"></line>
                                <line x1="13.75" y1="0" x2="13.75" y2="20" id="直线备份-15"></line>
                                <line x1="14.5833333" y1="0" x2="14.5833333" y2="20" id="直线备份-16"></line>
                                <line x1="15.4166667" y1="0" x2="15.4166667" y2="20" id="直线备份-17"></line>
                                <line x1="16.25" y1="0" x2="16.25" y2="20" id="直线备份-18"></line>
                                <line x1="17.0833333" y1="0" x2="17.0833333" y2="20" id="直线备份-19"></line>
                                <line x1="17.9166667" y1="0" x2="17.9166667" y2="20" id="直线备份-20"></line>
                                <line x1="18.75" y1="0" x2="18.75" y2="20" id="直线备份-21"></line>
                            </g>
                        </g>
                        <g id="Keyline" opacity="0" transform="translate(0.833333, 1.666667)" stroke="#A3AFBB" stroke-opacity="0.05" stroke-width="0.5">
                            <rect id="正方形-大" x="1.91666667" y="1.08333333" width="14.5" height="14.5" rx="0.833333333"></rect>
                            <rect id="正方形-小" x="4.41666667" y="3.58333333" width="9.5" height="9.5" rx="0.833333333"></rect>
                            <rect id="矩形-竖" x="2.75" y="0.25" width="12.8333333" height="16.1666667" rx="0.833333333"></rect>
                            <rect id="矩形-横" x="1.08333333" y="1.91666667" width="16.1666667" height="12.8333333" rx="0.833333333"></rect>
                            <circle id="圆形" cx="9.16666667" cy="8.33333333" r="8.08333333"></circle>
                            <path d="M9.16666667,0.498965873 L17.8997215,15.5833333 L0.433611821,15.5833333 L9.16666667,0.498965873 Z" id="三角形"></path>
                        </g>
                    </g>
                </g>
            </g>
        </g>
    </g>
</svg>