<svg xml:space="preserve" viewBox="0 0 24 24" xmlns="http://www.w3.org/2000/svg"><path clip-rule="evenodd" fill="none" d="M0 0h24v24H0z"/><path d="M17 3a3 3 0 0 1 2.995 2.824L20 6v1a1 1 0 0 1-1.993.117L18 7V6a1 1 0 0 0-.883-.993L17 5H7a1 1 0 0 0-.993.883L6 6v12a1 1 0 0 0 .883.993L7 19h10a1 1 0 0 0 .993-.883L18 18v-2a1 1 0 0 1 1.993-.117L20 16v2a3 3 0 0 1-2.824 2.995L17 21H7a3 3 0 0 1-2.995-2.824L4 18V6a3 3 0 0 1 2.824-2.995L7 3h10zm3.651 6.241a1 1 0 0 1 .184 1.31l-.076.1-6 7a1 1 0 0 1-1.594-1.202l.076-.1 6-7a1 1 0 0 1 1.41-.108zM13 10a1 1 0 0 1 .117 1.993L13 12H9a1 1 0 0 1-.117-1.993L9 10h4zm2-3a1 1 0 0 1 .117 1.993L15 9H9a1 1 0 0 1-.117-1.993L9 7h6z"/></svg>