<svg xml:space="preserve" viewBox="0 0 24 24" xmlns="http://www.w3.org/2000/svg"><path clip-rule="evenodd" fill="none" d="M0 0h24v24H0z"/><path d="M17 3a3 3 0 0 1 2.995 2.824L20 6v5a1 1 0 0 1-1.993.117L18 11V6a1 1 0 0 0-.883-.993L17 5H7a1 1 0 0 0-.993.883L6 6v12a1 1 0 0 0 .883.993L7 19h5a1 1 0 0 1 .117 1.993L12 21H7a3 3 0 0 1-2.995-2.824L4 18V6a3 3 0 0 1 2.824-2.995L7 3h10zm0 10a2 2 0 0 1 1.001 3.732L18 18h1a1 1 0 0 1 1 1v1a1 1 0 0 1-1 1h-4a1 1 0 0 1-1-1v-1a1 1 0 0 1 1-1h1v-1.268a2 2 0 0 1-.994-1.583L15 15a2 2 0 0 1 2-2zm-2-3a1 1 0 0 1 .117 1.993L15 12H9a1 1 0 0 1-.117-1.993L9 10h6zm0-3a1 1 0 0 1 .117 1.993L15 9H9a1 1 0 0 1-.117-1.993L9 7h6z"/></svg>