<svg xml:space="preserve" viewBox="0 0 24 24" xmlns="http://www.w3.org/2000/svg"><path clip-rule="evenodd" fill="none" d="M0 0h24v24H0z"/><path d="M16 3a3 3 0 0 1 2.995 2.824L19 6v5a1 1 0 0 1-1.993.117L17 11V6a1 1 0 0 0-.883-.993L16 5H6a1 1 0 0 0-.993.883L5 6v12a1 1 0 0 0 .883.993L6 19h5a1 1 0 0 1 .117 1.993L11 21H6a3 3 0 0 1-2.995-2.824L3 18V6a3 3 0 0 1 2.824-2.995L6 3h10zm.5 10c2.252 0 4.5 2.218 4.5 4s-2.248 4-4.5 4-4.5-2.218-4.5-4 2.248-4 4.5-4zm0 2c-1.154 0-2.5 1.328-2.5 2s1.346 2 2.5 2 2.5-1.328 2.5-2-1.346-2-2.5-2zm0 1a1 1 0 1 1 0 2 1 1 0 0 1 0-2zM14 10a1 1 0 0 1 .117 1.993L14 12H8a1 1 0 0 1-.117-1.993L8 10h6zm0-3a1 1 0 0 1 .117 1.993L14 9H8a1 1 0 0 1-.117-1.993L8 7h6z"/></svg>