<svg xml:space="preserve" viewBox="0 0 24 24" xmlns="http://www.w3.org/2000/svg"><path clip-rule="evenodd" fill="none" d="M0 0h24v24H0z"/><path d="M17 3a3 3 0 0 1 2.995 2.824L20 6v5a1 1 0 0 1-1.993.117L18 11V6a1 1 0 0 0-.883-.993L17 5H7a1 1 0 0 0-.993.883L6 6v12a1 1 0 0 0 .883.993L7 19h5a1 1 0 0 1 .117 1.993L12 21H7a3 3 0 0 1-2.995-2.824L4 18V6a3 3 0 0 1 2.824-2.995L7 3h10zm1.5 10.502c.322 0 .619.172.779.45l1.5 2.598a.899.899 0 0 1 0 .9l-1.5 2.598a.901.901 0 0 1-.779.45h-3a.899.899 0 0 1-.779-.45l-1.5-2.598a.899.899 0 0 1 0-.9l1.5-2.598a.901.901 0 0 1 .779-.45h3zm-.52 1.8h-1.961l-.98 1.699.98 1.698h1.961l.98-1.698-.98-1.699zM17 16.2a.8.8 0 1 1 0 1.6.8.8 0 0 1 0-1.6zM15 10a1 1 0 0 1 .117 1.993L15 12H9a1 1 0 0 1-.117-1.993L9 10h6zm0-3a1 1 0 0 1 .117 1.993L15 9H9a1 1 0 0 1-.117-1.993L9 7h6z"/></svg>