<svg xml:space="preserve" viewBox="0 0 24 24" xmlns="http://www.w3.org/2000/svg"><path clip-rule="evenodd" fill="none" d="M0 0h24v24H0z"/><path d="m6.743 3.486-3.6 6A1 1 0 0 0 4 11h7.2a1 1 0 0 0 .857-1.514l-3.6-6a.999.999 0 0 0-1.714 0zM7.6 5.943 9.434 9H5.765L7.6 5.943zM19 13h-4a2 2 0 0 0-2 2v4a2 2 0 0 0 2 2h4a2 2 0 0 0 2-2v-4a2 2 0 0 0-2-2zm-4 2h4v4h-4v-4zm2-12a4 4 0 1 0 0 8 4 4 0 0 0 0-8zm0 2a2 2 0 1 1 .001 3.999A2 2 0 0 1 17 5zM5.113 13.21l.094.083 2.292 2.292 2.293-2.292.094-.083a1 1 0 0 1 1.32 1.497L8.914 17l2.293 2.293a.999.999 0 0 1-1.32 1.497l-.094-.083L7.5 18.414l-2.292 2.293-.095.083a1 1 0 0 1-1.32-1.497L6.085 17l-2.293-2.293a1.001 1.001 0 0 1 1.321-1.497z"/></svg>