<?xml version="1.0" encoding="UTF-8"?>
<svg width="18px" height="18px" viewBox="0 0 18 18" version="1.1" xmlns="http://www.w3.org/2000/svg" xmlns:xlink="http://www.w3.org/1999/xlink">
    <g id="页面-1" stroke="none" stroke-width="1" fill="none" fill-rule="evenodd">
        <g id="项目管理" transform="translate(-1338.000000, -298.000000)" fill-rule="nonzero">
            <g id="编组-3备份" transform="translate(90.000000, 232.000000)">
                <g id="编组-19" transform="translate(0.000000, 50.000000)">
                    <g id="编组-2" transform="translate(1180.000000, 16.000000)">
                        <g id="审批默认" transform="translate(68.000000, 0.000000)">
                            <rect id="矩形" fill-opacity="0.01" fill="#FFFFFF" x="0" y="0" width="18" height="18"></rect>
                            <path d="M14.5839672,5.71198048 L14.4118898,5.42841686 C12.6428247,2.61162508 9.03802472,1.58990411 6.06679829,3.02501042 L5.85055801,3.13441238 L5.63679414,3.25264112 C2.52105066,5.05187327 1.45327022,9.03688416 3.25233853,12.1523439 C5.05161045,15.2681563 9.03604956,16.3358326 12.1521183,14.5367551 C13.1686054,13.9505725 13.994604,13.115442 14.5625964,12.1104068 L14.6991804,11.8556541 L14.7520216,11.7437176 L13.6877516,11.2698001 C13.6593052,11.2563373 13.6479266,11.2509522 13.6309867,11.2225471 L13.5829866,11.1258293 L13.5829866,11.1206728 L13.6423286,11.0011691 L13.6716829,10.9831098 L16.2387798,9.7840989 L16.354036,9.76900803 L16.4385396,9.82510312 L16.4636034,9.87348559 L17.2918276,12.6881694 L17.215587,12.7778331 L17.0977342,12.7876398 L17.0823558,12.7817704 L16.0110216,12.3047176 L15.9438655,12.4485644 C15.4062145,13.5172872 14.6346484,14.4490918 13.6730752,15.1785843 L13.4061501,15.3724717 L13.130001,15.5560323 L12.8413533,15.7308492 C9.06599005,17.9101088 4.23875634,16.6163826 2.05890472,12.8410652 C-0.120910717,9.06581034 1.17263963,4.23851913 4.94807289,2.05860066 C8.56071387,-0.0273222662 13.1528324,1.06450611 15.4503447,4.49751333 L15.5951415,4.72193229 L15.7265915,4.94131623 C15.797721,5.05130238 15.8361739,5.17997163 15.8361739,5.31396551 C15.8361739,5.69467363 15.5275697,6.00327784 15.1468615,6.00327784 C14.9191511,6.00327784 14.711178,5.89182305 14.5839672,5.71198048 Z M10.3190065,5.17959951 C10.5091072,4.8498329 10.9310421,4.73678891 11.2605769,4.92753141 C11.5605709,5.10006255 11.6814707,5.46447059 11.55764,5.77692911 L11.5130833,5.86886435 L10.7420216,7.20171755 L11.6659007,7.20231132 C11.9799849,7.20231132 12.2449934,7.41235506 12.3281275,7.69964393 L12.3489207,7.79808565 L12.3552131,7.89162365 C12.3552131,8.2406061 12.0958998,8.52900123 11.7594334,8.57464359 L11.6658938,8.58093598 L9.65902161,8.58071755 L9.65902161,9.35871755 L11.6659007,9.35895399 C11.9799849,9.35895399 12.2449934,9.56899773 12.3281275,9.8562866 L12.3489207,9.95472832 L12.3552131,10.0482663 C12.3552131,10.3972488 12.0958998,10.6856439 11.759399,10.7312863 L11.6658491,10.7375786 L9.65902161,10.7367176 L9.65925805,12.744828 C9.65925805,13.0589122 9.44921432,13.3239207 9.16192545,13.4070548 L9.06348373,13.4278479 L8.96994572,13.4341403 C8.62096327,13.4341403 8.33256815,13.1748271 8.28692579,12.8383961 L8.2806334,12.744867 L8.28002161,10.7367176 L6.27338407,10.7375787 C5.95929986,10.7375787 5.69429139,10.5275349 5.61115726,10.240246 L5.59036413,10.1418043 L5.58407174,10.0482663 C5.58407174,9.69928387 5.84338499,9.41088875 6.17983977,9.36524638 L6.27337589,9.35895399 L8.28002161,9.35871755 L8.28002161,8.58071755 L6.27338407,8.58093598 C5.95929986,8.58093598 5.69429139,8.37089225 5.61115726,8.08360338 L5.59036413,7.98516166 L5.58407174,7.89162365 C5.58407174,7.5426412 5.84338499,7.25424608 6.17977403,7.20860373 L6.27329055,7.20231135 L6.77502161,7.20171755 L6.00585348,5.86896948 C5.87547462,5.64372144 5.88615177,5.37186327 6.02119879,5.1576238 L6.08664191,5.06963843 L6.16702212,4.99053166 L6.25782467,4.92745496 C6.51566853,4.7785592 6.83401589,4.81376696 7.05762578,5.00832059 L7.13673546,5.08869919 L7.19983973,5.17954787 L8.36602161,7.20171755 L9.15002161,7.20171755 L10.3190065,5.17959951 Z" id="形状" fill="#1E86FF"></path>
                        </g>
                    </g>
                </g>
            </g>
        </g>
    </g>
</svg>