<?xml version="1.0" encoding="UTF-8"?>
<svg width="24px" height="24px" viewBox="0 0 24 24" version="1.1" xmlns="http://www.w3.org/2000/svg" xmlns:xlink="http://www.w3.org/1999/xlink">
    <title></title>
    <g id="优化" stroke="none" stroke-width="1" fill="none" fill-rule="evenodd">
        <g id="弹窗" transform="translate(-898.000000, -677.000000)">
            <g id="文件上传" transform="translate(722.000000, 669.000000)">
                <g id="编组-31" transform="translate(176.000000, 8.000000)">
                    <rect id="矩形" x="0" y="0" width="24" height="24"></rect>
                    <g id="shangchuan" transform="translate(2.000000, 4.000000)" fill="#1E86FF" fill-rule="nonzero">
                        <path d="M14.9350649,3.8961039 C17.4454501,3.89610393 19.4805194,5.93117324 19.4805194,8.44155844 C19.4805194,10.9519436 17.4454501,12.987013 14.9350649,12.987013 L14.2857143,12.987013 C13.9270878,12.987013 13.6363636,12.6962888 13.6363636,12.3376623 C13.6363636,11.9790359 13.9270878,11.6883117 14.2857143,11.6883117 L14.9350649,11.6883117 C16.7281972,11.6883117 18.1818182,10.2346907 18.1818182,8.44155844 C18.1818182,6.64842614 16.7281972,5.19480519 14.9350649,5.19480519 C14.7455316,5.19415863 14.5563669,5.21155308 14.3701299,5.24675325 C14.1926833,5.28245949 14.0083865,5.24248185 13.8616834,5.13646109 C13.7149802,5.03044033 13.6191863,4.86799943 13.5974026,4.68831169 C13.3238128,2.76827928 11.6796864,1.34182088 9.74025974,1.34182088 C7.80083307,1.34182088 6.15670668,2.76827928 5.88311688,4.68831169 C5.86133322,4.86799943 5.76553926,5.03044033 5.61883612,5.13646109 C5.47213297,5.24248185 5.28783616,5.28245949 5.11038961,5.24675325 C4.92415253,5.21155308 4.73498788,5.19415863 4.54545455,5.19480519 C2.75232224,5.19480519 1.2987013,6.64842614 1.2987013,8.44155844 C1.2987013,10.2346907 2.75232224,11.6883117 4.54545455,11.6883117 L5.19480519,11.6883117 C5.55343166,11.6883117 5.84415584,11.9790359 5.84415584,12.3376623 C5.84415584,12.6962888 5.55343166,12.987013 5.19480519,12.987013 L4.54545455,12.987013 C2.03506935,12.987013 6.77325509e-08,10.9519436 6.77325509e-08,8.44155844 C6.77325509e-08,5.93117324 2.03506935,3.89610393 4.54545455,3.8961039 L4.71428571,3.8961039 C5.31184179,1.60981774 7.37717328,0.0149143613 9.74025974,0.0149143613 C12.1033462,0.0149143613 14.1686777,1.60981774 14.7662338,3.8961039 L14.9350649,3.8961039 Z" id="路径"></path>
                        <path d="M10.3896104,14.9350649 C10.3896104,15.2936914 10.0988862,15.5844156 9.74025974,15.5844156 C9.38163328,15.5844156 9.09090909,15.2936914 9.09090909,14.9350649 L9.09090909,9.09090909 C9.09090909,8.73228263 9.38163328,8.44155844 9.74025974,8.44155844 C10.0988862,8.44155844 10.3896104,8.73228263 10.3896104,9.09090909 L10.3896104,14.9350649 Z" id="路径"></path>
                        <path d="M7.95454545,12.1168831 C7.80478457,12.3028188 7.5650698,12.3915763 7.33033152,12.3480064 C7.09559324,12.3044366 6.9036966,12.1355676 6.83063535,11.9082738 C6.7575741,11.6809801 6.8151336,11.4319259 6.98051948,11.2597403 L9.25324675,8.66233766 C9.37651496,8.52256465 9.55389573,8.4424921 9.74025974,8.4424921 C9.92662375,8.4424921 10.1040045,8.52256465 10.2272727,8.66233766 L12.5,11.2597403 C12.7180532,11.5304643 12.6842294,11.9248928 12.4232674,12.1545394 C12.1623054,12.384186 11.7667774,12.367587 11.525974,12.1168831 L9.74025974,10.0779221 L7.95454545,12.1168831 Z" id="路径"></path>
                    </g>
                </g>
            </g>
        </g>
    </g>
</svg>