<svg xml:space="preserve" viewBox="0 0 24 24" xmlns="http://www.w3.org/2000/svg"><path clip-rule="evenodd" fill="none" d="M0 0h24v24H0z"/><path d="M10.586 4A2 2 0 0 1 12 4.586L13.414 6H19a2 2 0 0 1 2 2v10a3 3 0 0 1-3 3H6a3 3 0 0 1-3-3V7a3 3 0 0 1 3-3h4.586zm0 2H6a1 1 0 0 0-1 1v11a1 1 0 0 0 1 1h12a1 1 0 0 0 1-1V8h-5.586A2 2 0 0 1 12 7.414L10.586 6zM12 9h.019c.023 0 .047.002.07.004L12 9a1.045 1.045 0 0 1 .201.02c.022.004.044.01.065.015a.618.618 0 0 1 .046.014c.02.006.039.014.059.021a.817.817 0 0 1 .113.054l.036.021a.958.958 0 0 1 .186.147l-.09-.08.009.007.082.073 2 2 .083.094a1 1 0 0 1-.083 1.32l-.094.083a1 1 0 0 1-1.32-.083L13 12.415V16a1 1 0 0 1-1.993.117L11 16v-3.586l-.293.293-.094.083a1 1 0 0 1-1.32-1.497l2-2 .082-.073.009-.007.021-.016a.752.752 0 0 1 .075-.05c.012-.007.024-.015.037-.021a1.161 1.161 0 0 1 .113-.053l.06-.022.046-.014.065-.016.052-.009.058-.007A.818.818 0 0 1 11.982 9H12z"/></svg>