<svg xml:space="preserve" viewBox="0 0 24 24" xmlns="http://www.w3.org/2000/svg"><path clip-rule="evenodd" fill="none" d="M0 0h24v24H0z"/><path d="M12 3a4.5 4.5 0 1 0 0 9 4.5 4.5 0 0 0 0-9zm0 2a2.5 2.5 0 1 1 0 5 2.5 2.5 0 0 1 0-5zm.003 16a1 1 0 0 0 .117-1.993L12.003 19H6.286a.285.285 0 0 1-.278-.22L6 18.714v-.6c0-.314.099-.621.282-.876.941-1.309 2.508-2.051 4.787-2.208a1 1 0 1 0-.137-1.995c-2.833.195-4.953 1.2-6.273 3.036a3.495 3.495 0 0 0-.65 1.8L4 18.115v.6c0 1.21.94 2.2 2.129 2.28l.157.005h5.717zm4.541-7.717.092.081 2 2a.901.901 0 0 1-1.181 1.354l-.092-.081-.465-.464L16.9 18a1.1 1.1 0 0 0 .98 1.094l.12.006h1a.9.9 0 0 1 .113 1.793L19 20.9h-1a2.9 2.9 0 0 1-2.895-2.73L15.1 18v-1.828l-.464.464a.901.901 0 0 1-1.181.081l-.092-.081a.901.901 0 0 1-.081-1.181l.081-.092 2-2a.901.901 0 0 1 1.181-.08z"/></svg>