<svg xml:space="preserve" viewBox="0 0 24 24" xmlns="http://www.w3.org/2000/svg"><path clip-rule="evenodd" fill="none" d="M0 0h24v24H0z"/><path d="M12 3a4.5 4.5 0 1 0 0 9 4.5 4.5 0 0 0 0-9zm0 2a2.5 2.5 0 1 1 0 5 2.5 2.5 0 0 1 0-5zm-.997 16a1 1 0 0 0 .117-1.993L11.003 19H6.286a.285.285 0 0 1-.278-.22L6 18.714v-.6c0-.314.099-.621.282-.876.941-1.309 2.508-2.051 4.787-2.208a1 1 0 1 0-.137-1.995c-2.833.195-4.953 1.2-6.273 3.036a3.495 3.495 0 0 0-.65 1.8L4 18.115v.6c0 1.21.94 2.2 2.129 2.28l.157.005h4.717zM16 13.1a3.9 3.9 0 1 1 0 7.8 3.9 3.9 0 0 1 0-7.8zm-1.978 3.194a2.1 2.1 0 0 0 2.684 2.684l-2.684-2.684zM16 14.9a2.09 2.09 0 0 0-.706.122l2.684 2.684A2.1 2.1 0 0 0 16 14.9z"/></svg>