<svg xml:space="preserve" viewBox="0 0 24 24" xmlns="http://www.w3.org/2000/svg"><path clip-rule="evenodd" fill="none" d="M0 0h24v24H0z"/><path d="M12 3a4.5 4.5 0 1 0 0 9 4.5 4.5 0 0 0 0-9zm0 2a2.5 2.5 0 1 1 0 5 2.5 2.5 0 0 1 0-5zm-.997 16a1 1 0 0 0 .117-1.993L11.003 19H6.286a.285.285 0 0 1-.278-.22L6 18.714v-.6c0-.314.099-.621.282-.876.941-1.309 2.508-2.051 4.787-2.208a1 1 0 1 0-.137-1.995c-2.833.195-4.953 1.2-6.273 3.036a3.495 3.495 0 0 0-.65 1.8L4 18.115v.6c0 1.21.94 2.2 2.129 2.28l.157.005h4.717zm3.694-5.983-1.785.54-.108.04a.9.9 0 0 0-.349 1.366l1.127 1.484-.039 1.865.004.109a.9.9 0 0 0 1.192.76l1.761-.614 1.761.614.105.03a.9.9 0 0 0 1.091-.899l-.04-1.865 1.128-1.484.064-.096a.9.9 0 0 0-.521-1.31l-1.786-.54-1.063-1.53a.9.9 0 0 0-1.478 0l-1.064 1.53zm1.803.56.503.726.076.095a.9.9 0 0 0 .404.254l.845.255-.534.703-.067.101c-.079.14-.12.3-.116.462l.018.881-.833-.29-.117-.032a.908.908 0 0 0-.476.032l-.834.29.019-.881-.006-.121a.896.896 0 0 0-.178-.443l-.535-.703.846-.255a.895.895 0 0 0 .479-.348l.506-.726z"/></svg>