<?xml version="1.0" encoding="UTF-8"?>
<svg width="18px" height="18px" viewBox="0 0 18 18" version="1.1" xmlns="http://www.w3.org/2000/svg" xmlns:xlink="http://www.w3.org/1999/xlink">
    <g id="工作台" stroke="none" stroke-width="1" fill="none" fill-rule="evenodd">
        <g id="流程图-输入" transform="translate(-551.000000, -723.000000)">
            <g id="矩形备份-6" transform="translate(96.000000, 380.000000)">
                <g id="编组-6" transform="translate(36.000000, 92.000000)">
                    <g id="编组-2备份-13" transform="translate(400.000000, 212.000000)">
                        <g id="01图标-/-01通用图标-/-01单色线性-/-动作-/-新增" transform="translate(20.000000, 40.000000)">
                            <rect id="背景" fill="#FFFFFF" opacity="0" x="0" y="0" width="16" height="16"></rect>
                            <g id="网格" opacity="0" transform="translate(0.000000, 0.000000)" stroke="#FFFFFF" stroke-linecap="square" stroke-width="0.5">
                                <g id="竖线" transform="translate(0.333333, 0.000000)">
                                    <line x1="0.333333333" y1="0" x2="0.333333333" y2="16" id="直线"></line>
                                    <line x1="1" y1="0" x2="1" y2="16" id="直线"></line>
                                    <line x1="1.66666667" y1="0" x2="1.66666667" y2="16" id="直线备份"></line>
                                    <line x1="2.33333333" y1="0" x2="2.33333333" y2="16" id="直线备份-2"></line>
                                    <line x1="3" y1="0" x2="3" y2="16" id="直线备份-3"></line>
                                    <line x1="3.66666667" y1="0" x2="3.66666667" y2="16" id="直线备份-4"></line>
                                    <line x1="4.33333333" y1="0" x2="4.33333333" y2="16" id="直线备份-5"></line>
                                    <line x1="5" y1="0" x2="5" y2="16" id="直线备份-6"></line>
                                    <line x1="5.66666667" y1="0" x2="5.66666667" y2="16" id="直线备份-7"></line>
                                    <line x1="6.33333333" y1="0" x2="6.33333333" y2="16" id="直线备份-8"></line>
                                    <line x1="7" y1="0" x2="7" y2="16" id="直线备份-9"></line>
                                    <line x1="7.66666667" y1="0" x2="7.66666667" y2="16" id="直线备份-10"></line>
                                    <line x1="8.33333333" y1="0" x2="8.33333333" y2="16" id="直线备份-11"></line>
                                    <line x1="9" y1="0" x2="9" y2="16" id="直线备份-12"></line>
                                    <line x1="9.66666667" y1="0" x2="9.66666667" y2="16" id="直线备份-13"></line>
                                    <line x1="10.3333333" y1="0" x2="10.3333333" y2="16" id="直线备份-14"></line>
                                    <line x1="11" y1="0" x2="11" y2="16" id="直线备份-15"></line>
                                    <line x1="11.6666667" y1="0" x2="11.6666667" y2="16" id="直线备份-16"></line>
                                    <line x1="12.3333333" y1="0" x2="12.3333333" y2="16" id="直线备份-17"></line>
                                    <line x1="13" y1="0" x2="13" y2="16" id="直线备份-18"></line>
                                    <line x1="13.6666667" y1="0" x2="13.6666667" y2="16" id="直线备份-19"></line>
                                    <line x1="14.3333333" y1="0" x2="14.3333333" y2="16" id="直线备份-20"></line>
                                    <line x1="15" y1="0" x2="15" y2="16" id="直线备份-21"></line>
                                </g>
                                <g id="横线" transform="translate(8.000000, 8.000000) rotate(-270.000000) translate(-8.000000, -8.000000) translate(0.333333, 0.000000)">
                                    <line x1="0.333333333" y1="0" x2="0.333333333" y2="16" id="直线"></line>
                                    <line x1="1" y1="0" x2="1" y2="16" id="直线"></line>
                                    <line x1="1.66666667" y1="0" x2="1.66666667" y2="16" id="直线备份"></line>
                                    <line x1="2.33333333" y1="0" x2="2.33333333" y2="16" id="直线备份-2"></line>
                                    <line x1="3" y1="0" x2="3" y2="16" id="直线备份-3"></line>
                                    <line x1="3.66666667" y1="0" x2="3.66666667" y2="16" id="直线备份-4"></line>
                                    <line x1="4.33333333" y1="0" x2="4.33333333" y2="16" id="直线备份-5"></line>
                                    <line x1="5" y1="0" x2="5" y2="16" id="直线备份-6"></line>
                                    <line x1="5.66666667" y1="0" x2="5.66666667" y2="16" id="直线备份-7"></line>
                                    <line x1="6.33333333" y1="0" x2="6.33333333" y2="16" id="直线备份-8"></line>
                                    <line x1="7" y1="0" x2="7" y2="16" id="直线备份-9"></line>
                                    <line x1="7.66666667" y1="0" x2="7.66666667" y2="16" id="直线备份-10"></line>
                                    <line x1="8.33333333" y1="0" x2="8.33333333" y2="16" id="直线备份-11"></line>
                                    <line x1="9" y1="0" x2="9" y2="16" id="直线备份-12"></line>
                                    <line x1="9.66666667" y1="0" x2="9.66666667" y2="16" id="直线备份-13"></line>
                                    <line x1="10.3333333" y1="0" x2="10.3333333" y2="16" id="直线备份-14"></line>
                                    <line x1="11" y1="0" x2="11" y2="16" id="直线备份-15"></line>
                                    <line x1="11.6666667" y1="0" x2="11.6666667" y2="16" id="直线备份-16"></line>
                                    <line x1="12.3333333" y1="0" x2="12.3333333" y2="16" id="直线备份-17"></line>
                                    <line x1="13" y1="0" x2="13" y2="16" id="直线备份-18"></line>
                                    <line x1="13.6666667" y1="0" x2="13.6666667" y2="16" id="直线备份-19"></line>
                                    <line x1="14.3333333" y1="0" x2="14.3333333" y2="16" id="直线备份-20"></line>
                                    <line x1="15" y1="0" x2="15" y2="16" id="直线备份-21"></line>
                                </g>
                            </g>
                            <g id="Keyline" opacity="0" transform="translate(0.666667, 1.333333)" stroke="#FFFFFF" stroke-opacity="0.05" stroke-width="0.5">
                                <rect id="正方形-大" x="1.58333333" y="0.916666667" width="11.5" height="11.5" rx="0.666666667"></rect>
                                <rect id="正方形-小" x="3.58333333" y="2.91666667" width="7.5" height="7.5" rx="0.666666667"></rect>
                                <rect id="矩形-竖" x="2.25" y="0.25" width="10.1666667" height="12.8333333" rx="0.666666667"></rect>
                                <rect id="矩形-横" x="0.916666667" y="1.58333333" width="12.8333333" height="10.1666667" rx="0.666666667"></rect>
                                <circle id="圆形" cx="7.33333333" cy="6.66666667" r="6.41666667"></circle>
                                <path d="M7.33333333,0.498965873 L14.2330548,12.4166667 L0.433611821,12.4166667 L7.33333333,0.498965873 Z" id="三角形"></path>
                            </g>
                            <g id="icon" transform="translate(3.333333, 2.666667)" stroke="#FFFFFF" stroke-linecap="round" stroke-linejoin="round" stroke-width="1.33333333">
                                <circle id="椭圆形" cx="4.66666667" cy="2.33333333" r="2.33333333"></circle>
                                <path d="M8.47619048,6.66666667 C8.9495774,6.66666667 9.33333333,7.0504226 9.33333333,7.52380952 L9.33333333,7.92347005 C9.33333333,8.27270303 9.22363365,8.61311295 9.01971827,8.89663047 C8.17100505,10.0766546 6.71998785,10.6666667 4.66666667,10.6666667 C2.61335677,10.6666667 1.16234424,10.0766611 0.313629063,8.89664993 C0.109705639,8.61313343 0,8.27271993 0,7.92348309 L0,7.52380952 C0,7.0504226 0.383755929,6.66666667 0.857142857,6.66666667 L8.47619048,6.66666667 Z" id="路径" transform="translate(4.666667, 8.666667) scale(1, -1) translate(-4.666667, -8.666667) "></path>
                            </g>
                        </g>
                    </g>
                </g>
            </g>
        </g>
    </g>
</svg>