<svg xml:space="preserve" viewBox="0 0 24 24" xmlns="http://www.w3.org/2000/svg"><path clip-rule="evenodd" fill="none" d="M0 0h24v24H0z"/><path d="M12 3a4.5 4.5 0 1 0 0 9 4.5 4.5 0 0 0 0-9zm0 2a2.5 2.5 0 1 1 0 5 2.5 2.5 0 0 1 0-5zm0 16a1 1 0 0 0 .117-1.993L12 19H6.286a.285.285 0 0 1-.278-.22L6 18.714v-.6c0-.314.099-.621.282-.876C7.346 15.761 9.216 15 12 15a1 1 0 0 0 0-2c-3.376 0-5.859 1.009-7.341 3.071a3.495 3.495 0 0 0-.65 1.8L4 18.115v.6c0 1.21.94 2.2 2.129 2.28l.157.005H12zm5-7.9a.9.9 0 0 1 .893.787L17.9 14l-.001 2.1H20a.9.9 0 0 1 .113 1.793L20 17.9l-2.101-.001L17.9 20a.9.9 0 0 1-1.793.113L16.1 20v-2.101L14 17.9a.9.9 0 0 1-.113-1.793L14 16.1h2.1V14a.9.9 0 0 1 .9-.9z"/></svg>