<svg xml:space="preserve" viewBox="0 0 24 24" xmlns="http://www.w3.org/2000/svg"><path clip-rule="evenodd" fill="none" d="M0 0h24v24H0z"/><path d="M12 3a4.5 4.5 0 1 0 0 9 4.5 4.5 0 0 0 0-9zm0 2a2.5 2.5 0 1 1 0 5 2.5 2.5 0 0 1 0-5zm5.714 16H6.286A2.285 2.285 0 0 1 4 18.714v-.6c0-.733.23-1.448.659-2.044C6.141 14.009 8.624 13 12 13c3.376 0 5.859 1.009 7.341 3.071.429.596.659 1.31.659 2.044v.599A2.285 2.285 0 0 1 17.714 21zM6.286 19h11.429a.286.286 0 0 0 .285-.286v-.599c0-.314-.099-.621-.282-.876C16.654 15.761 14.784 15 12 15s-4.654.761-5.718 2.239a1.502 1.502 0 0 0-.282.876v.6c0 .157.128.285.286.285z"/></svg>