<svg xml:space="preserve" viewBox="0 0 24 24" xmlns="http://www.w3.org/2000/svg"><path clip-rule="evenodd" fill="none" d="M0 0h24v24H0z"/><path d="M12 3a4.5 4.5 0 1 0 0 9 4.5 4.5 0 0 0 0-9zm0 2a2.5 2.5 0 1 1 0 5 2.5 2.5 0 0 1 0-5zm-.997 16a1 1 0 0 0 .117-1.993L11.003 19H6.286a.285.285 0 0 1-.278-.22L6 18.714v-.6c0-.314.099-.621.282-.876.942-1.309 2.509-2.052 4.79-2.208a1 1 0 1 0-.137-1.995c-2.835.194-4.956 1.199-6.277 3.036a3.495 3.495 0 0 0-.65 1.8L4 18.115v.6c0 1.21.94 2.2 2.129 2.28l.157.005h4.717zm6.497-7.498c.322 0 .619.172.779.45l1.5 2.598a.899.899 0 0 1 0 .9l-1.5 2.598a.901.901 0 0 1-.779.45h-3a.899.899 0 0 1-.779-.45l-1.5-2.598a.899.899 0 0 1 0-.9l1.5-2.598a.901.901 0 0 1 .779-.45h3zm-.519 1.799H15.02L14.04 17l.98 1.698h1.961l.98-1.698-.98-1.699zM16 16.2a.8.8 0 1 1 0 1.6.8.8 0 0 1 0-1.6z"/></svg>