<svg xml:space="preserve" viewBox="0 0 24 24" xmlns="http://www.w3.org/2000/svg"><path clip-rule="evenodd" fill="none" d="M0 0h24v24H0z"/><path d="M12 3a4.5 4.5 0 1 0 0 9 4.5 4.5 0 0 0 0-9zm0 2a2.5 2.5 0 1 1 0 5 2.5 2.5 0 0 1 0-5zm-.002 16a1 1 0 0 0 .117-1.993L11.998 19H6.286a.285.285 0 0 1-.278-.22L6 18.714v-.6c0-.314.099-.621.282-.876.942-1.309 2.509-2.052 4.79-2.208a1 1 0 1 0-.137-1.995c-2.835.194-4.956 1.199-6.277 3.036a3.495 3.495 0 0 0-.65 1.8L4 18.115v.6c0 1.21.94 2.2 2.129 2.28l.157.005h5.712zm4.502-7.9a3.4 3.4 0 0 1 2.938 5.113.98.98 0 0 1 .107.07l.092.081 1 1a.901.901 0 0 1-1.181 1.354l-.092-.081-1-1a.9.9 0 0 1-.151-.2A3.4 3.4 0 1 1 16.5 13.1zm0 1.8a1.6 1.6 0 1 0 0 3.2 1.6 1.6 0 0 0 0-3.2z"/></svg>