<?xml version="1.0" encoding="UTF-8"?>
<svg width="24px" height="24px" viewBox="0 0 24 24" version="1.1" xmlns="http://www.w3.org/2000/svg" xmlns:xlink="http://www.w3.org/1999/xlink">
    <g id="页面-1" stroke="none" stroke-width="1" fill="none" fill-rule="evenodd">
        <g id="跨多组团任务反馈" transform="translate(-554.000000, -391.000000)">
            <g id="06反馈-/-01弹出框-/-03表单型备份-2" transform="translate(498.000000, 298.000000)">
                <g id="06反馈-/-04全局提示-/-警告" transform="translate(32.000000, 80.000000)">
                    <g id="01图标-/-01通用图标-/-01单色线性-/-抽象-/-成功" transform="translate(24.000000, 13.000000)">
                        <rect id="背景" fill="#FFC036" opacity="0" x="0" y="0" width="24" height="24"></rect>
                        <g id="网格" opacity="0" stroke="#FFC036" stroke-linecap="square" stroke-width="0.1">
                            <g id="竖线" transform="translate(0.500000, 0.000000)">
                                <line x1="0.5" y1="0" x2="0.5" y2="24" id="直线"></line>
                                <line x1="1.5" y1="0" x2="1.5" y2="24" id="直线"></line>
                                <line x1="2.5" y1="0" x2="2.5" y2="24" id="直线备份"></line>
                                <line x1="3.5" y1="0" x2="3.5" y2="24" id="直线备份-2"></line>
                                <line x1="4.5" y1="0" x2="4.5" y2="24" id="直线备份-3"></line>
                                <line x1="5.5" y1="0" x2="5.5" y2="24" id="直线备份-4"></line>
                                <line x1="6.5" y1="0" x2="6.5" y2="24" id="直线备份-5"></line>
                                <line x1="7.5" y1="0" x2="7.5" y2="24" id="直线备份-6"></line>
                                <line x1="8.5" y1="0" x2="8.5" y2="24" id="直线备份-7"></line>
                                <line x1="9.5" y1="0" x2="9.5" y2="24" id="直线备份-8"></line>
                                <line x1="10.5" y1="0" x2="10.5" y2="24" id="直线备份-9"></line>
                                <line x1="11.5" y1="0" x2="11.5" y2="24" id="直线备份-10"></line>
                                <line x1="12.5" y1="0" x2="12.5" y2="24" id="直线备份-11"></line>
                                <line x1="13.5" y1="0" x2="13.5" y2="24" id="直线备份-12"></line>
                                <line x1="14.5" y1="0" x2="14.5" y2="24" id="直线备份-13"></line>
                                <line x1="15.5" y1="0" x2="15.5" y2="24" id="直线备份-14"></line>
                                <line x1="16.5" y1="0" x2="16.5" y2="24" id="直线备份-15"></line>
                                <line x1="17.5" y1="0" x2="17.5" y2="24" id="直线备份-16"></line>
                                <line x1="18.5" y1="0" x2="18.5" y2="24" id="直线备份-17"></line>
                                <line x1="19.5" y1="0" x2="19.5" y2="24" id="直线备份-18"></line>
                                <line x1="20.5" y1="0" x2="20.5" y2="24" id="直线备份-19"></line>
                                <line x1="21.5" y1="0" x2="21.5" y2="24" id="直线备份-20"></line>
                                <line x1="22.5" y1="0" x2="22.5" y2="24" id="直线备份-21"></line>
                            </g>
                            <g id="横线" transform="translate(12.000000, 12.000000) rotate(-270.000000) translate(-12.000000, -12.000000) translate(0.500000, 0.000000)">
                                <line x1="0.5" y1="0" x2="0.5" y2="24" id="直线"></line>
                                <line x1="1.5" y1="0" x2="1.5" y2="24" id="直线"></line>
                                <line x1="2.5" y1="0" x2="2.5" y2="24" id="直线备份"></line>
                                <line x1="3.5" y1="0" x2="3.5" y2="24" id="直线备份-2"></line>
                                <line x1="4.5" y1="0" x2="4.5" y2="24" id="直线备份-3"></line>
                                <line x1="5.5" y1="0" x2="5.5" y2="24" id="直线备份-4"></line>
                                <line x1="6.5" y1="0" x2="6.5" y2="24" id="直线备份-5"></line>
                                <line x1="7.5" y1="0" x2="7.5" y2="24" id="直线备份-6"></line>
                                <line x1="8.5" y1="0" x2="8.5" y2="24" id="直线备份-7"></line>
                                <line x1="9.5" y1="0" x2="9.5" y2="24" id="直线备份-8"></line>
                                <line x1="10.5" y1="0" x2="10.5" y2="24" id="直线备份-9"></line>
                                <line x1="11.5" y1="0" x2="11.5" y2="24" id="直线备份-10"></line>
                                <line x1="12.5" y1="0" x2="12.5" y2="24" id="直线备份-11"></line>
                                <line x1="13.5" y1="0" x2="13.5" y2="24" id="直线备份-12"></line>
                                <line x1="14.5" y1="0" x2="14.5" y2="24" id="直线备份-13"></line>
                                <line x1="15.5" y1="0" x2="15.5" y2="24" id="直线备份-14"></line>
                                <line x1="16.5" y1="0" x2="16.5" y2="24" id="直线备份-15"></line>
                                <line x1="17.5" y1="0" x2="17.5" y2="24" id="直线备份-16"></line>
                                <line x1="18.5" y1="0" x2="18.5" y2="24" id="直线备份-17"></line>
                                <line x1="19.5" y1="0" x2="19.5" y2="24" id="直线备份-18"></line>
                                <line x1="20.5" y1="0" x2="20.5" y2="24" id="直线备份-19"></line>
                                <line x1="21.5" y1="0" x2="21.5" y2="24" id="直线备份-20"></line>
                                <line x1="22.5" y1="0" x2="22.5" y2="24" id="直线备份-21"></line>
                            </g>
                        </g>
                        <g id="Keyline" opacity="0" transform="translate(1.000000, 2.000000)" stroke="#FFC036" stroke-opacity="0.05" stroke-width="0.5">
                            <rect id="正方形-大" x="2.25" y="1.25" width="17.5" height="17.5" rx="1"></rect>
                            <rect id="正方形-小" x="5.25" y="4.25" width="11.5" height="11.5" rx="1"></rect>
                            <rect id="矩形-竖" x="3.25" y="0.25" width="15.5" height="19.5" rx="1"></rect>
                            <rect id="矩形-横" x="1.25" y="2.25" width="19.5" height="15.5" rx="1"></rect>
                            <circle id="圆形" cx="11" cy="10" r="9.75"></circle>
                            <path d="M11,0.498965873 L21.5663882,18.75 L0.433611821,18.75 L11,0.498965873 Z" id="三角形"></path>
                        </g>
                        <g id="icon" transform="translate(2.122227, 3.458064)" fill="#FFC036" fill-rule="nonzero">
                            <path d="M8.76068064,0.263749829 C9.92654896,-0.320005166 11.3617289,0.0923520384 12.032609,1.23284806 L19.409984,13.7743856 C19.6359791,14.1585772 19.7551484,14.596204 19.7551484,15.0419359 C19.7551484,16.4226478 18.6358603,17.5419359 17.2551484,17.5419359 L2.50039838,17.5419359 C2.05466643,17.5419359 1.61703968,17.4227665 1.23284806,17.1967715 C0.0427652549,16.4967228 -0.35448587,14.9644684 0.345562839,13.7743856 L7.72293788,1.23284806 C7.93845797,0.866463894 8.24383893,0.561082938 8.6102231,0.345562839 Z M9.87777341,12.1419359 C9.21503171,12.1419359 8.67777341,12.6791942 8.67777341,13.3419359 C8.67777341,14.0046776 9.21503171,14.5419359 9.87777341,14.5419359 C10.5405151,14.5419359 11.0777734,14.0046776 11.0777734,13.3419359 C11.0777734,12.6791942 10.5405151,12.1419359 9.87777341,12.1419359 Z M9.87777341,5.54193594 C9.32548866,5.54193594 8.87777341,5.98965119 8.87777341,6.54193594 L8.87777341,10.5419359 L8.88450114,10.6585571 C8.94226625,11.1558957 9.36493757,11.5419359 9.87777341,11.5419359 C10.4300582,11.5419359 10.8777734,11.0942207 10.8777734,10.5419359 L10.8777734,6.54193594 L10.8710457,6.42531481 C10.8132806,5.92797613 10.3906093,5.54193594 9.87777341,5.54193594 Z" id="形状结合"></path>
                        </g>
                    </g>
                </g>
            </g>
        </g>
    </g>
</svg>