
<?xml version="1.0" encoding="utf-8"?>
<!-- Generator: Adobe Illustrator 27.1.1, SVG Export Plug-In . SVG Version: 6.00 Build 0)  -->
<svg version="1.1" id="图层_1" xmlns="http://www.w3.org/2000/svg" xmlns:xlink="http://www.w3.org/1999/xlink" x="0px" y="0px"
	 viewBox="0 0 24 24" style="enable-background:new 0 0 24 24;" xml:space="preserve">
<style type="text/css">
	.st0{fill-rule:evenodd;clip-rule:evenodd;fill:#FFFFFF;fill-opacity:0;}
</style>
<rect id="背景" class="st0" width="24" height="24"/>
<path id="icon" d="M20.9,15.6c0.2,0.5,0.1,1-0.3,1.3l-0.1,0.1l-8,4c-0.2,0.1-0.5,0.1-0.8,0.1l-0.1-0.1l-8-4
	c-0.5-0.2-0.7-0.8-0.4-1.3c0.2-0.5,0.8-0.7,1.2-0.5l0.1,0l7.6,3.8l7.6-3.8C20,14.9,20.6,15.1,20.9,15.6z M20.9,11.6
	c0.2,0.5,0.1,1-0.3,1.3l-0.1,0.1l-8,4c-0.2,0.1-0.5,0.1-0.8,0.1l-0.1-0.1l-8-4c-0.5-0.2-0.7-0.8-0.4-1.3c0.2-0.5,0.8-0.7,1.2-0.5
	l0.1,0l7.6,3.8l7.6-3.8C20,10.9,20.6,11.1,20.9,11.6z M12.4,3.1l8,4c0.7,0.4,0.7,1.4,0,1.8l-8,4c-0.3,0.1-0.6,0.1-0.9,0l-8-4
	c-0.7-0.4-0.7-1.4,0-1.8l8-4C11.8,3,12.2,3,12.4,3.1z"/>
</svg>
