<svg xml:space="preserve" viewBox="0 0 24 24" xmlns="http://www.w3.org/2000/svg"><path clip-rule="evenodd" fill="none" d="M0 0h24v24H0z"/><path d="M15 3a2 2 0 0 1 2 2v1h2c1.054 0 1.918.816 1.995 1.851L21 8v10a3 3 0 0 1-3 3H6a3 3 0 0 1-3-3V8a2 2 0 0 1 2-2h2V5c0-1.054.816-1.918 1.851-1.995L9 3h6zm4 11h-4.5v1a1 1 0 0 1-.883.993L13.5 16h-3a1 1 0 0 1-1-1v-1H5v4a1 1 0 0 0 .883.993L6 19h12a1 1 0 0 0 1-1v-4zm-6.5-2h-1v2h1v-2zM19 8H5v4h4.5v-1a1 1 0 0 1 .883-.993L10.5 10h3a1 1 0 0 1 1 1v1H19V8zm-4-3H9v1h6V5z"/></svg>