<?xml version="1.0" encoding="UTF-8"?>
<svg width="24px" height="24px" viewBox="0 0 24 24" version="1.1" xmlns="http://www.w3.org/2000/svg" xmlns:xlink="http://www.w3.org/1999/xlink">
    <g id="∟-----工作台" stroke="none" stroke-width="1" fill="none" fill-rule="evenodd">
        <g id="导航栏图标" transform="translate(-47.000000, -181.000000)">
            <g id="01图标-/-01通用图标-/-03实色填充-/-办公-/-首页备份" transform="translate(48.000000, 182.000000)">
                <rect id="背景" fill="#B2D5FF" opacity="0" x="0" y="0" width="22" height="22"></rect>
                <g id="网格" opacity="0" stroke="#B2D5FF" stroke-linecap="square" stroke-width="0.5">
                    <g id="竖线" transform="translate(0.458333, 0.000000)">
                        <line x1="0.458333333" y1="0" x2="0.458333333" y2="22" id="直线"></line>
                        <line x1="1.375" y1="0" x2="1.375" y2="22" id="直线"></line>
                        <line x1="2.29166667" y1="0" x2="2.29166667" y2="22" id="直线备份"></line>
                        <line x1="3.20833333" y1="0" x2="3.20833333" y2="22" id="直线备份-2"></line>
                        <line x1="4.125" y1="0" x2="4.125" y2="22" id="直线备份-3"></line>
                        <line x1="5.04166667" y1="0" x2="5.04166667" y2="22" id="直线备份-4"></line>
                        <line x1="5.95833333" y1="0" x2="5.95833333" y2="22" id="直线备份-5"></line>
                        <line x1="6.875" y1="0" x2="6.875" y2="22" id="直线备份-6"></line>
                        <line x1="7.79166667" y1="0" x2="7.79166667" y2="22" id="直线备份-7"></line>
                        <line x1="8.70833333" y1="0" x2="8.70833333" y2="22" id="直线备份-8"></line>
                        <line x1="9.625" y1="0" x2="9.625" y2="22" id="直线备份-9"></line>
                        <line x1="10.5416667" y1="0" x2="10.5416667" y2="22" id="直线备份-10"></line>
                        <line x1="11.4583333" y1="0" x2="11.4583333" y2="22" id="直线备份-11"></line>
                        <line x1="12.375" y1="0" x2="12.375" y2="22" id="直线备份-12"></line>
                        <line x1="13.2916667" y1="0" x2="13.2916667" y2="22" id="直线备份-13"></line>
                        <line x1="14.2083333" y1="0" x2="14.2083333" y2="22" id="直线备份-14"></line>
                        <line x1="15.125" y1="0" x2="15.125" y2="22" id="直线备份-15"></line>
                        <line x1="16.0416667" y1="0" x2="16.0416667" y2="22" id="直线备份-16"></line>
                        <line x1="16.9583333" y1="0" x2="16.9583333" y2="22" id="直线备份-17"></line>
                        <line x1="17.875" y1="0" x2="17.875" y2="22" id="直线备份-18"></line>
                        <line x1="18.7916667" y1="0" x2="18.7916667" y2="22" id="直线备份-19"></line>
                        <line x1="19.7083333" y1="0" x2="19.7083333" y2="22" id="直线备份-20"></line>
                        <line x1="20.625" y1="0" x2="20.625" y2="22" id="直线备份-21"></line>
                    </g>
                    <g id="横线" transform="translate(11.000000, 11.000000) rotate(-270.000000) translate(-11.000000, -11.000000) translate(0.458333, 0.000000)">
                        <line x1="0.458333333" y1="0" x2="0.458333333" y2="22" id="直线"></line>
                        <line x1="1.375" y1="0" x2="1.375" y2="22" id="直线"></line>
                        <line x1="2.29166667" y1="0" x2="2.29166667" y2="22" id="直线备份"></line>
                        <line x1="3.20833333" y1="0" x2="3.20833333" y2="22" id="直线备份-2"></line>
                        <line x1="4.125" y1="0" x2="4.125" y2="22" id="直线备份-3"></line>
                        <line x1="5.04166667" y1="0" x2="5.04166667" y2="22" id="直线备份-4"></line>
                        <line x1="5.95833333" y1="0" x2="5.95833333" y2="22" id="直线备份-5"></line>
                        <line x1="6.875" y1="0" x2="6.875" y2="22" id="直线备份-6"></line>
                        <line x1="7.79166667" y1="0" x2="7.79166667" y2="22" id="直线备份-7"></line>
                        <line x1="8.70833333" y1="0" x2="8.70833333" y2="22" id="直线备份-8"></line>
                        <line x1="9.625" y1="0" x2="9.625" y2="22" id="直线备份-9"></line>
                        <line x1="10.5416667" y1="0" x2="10.5416667" y2="22" id="直线备份-10"></line>
                        <line x1="11.4583333" y1="0" x2="11.4583333" y2="22" id="直线备份-11"></line>
                        <line x1="12.375" y1="0" x2="12.375" y2="22" id="直线备份-12"></line>
                        <line x1="13.2916667" y1="0" x2="13.2916667" y2="22" id="直线备份-13"></line>
                        <line x1="14.2083333" y1="0" x2="14.2083333" y2="22" id="直线备份-14"></line>
                        <line x1="15.125" y1="0" x2="15.125" y2="22" id="直线备份-15"></line>
                        <line x1="16.0416667" y1="0" x2="16.0416667" y2="22" id="直线备份-16"></line>
                        <line x1="16.9583333" y1="0" x2="16.9583333" y2="22" id="直线备份-17"></line>
                        <line x1="17.875" y1="0" x2="17.875" y2="22" id="直线备份-18"></line>
                        <line x1="18.7916667" y1="0" x2="18.7916667" y2="22" id="直线备份-19"></line>
                        <line x1="19.7083333" y1="0" x2="19.7083333" y2="22" id="直线备份-20"></line>
                        <line x1="20.625" y1="0" x2="20.625" y2="22" id="直线备份-21"></line>
                    </g>
                </g>
                <g id="Keyline" opacity="0" transform="translate(0.916667, 1.833333)" stroke="#B2D5FF" stroke-opacity="0.05" stroke-width="0.5">
                    <rect id="正方形-大" x="2.08333333" y="1.16666667" width="16" height="16" rx="0.916666667"></rect>
                    <rect id="正方形-小" x="4.83333333" y="3.91666667" width="10.5" height="10.5" rx="0.916666667"></rect>
                    <rect id="矩形-竖" x="3" y="0.25" width="14.1666667" height="17.8333333" rx="0.916666667"></rect>
                    <rect id="矩形-横" x="1.16666667" y="2.08333333" width="17.8333333" height="14.1666667" rx="0.916666667"></rect>
                    <circle id="圆形" cx="10.0833333" cy="9.16666667" r="8.91666667"></circle>
                    <path d="M10.0833333,0.498965873 L19.7330548,17.1666667 L0.433611821,17.1666667 L10.0833333,0.498965873 Z" id="三角形"></path>
                </g>
                <path d="M8.25,19.25 C7.74373898,19.25 7.33333333,18.8395944 7.33333333,18.3333333 C7.33333333,17.8632338 7.68720351,17.4757851 8.1430973,17.4228338 L8.25,17.4166667 L10.085,17.416 L10.085,15.583 L5.5,15.5833333 C4.03746816,15.5833333 2.84159572,14.4416287 2.75501879,13.0008557 L2.75,12.8333333 L2.75,5.5 C2.75,3.98121694 3.98121694,2.75 5.5,2.75 L16.5,2.75 C18.0187831,2.75 19.25,3.98121694 19.25,5.5 L19.25,12.8333333 C19.25,14.3521164 18.0187831,15.5833333 16.5,15.5833333 L11.919,15.583 L11.919,17.416 L13.75,17.4166667 C14.256261,17.4166667 14.6666667,17.8270723 14.6666667,18.3333333 C14.6666667,18.8034329 14.3127965,19.1908816 13.8569027,19.2438329 L13.75,19.25 L8.25,19.25 Z" id="形状结合" fill="#B2D5FF" fill-rule="nonzero"></path>
            </g>
        </g>
    </g>
</svg>