<svg xml:space="preserve" viewBox="0 0 24 24" xmlns="http://www.w3.org/2000/svg"><path clip-rule="evenodd" fill="none" d="M0 0h24v24H0z"/><path d="M12 2c5.523 0 10 4.477 10 10s-4.477 10-10 10S2 17.523 2 12 6.477 2 12 2zm0 2a8 8 0 1 0 0 16 8 8 0 0 0 0-16zm2.5 3c.852 0 1.297.986.783 1.623l-.076.085-2.232 2.232.014.012.048.048H16a1 1 0 0 1 .117 1.993L16 13h-1.653c.08.257.129.519.146.784L14.5 14c0 1.37-.84 2.63-2.4 3.8a1 1 0 0 1-1.215-.011l-.092-.081-1-1a.999.999 0 0 1 1.32-1.497l.094.083.354.353.056-.051c.555-.539.835-1.033.878-1.475L12.5 14c0-.308-.118-.642-.367-1H8a1 1 0 0 1-.117-1.993L8 11l2.5.001c0-.218.07-.436.213-.618l.08-.09L12.084 9H9.5a1 1 0 0 1-.993-.883L8.5 8a1 1 0 0 1 .883-.993L9.5 7h5z"/></svg>